<svg xmlns="http://www.w3.org/2000/svg" viewBox="0 0 4000 4000">
  <polygon points="3353.68 856.36 3400.25 716.65 3493.39 856.36 3353.68 856.36"/>
  <polygon points="2560.21 3003.45 2712.98 2774.29 2722.63 2779.52 2606.73 3049.96 2560.21 3003.45"/>
  <polygon points="1346.77 3050.23 1393.18 3050.23 1490.27 3212.05 1481.24 3218.33 1346.77 3050.23"/>
  <polygon points="1253.65 1136.71 1439.82 1183.25 1439.82 1276.33 1253.65 1136.71"/>
  <polygon points="2560.18 1183.25 2746.34 1136.71 2560.18 1276.33 2560.18 1183.25"/>
  <polygon points="2233.54 1463.41 2326.59 1509.94 2280.06 1602.99 2233.54 1463.41"/>
  <path d="M2467.14,1556.47l92.99-46.49s.05-.05.05-.09v-93.35s-.02-.07-.05-.09l-92.98-46.49h92.9l46.62,46.62v93.27l-46.62,46.62h-92.9Z"/>
  <polygon points="2000.1 2023.21 2000.1 1603.4 2373.23 1789.96 2279.99 1883.21 2046.65 2023.21 2000.1 2023.21"/>
  <polygon points="1393.37 1603.39 1533.2 1649.99 1626.45 1789.87 1439.99 1836.49 1393.37 1603.39"/>
  <polygon points="2093.47 2256.73 2326.56 2163.49 2194.48 2559.75 2093.47 2256.73"/>
  <polygon points="2047.02 2023.21 2280.03 1883.41 2326.58 1929.96 2279.99 1976.55 2140.01 2023.21 2047.02 2023.21"/>
  <polygon points="1953.35 2023.21 1720.01 1883.21 1626.77 1789.96 1999.9 1603.4 1999.9 2023.21 1953.35 2023.21"/>
  <polygon points="1206.64 1276.7 1346.44 1369.9 1299.82 1463.15 1206.64 1509.74 1206.64 1276.7"/>
  <polygon points="1440.28 1976.8 1673.24 2023.4 1813.09 2116.63 1673.3 2163.22 1440.28 1976.8"/>
  <polygon points="2326.81 1929.96 2280.18 1883.28 2373.39 1790.07 2559.89 1976.57 2326.81 2023.19 2326.81 1929.96"/>
  <polygon points="2606.89 1603.21 2700.14 1463.34 2793.34 1509.94 2746.72 1696.43 2606.89 1603.21"/>
  <polygon points="2326.76 1183.08 2186.97 1043.3 2746.31 1136.52 2560.08 1183.08 2326.76 1183.08"/>
  <polygon points="1673.38 1183.22 1813.21 1043.38 1813.21 1183.13 1673.38 1276.34 1673.38 1183.22"/>
  <polygon points="1206.71 1089.86 1439.28 996.84 1253.23 1136.38 1206.71 1089.86"/>
  <polygon points="833.24 1183.29 1066.41 1229.92 1019.76 1509.83 786.59 1649.73 833.24 1183.29"/>
  <polygon points="2559.99 2475.15 2559.99 3003.4 2373.55 3096.62 2559.99 2475.15"/>
  <polygon points="2560.18 2396.66 2560.18 1977.04 2653.33 2163.33 2577.99 2414.47 2560.18 2396.66"/>
  <polygon points="2746.88 1696.9 2933.37 1976.64 2746.88 2489.5 2746.88 1696.9"/>
  <polygon points="599.91 716.5 786.38 669.88 786.38 809.71 646.52 856.34 599.91 716.5"/>
  <polygon points="599.93 1509.88 646.44 1463.37 786 1649.44 599.93 1509.88"/>
  <polygon points="1253.34 3143.49 1346.53 3050.3 1532.9 3516.23 1253.34 3143.49"/>
  <polygon points="1346.9 3050.7 1533.16 3283.54 1533.16 3516.38 1346.9 3050.7"/>
  <polygon points="2373.46 3190.22 2606.48 3050.41 2466.67 3283.42 2140.46 3376.62 2373.46 3190.22"/>
  <polygon points="2466.83 3283.54 2653.1 3050.71 2466.83 3516.38 2466.83 3283.54"/>
  <polygon points="2746.89 2490.09 3166.29 2210.49 2793.49 2629.88 2746.89 2490.09"/>
  <polygon points="3353.64 1463.19 3400.29 1136.65 3493.45 1183.23 3400.17 1509.71 3353.64 1463.19"/>
</svg>