<svg xmlns="http://www.w3.org/2000/svg" viewBox="0 0 4000 4000">
  <polygon points="3213.62 809.71 3213.62 669.88 3400.09 716.5 3353.48 856.34 3213.62 809.71"/>
  <polygon points="1346.64 3050.03 1277.61 2808.45 1287.98 2804.77 1393.09 3050.03 1346.64 3050.03"/>
  <polygon points="1393.39 3050.11 1439.93 3003.58 1626.51 3096.87 1626.51 3189.99 1393.39 3050.11"/>
  <polygon points="2000.28 1089.86 2186.6 1043.26 2186.6 1183.02 2000.28 1089.86"/>
  <polygon points="2326.9 1509.85 2466.75 1369.99 2559.99 1416.6 2559.99 1509.83 2466.73 1556.46 2326.9 1509.85"/>
  <polygon points="2373.46 1323.32 2559.31 1369.77 2466.74 1369.77 2326.89 1509.58 2373.46 1323.32"/>
  <polygon points="2233.53 1463.19 2373.22 1323.51 2326.65 1509.75 2233.53 1463.19"/>
  <path d="M1439.95,1556.47l-46.62-46.62v-93.27l46.62-46.62h92.9l-92.98,46.49s-.05.05-.05.09v93.35s.02.07.05.09l92.98,46.49h-92.9Z"/>
  <path d="M1393.3,1603.16l-93.3-139.95,46.64-93.27,93.3-46.65h185.89l-180.59,45.15.02.1-5.35,1.34c-.09.02-.16.04-.2.06l-46.54,46.54-.03,93.41,46.7,46.74,93.41.03,139.97-46.65,46.58,93.17-186.55,46.64-139.96-46.66Z"/>
  <polygon points="1859.99 2023.21 1720.01 1976.55 1673.42 1929.96 1719.97 1883.41 1952.98 2023.21 1859.99 2023.21"/>
  <polygon points="1673.44 2163.49 1906.53 2256.73 1805.53 2559.75 1673.44 2163.49"/>
  <polygon points="1953.17 1370.23 1906.56 1649.85 1626.95 1789.66 1953.17 1370.23"/>
  <polygon points="1253.31 1696.9 1439.8 1976.64 1346.48 2163.28 1253.31 2489.38 1253.31 1696.9"/>
  <polygon points="1906.88 3236.73 2000 3143.61 2093.12 3236.73 1906.88 3236.73"/>
  <polygon points="2606.83 1603.4 2746.62 1696.59 2560.23 1836.39 2606.83 1603.4"/>
  <polygon points="2187.09 1043.13 2326.73 996.58 2560.06 996.58 2746.41 1136.34 2187.09 1043.13"/>
  <polygon points="1066.63 1976.64 1253.12 1696.9 1253.12 2489.5 1066.63 1976.64"/>
  <polygon points="1422.07 2414.67 1439.82 2396.93 1439.82 2473.83 1422.07 2414.67"/>
  <polygon points="1440.01 2474.47 1440.01 2396.74 1673.17 2163.57 1626.54 3096.24 1440.01 2474.47"/>
  <polygon points="1626.71 3190.07 1626.71 3096.91 1999.79 3143.55 1906.62 3236.73 1626.71 3190.07"/>
  <polygon points="1626.96 3190.31 1906.53 3236.9 1859.93 3376.69 1626.96 3190.31"/>
  <polygon points="2560.18 2396.93 2577.93 2414.68 2560.18 2473.84 2560.18 2396.93"/>
  <polygon points="2746.88 1696.57 2793.53 1509.99 2980.05 1509.99 2933.41 1976.35 2746.88 1696.57"/>
  <polygon points="2980.24 1509.83 2933.59 1229.92 3166.76 1183.29 3213.41 1649.73 2980.24 1509.83"/>
  <polygon points="1813.54 1043.13 1673.42 996.42 1999.9 343.45 1999.9 1089.7 1813.54 1043.13"/>
  <polygon points="1486.58 436.66 1673.15 996.38 1439.91 996.38 1206.72 1089.65 1486.58 436.66"/>
  <path d="M646.55,1463.18l-46.67-326.68,46.66-279.97,139.94-46.65,186.38,46.59-233.1,93.24s-.05.04-.06.07l-46.67,233.37,93.26,466.36-139.75-186.34Z"/>
  <polygon points="693.23 1183.18 739.89 949.87 972.99 856.64 833.07 1183.14 786.45 1649.27 693.23 1183.18"/>
  <polygon points="833.71 2210.49 1253.1 2490.08 1206.51 2629.88 833.71 2210.49"/>
  <polygon points="1533.36 3283.63 1859.69 3376.87 1533.36 3516.73 1533.36 3283.63"/>
  <polygon points="1533.54 3516.86 1859.93 3376.97 1999.81 3656.73 1533.54 3516.86"/>
</svg>