<svg xmlns="http://www.w3.org/2000/svg" viewBox="0 0 4000 4000">
  <polygon points="2509.72 3212.06 2606.82 3050.23 2653.24 3050.23 2518.75 3218.34 2509.72 3212.06"/>
  <polygon points="2046.82 1369.83 2186.72 1183.31 2326.59 1276.56 2233.33 1463.09 2046.82 1369.83"/>
  <rect x="1440.01" y="1183.27" width="233.18" height="93.15"/>
  <rect x="2326.81" y="1183.27" width="233.18" height="93.15"/>
  <path d="M2280.18,1603.18l46.58-93.17,139.94,46.65h93.38s46.74-46.7,46.74-46.7l.03-93.41-46.57-46.61s-.11-.04-.2-.06l-5.36-1.34.03-.1-180.58-45.14h185.89l93.3,46.65,46.63,93.27-93.3,139.95-139.97,46.66-186.55-46.64Z"/>
  <polygon points="2280.22 1603.39 2466.58 1649.97 2373.41 1789.74 2280.22 1603.39"/>
  <polygon points="1673.55 2163.33 1953.19 2070.13 1906.59 2256.55 1673.55 2163.33"/>
  <polygon points="1805.63 2560.06 1906.72 2256.77 2093.28 2256.77 2194.37 2560.05 2000 3143.17 1805.63 2560.06"/>
  <polygon points="1626.79 1323.51 1766.47 1463.19 1673.35 1509.75 1626.79 1323.51"/>
  <polygon points="1440.01 1976.83 1673.14 2163.33 1440.01 2396.47 1440.01 1976.83"/>
  <polygon points="2194.57 2560.05 2326.65 2163.84 2373.26 3096.12 2194.57 2560.05"/>
  <polygon points="2653.53 2163.3 2560.2 1976.64 2746.68 1696.9 2746.68 2489.35 2653.53 2163.3"/>
  <polygon points="2186.79 1183.13 2186.79 1043.39 2326.62 1183.22 2326.62 1276.34 2186.79 1183.13"/>
  <path d="M2000.53,1603.4c-.12-.04-.24-.08-.38-.13-.05-.01-.16-.03-.16-.03,0,0-.11.02-.16.03-.13.05-.26.09-.37.13l-92.69,46.34,46.63-279.78h93.19l46.63,279.78-92.69-46.34Z"/>
  <polygon points="1673.41 1276.56 1813.28 1183.31 1953.18 1369.84 1766.67 1463.09 1673.41 1276.56"/>
  <polygon points="1439.95 996.58 1673.27 996.58 1812.94 1043.12 1253.59 1136.34 1439.95 996.58"/>
  <polygon points="1066.7 1229.81 1206.54 1089.96 1253.11 1136.53 1206.48 1276.4 1066.7 1229.81"/>
  <polygon points="1253.34 2489.96 1346.57 2163.67 1421.85 2414.62 1206.76 2629.71 1253.34 2489.96"/>
  <polygon points="1860.11 3376.75 1906.72 3236.93 2093.28 3236.93 2139.89 3376.75 1860.11 3376.75"/>
  <polygon points="2578.15 2414.62 2653.44 2163.66 2746.73 2490.19 2793.24 2629.71 2578.15 2414.62"/>
  <polygon points="2513.6 436.6 2886.73 623.16 3026.7 856.44 2793.49 1089.66 2513.6 436.6"/>
  <polygon points="2560.12 996.39 2326.85 996.38 2513.43 436.66 2793.28 1089.65 2560.12 996.39"/>
  <polygon points="2000.17 343.18 2513.29 436.47 2326.7 996.23 2000.17 343.18"/>
  <polygon points="1813.4 1043.28 1999.72 1089.86 1813.4 1183.02 1813.4 1043.28"/>
  <polygon points="1486.72 436.47 1999.83 343.18 1673.3 996.23 1486.72 436.47"/>
  <polygon points="506.61 856.36 599.75 716.65 646.32 856.36 506.61 856.36"/>
  <polygon points="786.58 1649.96 1019.7 1510.1 833.2 2209.44 786.58 1649.96"/>
  <polygon points="1533.32 3283.42 1393.52 3050.41 1626.55 3190.23 1859.55 3376.62 1533.32 3283.42"/>
  <polygon points="2140.07 3376.97 2466.46 3516.86 2000.19 3656.73 2140.07 3376.97"/>
  <polygon points="2140.31 3376.87 2466.64 3283.63 2466.64 3516.73 2140.31 3376.87"/>
  <polygon points="3353.55 1463.37 3400.07 1509.88 3214 1649.44 3353.55 1463.37"/>
</svg>