<svg xmlns="http://www.w3.org/2000/svg" viewBox="0 0 4000 4000">
  <polygon points="2606.91 3050.03 2712.01 2804.77 2722.38 2808.46 2653.36 3050.03 2606.91 3050.03"/>
  <polygon points="2793.55 1509.8 2793.55 1276.59 2933.4 1229.98 2980.04 1509.8 2793.55 1509.8"/>
  <polygon points="1253.61 1697 1439.86 1836.69 1606.99 1794.94 1626.3 1790.11 1439.93 1976.48 1253.61 1697"/>
  <polygon points="1440.01 3003.4 1440.01 2475.14 1626.45 3096.62 1440.01 3003.4"/>
  <polygon points="2047.01 1370.14 2233.29 1463.29 2279.95 1603.27 2347.98 1739.32 2338.7 1745.17 2047.01 1370.14"/>
  <polygon points="1440.01 1509.83 1440.01 1416.6 1533.24 1369.99 1673.11 1509.85 1533.27 1556.46 1440.01 1509.83"/>
  <polygon points="1533.33 1369.8 1485.48 1369.77 1440.7 1369.77 1626.54 1323.32 1673.1 1509.58 1533.33 1369.8"/>
  <polygon points="1673.41 1509.94 1766.47 1463.41 1719.94 1602.99 1673.41 1509.94"/>
  <polygon points="1533.42 1649.97 1719.78 1603.39 1626.6 1789.75 1533.42 1649.97"/>
  <polygon points="1253.38 1696.59 1393.17 1603.4 1439.77 1836.38 1253.38 1696.59"/>
  <polygon points="1673.38 2023.26 1673.38 1930.19 1719.89 1976.7 1859.95 2023.4 1953.23 2023.4 1953.23 2069.91 1813.32 2116.55 1673.38 2023.26"/>
  <polygon points="2046.81 2070.12 2186.66 2116.74 2326.44 2163.33 2093.41 2256.55 2046.81 2070.12"/>
  <polygon points="2046.77 2069.91 2046.77 2023.4 2140.02 2023.4 2280.08 1976.72 2326.62 1930.19 2326.62 2023.26 2186.68 2116.55 2046.77 2069.91"/>
  <polygon points="1206.66 1509.94 1299.86 1463.34 1393.11 1603.21 1253.28 1696.43 1206.66 1509.94"/>
  <polygon points="2194.47 2560.35 2373.27 3096.73 2000.14 3143.36 2194.47 2560.35"/>
  <polygon points="2186.91 2116.63 2326.76 2023.4 2559.72 1976.8 2326.7 2163.22 2186.91 2116.63"/>
  <polygon points="2373.55 1789.88 2466.8 1649.99 2606.63 1603.39 2560.01 1836.49 2373.55 1789.88"/>
  <polygon points="1019.95 1509.99 1206.47 1509.99 1253.11 1696.57 1066.59 1976.35 1019.95 1509.99"/>
  <polygon points="2000.21 3143.55 2373.3 3096.91 2373.3 3190.07 2093.38 3236.73 2000.21 3143.55"/>
  <polygon points="2326.83 2163.57 2559.99 2396.74 2559.99 2474.48 2373.46 3096.24 2326.83 2163.57"/>
  <polygon points="2373.71 1790.11 2560.07 1836.7 2720.65 1716.3 2746.39 1697 2560.07 1976.48 2373.71 1790.11"/>
  <polygon points="2933.58 1976.59 2980.2 1510.42 3166.67 2209.68 2933.58 1976.59"/>
  <polygon points="2000.1 343.45 2326.58 996.42 2186.88 1043.01 2000.1 1089.7 2000.1 343.45"/>
  <polygon points="1953.37 1369.77 1813.45 1183.21 2000 1089.94 2186.55 1183.21 2046.63 1369.77 1953.37 1369.77"/>
  <polygon points="973.29 856.44 1113.26 623.16 1486.4 436.6 1206.51 1089.66 973.29 856.44"/>
  <polygon points="833.28 1183.11 973.21 856.63 1206.41 1089.83 1066.49 1229.75 833.28 1183.11"/>
  <polygon points="506.53 856.55 646.34 856.55 599.7 1136.44 506.53 1183.02 506.53 856.55"/>
  <polygon points="506.55 1183.23 599.71 1136.65 646.35 1463.19 599.83 1509.71 506.55 1183.23"/>
  <polygon points="2653.54 3050.1 2746.87 2723.44 2793.31 2630.56 2746.71 3143.27 2653.54 3050.1"/>
  <polygon points="3166.94 1183.17 3027 856.63 3260.12 949.87 3306.77 1183.18 3213.55 1649.27 3166.94 1183.17"/>
  <path d="M3306.96,1183.2l-46.67-233.41s-.01-.05-.06-.07l-233.1-93.24,186.38-46.59,139.94,46.65,46.67,279.97-46.67,326.68-139.75,186.34,93.26-466.32Z"/>
</svg>