<svg xmlns="http://www.w3.org/2000/svg" viewBox="0 0 4000 4000">
  <polygon points="3213.43 669.99 3213.43 809.71 3027.14 856.28 3213.43 669.99"/>
  <polygon points="2793.59 1089.83 3026.79 856.63 3166.72 1183.11 2933.51 1229.75 2793.59 1089.83"/>
  <polygon points="2373.49 3096.86 2560.07 3003.58 2606.61 3050.11 2373.49 3189.99 2373.49 3096.86"/>
  <polygon points="1277.36 2779.52 1287.02 2774.29 1439.79 3003.45 1393.27 3049.96 1277.36 2779.52"/>
  <polygon points="2746.89 1136.53 2793.46 1089.96 2933.3 1229.81 2793.51 1276.4 2746.89 1136.53"/>
  <path d="M1627.07,1323.52c-.14-.09-.29-.2-.45-.32,0,0,0,0-.01-.01-.04-.01-.08-.02-.11-.03-.16-.02-.31-.04-.45-.06h-186.14l-93.34,46.66-139.91-93.27,46.61-139.83,186.59,139.94,233.37.02,93.06,186.11-139.21-139.21Z"/>
  <path d="M2326.78,1276.62h233.31l186.65-139.96,46.61,139.83-139.91,93.27-93.3-46.65h-186.19c-.14.01-.3.04-.46.05,0,0-.09.03-.09.03-.17.13-.32.24-.46.34l-139.21,139.21,93.06-186.11Z"/>
  <polygon points="2093.44 1649.85 2046.83 1370.22 2373.06 1789.66 2093.44 1649.85"/>
  <polygon points="1440.11 1976.57 1626.61 1790.07 1719.82 1883.28 1673.21 1929.89 1673.19 2023.19 1440.11 1976.57"/>
  <path d="M1906.78,2256.58l45.38-181.51s1.25-5.21,1.27-5.28v-46.39h93.16v46.39c.02.07,1.38,5.55,1.38,5.55h-.04s45.31,181.24,45.31,181.24h-186.45Z"/>
  <polygon points="1652.03 1739.31 1720.04 1603.28 1766.71 1463.29 1952.99 1370.14 1661.31 1745.16 1652.03 1739.31"/>
  <polygon points="1673.35 2163.84 1805.42 2560.05 1626.74 3096.11 1673.35 2163.84"/>
  <polygon points="1626.74 3096.73 1805.53 2560.36 1999.86 3143.36 1626.74 3096.73"/>
  <polygon points="2326.86 2163.34 2559.99 1976.83 2559.99 2396.47 2326.86 2163.34"/>
  <polygon points="2700.18 1463.15 2653.56 1369.9 2793.36 1276.7 2793.36 1509.74 2700.18 1463.15"/>
  <polygon points="2560.72 996.83 2793.29 1089.86 2746.77 1136.38 2560.72 996.83"/>
  <polygon points="1439.92 1183.08 1253.69 1136.52 1813.02 1043.3 1673.24 1183.08 1439.92 1183.08"/>
  <polygon points="1019.96 1509.8 1066.6 1229.97 1206.45 1276.59 1206.45 1509.8 1019.96 1509.8"/>
  <polygon points="1019.81 1510.43 1066.42 1976.59 833.34 2209.68 1019.81 1510.43"/>
  <polygon points="1346.67 2163.33 1439.82 1977.04 1439.82 2396.66 1422.01 2414.47 1346.67 2163.33"/>
  <polygon points="2093.47 3236.9 2373.05 3190.31 2140.07 3376.69 2093.47 3236.9"/>
  <polygon points="786.57 809.71 786.57 669.99 972.86 856.28 786.57 809.71"/>
  <polygon points="833.3 2209.99 1066.48 1976.8 1253.03 2489.8 833.3 2209.99"/>
  <polygon points="1253.3 2723.36 1206.66 2630.09 1421.92 2414.83 1439.82 2474.5 1439.82 3003.15 1253.3 2723.36"/>
  <polygon points="1206.69 2630.56 1253.13 2723.45 1346.46 3050.1 1253.29 3143.27 1206.69 2630.56"/>
  <polygon points="1860.14 3376.94 2139.87 3376.94 2000 3656.67 1860.14 3376.94"/>
  <polygon points="2653.47 3050.3 2746.66 3143.49 2467.1 3516.23 2653.47 3050.3"/>
  <polygon points="2560.18 2474.51 2578.09 2414.83 2793.34 2630.09 2746.7 2723.36 2560.18 3003.15 2560.18 2474.51"/>
  <polygon points="2933.52 1976.8 3166.7 2209.99 2746.97 2489.8 2933.52 1976.8"/>
  <polygon points="2980.31 1510.1 3213.43 1649.97 3166.8 2209.45 2980.31 1510.1"/>
  <polygon points="3400.3 1136.44 3353.65 856.55 3493.47 856.55 3493.47 1183.02 3400.3 1136.44"/>
</svg>