<svg xmlns="http://www.w3.org/2000/svg" viewBox="0 0 4000 4000">
  <path filter="url(#noise3)" d="m1699.31,1956.73c-6.81,74.59-13.69,149.42-20.46,224.04-5.91,60.94-4.79,103.22,14.92,161.88,19.38,57.4,41.98,118.58,89.89,158.31,37.3,30.23,83.23,37.7,130.27,40.89,2.94.18,6.4.72,9.05,1.01,2.28.08,3.7.36,4.44-.74.49-1.02-1.33-3.17-4.08-6.05-143.96-126.54-207.84-333.65-122.79-510.99"/>
  <path filter="url(#noise4)" d="m1699.31,1956.73c-6.81,74.59-13.69,149.42-20.46,224.04-5.91,60.94-4.79,103.22,14.92,161.88,19.38,57.4,41.98,118.58,89.89,158.31,37.3,30.23,83.23,37.7,130.27,40.89,2.94.18,6.4.72,9.05,1.01,2.28.08,3.7.36,4.44-.74.49-1.02-1.33-3.17-4.08-6.05-143.96-126.54-207.84-333.65-122.79-510.99"/>
  <path filter="url(#noise3)" d="m2390.67,1510.27c-55.79,52.08-96.56,131.11-53.91,204.58,18.35,31.88,44.8,59.76,74.23,81.89,20.9,14.96,45.63,22.86,71.31,24.5,82.91,3.99,165.9,4.47,248.83,8.21,13.45.24,29.11-.11,40.79-7.2,22.59-13.92,26.36-44.98,24.47-69.64-2.05-24.41-10.85-48.55-23.52-68.9-8.32-13.37-18.36-25.71-29.34-36.96-38.22-39.83-88.55-67.91-124.4-110.38-4.43-6.47-5.03-17.63,5.42-14.07,30.62,11.15,49.69,39.16,70.14,62.9,24.38,27.08,68.22,77.92,103.84,85.48,31.3,5.78,52.83-25.34,61.55-51.66,32.2-95.25-50.03-152.16-71.61-235.73-1.69-6.78-.61-14.88,5.98-18.15,7.64-3.87,12.7,4.16,16.52,9.62,8.5,10.95,15.6,22.72,21.62,35.19,17.85,37.09,29.65,81.4,64.34,106.8,29.02,22,68.92,28.37,103.56,17.22,65.94-20.26,100.68-99.4,78.71-162.98-16.68-49.35-62.6-76.9-99.85-109.83-14.26-12.63-27.42-26.04-14.77-45.14,10.17-14.2,39.29-.26,52.36,4.98,49.24,23.18,97.42,59.5,154.73,53.27,72.89-5.68,106.27-91.35,76.05-152.75-8.13-17.03-21.25-32-38.57-40.07-6.91-2.98-14.66-10.1-20.39-4.53-9.54,10.25.49,19.13,10.02,25.36,3.89,2.71,7.89,5.28,12.01,7.61,40.84,24.62,91.91,13.84,104.82-35.82,9.56-42.2,6.7-103.02-20.33-138.24-13.65-18.23-34.47-28.86-55.88-35.44-27.86-8.41-56.02-15.13-83.42-24.77-16.68-6.71-52.95-15.42-59.68-33.18-2.21-6.02-.42-12.93,3.6-17.76,7.83-9.53,24.28-11.6,36.66-11.41,32.91,1.61,67.16,12.72,96.12-9.15,15.59-11.32,20.85-28.79,17.23-47.81-4.44-43.59-37.39-68.5-78.66-87.27-21.27-9.69-43.22-18.01-64.08-26.14-39.34-14.87-84.45-34.12-126.85-23.08-68.1,21.68-68.97,115.57-50.95,172.62,30.91,105.95,117.19,179.09,176.9,268.35,72.71,105.07,81.07,238.43,17.95,350.19"/>
  <path filter="url(#noise4)" d="m2390.67,1510.27c-55.79,52.08-96.56,131.11-53.91,204.58,18.35,31.88,44.8,59.76,74.23,81.89,20.9,14.96,45.63,22.86,71.31,24.5,82.91,3.99,165.9,4.47,248.83,8.21,13.45.24,29.11-.11,40.79-7.2,22.59-13.92,26.36-44.98,24.47-69.64-2.05-24.41-10.85-48.55-23.52-68.9-8.32-13.37-18.36-25.71-29.34-36.96-38.22-39.83-88.55-67.91-124.4-110.38-4.43-6.47-5.03-17.63,5.42-14.07,30.62,11.15,49.69,39.16,70.14,62.9,24.38,27.08,68.22,77.92,103.84,85.48,31.3,5.78,52.83-25.34,61.55-51.66,32.2-95.25-50.03-152.16-71.61-235.73-1.69-6.78-.61-14.88,5.98-18.15,7.64-3.87,12.7,4.16,16.52,9.62,8.5,10.95,15.6,22.72,21.62,35.19,17.85,37.09,29.65,81.4,64.34,106.8,29.02,22,68.92,28.37,103.56,17.22,65.94-20.26,100.68-99.4,78.71-162.98-16.68-49.35-62.6-76.9-99.85-109.83-14.26-12.63-27.42-26.04-14.77-45.14,10.17-14.2,39.29-.26,52.36,4.98,49.24,23.18,97.42,59.5,154.73,53.27,72.89-5.68,106.27-91.35,76.05-152.75-8.13-17.03-21.25-32-38.57-40.07-6.91-2.98-14.66-10.1-20.39-4.53-9.54,10.25.49,19.13,10.02,25.36,3.89,2.71,7.89,5.28,12.01,7.61,40.84,24.62,91.91,13.84,104.82-35.82,9.56-42.2,6.7-103.02-20.33-138.24-13.65-18.23-34.47-28.86-55.88-35.44-27.86-8.41-56.02-15.13-83.42-24.77-16.68-6.71-52.95-15.42-59.68-33.18-2.21-6.02-.42-12.93,3.6-17.76,7.83-9.53,24.28-11.6,36.66-11.41,32.91,1.61,67.16,12.72,96.12-9.15,15.59-11.32,20.85-28.79,17.23-47.81-4.44-43.59-37.39-68.5-78.66-87.27-21.27-9.69-43.22-18.01-64.08-26.14-39.34-14.87-84.45-34.12-126.85-23.08-68.1,21.68-68.97,115.57-50.95,172.62,30.91,105.95,117.19,179.09,176.9,268.35,72.71,105.07,81.07,238.43,17.95,350.19"/>
  <path filter="url(#noise3)" d="m1904.06,557.67c-178.64-28.5-321.39,126.87-379.95,281.07-7.14,20.48-13.63,45.41-3.43,65.83,6.27,13.09,19.6,19.82,33.9,16.85,13.01-2.48,23.34-11.35,31.95-21.18,4.65-5.33,8.72-10.92,12.63-16.71,20.2-30.48,38.55-62.35,57.62-93.53,9.65-15.74,18.69-33.43,31.58-47.23,6.31-6.57,13.95-12.23,23.22-12.65,9.92-.46,20.3,5.94,26.19,14.13,8.69,11.99,11.54,26.06,12.85,41.43,3.06,57.45-16.63,110.8-42.36,160.77-50.94,96.21-130.24,173.73-181.43,269.78-24.01,45.85-37.51,89.05-6.42,135.55,10.49,16.67,23.8,31.9,33.54,49.07,6.93,12.11,11.94,25.17,15.47,38.63,6.35,23.5,7.74,48.5,12.47,72.42,6.33,32.57,21.15,62.31,42.5,87.44,24.27,28.77,54.04,54.37,66.03,91.27"/>
  <path filter="url(#noise4)" d="m1904.06,557.67c-178.64-28.5-321.39,126.87-379.95,281.07-7.14,20.48-13.63,45.41-3.43,65.83,6.27,13.09,19.6,19.82,33.9,16.85,13.01-2.48,23.34-11.35,31.95-21.18,4.65-5.33,8.72-10.92,12.63-16.71,20.2-30.48,38.55-62.35,57.62-93.53,9.65-15.74,18.69-33.43,31.58-47.23,6.31-6.57,13.95-12.23,23.22-12.65,9.92-.46,20.3,5.94,26.19,14.13,8.69,11.99,11.54,26.06,12.85,41.43,3.06,57.45-16.63,110.8-42.36,160.77-50.94,96.21-130.24,173.73-181.43,269.78-24.01,45.85-37.51,89.05-6.42,135.55,10.49,16.67,23.8,31.9,33.54,49.07,6.93,12.11,11.94,25.17,15.47,38.63,6.35,23.5,7.74,48.5,12.47,72.42,6.33,32.57,21.15,62.31,42.5,87.44,24.27,28.77,54.04,54.37,66.03,91.27"/>
</svg>