<svg xmlns="http://www.w3.org/2000/svg" viewBox="0 0 4000 4000">
  <style>
    path { stroke: url(#linear); }
  </style>
  <defs>
    <linearGradient id="linear" x1="100%" y1="100%" x2="0%" y2="0%">
      <stop offset="0%" stop-color="#5a5565" />
      <stop offset="14.28571429%" stop-color="#20245a" />
      <stop offset="28.57142858%" stop-color="#3b54b6" />
      <stop offset="42.85714287%" stop-color="#8499e1" />
      <stop offset="57.14285716%" stop-color="#beb2a9" />
      <stop offset="71.42857145%" stop-color="#8d8385" />
      <stop offset="85.71428574%" stop-color="#b2bad8" />
    </linearGradient>
  </defs>
  <filter id="noise3">
    <feTurbulence baseFrequency="0.045"/>
    <feDisplacementMap in="SourceGraphic" scale="10"/>
  </filter>
  <filter id="noise4">
    <feTurbulence baseFrequency="0.06"/>
    <feDisplacementMap in="SourceGraphic" scale="20"/>
  </filter>
  <path filter="url(#noise3)" d="m1332.99,649.13c148,50,166.07,249.02,155.75,391.2-2.92,65.15-13.3,133.09,6.56,196.48,15.21,44.19,44.75,82.99,53.31,129.63,11.47,55.44,2.72,114.92,24.77,168.28,12.69,31.76,37.1,56.27,61.01,79.99,61.5,56.91,72.28,108.32,45.26,186.96-21.57,62.65-21.74,122.95,34.13,167.39,35.4,29.02,81.15,46.96,114.13,77,39,33.34,45.81,80.65,39.34,129.3-7.48,64.64-18.44,128.97-26.26,193.44-.58,4.51-1.17,7.31-1.6,7.41-.5.08-.63-2.77-.69-3.56,5.13-119.75,11-243.61-35.31-356.58-17.48-43.66-41.93-84.94-74.2-119.29-28.32-27.53-51.22-61.44-59.49-100.52-5.55-34.43,1.73-69.58,7.11-103.59,10.68-63.99,41.87-125.83,35.01-190.99-2-26.61-10.29-52.19-18.87-77.45-15.08-39.86-7.78-82.18-11.86-123.66-2.18-18.05-7.49-36.32-18.92-50.71-14.03-20.71-73.49-45.56-71.88-2.17.88,17.46,11.36,34.08,24.06,45.93,3.02,2.79,10.24,7.81,14.04,9.33l9.62,5.26c4.95,2.99,14.61,10.82,17.97,11.98,2.48.95,3.48-2.25,3.89-3.83,1.13-4.37,1.13-6.37.09-10.56s-3.61-9.15-5.42-11.5c-2.55-3.31-7.85-7.08-12.71-10.85-4.31-2.62-11.62-4.27-16.34-4.63-3.35,3.95,8.98,15.43,12.63,17.77,6.88,4.4,13.1,9.14,16.96,16.57"/>
  <path filter="url(#noise4)" d="m1332.99,649.13c148,50,166.07,249.02,155.75,391.2-2.92,65.15-13.3,133.09,6.56,196.48,15.21,44.19,44.75,82.99,53.31,129.63,11.47,55.44,2.72,114.92,24.77,168.28,12.69,31.76,37.1,56.27,61.01,79.99,61.5,56.91,72.28,108.32,45.26,186.96-21.57,62.65-21.74,122.95,34.13,167.39,35.4,29.02,81.15,46.96,114.13,77,39,33.34,45.81,80.65,39.34,129.3-7.48,64.64-18.44,128.97-26.26,193.44-.58,4.51-1.17,7.31-1.6,7.41-.5.08-.63-2.77-.69-3.56,5.13-119.75,11-243.61-35.31-356.58-17.48-43.66-41.93-84.94-74.2-119.29-28.32-27.53-51.22-61.44-59.49-100.52-5.55-34.43,1.73-69.58,7.11-103.59,10.68-63.99,41.87-125.83,35.01-190.99-2-26.61-10.29-52.19-18.87-77.45-15.08-39.86-7.78-82.18-11.86-123.66-2.18-18.05-7.49-36.32-18.92-50.71-14.03-20.71-73.49-45.56-71.88-2.17.88,17.46,11.36,34.08,24.06,45.93,3.02,2.79,10.24,7.81,14.04,9.33l9.62,5.26c4.95,2.99,14.61,10.82,17.97,11.98,2.48.95,3.48-2.25,3.89-3.83,1.13-4.37,1.13-6.37.09-10.56s-3.61-9.15-5.42-11.5c-2.55-3.31-7.85-7.08-12.71-10.85-4.31-2.62-11.62-4.27-16.34-4.63-3.35,3.95,8.98,15.43,12.63,17.77,6.88,4.4,13.1,9.14,16.96,16.57"/>
  <path filter="url(#noise3)" d="m2363.67,1235.61c-18.28,7.5-40.68,18.58-49.51,36.88,8.67,5.63,23.54-5.67,29.45-12.9,16.4-23.84-25.08-8.4-27.85,4.96-4.76,19.78,27.36,2.88,25.99-7.67-1.47-.86-3.49,1.32-4.98,2.89-8.59,10.24-11.77,24.14-13.32,37.11-9.04,66.96,83.29-69.53,46.6-104.81-46.92-41.21-94.93,54.7-106.45,88.63-56.66,173.95,59.09,338.19,78.56,507.66,4.97,28.94-4.92,56.68-25.65,77.17-27.13,31.77-55.97,62.43-82.46,94.69-4.95,6.6-3.96,1.85-2.32-3.19,14.95-43.48,28.76-90.78,26.53-136.5-94.7,212.48-81.65,451.63-81.06,679.82.28,112.71,3.54,228.25-25.88,338.07-30.13,137.29-161.76,261.89-308.9,225.16-22.28-5.97-52.08-20.9-49.28-46.63,4.21-22.1,23.1-38.9,33.96-58.02,16.97-25.82,32.21-52.5,43.41-81.3,22.9-58.47,26.27-121.86,23.48-183.99-.83-49.72-4.03-119.51-63.48-132.96-43.96-10.61-59.55,38.51-62.25,72.97-8.59,55.23-11.34,111.77-22.05,166.55-13.47-74.31,3.57-158.72,9.11-236.19,9.43-93.72-22.71-183.06-36.94-274.64-8.19-55.88-10.19-112.83-5.23-169.09,10.31-86.17,33.58-222.06-77.47-249.7-82.49-13.72-169,46.19-229.05,97.28-134.73,125.19-69.2,342.6-36.01,499.28,45.4,196.25,89.9,394.07,112.69,594.36.85,34.45-8.52,70.81,3.72,104.18"/>
  <path filter="url(#noise4)" d="m2363.67,1235.61c-18.28,7.5-40.68,18.58-49.51,36.88,8.67,5.63,23.54-5.67,29.45-12.9,16.4-23.84-25.08-8.4-27.85,4.96-4.76,19.78,27.36,2.88,25.99-7.67-1.47-.86-3.49,1.32-4.98,2.89-8.59,10.24-11.77,24.14-13.32,37.11-9.04,66.96,83.29-69.53,46.6-104.81-46.92-41.21-94.93,54.7-106.45,88.63-56.66,173.95,59.09,338.19,78.56,507.66,4.97,28.94-4.92,56.68-25.65,77.17-27.13,31.77-55.97,62.43-82.46,94.69-4.95,6.6-3.96,1.85-2.32-3.19,14.95-43.48,28.76-90.78,26.53-136.5-94.7,212.48-81.65,451.63-81.06,679.82.28,112.71,3.54,228.25-25.88,338.07-30.13,137.29-161.76,261.89-308.9,225.16-22.28-5.97-52.08-20.9-49.28-46.63,4.21-22.1,23.1-38.9,33.96-58.02,16.97-25.82,32.21-52.5,43.41-81.3,22.9-58.47,26.27-121.86,23.48-183.99-.83-49.72-4.03-119.51-63.48-132.96-43.96-10.61-59.55,38.51-62.25,72.97-8.59,55.23-11.34,111.77-22.05,166.55-13.47-74.31,3.57-158.72,9.11-236.19,9.43-93.72-22.71-183.06-36.94-274.64-8.19-55.88-10.19-112.83-5.23-169.09,10.31-86.17,33.58-222.06-77.47-249.7-82.49-13.72-169,46.19-229.05,97.28-134.73,125.19-69.2,342.6-36.01,499.28,45.4,196.25,89.9,394.07,112.69,594.36.85,34.45-8.52,70.81,3.72,104.18"/>
</svg>