<svg xmlns="http://www.w3.org/2000/svg" viewBox="0 0 4000 4000">
  <path filter="url(#noise3)" d="m1432.77,2756.13c.45,22.61.95,45.27,1.41,67.89.87,34.69,2.96,73.97-22.68,100.95-11.73,12.99-28.81,18.57-45.68,11.56-51.96-21.65-55.47-92.57-61.03-142.27-2.07-23.96-3.27-48.33-5.05-72.34-3.86-88.03-37.11-170.34-57.56-255.2-7.15-31.06-11.94-62.63-18.1-93.89-16.67-87.13-41.49-175.14-90.6-250.02-38.81-58.9-105.37-90.44-149.3-144.62-35.94-42.87-62.85-92.47-88.74-141.78-50.86-98.28-87.55-203.71-109.89-312.1-1.4-7.37-2.43-15.12-2.36-22.81,0-25.87,12.67-40.72,38.93-38.12,82.67,9.01,121.42,89.64,156.57,154.9,27.49,49.99,56.38,100.76,98.85,139.62,9.47,8.72,19.42,16.91,29.63,24.74,8,6.13,16.13,12.06,24.34,17.78,59.1,40.16,116.93,84.19,190.06,96.45,19.09,3.32,38.29,3.43,57.57,2.94,37.82-.7,81.21-3.53,111.45,23.23,9.33,8.29,16.64,19.65,17.25,32.38,1.09,19.9-12.63,37.3-26.23,50.55-11.01,10.48-22.56,20.53-33.02,31.6-39.24,39.31-56.01,85.26-69.88,137.87-3.55,11.89-7.76,23.93-13.23,35.03-10.65,22.15-27.87,41.26-52.76,46.79-28.27,6.72-57.37-2.54-82.37-15.73-81.62-44.04-133.11-124.49-189.52-195.35-38.61-49.13-78.05-97.68-113.06-149.5"/>
  <path filter="url(#noise4)" d="m1432.77,2756.13c.45,22.61.95,45.27,1.41,67.89.87,34.69,2.96,73.97-22.68,100.95-11.73,12.99-28.81,18.57-45.68,11.56-51.96-21.65-55.47-92.57-61.03-142.27-2.07-23.96-3.27-48.33-5.05-72.34-3.86-88.03-37.11-170.34-57.56-255.2-7.15-31.06-11.94-62.63-18.1-93.89-16.67-87.13-41.49-175.14-90.6-250.02-38.81-58.9-105.37-90.44-149.3-144.62-35.94-42.87-62.85-92.47-88.74-141.78-50.86-98.28-87.55-203.71-109.89-312.1-1.4-7.37-2.43-15.12-2.36-22.81,0-25.87,12.67-40.72,38.93-38.12,82.67,9.01,121.42,89.64,156.57,154.9,27.49,49.99,56.38,100.76,98.85,139.62,9.47,8.72,19.42,16.91,29.63,24.74,8,6.13,16.13,12.06,24.34,17.78,59.1,40.16,116.93,84.19,190.06,96.45,19.09,3.32,38.29,3.43,57.57,2.94,37.82-.7,81.21-3.53,111.45,23.23,9.33,8.29,16.64,19.65,17.25,32.38,1.09,19.9-12.63,37.3-26.23,50.55-11.01,10.48-22.56,20.53-33.02,31.6-39.24,39.31-56.01,85.26-69.88,137.87-3.55,11.89-7.76,23.93-13.23,35.03-10.65,22.15-27.87,41.26-52.76,46.79-28.27,6.72-57.37-2.54-82.37-15.73-81.62-44.04-133.11-124.49-189.52-195.35-38.61-49.13-78.05-97.68-113.06-149.5"/>
  <path filter="url(#noise3)" d="m1730.23,1888.71c-13.74-34.14-.84-71.63,16.27-102.14,69.28-119.2,232.26-180.9,361.49-128.31,22.99,10.32,51.97,26.04,66.21,47.69,9.14,16.2-1.96,27.45-19.06,28.26-25.11,1.82-61.65-12.5-87.91-22.01-61.89-23.31-132.68-29-195.04-4.24-24.04,9.51-35.21,26.48-52.58,43.82-9.97,9.57-21.7,17.36-30.61,28.04-22.61,27.67-23.36,67.87-19.2,102.17,4.99,30.4,27.99,41.03,56.61,38.87,83.97-9.17,163.18-57.67,249.21-44.39,22.56,3.4,45.38,10.49,62.89,25.64,25.64,23.62,15.22,47.11-18.1,50.64-92.6,8.69-214.43-22.04-276.99,63.35-14.7,21.8-18.27,48.44-18.27,74.2.22,17.4.04,38.73,10.6,52.59,15.07,18.22,42.26,10.44,62.59,8.45,77.66-9.29,161.67-27.29,235.29,8,10.96,5.52,25.08,15.52,26.36,28.39,1.24,11.61-11.7,18.89-22.47,20.12-37.47,4.26-74.81-1.88-112.01-6.95-25.18-3.61-50.47-7.23-75.92-5.92-21.31.87-43.42,5.57-61.76,16.6-38.3,21.74-49.92,63.79-50.18,105.51.34,16.89-.27,35.09,7.68,50.46,15.03,26.67,53.55,6.38,75.78.64,75.47-24.2,174.53-44.51,234.31,20.24,9.34,11.15,18.79,32.41.36,38.75-82.18,14.47-175.52-42.18-249.58,10-37.45,25.27-58.52,71.92-51.99,116.76,3.28,28.22,21.14,52.65,50.84,52.27,21.87,0,42.9-10.56,63.47-16.86,35.48-11.44,73.54-11.29,110.4-8.71,30.13,2.59,71.55,2.29,92.01,28.14,5.21,7.05,8.06,16.3,6.3,24.94-6.88,29.54-44.68,28.11-68.27,22.59-41.47-9.15-83.53-16.66-126.04-18.12-35.77-1.21-71.89,4.09-85.18,42.5"/>
  <path filter="url(#noise4)" d="m1730.23,1888.71c-13.74-34.14-.84-71.63,16.27-102.14,69.28-119.2,232.26-180.9,361.49-128.31,22.99,10.32,51.97,26.04,66.21,47.69,9.14,16.2-1.96,27.45-19.06,28.26-25.11,1.82-61.65-12.5-87.91-22.01-61.89-23.31-132.68-29-195.04-4.24-24.04,9.51-35.21,26.48-52.58,43.82-9.97,9.57-21.7,17.36-30.61,28.04-22.61,27.67-23.36,67.87-19.2,102.17,4.99,30.4,27.99,41.03,56.61,38.87,83.97-9.17,163.18-57.67,249.21-44.39,22.56,3.4,45.38,10.49,62.89,25.64,25.64,23.62,15.22,47.11-18.1,50.64-92.6,8.69-214.43-22.04-276.99,63.35-14.7,21.8-18.27,48.44-18.27,74.2.22,17.4.04,38.73,10.6,52.59,15.07,18.22,42.26,10.44,62.59,8.45,77.66-9.29,161.67-27.29,235.29,8,10.96,5.52,25.08,15.52,26.36,28.39,1.24,11.61-11.7,18.89-22.47,20.12-37.47,4.26-74.81-1.88-112.01-6.95-25.18-3.61-50.47-7.23-75.92-5.92-21.31.87-43.42,5.57-61.76,16.6-38.3,21.74-49.92,63.79-50.18,105.51.34,16.89-.27,35.09,7.68,50.46,15.03,26.67,53.55,6.38,75.78.64,75.47-24.2,174.53-44.51,234.31,20.24,9.34,11.15,18.79,32.41.36,38.75-82.18,14.47-175.52-42.18-249.58,10-37.45,25.27-58.52,71.92-51.99,116.76,3.28,28.22,21.14,52.65,50.84,52.27,21.87,0,42.9-10.56,63.47-16.86,35.48-11.44,73.54-11.29,110.4-8.71,30.13,2.59,71.55,2.29,92.01,28.14,5.21,7.05,8.06,16.3,6.3,24.94-6.88,29.54-44.68,28.11-68.27,22.59-41.47-9.15-83.53-16.66-126.04-18.12-35.77-1.21-71.89,4.09-85.18,42.5"/>
  <path filter="url(#noise3)" d="m1832.42,3310.56c17.56,38.25,23.27,64.13,68.1,73.31,11.48,3.02,23.1,8.62,29.2,19.22,16.86,29.79-10.84,64.51,2.44,98.54,7.12,21.71,26.61,35.59,46.32,45.26,33.08,16.45,69.72,23.59,105.59,30.64,25.39,5.17,53.63,14.09,67.35,37.82,14.43,26.29,4.07,66.69-20.54,83.63-15.74,11.55-38.57,13.27-54.26.77-26.77-18.61-18.16-76.11-49.39-86.44-10.1-2.25-18.01,6.33-21.19,15.22-3.64,9.31-4.64,19.62-9.14,28.55-8.97,17.96-24.33,13.14-35.21-.24-5.58-6.6-10.08-13.92-15.83-20.36-15.99-18.43-40.37-29.13-64.68-29.37-9.28.13-37.24.43-26.7,16.04,2.65,3.73,6.37,6.71,10,9.48,11.89,9.39,27.25,17.47,34.04,31.51,7.27,18.52-8.39,28.42-25.15,21.35-5.51-2.08-10.9-5.28-16.08-8.41-52.16-35.28-66.21,5.67-109.47,1.35-27.56-4.6-31.08-38.1-49-54.79-6.87-6.76-20.3-11.63-24.75.24-2.08,5.59-1.88,12.1-2.64,18.03-1.62,15.3-8.16,31.14-22.3,38.33-11.83,6.22-26.75,2.74-34.37-8.38-9.63-13.46-11.94-30.93-20.62-44.98-10.56-18.61-37.1-36.78-55.62-22.65-27.22,20.07-2.76,68.62-34.61,82.48-14.52,5.36-31.41-5.96-37.4-19.27-2.79-5.77-4.37-12.2-5.17-18.74-.68-5.56-.78-11.17-.54-16.76,4.41-47.52,14.25-94.51,21.12-141.75"/>
  <path filter="url(#noise4)" d="m1832.42,3310.56c17.56,38.25,23.27,64.13,68.1,73.31,11.48,3.02,23.1,8.62,29.2,19.22,16.86,29.79-10.84,64.51,2.44,98.54,7.12,21.71,26.61,35.59,46.32,45.26,33.08,16.45,69.72,23.59,105.59,30.64,25.39,5.17,53.63,14.09,67.35,37.82,14.43,26.29,4.07,66.69-20.54,83.63-15.74,11.55-38.57,13.27-54.26.77-26.77-18.61-18.16-76.11-49.39-86.44-10.1-2.25-18.01,6.33-21.19,15.22-3.64,9.31-4.64,19.62-9.14,28.55-8.97,17.96-24.33,13.14-35.21-.24-5.58-6.6-10.08-13.92-15.83-20.36-15.99-18.43-40.37-29.13-64.68-29.37-9.28.13-37.24.43-26.7,16.04,2.65,3.73,6.37,6.71,10,9.48,11.89,9.39,27.25,17.47,34.04,31.51,7.27,18.52-8.39,28.42-25.15,21.35-5.51-2.08-10.9-5.28-16.08-8.41-52.16-35.28-66.21,5.67-109.47,1.35-27.56-4.6-31.08-38.1-49-54.79-6.87-6.76-20.3-11.63-24.75.24-2.08,5.59-1.88,12.1-2.64,18.03-1.62,15.3-8.16,31.14-22.3,38.33-11.83,6.22-26.75,2.74-34.37-8.38-9.63-13.46-11.94-30.93-20.62-44.98-10.56-18.61-37.1-36.78-55.62-22.65-27.22,20.07-2.76,68.62-34.61,82.48-14.52,5.36-31.41-5.96-37.4-19.27-2.79-5.77-4.37-12.2-5.17-18.74-.68-5.56-.78-11.17-.54-16.76,4.41-47.52,14.25-94.51,21.12-141.75"/>
  <path filter="url(#noise3)" d="m1883.65,2793.31c-31.73-26.38-69.74-21.01-92.78,12.59-11.6,16.19-17.87,35.23-21.4,54.64-10.43,58.64.87,119.87,27.66,172.85"/>
  <path filter="url(#noise4)" d="m1883.65,2793.31c-31.73-26.38-69.74-21.01-92.78,12.59-11.6,16.19-17.87,35.23-21.4,54.64-10.43,58.64.87,119.87,27.66,172.85"/>
  <path filter="url(#noise3)" d="m1319.95,2883.86c-19.52-93.41-51.9-184.13-96.8-268.35-68.69-130.52-171.4-240.11-236.63-372.64-25.36-50.78-46.03-103.86-62.09-158.41-49.44-177.59-85.32-358.8-129.1-537.81"/>
  <path filter="url(#noise4)" d="m1319.95,2883.86c-19.52-93.41-51.9-184.13-96.8-268.35-68.69-130.52-171.4-240.11-236.63-372.64-25.36-50.78-46.03-103.86-62.09-158.41-49.44-177.59-85.32-358.8-129.1-537.81"/>
</svg>