<svg xmlns="http://www.w3.org/2000/svg" viewBox="0 0 4000 4000">
  <path class="c" d="m2238.7,1958.29c23.77,101.89,40.36,205.72,49.56,309.95,8.67,73.11,14.56,183.29-74.39,207.35-3.36,2.14-20.17,1.46-16.51,7.46,10.63,9.12,23.95,16.27,37.08,20.79,38.13,12.73,81.69,4.78,114.76-17.5,76.45-52.56,88.02-156.02,76.53-241.35-18.68-149.08-62.4-297.23-78.07-445.33,56.44-32.04,177.65,35.45,215.05,80.47,17.95,22.29,17.92,52.9.9,75.75-230.32,241.62-221.81,591.94-259.42,902.92-16.94,106.92-11.67,215.14-19.39,322.72-7.79,99.95-24.31,198.88-32.06,298.81-3.31,38.23-7.01,76.68-19.23,113.27-40.61,108.5-105.79,107.33-206.26,86.02-14.95-1.84-29.51.14-44.59-.93-40.64-3.26-62.16-37.98-60.71-76.44-.05-40.01,14.24-77.66,24.27-116.04,12.06-44.57,21.77-88.82,28.99-134.44,15.14-123.7,8.84-250.61,23.06-374.03-4.3,140.71-30.97,283.27-67.41,419.4-7.02,19.66-30.3,49.24-53.01,34.48-18.76-14.26-33.01-35.42-38.45-58.57-4.54-19.24-3.79-39.89-2.6-59.68,10.26-154.06,11.96-308.6,7.16-462.88-4.29-47.89,1.05-154.54-23.32-189.93-19.44-27.78-56.91-18.89-68.8,11.02-55.49,186.34-37.54,388.78,4.62,576.36,18.76,82.97,48.17,162.27,72.25,243.68,12.7,36.79,33.58,166.01-9.23,181.84-8.43,3.39-17.55,2.2-26.02-.51-54.6-15.67-113.15-10.46-166.25,8.25-36.98,12.2-75.46,27.76-114.72,20.64-84.95-16.92-82.67-115.02-53.22-178.66,43.32-109.37,111.68-261.34,66.96-378-14.4-35.8-48.9-59.06-62.95-94.95-12.02-28.7-10.43-60.61-9.4-91.04.66-9.31,5.33-.92,6.58,3.6,39.49,183.21,43.22,373.82,13.6,558.76-5.68,49.52-16.08,117.1-73.85,54.83-58.34-65.73-76.69-159.24-79.87-244.93-1.16-153.36,23.26-307.19,3.29-460.35-12.92-146.94-78.3-281.56-107.01-425.04-23.39-111.44-41.18-230.22-114.05-321.92-5.11-6.2-10.96-13.05-16.76-16.63,77.73,134.76,134.76,281.65,175.47,431.54,50.99,175.28,47.34,234.24-50.57,388.15-28.93,53.74-49.53,123.76-16.94,180.1,7.4,12.83,12.31,10.35,17.95-2.06,59.17-102.96,118.03-220.53,89.11-341.02"/>
  <path class="c" d="m639.85,1084.02c-35.44-83.1,13-171.54,77.68-225.46,23.11-19.51,50.06-36.28,80.46-40.65,30.58-4.55,63.99,5.6,82.83,30.94,2.2,2.87,4.56,6.87,4.08,9.86-.49,3.67-3.35,5.44-6.45,7.42-58.57,34.12-154.35,25.62-188.98,90.08-1.66,3.14-7.36,12.78.24,9.97,52.44-24.06,109.82-34.12,167.29-27.77,3.91.47,13.91.92,5.87,5.3-41.73,22.19-93.9,34.21-135.09,61.89-28.17,18.73-51.66,47.53-54.6,82.26-4.21,37.98,23.47,71.12,56.14,86.92,24.64,12.34,51.84,16,78.84,18.07,27.52,2.98,64.02,2.24,84.74,24.19,10.03,11.22,8.39,25.48-4.1,34.07-12.97,9.25-28.03,15.28-40.71,25.02-40.51,29.59-64.15,85.54-43.15,133.27,10.59,25.99,32.89,46.75,60.47,53.19,20.05,5.09,42.11,6.95,58.11,21.51,21.3,17.7,20.49,46.8,23.16,72.1,1.83,19.53,11.71,42.92,32.02,47.18,24.44,5.32,46.07-13.79,64.47-27.36,11.76-8.76,24.13-16.9,37.38-23.23,4.85-2.32,9.84-4.39,14.93-6.15,8.8-3.93,70.46-17.7,65.19,1.09-1.98,3.66-5.75,5.41-10.01,8.23-41.49,28.83-69.74,74.9-76.25,124.88-3.27,24.96-1.13,51.01,6.68,75.05,36.38,110.77,167.82,153.36,232.97,44.87,13.34-22.12,19.57-46.9,30.78-69.93,5.08-10.6,13.65-18.1,25.26-18.6,13.65,1.23,9.78,20.91,8.4,30.34-8.2,41.94-17.73,93.73,19.43,124.81,32.77,25.48,80.87,23.37,119.48,15.62,20.58-4.11,40.43-11.42,59.36-20.77,28.83-14.08,57.08-30.49,89.28-35.36"/>
  <path class="c" d="m2282.47,592.68c-17.1-6.23-35.57-12.39-53.86-13.03-25.6-2.03-54.99,15.12-55.18,43.12-.16,6.57,1.04,13.26,2.74,19.77,2.38,9.07,5.75,18.08,9.21,26.82,22.02,55.94,47.1,110.78,77.59,162.68,7.84,14.29,18.56,27.78,24.43,43.44,2.15,6.12,3.04,12.02,1.24,16.9-3.76,10.1-15.54,11.59-23.97,5.44-13.46-9.38-17.34-26.37-23.61-40.62-9.02-20-24.48-65.12-42.79-74.99-14.97-7.87-24.02,5.47-24.37,19.53-1.66,53.47,35.66,99.38,77.44,128.77,56.28,40.45,126.41,65.32,168.14,123.36,33.76,46.67,42.14,106.43,39.83,162.94-3.67,69-14.26,140.18-49.91,200.55"/>
</svg>