<svg xmlns="http://www.w3.org/2000/svg" viewBox="0 0 4000 4000">
  <path filter="url(#noise3)" d="m1653.8,1830.57c-42.63,16.35-74.6,50.1-106.7,81.41-35.27,35.65-77.49,66.54-128.81,69.84-44.56,4.3-90.8-4.66-133.14-16.55-58.5-15.97-112.51-46.72-154.73-90.39-87.68-90.27-136.05-210.2-217.41-305.49-19.71-23.91-40.35-47.05-61.28-69.9-32.57-34.97-66.35-70.77-85.13-115.38-7.05-15.7-13.13-31.99-18.36-48.42-8.44-26.82-14.91-54.49-25.73-80.52-13.59-32.28-34.55-61.12-51.34-91.87-86.89-162.15-27.13-351.11,114.75-459.78,77.6-62.57,174.95-91.45,260.59-140.38,46.69-26.56,90.16-58.45,130.75-93.65,8.93-7.46,18.22-14.7,28.1-20.76,51.99-33.21,117.16-17.92,171.27,1.91,15.67,5.68,31.32,12.54,44.37,22.93,27.69,21.78,42.69,63.97,53.24,97.32,15.03,52.17,20.86,109.66.42,161.21-22.2,53.89-64.17,58.72-112.57,34.6-21.85-10.89-43.67-23.09-60.85-40.68-11.28-12.39-24.02-28.79-21.13-46.53,2.41-12.83,12.51-23.25,24.28-28.48,8.97-4.16,19.09-3.94,28.57-1.74"/>
  <path filter="url(#noise4)" d="m1653.8,1830.57c-42.63,16.35-74.6,50.1-106.7,81.41-35.27,35.65-77.49,66.54-128.81,69.84-44.56,4.3-90.8-4.66-133.14-16.55-58.5-15.97-112.51-46.72-154.73-90.39-87.68-90.27-136.05-210.2-217.41-305.49-19.71-23.91-40.35-47.05-61.28-69.9-32.57-34.97-66.35-70.77-85.13-115.38-7.05-15.7-13.13-31.99-18.36-48.42-8.44-26.82-14.91-54.49-25.73-80.52-13.59-32.28-34.55-61.12-51.34-91.87-86.89-162.15-27.13-351.11,114.75-459.78,77.6-62.57,174.95-91.45,260.59-140.38,46.69-26.56,90.16-58.45,130.75-93.65,8.93-7.46,18.22-14.7,28.1-20.76,51.99-33.21,117.16-17.92,171.27,1.91,15.67,5.68,31.32,12.54,44.37,22.93,27.69,21.78,42.69,63.97,53.24,97.32,15.03,52.17,20.86,109.66.42,161.21-22.2,53.89-64.17,58.72-112.57,34.6-21.85-10.89-43.67-23.09-60.85-40.68-11.28-12.39-24.02-28.79-21.13-46.53,2.41-12.83,12.51-23.25,24.28-28.48,8.97-4.16,19.09-3.94,28.57-1.74"/>
  <path filter="url(#noise3)" d="m2371.68,1258.24c-8.1-20.5,10.18-33.38,28.24-22.22,7.24,4.78,12.17,12.02,16.15,19.71,23.37,49.56,18.81,109.59-7.92,156.93-10.55,19.15-24.06,36.44-36.05,54.69-13.18,20.03-24.7,41.06-27.59,65.16-.28,3.71-1.29,8.23.78,11.2.64.68,1.5.89,2.48.71,121.03-85.96,162.02-248.88,140.32-390.7-9.23-70.73-37.18-137.03-53.16-206.16-3.98-19.33-5.78-39.19-5.19-58.97.33-14.05,1.47-28.08,2.38-42.12,15.17-121.21-69.9-242.03-187.1-273.95-50.83-14.52-106.08-.89-155.57-21.31-16.38-6.81-31.71-16.69-47.39-24.85-47.05-26.47-100.06-38.77-153.77-43.6-26.49-2.52-53.11-3.33-79.64-3.77-8.7-.03-18.74-1.61-26.92,1.42-7.35,2.98-5.68,11.71-.91,17.68,6.53,8.98,17.08,12.25,27.66,14.88,12.02,2.83,23.5,5.42,35.3,8.68,57.73,15.71,116.83,30.45,174.1,46.72-1.89.29-3.83-.38-6.07-.51-34.62-4.53-69.58-8.82-104.49-10.31-83.01-5.52-159.2,15.95-233.6,51.47-26.36,12.76-216.06,102.36-222.08,66.12.4-56.46,1.72-115.59-24.72-167.34-19.58-39.19-54.69-71.82-97.87-82.3-3.86-.97-7.8-2-11.57-3.09-4.1-1.14-6.7-1.86-6.42-2.34.21-.23.52-.28.92-.36,116.02-15.2,216.02,58.31,325.47,81.85,116.62,27.9,234.6-18.73,351.94-6.45,56.26,4.92,110.49,23.4,166.4,30.43,77.74,10.91,151.56-19.02,223.73-43.71,105.84-36.58,218.34-62.53,330.88-54.14,54.76,4.07,108.43,18.57,158.46,40.99,53.43,24.04,101.99,57.28,154.35,83.54,132.1,69.08,341.11,122.5,335.57,306.13-2.57,87.26-22.38,173.18-42.28,257.89-35.08,160.27-103.54,224.14-229.29,319.51-95.92,76.06-169.88,171.85-231.2,277.65-30.22,52.77-62.95,105.75-114.04,139.63-82.39,54.93-179.42,14.19-260.35-26.41-31.28-14.87-63.09-29.39-95.92-38.56-10.19-2.84-24.48-3.64-31.67,5.25-3.75,4.58-3.59,11.27-3.76,17.05-1,22.16,1.51,44.41,6.47,66.17"/>
  <path filter="url(#noise4)" d="m2371.68,1258.24c-8.1-20.5,10.18-33.38,28.24-22.22,7.24,4.78,12.17,12.02,16.15,19.71,23.37,49.56,18.81,109.59-7.92,156.93-10.55,19.15-24.06,36.44-36.05,54.69-13.18,20.03-24.7,41.06-27.59,65.16-.28,3.71-1.29,8.23.78,11.2.64.68,1.5.89,2.48.71,121.03-85.96,162.02-248.88,140.32-390.7-9.23-70.73-37.18-137.03-53.16-206.16-3.98-19.33-5.78-39.19-5.19-58.97.33-14.05,1.47-28.08,2.38-42.12,15.17-121.21-69.9-242.03-187.1-273.95-50.83-14.52-106.08-.89-155.57-21.31-16.38-6.81-31.71-16.69-47.39-24.85-47.05-26.47-100.06-38.77-153.77-43.6-26.49-2.52-53.11-3.33-79.64-3.77-8.7-.03-18.74-1.61-26.92,1.42-7.35,2.98-5.68,11.71-.91,17.68,6.53,8.98,17.08,12.25,27.66,14.88,12.02,2.83,23.5,5.42,35.3,8.68,57.73,15.71,116.83,30.45,174.1,46.72-1.89.29-3.83-.38-6.07-.51-34.62-4.53-69.58-8.82-104.49-10.31-83.01-5.52-159.2,15.95-233.6,51.47-26.36,12.76-216.06,102.36-222.08,66.12.4-56.46,1.72-115.59-24.72-167.34-19.58-39.19-54.69-71.82-97.87-82.3-3.86-.97-7.8-2-11.57-3.09-4.1-1.14-6.7-1.86-6.42-2.34.21-.23.52-.28.92-.36,116.02-15.2,216.02,58.31,325.47,81.85,116.62,27.9,234.6-18.73,351.94-6.45,56.26,4.92,110.49,23.4,166.4,30.43,77.74,10.91,151.56-19.02,223.73-43.71,105.84-36.58,218.34-62.53,330.88-54.14,54.76,4.07,108.43,18.57,158.46,40.99,53.43,24.04,101.99,57.28,154.35,83.54,132.1,69.08,341.11,122.5,335.57,306.13-2.57,87.26-22.38,173.18-42.28,257.89-35.08,160.27-103.54,224.14-229.29,319.51-95.92,76.06-169.88,171.85-231.2,277.65-30.22,52.77-62.95,105.75-114.04,139.63-82.39,54.93-179.42,14.19-260.35-26.41-31.28-14.87-63.09-29.39-95.92-38.56-10.19-2.84-24.48-3.64-31.67,5.25-3.75,4.58-3.59,11.27-3.76,17.05-1,22.16,1.51,44.41,6.47,66.17"/>
</svg>