<svg xmlns="http://www.w3.org/2000/svg" viewBox="0 0 2400 2400">
  <path d="M250.67,1291.7v56.96c0,23.67,8.63,46.41,24.31,64.01,15.58,17.5,36.82,28.43,59.9,30.85v22.76h-43.68l33.63,25.04,23.19-16.35v-30.96c19.98-.61,39.18-7.39,55.08-19.63,18.74-14.42,31.45-35.15,35.8-58.36l.55-2.96h-76.17l-1.97-1.95c-14.49-14.3-35.09-22.5-56.54-22.5h-21.94l.09-69.96c0-15.34-12.48-27.83-27.83-27.83h-46.98c-2.87,0-5.2,2.33-5.2,5.2,0,2,1.17,3.84,2.97,4.7l25.76,12.23c.04,7.25,4.35,13.77,11.02,16.63,4.86,2.08,7.99,6.84,7.99,12.12ZM231.66,1257.42l-23.62-11.21c-.07-.03-.11-.1-.11-.18,0-.11.09-.2.2-.2h23.53v11.59ZM343.03,1472.38l-18.11,12.77-18.62-13.87h33.59v-27.36c1.05.06,2.1.1,3.15.12v28.34ZM433.39,1368.06c-3.62,16.4-11.44,30.84-22.16,42.35l-42.87-42.35h65.03ZM236.66,1262.86v-17.04h18.45c12.59,0,22.83,10.24,22.83,22.82l-.1,74.96h26.95c20.14,0,39.47,7.67,53.02,21.05l47.88,47.29h-54.6c-11.03,0-21.45-4.24-29.34-11.95l-28.94-28.27-3.49,3.58,28.94,28.27c8.83,8.63,20.49,13.38,32.84,13.38h53.37c-18.11,15.75-42.41,24.16-68.22,21.69-45.92-4.39-80.55-43.08-80.55-89.98v-56.96c0-7.28-4.33-13.85-11.02-16.72-4.85-2.08-7.99-6.84-7.99-12.12Z"/>
  <circle cx="248.85" cy="1255.9" r="4.07"/>
  <path d="M456.53,1942.29v-5c-4.97,0-9.01-4.04-9.01-9.01s4.04-9.01,9.01-9.01v-5c-7.72,0-14.01,6.28-14.01,14.01s6.28,14.01,14.01,14.01Z"/>
  <path d="M380.11,2036.53v50.58h50.64l20.7-14.5,6.24,30.11h-13.28v5h47.1v-5h-28.71l-6.89-33.23,8.45-5.92h39.29c15.9,0,31.29-4.66,44.52-13.48l.89-.59c22.38-14.92,35.74-39.88,35.74-66.77,0-16.08-4.76-31.62-13.77-44.95l-21.09-31.22v-32.23c0-5.41-2.71-10.39-7.25-13.33l-6.68-4.33c-.77-2.2-1.94-4.35-3.51-6.39-3.93-5.12-9.91-8.92-16.82-10.72-13.85-3.6-27.47,2.39-31.66,13.92-6.19,17.03,8.24,38.82,17.4,50.29,2.08,2.61,2.25,6.26.41,9.09-1.98,3.05-5.76,4.34-9.19,3.12l-18.98-6.75-10.47-3.72h-55.72l-45.71-68.45-2.15,2.13c-.5.49-12.27,12.23-23.51,31.21-10.42,17.58-22.22,44.87-19.25,75.01,3.37,34.28,24.68,64.9,63.33,91.04l-.07.1ZM536.52,1867.35c.35-1.34.53-2.69.56-4.05l2.9,1.88c1.93,1.25,3.38,3.04,4.2,5.11h-8.71c.43-.94.79-1.92,1.05-2.94ZM544.95,1875.29v38.49c0,1.87-1.52,3.39-3.39,3.39s-3.39-1.52-3.39-3.39v-24.67l-8.12-12.01c.76-.61,1.46-1.26,2.11-1.95v.14h12.78ZM462.34,1910.49l11.33,4.03h0s17.31,6.15,17.31,6.15c5.62,2,11.81-.1,15.06-5.11,3.01-4.64,2.72-10.64-.7-14.93-6.85-8.58-22.17-30.17-16.61-45.46,3.31-9.1,14.36-13.74,25.71-10.79,5.84,1.52,10.85,4.69,14.11,8.92,3.12,4.05,4.23,8.59,3.14,12.79-.86,3.33-3.07,6.19-6.39,8.26l-2.19,1.37,10.07,14.91v23.14c0,4.62,3.76,8.39,8.39,8.39,4.12,0,7.54-2.98,8.25-6.9l17.09,25.29c8.45,12.49,12.91,27.07,12.91,42.15,0,25.22-12.53,48.62-33.51,62.61l-.89.59c-12.4,8.27-26.84,12.64-41.75,12.64h-32.15l2.16-1.51h0l30.16-21.12c14.14-9.9,22.57-26.12,22.57-43.37v-1.78c0-24.77-17.09-45.61-40.13-51.37v5.16c20.23,5.62,35.13,24.21,35.13,46.21v1.78c0,15.63-7.64,30.31-20.44,39.28l-27.29,19.11h0s-44.49,31.17-44.49,31.17h-19.42l20.25-30.92h-5.98l-20.25,30.92h-14.63l20.25-30.92h-5.98l-18.31,27.97v-41.13l32.11-49.02h-5.98l-6.12,9.34c-4.39-.66-7.76-4.44-7.76-9.01,0-5.03,4.09-9.12,9.12-9.12v-5c-5.03,0-9.12-4.09-9.12-9.12s4.09-9.12,9.12-9.12v-5c-5.03,0-9.12-4.09-9.12-9.12s4.09-9.12,9.12-9.12v-5c-5.03,0-9.12-4.09-9.12-9.12s4.09-9.12,9.12-9.12h55.85ZM350.62,2005l20.35-5.06c-.76-1.55-1.46-3.09-2.12-4.62l-21.97,5.47c-8.63-10.14-15.08-20.77-19.33-31.86h34.26c-.19-1.69-.32-3.35-.41-5h-35.61c-1.99-6.2-3.31-12.53-3.95-19-.57-5.75-.56-11.39-.12-16.87l41.94,10.28c.38-1.65.79-3.27,1.24-4.84l-42.65-10.45c1.8-13.84,6.26-26.54,11.3-37.2l40.77,24.92c.86-1.56,1.71-3,2.52-4.32l-41.07-25.11c1.52-2.96,3.06-5.73,4.57-8.28,8.17-13.82,16.82-23.88,20.71-28.11l40.93,61.29c-5.57,1.89-9.6,7.17-9.6,13.37,0,4.81,2.42,9.07,6.11,11.62-3.69,2.55-6.11,6.81-6.11,11.62s2.42,9.07,6.11,11.62c-3.69,2.55-6.11,6.81-6.11,11.62s2.42,9.07,6.11,11.62c-3.69,2.55-6.11,6.81-6.11,11.62,0,6.3,4.14,11.64,9.85,13.46l-19.3,29.46c-12.72-8.61-23.5-17.7-32.3-27.24Z"/>
  <path d="M435.82,1974.03v-5c-4.97,0-9.01-4.04-9.01-9.01s4.04-9.01,9.01-9.01v-5c-7.72,0-14.01,6.28-14.01,14.01s6.28,14.01,14.01,14.01Z"/>
  <rect x="352.79" y="2131.46" width="13.19" height="5" transform="translate(-1403.67 879.13) rotate(-45)"/>
  <rect x="372.36" y="2127.37" width="5" height="13.19" transform="translate(-1399.15 890.09) rotate(-45)"/>
  <rect x="368.26" y="2115.99" width="13.19" height="5" transform="translate(-1388.21 885.56) rotate(-45)"/>
  <rect x="356.88" y="2111.9" width="5" height="13.19" transform="translate(-1392.72 874.59) rotate(-45)"/>
  <rect x="337.54" y="1273.78" width="13.19" height="5" transform="translate(-801.67 617.16) rotate(-45)"/>
  <rect x="322.07" y="1289.26" width="13.19" height="5" transform="translate(-817.11 610.69) rotate(-45)"/>
  <rect x="326.17" y="1269.69" width="5" height="13.19" transform="translate(-806.25 606.3) rotate(-45)"/>
  <rect x="341.64" y="1285.16" width="5" height="13.19" transform="translate(-812.61 621.69) rotate(-45)"/>
  <path d="M579.72,2099.47l-2.29.1-.1,2.29c-.3,6.84,2.31,13.55,7.15,18.39,4.59,4.59,10.85,7.17,17.33,7.17.35,0,.71,0,1.06-.02l1.46-.06,1.46.06c.35.02.71.02,1.06.02,6.47,0,12.74-2.58,17.33-7.17,4.85-4.84,7.45-11.55,7.15-18.39l-.1-2.29-2.29-.1c-5.39-.24-10.7,1.33-15.08,4.38.06-.71.1-1.43.1-2.15,0-6.85-2.9-13.44-7.95-18.06l-1.69-1.55-1.69,1.54c-5.06,4.62-7.96,11.21-7.96,18.07,0,.72.04,1.44.1,2.15-4.38-3.05-9.69-4.62-15.08-4.38ZM614.1,2110.16c3.28-3.28,7.63-5.27,12.21-5.64-.38,4.58-2.37,8.93-5.65,12.21-3.28,3.28-7.62,5.27-12.2,5.64.37-4.57,2.36-8.92,5.64-12.2ZM604.34,2089.08c2.97,3.5,4.64,7.99,4.64,12.62s-1.67,9.12-4.64,12.62c-2.97-3.49-4.64-7.98-4.64-12.62s1.67-9.12,4.64-12.62ZM594.59,2110.16c3.28,3.28,5.27,7.63,5.64,12.2-4.58-.38-8.93-2.37-12.2-5.64-3.28-3.28-5.27-7.63-5.65-12.21,4.58.37,8.93,2.36,12.21,5.64Z"/>
  <path d="M1120.78,1294.29c-3.54,0-6.42,2.87-6.42,6.42s2.87,6.42,6.42,6.42,6.42-2.87,6.42-6.42-2.87-6.42-6.42-6.42Z"/>
  <path d="M519.17,1867.98c3.61,0,6.54-2.93,6.54-6.54s-2.93-6.54-6.54-6.54-6.54,2.93-6.54,6.54,2.93,6.54,6.54,6.54ZM519.17,1859.9c.85,0,1.54.69,1.54,1.54s-.69,1.54-1.54,1.54-1.54-.69-1.54-1.54.69-1.54,1.54-1.54Z"/>
  <rect x="1064.6" y="1422.88" width="13.19" height="5" transform="translate(-694.14 1174.9) rotate(-45)"/>
  <rect x="1053.22" y="1418.78" width="5" height="13.19" transform="translate(-698.68 1164.02) rotate(-45)"/>
  <path d="M1550.5,1761.39l-2.29.1-.1,2.29c-.38,8.72,2.94,17.27,9.12,23.44,5.85,5.85,13.83,9.14,22.08,9.14.45,0,.9,0,1.35-.03l1.95-.09,1.95.09c.45.02.9.03,1.35.03,8.25,0,16.23-3.29,22.08-9.14,6.18-6.18,9.5-14.72,9.12-23.44l-.1-2.29-2.29-.1c-7.47-.33-14.79,2.06-20.62,6.62.21-1.47.33-2.96.33-4.46,0-8.73-3.69-17.13-10.13-23.02l-1.69-1.55-1.69,1.54c-6.45,5.89-10.14,14.29-10.14,23.03,0,1.5.12,2.99.33,4.46-5.83-4.56-13.16-6.95-20.62-6.62ZM1594.81,1774.04c4.62-4.62,10.82-7.34,17.3-7.65-.31,6.48-3.03,12.68-7.65,17.3-4.62,4.62-10.82,7.34-17.29,7.65.3-6.47,3.02-12.67,7.64-17.3ZM1582.61,1745.9c4.36,4.8,6.82,11.11,6.82,17.64s-2.46,12.83-6.82,17.63c-4.36-4.79-6.83-11.09-6.83-17.63s2.46-12.84,6.83-17.64ZM1570.41,1774.04c4.62,4.63,7.34,10.82,7.64,17.3-6.48-.31-12.68-3.03-17.29-7.65-4.62-4.62-7.34-10.82-7.65-17.3,6.48.31,12.68,3.02,17.3,7.65Z"/>
  <path d="M1636.04,1582.06c-6.98,0-12.67,5.68-12.67,12.67s5.68,12.67,12.67,12.67,12.67-5.68,12.67-12.67-5.68-12.67-12.67-12.67ZM1636.04,1602.39c-4.23,0-7.67-3.44-7.67-7.67s3.44-7.67,7.67-7.67,7.67,3.44,7.67,7.67-3.44,7.67-7.67,7.67Z"/>
  <path d="M1798.24,1578.8c3.15.51,6.37-.54,8.63-2.79l7.06-7.06c3.46-3.46,3.88-9.04.96-12.98l-45.77-61.81,23.94-13.77h-55.94l13.28,20.23-18.26-8.03h-22.75l13.78,18.77-25.08,5.63h-233.65c-8.79,0-15.94,7.15-15.94,15.94v80.09h5v-80.09c0-6.03,4.91-10.94,10.94-10.94h4.39v88.47l-6.36,32.05-.06.32,5.42,86.57h18.63l2.28-46.74,14.24,46.74h20.84l-8.26-56.94h18.34v13.77c0,1.38,1.12,2.5,2.5,2.5s2.5-1.12,2.5-2.5v-13.77h11.27v13.77c0,1.38,1.12,2.5,2.5,2.5s2.5-1.12,2.5-2.5v-13.77h.78l16.94-24.4,67.61-.09,5.08,81.43h19.14l3.54-70.99,5.41,16.57h0s17.78,54.43,17.78,54.43h20.81l-14.98-82.95,50.41-75.77,50.54,8.13ZM1719.26,1497.59h11.82l18.06,7.95-20.65,4.63-9.23-12.58ZM1518.05,1724.4h-11.36l-15.82-51.94h19.65l7.54,51.94ZM1553.33,1667.46h-63.84l.33-6.8,24.15-28.46,53.49,14.92-14.12,20.35ZM1706.28,1724.4h-11.2l-21.4-65.53h0s-3.53-10.81-3.53-10.81h3.53s18.82-.03,18.82-.03l13.79,76.37ZM1693.55,1643.03l-19.88.02h-9.65s-4.05,81.34-4.05,81.34h-9.68l-5.08-81.43-73.66.1-59.31-16.54-27.32,32.2-3.21,65.68h-9.17l-5.08-81.23,6.39-32.22v-88.96h53.05c-1.76,4.77-2.68,9.85-2.68,14.98,0,23.87,19.42,43.29,43.29,43.29,6.55,0,12.76-1.46,18.33-4.08-.4-1.21-.62-2.49-.62-3.83,0-.51.03-1.01.1-1.5-5.32,2.81-11.38,4.41-17.81,4.41-21.11,0-38.29-17.18-38.29-38.29,0-5.16,1.05-10.27,3.05-14.98h70.49c2,4.71,3.05,9.82,3.05,14.98,0,8.71-2.93,16.75-7.85,23.2,1.86.08,3.61.57,5.17,1.4,4.84-6.99,7.69-15.47,7.69-24.59,0-5.13-.92-10.21-2.68-14.98h90.54l62.55-14.03-14.81-22.57h27.96l-12.58,7.23,49.11,66.33c1.45,1.96,1.25,4.74-.48,6.47l-7.06,7.06c-1.12,1.12-2.73,1.64-4.3,1.39l-53.71-8.64-51.76,77.8Z"/>
  <path d="M1676.71,1541.39c-1.03,0-2.05.08-3.04.22-10.03,1.48-17.76,10.14-17.76,20.58,0,4.54,1.47,8.74,3.94,12.17,1.45-.95,3.1-1.6,4.89-1.87-2.39-2.77-3.83-6.37-3.83-10.3,0-7.67,5.5-14.08,12.76-15.5h0c.98-.19,2-.3,3.04-.3,8.71,0,15.8,7.09,15.8,15.8s-7.03,15.74-15.69,15.8c.93,1.46,1.56,3.12,1.81,4.91,10.57-.97,18.88-9.89,18.88-20.71,0-11.47-9.33-20.8-20.8-20.8Z"/>
  <path d="M1366.86,1220.52c1.67-2.13,3.13-5.27,3.13-9.74h-5c0,2.53-.62,4.66-1.85,6.37-3.9-2.54-8.78-3.37-12.11-1.88-2.19.98-3.44,2.84-3.44,5.11s1.27,4,3.48,4.99c2.97,1.33,7.89,1.13,12.07-1.51,3.53,4.66,2.61,11.77-2.6,20.09l-4.77-6.26-.2-.23c-8.9-9.14-21.54-14.46-36.56-15.37-37.16-2.26-82.53,5.67-119.01,14.29-29.12,6.89-52.57,14.22-61.63,17.16l-42.63-18.3c-.42-.19-.84-.37-1.27-.54l-.13-.05h0s-.03-.01-.05-.02l-3.31-1.34-.12,3.57c-.27,7.83,1.85,15.46,6.14,22.05,3.73,5.73,8.85,10.29,14.91,13.31l-16.66,31.11-13.78,5.47v-5.04h-5v25.64l8.97,5.6c18.86,11.79,40.59,18.02,62.83,18.02h3.56l4.87,31.03-.06,13.64h14.3l16.99-40.38,9.96,26.8v13.59h14.32l5.07-13.41,4.45-31.26h32.42c9.5,0,18.88-1.5,27.91-4.45l7.47,18.62v16.05l-3.86,14.45h14.8l7.89-13.21,7.79-38.29,15.76,21.4-.03,15.66-3.6,14.44h14.66l8.98-13.17,17.39-102.99c1.87-11.37-.16-23.07-5.7-33.15,10.04-14.74,6.67-23.58,3.25-27.87ZM1353.11,1220.81c-.05-.02-.53-.24-.53-.43,0-.17,0-.33.48-.55.43-.19,1.02-.29,1.72-.29,1.15,0,2.59.28,4.03.93-2.25.9-4.51.88-5.71.34ZM1101.19,1256.19c-3.01-4.62-4.79-9.83-5.24-15.25,4.77,2.61,8.8,6.35,11.81,10.98,3,4.62,4.79,9.83,5.25,15.25-4.77-2.61-8.81-6.36-11.82-10.98ZM1167.62,1392.71h-5.96l.04-9.02-4.81-30.65h27.42l-16.69,39.67ZM1303.63,1382.66l-6,10.04h-5.45l2.35-8.8v-17.67l-7.73-19.27,23.9-8.17,1.45,1.97-8.52,41.89ZM1364.37,1280.72l-17.21,101.9-6.87,10.08h-5.62l2.2-8.82.04-17.92-25.39-34.48c-7.37-10-11.26-21.86-11.26-34.29v-11.96h-5v11.96c0,13.51,4.23,26.39,12.24,37.26l.09.13-26.06,8.9c-8.83,3.02-18.04,4.55-27.38,4.55h-31.71l2.22-15.59v-11.69h-5v11.34l-7.25,50.95-3.65,9.66h-5.86v-9.49l-2.89-7.78-10.19-27.41h-41.54c-21.3,0-42.11-5.97-60.18-17.26l-6.62-4.13v-12.45l17.33-6.88,18.73-34.98c.37-.48.58-1.07.59-1.68.14-7.62-1.99-15.04-6.16-21.45-.49-.75-1.01-1.49-1.55-2.2l27.72,11.9.9-.29c8.17-2.67,31.59-10.07,60.97-17.08,36.3-8.65,81.7-16.68,118.7-14.44,13.7.83,25.16,5.59,33.17,13.76l6.65,8.71c5.53,9.37,7.61,20.44,5.85,31.16Z"/>
  <rect x="1764.14" y="1525.12" width="12.2" height="5"/>
  <path d="M1908.6,2090.52h18.02l-3.63-52.68,27.97-20.07c1.67.15,3.31.24,4.89.24,12.48,0,24.5-2.51,35.78-7.48l10.87,26.2,3.11,53.78h17.74l4.23-52.7,8.33-17.03,16.86,69.73h18.27l-15.47-82.53c14.07-2.97,25.89-13.29,30.46-27.21,10.02-3.53,16.9-13.14,16.9-23.85,0-4.86-1.42-9.62-4.03-13.68,6.22-4.47,9.99-11.72,9.99-19.51,0-4.36-1.16-8.57-3.33-12.23h22.63c3.78,0,7.16-2.54,8.21-6.17l.7-2.4c1.9-6.43-.11-13.47-5.12-17.93l-25.95-23.18c-6.3-5.61-14.41-8.71-22.86-8.71h-46.29l8.41,14.77-16.89,28.41c-4.99-4.51-11.52-7.05-18.37-7.05s-13.33,2.53-18.34,7.02c-6.26-7.13-15.38-11.31-24.92-11.31s-18.85,4.27-25.12,11.55c-7.36-5.27-23.04-8.11-41.01-3.57-20.02,5.09-31.8,17.58-38.16,27.15-7.97,12.05-10.84,24.42-10.87,31.97-.01,2.59.99,5.03,2.81,6.86,1.62,1.62,3.71,2.6,5.96,2.79v35.68l-6.61,10.38,9.5,82.73h17.8v-52.83l14.67-10.75,12.85,63.58ZM1917.8,2035.41l3.46,50.12h-8.57l-12.5-61.83,18.89-13.84c3.6,1.33,14.05,4.98,24.7,6.92l-25.98,18.63ZM2065.01,2085.52h-8.31l-17.27-71.41-.3.07,2.6-5.31h5.48c1.14,0,2.28-.05,3.4-.15l14.39,76.8ZM1876.07,2035.16v50.36h-8.35l-8.79-76.54,6.44-10.12v-42.1h-4.15c-1.24,0-2.4-.48-3.27-1.36-.88-.88-1.36-2.06-1.36-3.31.03-6.52,2.67-18.09,10.04-29.23,5.87-8.84,16.75-20.37,35.22-25.07,19.06-4.82,34.12-.45,38.3,4.02l2.07,2.21,1.78-2.45c5.29-7.27,13.79-11.61,22.75-11.61s17.4,4.31,22.69,11.52l1.82,2.48,2.06-2.28c4.25-4.72,10.34-7.42,16.69-7.42s12.73,2.82,16.96,7.75l2.27,2.64,21.82-36.7-5.59-9.82h37.69c7.21,0,14.15,2.64,19.53,7.44l25.96,23.18c3.63,3.23,5.02,8.13,3.64,12.79l-.7,2.42c-.44,1.51-1.84,2.56-3.41,2.56h-33.42l3.98,4.22c3.32,3.52,5.15,8.14,5.15,13.02,0,6.92-3.75,13.3-9.78,16.64l-2.62,1.45,1.9,2.32c2.98,3.64,4.55,8.06,4.55,12.78,0,8.95-6.01,16.96-14.61,19.47l-1.32.38-.38,1.32c-4.43,15.17-18.58,25.77-34.41,25.77h-8.6l-15.95,32.61-3.93,49.04h-8.41l-2.89-49.92-13.19-31.8-2.37,1.13c-11.29,5.36-23.41,8.08-36.02,8.08-14.62,0-36.04-8.23-36.25-8.31l-1.28-.49-42.25,30.95Z"/>
  <path d="M1979.17,1918.22c9.72,0,17.62,7.91,17.62,17.62h5c0-12.48-10.15-22.62-22.62-22.62s-22.62,10.15-22.62,22.62h5c0-9.72,7.91-17.62,17.62-17.62Z"/>
  <path d="M2039.8,1977.65c12.48,0,22.62-10.15,22.62-22.62h-5c0,9.72-7.91,17.62-17.62,17.62s-17.62-7.91-17.62-17.62h-5c0,12.48,10.15,22.62,22.62,22.62Z"/>
  <path d="M1939.95,1955.03h-5c0,9.72-7.91,17.62-17.62,17.62s-17.62-7.91-17.62-17.62h-5c0,12.48,10.15,22.62,22.62,22.62s22.62-10.15,22.62-22.62Z"/>
  <path d="M2096.84,1885.46c3.47,0,6.28-2.81,6.28-6.28s-2.81-6.28-6.28-6.28-6.28,2.81-6.28,6.28,2.81,6.28,6.28,6.28Z"/>
  <rect x="2136.56" y="2044.83" width="5" height="13.19" transform="translate(-824.06 2113.39) rotate(-45)"/>
  <rect x="2132.46" y="2033.46" width="13.19" height="5" transform="translate(-813.12 2108.86) rotate(-45)"/>
  <rect x="2116.99" y="2048.93" width="13.19" height="5" transform="translate(-828.59 2102.7) rotate(-45)"/>
  <rect x="2121.09" y="2029.36" width="5" height="13.19" transform="translate(-817.66 2097.67) rotate(-45)"/>
  <rect x="1908.97" y="2198.13" width="13.19" height="5" transform="translate(-995.02 1999.06) rotate(-45)"/>
  <rect x="1897.6" y="2194.03" width="5" height="13.19" transform="translate(-999.54 1987.96) rotate(-45)"/>
  <rect x="1893.5" y="2213.6" width="13.19" height="5" transform="translate(-1010.51 1992.82) rotate(-45)"/>
  <rect x="1913.07" y="2209.51" width="5" height="13.19" transform="translate(-1005.96 2003.59) rotate(-45)"/>
  <path d="M456.53,742.29v-5c-4.97,0-9.01-4.04-9.01-9.01s4.04-9.01,9.01-9.01v-5c-7.72,0-14.01,6.28-14.01,14.01s6.28,14.01,14.01,14.01Z"/>
  <path d="M316.85,745.39c3.37,34.28,24.68,64.9,63.33,91.04l-.07.1v50.58h50.64l20.7-14.5,6.24,30.11h-13.28v5h47.1v-5h-28.71l-6.89-33.23,8.45-5.92h39.29c15.9,0,31.29-4.66,44.52-13.48l.89-.59c22.38-14.92,35.74-39.88,35.74-66.77,0-16.08-4.76-31.62-13.77-44.95l-21.09-31.22v-32.23c0-5.41-2.71-10.39-7.25-13.33l-6.68-4.33c-.77-2.2-1.94-4.35-3.51-6.39-3.93-5.12-9.91-8.92-16.82-10.72-13.85-3.6-27.47,2.39-31.66,13.92-6.19,17.03,8.24,38.82,17.4,50.29,2.08,2.61,2.25,6.26.41,9.09-1.98,3.05-5.76,4.34-9.19,3.12l-18.98-6.75-10.47-3.72h-55.72l-45.71-68.45-2.15,2.13c-.5.49-12.27,12.23-23.51,31.21-10.42,17.58-22.22,44.87-19.25,75.01ZM536.52,667.35c.35-1.34.53-2.69.56-4.05l2.9,1.88c1.93,1.25,3.38,3.04,4.2,5.11h-8.71c.43-.94.79-1.92,1.05-2.94ZM544.95,675.29v38.49c0,1.87-1.52,3.39-3.39,3.39s-3.39-1.52-3.39-3.39v-24.67l-8.12-12.01c.76-.61,1.46-1.26,2.11-1.95v.14h12.78ZM462.34,710.49l11.33,4.03h0l17.31,6.15c5.62,2,11.81-.1,15.06-5.11,3.01-4.64,2.72-10.64-.7-14.93-6.85-8.58-22.17-30.17-16.61-45.46,3.31-9.1,14.36-13.74,25.71-10.79,5.84,1.52,10.85,4.69,14.11,8.92,3.12,4.05,4.23,8.59,3.14,12.79-.86,3.33-3.07,6.19-6.39,8.26l-2.19,1.37,10.07,14.91v23.14c0,4.62,3.76,8.39,8.39,8.39,4.12,0,7.54-2.98,8.25-6.9l17.09,25.29c8.45,12.49,12.91,27.07,12.91,42.15,0,25.22-12.53,48.62-33.51,62.61l-.89.59c-12.4,8.27-26.84,12.64-41.75,12.64h-32.15l2.16-1.51h0s30.16-21.12,30.16-21.12c14.14-9.9,22.57-26.12,22.57-43.37v-1.78c0-24.77-17.09-45.61-40.13-51.37v5.16c20.23,5.62,35.13,24.21,35.13,46.21v1.78c0,15.63-7.64,30.31-20.44,39.28l-27.29,19.11h0s-44.49,31.17-44.49,31.17h-19.42l20.25-30.92h-5.98l-20.25,30.92h-14.63l20.25-30.92h-5.98l-18.31,27.97v-41.13l32.11-49.02h-5.98l-6.12,9.34c-4.39-.66-7.76-4.44-7.76-9.01,0-5.03,4.09-9.12,9.12-9.12v-5c-5.03,0-9.12-4.09-9.12-9.12s4.09-9.12,9.12-9.12v-5c-5.03,0-9.12-4.09-9.12-9.12s4.09-9.12,9.12-9.12v-5c-5.03,0-9.12-4.09-9.12-9.12s4.09-9.12,9.12-9.12h55.85ZM361.03,644.94l40.93,61.29c-5.57,1.89-9.6,7.17-9.6,13.37,0,4.81,2.42,9.07,6.11,11.62-3.69,2.55-6.11,6.81-6.11,11.62s2.42,9.07,6.11,11.62c-3.69,2.55-6.11,6.81-6.11,11.62s2.42,9.07,6.11,11.62c-3.69,2.55-6.11,6.81-6.11,11.62,0,6.3,4.14,11.64,9.85,13.46l-19.3,29.46c-12.72-8.61-23.5-17.7-32.3-27.24l20.35-5.06c-.76-1.55-1.46-3.09-2.12-4.62l-21.97,5.47c-8.63-10.14-15.08-20.77-19.33-31.86h34.26c-.19-1.69-.32-3.35-.41-5h-35.61c-1.99-6.2-3.31-12.53-3.95-19-.57-5.75-.56-11.39-.12-16.87l41.94,10.28c.38-1.65.79-3.27,1.24-4.84l-42.65-10.45c1.8-13.84,6.26-26.54,11.3-37.2l40.77,24.92c.86-1.56,1.71-3,2.52-4.32l-41.07-25.11c1.52-2.96,3.06-5.73,4.57-8.28,8.17-13.82,16.82-23.88,20.71-28.11Z"/>
  <path d="M435.82,774.03v-5c-4.97,0-9.01-4.04-9.01-9.01s4.04-9.01,9.01-9.01v-5c-7.72,0-14.01,6.28-14.01,14.01s6.28,14.01,14.01,14.01Z"/>
  <rect x="352.79" y="931.46" width="13.19" height="5" transform="translate(-555.16 527.68) rotate(-45)"/>
  <rect x="372.36" y="927.37" width="5" height="13.19" transform="translate(-550.62 538.61) rotate(-45)"/>
  <rect x="368.26" y="915.99" width="13.19" height="5" transform="translate(-539.68 534.1) rotate(-45)"/>
  <rect x="356.88" y="911.9" width="5" height="13.19" transform="translate(-544.21 523.13) rotate(-45)"/>
  <rect x="306.44" y="607.6" width="5" height="13.19" transform="translate(-343.82 398.35) rotate(-45)"/>
  <rect x="286.87" y="611.7" width="13.19" height="5" transform="translate(-348.35 387.41) rotate(-45)"/>
  <rect x="302.34" y="596.23" width="13.19" height="5" transform="translate(-332.88 393.83) rotate(-45)"/>
  <rect x="290.97" y="592.13" width="5" height="13.19" transform="translate(-337.42 382.92) rotate(-45)"/>
  <polygon points="466.08 612.72 473.67 605.12 475.4 603.39 473.67 601.65 471.87 599.85 462.54 609.18 466.08 612.72"/>
  <path d="M1087.96,350.29c.35,0,.71,0,1.06-.02l1.46-.06,1.47.06c.35.02.71.02,1.06.02,6.47,0,12.73-2.58,17.32-7.17,4.85-4.85,7.45-11.55,7.15-18.39l-.1-2.29-2.29-.1c-5.4-.24-10.7,1.33-15.08,4.38.06-.71.1-1.43.1-2.15,0-6.85-2.9-13.44-7.95-18.06l-1.69-1.55-1.69,1.54c-5.06,4.62-7.96,11.21-7.96,18.07,0,.72.04,1.44.1,2.15-4.38-3.05-9.68-4.62-15.08-4.38l-2.29.1-.1,2.29c-.3,6.84,2.31,13.55,7.15,18.39,4.59,4.59,10.85,7.17,17.33,7.17ZM1100.24,333.02c3.28-3.28,7.63-5.27,12.21-5.64-.38,4.58-2.37,8.93-5.65,12.21-3.28,3.28-7.62,5.27-12.2,5.64.37-4.57,2.36-8.92,5.64-12.2ZM1090.49,311.94c2.97,3.5,4.64,7.99,4.64,12.62s-1.67,9.12-4.64,12.62c-2.97-3.49-4.64-7.98-4.64-12.62s1.67-9.12,4.64-12.62ZM1080.73,333.02c3.28,3.28,5.27,7.63,5.64,12.2-4.58-.38-8.93-2.37-12.2-5.64-3.28-3.28-5.27-7.63-5.65-12.21,4.58.37,8.93,2.36,12.21,5.64Z"/>
  <path d="M1081.58,1183.06l1.95-.09,1.95.09c.45.02.9.03,1.35.03,8.25,0,16.23-3.29,22.08-9.14h0c6.18-6.18,9.5-14.72,9.12-23.44l-.1-2.29-2.29-.1c-7.47-.33-14.79,2.05-20.62,6.62.21-1.47.33-2.96.33-4.46,0-8.73-3.69-17.13-10.13-23.02l-1.69-1.55-1.69,1.54c-6.45,5.89-10.14,14.29-10.14,23.03,0,1.5.12,2.99.33,4.46-5.83-4.56-13.16-6.95-20.62-6.62l-2.29.1-.1,2.29c-.38,8.72,2.94,17.27,9.12,23.44,5.85,5.85,13.83,9.14,22.08,9.14.45,0,.9,0,1.35-.03ZM1095.73,1160.76c4.62-4.62,10.82-7.34,17.3-7.65-.31,6.48-3.03,12.68-7.65,17.3-4.62,4.62-10.82,7.33-17.29,7.65.3-6.47,3.02-12.67,7.64-17.3ZM1083.53,1132.63c4.36,4.8,6.82,11.11,6.82,17.64s-2.46,12.83-6.82,17.63c-4.36-4.79-6.83-11.09-6.83-17.63s2.46-12.85,6.83-17.64ZM1061.68,1170.41c-4.62-4.62-7.34-10.82-7.65-17.3,6.48.31,12.68,3.02,17.3,7.65,4.63,4.63,7.34,10.82,7.64,17.3-6.48-.31-12.68-3.03-17.29-7.65Z"/>
  <path d="M874.07,229.65c1.87,0,3.39-1.3,3.39-2.91s-1.52-2.91-3.39-2.91-3.39,1.3-3.39,2.91,1.52,2.91,3.39,2.91Z"/>
  <path d="M844.88,279.74c3.51,0,6.98-.87,10.05-2.53,7.53-4.06,11.88-12.19,11.08-20.7l-4.98.47c.61,6.51-2.71,12.72-8.47,15.83-2.34,1.26-5,1.93-7.68,1.93-4.83,0-9.36-2.08-12.44-5.71l-3.81,3.24c4.03,4.75,9.96,7.47,16.25,7.47Z"/>
  <path d="M858.38,109.06c2.25,0,4.08-1.82,4.08-4.07s-1.82-4.07-4.08-4.07-4.08,1.82-4.08,4.07,1.82,4.07,4.08,4.07Z"/>
  <path d="M828,300.06h.13c1.7.1,3.41.17,5.15.19v11.23h-5.25v5h28.11v-5h-17.85v-11.35c6.01-.37,12.62-1.67,20.75-5.14h0c11.89-5.09,21.77-12.99,27.82-22.26,3-4.61,4.9-9.3,5.66-13.88,9.9,4.52,20.44,6.89,31.41,7.07l-6.09,23.85h-17.74l-13.14,13.14h56.86l-11.41-11.41,6.59-25.92-2.03-.52c22.6-3.32,42.73-16.19,55.29-35.84,2.25-3.5,4.21-7.36,6.01-11.81l25.14-61.86c2.88-7.09,2.7-15.16-.48-22.14l-15.93-34.91-57.66,55.54h-40.73l-15.81-39.56c-4.15-10.45-12.72-20.63-22.4-26.81h0c2.55-2.4,4.01-5.76,4.01-9.25,0-7.01-5.71-12.72-12.72-12.72-4.02,0-7.78,1.92-10.17,5.09-.02,0-.03,0-.05,0-7.01,0-12.72,5.71-12.72,12.72,0,1.5.26,2.97.77,4.36-2.01,3.22-2.35,7.26-.85,10.78l-1.74.8c-3.53,1.63-5.8,5.19-5.8,9.08v4.36h13.17l-9.16,13.8c-1.51,2.28-1.65,5.2-.36,7.61,1.29,2.41,3.8,3.91,6.54,3.91h3.39v47.2c0,9.81,1.89,19.38,5.6,28.46-7.33,5.77-12.11,14.02-13.61,16.82-1.39.49-2.76,1.02-4.09,1.58-11.91,5.02-21.8,12.91-27.85,22.23-6.25,9.62-7.71,19.62-4.1,28.17,4.06,9.64,14.04,15.98,27.36,17.39ZM926.85,293.02l4.88,4.88h-32.71l3.14-3.14h19.55l7.39-28.93c1.59-.08,3.18-.2,4.76-.37l-7.01,27.56ZM1005.37,107.01l4.66,10.22-30.68,31.19,3.56,3.51,29.34-29.82,4.52,9.91-22.71,23.7,3.61,3.46,21.29-22.22c2.01,5.38,1.96,11.39-.2,16.72l-25.14,61.86c-.16.39-.32.78-.48,1.16l-39.46-59.9,51.69-49.79ZM844.6,87.04c-.57-1.1-.86-2.29-.86-3.52,0-4.26,3.46-7.72,7.72-7.72.29,0,.61.02,1.01.08l1.67.22.83-1.46c1.37-2.42,3.94-3.92,6.71-3.92,4.26,0,7.72,3.46,7.72,7.72,0,2.18-.89,4.2-2.51,5.68l-.13.12-.11.14c-.48.59-1.07,1.06-1.74,1.39l-21.74,10.7c-.84-2.25-.42-4.81,1.14-6.68l1.06-1.27-.76-1.47ZM844.7,133.22h-3.39c-1.31,0-1.92-.89-2.13-1.27-.21-.38-.61-1.39.12-2.48l5.4-8.13v11.88ZM849.7,185.41v-77.51h-13.53c.22-1.69,1.29-3.17,2.86-3.9l1.77-.82h0s.5-.24.5-.24l.55-.25h0s24.1-11.88,24.1-11.88c9.54,5.46,18.18,15.34,22.21,25.51l17.07,42.71h43.96l18.16,27.57h-38.71v5h42l7.43,11.29h-44.01v5h46.14v-1.76l6.81,10.33h-61.74c-16.51,0-30.05-13.43-30.17-29.94l-5,.04c.14,19.24,15.91,34.9,35.16,34.9h65.67c-.91,1.79-1.87,3.46-2.89,5.05-13.77,21.54-37.23,34.4-62.77,34.4-11.36,0-22.24-2.51-32.37-7.44-.09-3.08-.72-6.07-1.92-8.9-.83-1.98-1.92-3.83-3.25-5.53l11.57-2.76-9.75-10.29c-.81-10.1-11.13-18.15-23.56-18.15-4.2,0-8.04,1.25-11.46,3.17-3.21-8.19-4.84-16.8-4.84-25.61ZM884.78,234.63l2.59-3.64,2.34,2.47-4.93,1.17ZM834.53,236.88c1.53-.64,3.11-1.24,4.71-1.78l.99-.33.46-.94c.1-.21,10.43-20.97,25.3-20.97,9.79,0,17.91,5.97,18.56,13.46l-7.1,9.97,1.49,1.06,2.35,2.13c2.24,2.03,3.95,4.4,5.07,7.06,6.17,14.64-6.97,34.31-29.3,43.85h0c-11.9,5.09-20,5.14-28.61,4.69-11.43-1.23-19.89-6.45-23.22-14.35-6.22-14.75,6.92-34.42,29.29-43.85Z"/>
  <path d="M519.17,667.98c3.61,0,6.54-2.93,6.54-6.54s-2.93-6.54-6.54-6.54-6.54,2.93-6.54,6.54,2.93,6.54,6.54,6.54ZM519.17,659.9c.85,0,1.54.69,1.54,1.54s-.69,1.54-1.54,1.54-1.54-.69-1.54-1.54.69-1.54,1.54-1.54Z"/>
  <rect x="1087.4" y="1072.3" width="5" height="13.19" transform="translate(-443.67 1086.68) rotate(-45)"/>
  <rect x="1067.83" y="1076.4" width="13.19" height="5" transform="translate(-448.21 1075.75) rotate(-45)"/>
  <rect x="1071.93" y="1056.83" width="5" height="13.19" transform="translate(-437.27 1071.19) rotate(-45)"/>
  <rect x="1083.3" y="1060.93" width="13.19" height="5" transform="translate(-432.73 1082.14) rotate(-45)"/>
  <polygon points="473.67 595.45 475.4 593.71 473.67 591.98 466.08 584.38 462.54 587.92 471.87 597.25 473.67 595.45"/>
  <rect x="481.94" y="599.69" width="5" height="13.19" transform="translate(-286.81 520.08) rotate(-45)"/>
  <rect x="477.85" y="588.31" width="13.19" height="5" transform="translate(-275.88 515.65) rotate(-45)"/>
  <rect x="1064.6" y="222.88" width="13.19" height="5" transform="translate(154.33 823.38) rotate(-45)"/>
  <rect x="1068.7" y="234.25" width="5" height="13.19" transform="translate(143.44 827.99) rotate(-45)"/>
  <rect x="1053.22" y="218.78" width="5" height="13.19" transform="translate(149.85 812.52) rotate(-45)"/>
  <rect x="1049.13" y="238.35" width="13.19" height="5" transform="translate(138.91 817.05) rotate(-45)"/>
  <path d="M1305.55,501.61l-2.29.1-.1,2.29c-.3,6.84,2.31,13.55,7.15,18.39,4.59,4.59,10.85,7.17,17.32,7.17.35,0,.71,0,1.06-.02l1.46-.06,1.46.06c.35.02.71.02,1.06.02,6.47,0,12.73-2.58,17.33-7.17,4.85-4.85,7.45-11.55,7.15-18.39l-.1-2.29-2.29-.1c-5.4-.24-10.7,1.33-15.08,4.38.06-.71.1-1.43.1-2.15,0-6.85-2.9-13.44-7.95-18.06l-1.69-1.55-1.69,1.54c-5.06,4.62-7.96,11.21-7.96,18.07,0,.72.04,1.44.1,2.15-4.38-3.05-9.69-4.62-15.08-4.38ZM1339.92,512.29c3.28-3.28,7.63-5.27,12.21-5.64-.38,4.58-2.37,8.93-5.65,12.21-3.28,3.28-7.63,5.27-12.2,5.64.37-4.57,2.36-8.92,5.64-12.2ZM1330.17,491.22c2.97,3.5,4.64,7.99,4.64,12.62s-1.67,9.12-4.64,12.62c-2.97-3.49-4.64-7.98-4.64-12.62s1.67-9.12,4.64-12.62ZM1320.42,512.29c3.28,3.28,5.27,7.63,5.64,12.2-4.58-.38-8.93-2.37-12.2-5.64-3.28-3.28-5.27-7.63-5.65-12.21,4.58.37,8.93,2.36,12.21,5.64Z"/>
  <path d="M1278.88,737.79c-16.49-11.47-22.19-26.17-22.24-26.32l-4.68,1.75c.24.65,6.17,16.11,23.81,28.49,10.32,7.24,22.52,11.91,36.26,13.87,4.97.71,10.15,1.07,15.53,1.07,13.03,0,27.2-2.09,42.31-6.24l-1.32-4.82c-36.79,10.11-67.79,7.41-89.66-7.81Z"/>
  <path d="M1429.3,714.52l-4.22-2.68c-22.01,34.7-55.86,47.87-80.39,52.82-4.65.94-9.15,1.62-13.41,2.11-11.14-1.53-20.37-3.95-27.63-6.45-20.05-6.9-29.97-15.84-30.07-15.93l-1.69,1.84-1.69,1.84c.42.39,10.59,9.61,31.51,16.87,2.93,1.02,6.18,2.02,9.73,2.97-9.43,0-15.39-.81-15.53-.83h0s-.69,4.95-.69,4.95c.48.07,6.65.9,16.36.9,5.54,0,12.24-.27,19.69-1.12,7.39.99,15.58,1.59,24.56,1.59,12.47,0,26.48-1.16,41.99-4.07l-.92-4.91c-17.16,3.22-32.4,4.25-45.71,3.93,14.01-3.34,26.88-8.44,38.32-15.21,16.25-9.61,29.64-22.6,39.8-38.61Z"/>
  <path d="M1245.59,752.61c7.82,9.78,21.81,16.26,22.4,16.54l2.09-4.54c-.13-.06-13.51-6.27-20.58-15.12l-3.9,3.12Z"/>
  <path d="M1413.26,534.42h-.04c-2.37-3.15-6.11-5.05-10.1-5.05-6.97,0-12.64,5.67-12.64,12.64,0,3.47,1.45,6.81,3.98,9.19,0,0,.02.02.02.02-9.84,5.9-17.52,14.9-21.76,25.61l-15.16,38.23-40.28.08-57.92-54.14-15.8,34.62c-3.16,6.92-3.33,14.94-.47,21.99l25.18,61.96c.5,1.23,1.07,2.59,1.72,3.98v.02s0,0,0,0c.46.98.96,1.98,1.5,2.96,2.81,5.06,6.19,9.82,10.05,14.15-3,3.65-3.58,9.87-1.59,17.27,1.92,7.12,5.92,14.22,10.69,18.99,3.98,3.98,9.2,6.26,14.69,6.42.21,0,.41,0,.62,0,5.31,0,10.23-2.01,13.91-5.69,1.58-1.58,2.85-3.39,3.78-5.36.09.26.18.51.27.76,2,5.17,5.85,9.15,10.86,11.19,2.35.96,4.82,1.44,7.3,1.44,2.8,0,5.61-.61,8.29-1.83,5-2.27,8.93-6.39,11.06-11.61.27-.67.53-1.37.76-2.07.52.94,1.12,1.84,1.82,2.71,3.38,4.21,8.29,6.78,13.82,7.22.56.04,1.13.07,1.69.07,4.89,0,9.67-1.69,13.61-4.86,5.38-4.32,10.17-10.96,12.82-17.77,2.93-7.53,2.79-14.1-.37-18.04-1.26-1.57-3.07-2.75-5.31-3.52,11.45-13.89,17.73-31.13,17.73-48.87v-46.06h5.85c2.72,0,5.22-1.49,6.5-3.89,1.29-2.4,1.15-5.3-.36-7.57l-9.59-14.43h10.8v-4.37c.01-3.66-2.02-7.04-5.21-8.76,1.48-3.5,1.14-7.51-.85-10.71.51-1.38.77-2.83.77-4.33,0-6.97-5.67-12.64-12.64-12.64ZM1403.11,534.36c2.74,0,5.29,1.49,6.65,3.88l.83,1.46,1.67-.22c.39-.05.71-.07,1-.07,4.21,0,7.64,3.43,7.64,7.64,0,1.22-.29,2.39-.85,3.49l-.76,1.47,1.06,1.27c1.54,1.84,1.96,4.37,1.13,6.59l-21.56-10.61c-.67-.33-1.24-.79-1.72-1.37l-.11-.14-.13-.12c-1.61-1.47-2.49-3.47-2.49-5.63,0-4.21,3.43-7.64,7.64-7.64ZM1272.9,677.7l-25.18-61.96c-2.1-5.19-2.2-11.01-.33-16.25l21.33,19.83,3.41-3.66-22.61-21.03,4.48-9.83,29.35,27.29,3.41-3.66-30.57-28.43,4.84-10.6,52.09,48.7-18.95,28.77h-.25v.38l-20.65,31.34c-.13-.3-.25-.6-.37-.89ZM1316.33,734.17c-2.84,2.84-6.69,4.33-10.84,4.21-4.21-.12-8.22-1.88-11.3-4.96-4.18-4.18-7.7-10.45-9.4-16.76-1.6-5.93-1.25-10.96.91-13.12,1.37-1.37,3.62-2,6.35-2,7.03,0,17.2,4.16,23.53,10.48,3.08,3.08,4.84,7.09,4.96,11.3.12,4.15-1.38,8-4.21,10.84ZM1356.79,730.42h0c-1.65,4.03-4.66,7.2-8.5,8.95-3.78,1.72-7.91,1.83-11.63.31-3.71-1.52-6.58-4.49-8.08-8.37-1.52-3.93-1.45-8.31.2-12.33,4.14-10.12,15.35-19.78,22.14-19.78.77,0,1.48.12,2.12.39,6.41,2.62,8.44,19.34,3.74,30.84ZM1401.67,702.69c1.99,2.47,1.84,7.37-.39,13.1-2.34,6.02-6.57,11.89-11.29,15.68-3.39,2.72-7.57,4.04-11.77,3.7-4.14-.33-7.81-2.24-10.32-5.37-5.22-6.5-3.81-16.34,3.14-21.93,4.61-3.71,11.22-6.52,17.68-7.53,1.6-.25,3.12-.37,4.53-.37,3.94,0,7,.95,8.41,2.7ZM1425.81,592.42c.71,1.07.32,2.06.12,2.44-.2.38-.81,1.25-2.1,1.25h-5.85v-15.48l7.83,11.79ZM1426.16,570.22h-13.18v76.95c0,17.43-6.49,34.37-18.29,47.69l.2.17c-2.12-.13-4.45,0-6.94.38-7.28,1.14-14.78,4.34-20.04,8.57-1.65,1.32-3.05,2.83-4.21,4.47-1.25-6.39-4.14-11.62-8.76-13.51-9.77-3.99-25.12,8.77-30.62,21.75-1.08-3.04-2.84-5.84-5.2-8.2-8.93-8.93-24.58-14.57-33.51-10.77-3.75-4.16-7.03-8.73-9.74-13.62-.1-.18-.19-.36-.29-.53h64.93c19.11,0,34.77-15.55,34.91-34.66l-5-.04c-.12,16.38-13.55,29.7-29.93,29.7h-61.24l7.15-10.86h44.5v-5h-41.21l7.15-10.86h39.34v-5h-36.05l17.6-26.72,43.21-.09,16.4-41.38c4.12-10.39,11.81-19.01,21.66-24.28l21.65,10.66-.02.04,2.03.96.92.45c1.4.76,2.36,2.15,2.56,3.72Z"/>
  <path d="M1410.33,759.45l1.38,4.81c.68-.2,16.82-4.87,23.86-11.37l-3.39-3.67c-6.17,5.69-21.69,10.19-21.85,10.23Z"/>
  <path d="M1406.89,564.15c-2.19,0-3.96,1.77-3.96,3.96s1.77,3.96,3.96,3.96,3.96-1.77,3.96-3.96-1.77-3.96-3.96-3.96Z"/>
  <path d="M1205.89,280.38c-3.1,0-5.62,2.52-5.62,5.62s2.52,5.62,5.62,5.62,5.62-2.52,5.62-5.62-2.52-5.62-5.62-5.62Z"/>
  <path d="M1217.59,261.85c-6.39,0-12.46,1.84-17.59,5-2.61,1.61-4.98,3.55-7.02,5.77-13.94,14.22-30.24,17.79-36.56,18.81-2.86.46-4.94,2.9-4.94,5.8,0,3.24,2.64,5.88,5.88,5.88h41.82l-17.69,39.43c-7.46,16.63-6.01,35.7,3.87,51.02,3.91,6.05,8.89,11.14,14.62,15.09,8.76,6.04,19.25,9.42,30.28,9.45l47.66.09v20.42h-48.93l26.84,27.59,35.52-19.19v-28.91c23.76-.88,46.94-7.75,67.38-20.01l54.18-32.51-53.33-16.97c-35.03-11.14-72.06-16.79-110.06-16.79h-16.66c8.44-10.85,17.81-23.12,17.81-36.91,0-18.24-14.84-33.08-33.08-33.08ZM1184.66,298.12h-27.29c-.49,0-.88-.4-.88-.88,0-.43.31-.8.74-.87,5.29-.86,17.01-3.6,29-11.95-1.11,3.31-1.72,6.84-1.72,10.52,0,1.06.05,2.13.16,3.19ZM1286.37,444.04l-29.57,15.98-15.95-16.4h42.09v-25.41h2.96c.09,0,.17,0,.26,0,.07,0,.14,0,.22,0v25.83ZM1249.53,336.84c37.49,0,74.01,5.57,108.55,16.56l2.99.95-18.19,8.75c-33.42,16.26-81.2,18.41-104.85,10.22-8.22-2.85-13.64-7.67-15.66-13.94-1.89-5.87-.58-12.44,3.69-18.52.92-1.31,1.91-2.65,2.95-4.01h20.53ZM1228.49,329.32c-2.34,3.01-4.55,5.84-6.52,8.66-5.2,7.39-6.74,15.54-4.35,22.93,2.49,7.71,9.16,13.8,18.78,17.13,9.44,3.27,22.08,4.98,36.02,4.98,5.01,0,10.19-.22,15.45-.67,21.04-1.8,41.36-7.05,57.2-14.75l22.95-11.04,32.84,10.45-44.68,26.81c-21.15,12.69-45.36,19.39-70.02,19.39-.08,0-.17,0-.25,0l-55.62-.1c-11.22-.03-21.83-3.88-30.29-10.68h0c-4.01-3.22-7.54-7.11-10.42-11.57-8.96-13.89-10.28-31.18-3.51-46.26l13.93-31.06,4.67-10.42h5.52v-5h-20.5c-.12-1.06-.19-2.12-.19-3.19,0-8.83,4.1-16.72,10.49-21.87,4.82-3.88,10.94-6.21,17.59-6.21,15.49,0,28.08,12.6,28.08,28.08,0,12.3-9.13,24.03-17.18,34.38Z"/>
  <path d="M1240.08,367.42c8.31,2.88,19.81,4.42,32.53,4.42,3.41,0,6.92-.11,10.47-.34l-.32-4.99c-16.14,1.02-31.1-.37-41.04-3.81-4.62-1.6-7.77-4.07-8.65-6.77l-4.76,1.54c1.38,4.27,5.56,7.81,11.77,9.96Z"/>
  <rect x="1506.44" y="607.6" width="5" height="13.19" transform="translate(7.65 1246.87) rotate(-45)"/>
  <rect x="1486.87" y="611.7" width="13.19" height="5" transform="translate(3.12 1235.93) rotate(-45)"/>
  <rect x="1502.34" y="596.23" width="13.19" height="5" transform="translate(18.55 1242.24) rotate(-45)"/>
  <rect x="1490.97" y="592.13" width="5" height="13.19" transform="translate(14.05 1231.36) rotate(-45)"/>
  <path d="M1779.72,899.47l-2.29.1-.1,2.29c-.3,6.84,2.31,13.55,7.15,18.39,4.59,4.59,10.85,7.17,17.33,7.17.35,0,.71,0,1.06-.02l1.46-.06,1.46.06c.35.02.71.02,1.06.02,6.47,0,12.74-2.58,17.33-7.17,4.85-4.84,7.45-11.55,7.15-18.39l-.1-2.29-2.29-.1c-5.39-.24-10.7,1.33-15.08,4.38.06-.71.1-1.43.1-2.15,0-6.85-2.9-13.44-7.95-18.06l-1.69-1.55-1.69,1.54c-5.06,4.62-7.96,11.21-7.96,18.07,0,.72.04,1.44.1,2.15-4.38-3.05-9.69-4.62-15.08-4.38ZM1814.1,910.16c3.28-3.28,7.63-5.27,12.21-5.64-.38,4.58-2.37,8.93-5.65,12.21-3.28,3.28-7.62,5.27-12.2,5.64.37-4.57,2.36-8.92,5.64-12.2ZM1804.34,889.08c2.97,3.5,4.64,7.99,4.64,12.62s-1.67,9.12-4.64,12.62c-2.97-3.49-4.64-7.98-4.64-12.62s1.67-9.12,4.64-12.62ZM1794.59,910.16c3.28,3.28,5.27,7.63,5.64,12.2-4.58-.38-8.93-2.37-12.2-5.64-3.28-3.28-5.27-7.63-5.65-12.21,4.58.37,8.93,2.36,12.21,5.64Z"/>
  <path d="M1795.79,626.7l-2.29.1-.1,2.29c-.38,8.72,2.94,17.27,9.12,23.44,5.85,5.85,13.83,9.14,22.08,9.14.45,0,.9,0,1.35-.03l1.95-.08,1.95.08c.45.02.9.03,1.35.03,8.25,0,16.23-3.29,22.08-9.14,6.18-6.18,9.5-14.72,9.12-23.44l-.1-2.29-2.29-.1c-7.46-.33-14.79,2.05-20.62,6.62.21-1.47.33-2.96.33-4.46,0-8.73-3.69-17.13-10.13-23.02l-1.69-1.55-1.69,1.54c-6.45,5.89-10.14,14.29-10.14,23.03,0,1.5.12,2.99.33,4.46-5.83-4.56-13.16-6.95-20.62-6.62ZM1840.1,639.34c4.62-4.62,10.82-7.34,17.3-7.65-.31,6.48-3.03,12.68-7.65,17.3s-10.81,7.33-17.29,7.65c.3-6.47,3.02-12.67,7.64-17.3ZM1827.91,611.21c4.36,4.8,6.82,11.11,6.82,17.64s-2.46,12.83-6.82,17.63c-4.36-4.79-6.83-11.09-6.83-17.63s2.46-12.85,6.83-17.64ZM1815.71,639.34c4.63,4.63,7.34,10.82,7.64,17.3-6.48-.31-12.68-3.03-17.29-7.65-4.62-4.62-7.34-10.82-7.65-17.3,6.48.31,12.68,3.02,17.3,7.65Z"/>
  <path d="M1941.64,696.51c-7.36-5.27-23.04-8.11-41.01-3.57-20.02,5.09-31.8,17.58-38.16,27.15-7.97,12.05-10.84,24.42-10.87,31.97-.01,2.59.99,5.03,2.81,6.86,1.62,1.62,3.71,2.6,5.96,2.79v35.68l-6.61,10.38,9.5,82.73h17.8v-52.83l14.67-10.75,12.85,63.58h18.02l-3.63-52.68,27.97-20.07c1.67.15,3.31.24,4.89.24,12.48,0,24.5-2.51,35.78-7.48l10.87,26.2,3.11,53.78h17.74l4.23-52.7,8.33-17.03,16.86,69.73h18.27l-15.47-82.53c14.07-2.97,25.89-13.29,30.46-27.21,10.02-3.53,16.9-13.14,16.9-23.85,0-4.86-1.42-9.62-4.03-13.68,6.22-4.47,9.99-11.72,9.99-19.51,0-4.36-1.16-8.57-3.33-12.23h22.63c3.78,0,7.16-2.54,8.21-6.17l.7-2.4c1.9-6.43-.11-13.47-5.12-17.93l-25.95-23.18c-6.3-5.61-14.41-8.71-22.86-8.71h-46.29l8.41,14.77-16.89,28.41c-4.99-4.51-11.52-7.05-18.37-7.05s-13.33,2.53-18.34,7.02c-6.26-7.13-15.38-11.31-24.92-11.31s-18.85,4.27-25.12,11.55ZM1917.8,835.41l3.46,50.12h-8.57l-12.5-61.83,18.89-13.84c3.6,1.33,14.05,4.98,24.7,6.92l-25.98,18.63ZM2065.01,885.52h-8.31l-17.27-71.41-.3.07,2.6-5.31h5.48c1.14,0,2.28-.05,3.4-.15l14.39,76.8ZM1966.76,689.97c8.92,0,17.4,4.31,22.69,11.52l1.82,2.48,2.06-2.28c4.25-4.72,10.34-7.42,16.69-7.42s12.73,2.82,16.96,7.75l2.27,2.64,21.82-36.7-5.59-9.82h37.69c7.21,0,14.15,2.64,19.53,7.44l25.96,23.18c3.63,3.23,5.02,8.13,3.64,12.79l-.7,2.42c-.44,1.51-1.84,2.56-3.41,2.56h-33.42l3.98,4.22c3.32,3.52,5.15,8.14,5.15,13.02,0,6.92-3.75,13.3-9.78,16.64l-2.62,1.45,1.9,2.32c2.98,3.64,4.55,8.06,4.55,12.78,0,8.95-6.01,16.96-14.61,19.47l-1.32.38-.38,1.32c-4.43,15.17-18.58,25.77-34.41,25.77h-8.6l-15.95,32.61-3.93,49.04h-8.41l-2.89-49.92-13.19-31.8-2.37,1.13c-11.29,5.36-23.41,8.08-36.02,8.08-14.62,0-36.04-8.23-36.25-8.31l-1.28-.49-42.25,30.95v50.36h-8.35l-8.79-76.54,6.44-10.12v-42.1h-4.15c-1.24,0-2.4-.48-3.27-1.36-.88-.88-1.36-2.06-1.36-3.31.03-6.52,2.67-18.09,10.04-29.23,5.87-8.84,16.75-20.37,35.22-25.07,19.06-4.82,34.12-.45,38.3,4.02l2.07,2.21,1.78-2.45c5.29-7.27,13.79-11.61,22.75-11.61Z"/>
  <path d="M1979.17,718.22c9.72,0,17.62,7.91,17.62,17.62h5c0-12.48-10.15-22.62-22.62-22.62s-22.62,10.15-22.62,22.62h5c0-9.72,7.91-17.62,17.62-17.62Z"/>
  <path d="M2039.8,777.65c12.48,0,22.62-10.15,22.62-22.62h-5c0,9.72-7.91,17.62-17.62,17.62s-17.62-7.91-17.62-17.62h-5c0,12.48,10.15,22.62,22.62,22.62Z"/>
  <path d="M1917.32,772.65c-9.72,0-17.62-7.91-17.62-17.62h-5c0,12.48,10.15,22.62,22.62,22.62s22.62-10.15,22.62-22.62h-5c0,9.72-7.91,17.62-17.62,17.62Z"/>
  <path d="M2096.84,685.46c3.47,0,6.28-2.81,6.28-6.28s-2.81-6.28-6.28-6.28-6.28,2.81-6.28,6.28,2.81,6.28,6.28,6.28Z"/>
  <path d="M1945.74,57.85c2.41,0,4.37-1.96,4.37-4.37s-1.96-4.37-4.37-4.37-4.37,1.96-4.37,4.37,1.96,4.37,4.37,4.37ZM1945.74,52.85c.35,0,.63.28.63.63s-.28.63-.63.63-.63-.28-.63-.63.28-.63.63-.63Z"/>
  <path d="M1734.62,115.02c-19.35,28.72-11.74,67.85,16.97,87.25l53.62,36.14v-55.68l63.34,42.43.03-.04,6.1,26.44h-10.39v5h46.02v-5h-30.49l-6.05-26.21h.02s51.08-33.42,51.08-33.42l.06-.04c24.37-16.88,38.91-44.64,38.91-74.24,0-14.87-3.69-29.59-10.67-42.6,1.89-1.96,3.06-4.62,3.06-7.55v-2.87h11.66l.11-2.45c.25-5.27-2.58-10.31-7.2-12.85l-.36-.2.17-.35c1.95-3.88,1.73-8.49-.48-12.15.61-1.52.94-3.11.98-4.76.17-7.53-5.81-13.79-13.33-13.97-.06,0-.11,0-.17,0-2.47-3.52-6.5-5.71-10.85-5.81-7.5-.17-13.79,5.81-13.97,13.33-.09,3.81,1.44,7.51,4.21,10.16l.12.11c.75.63,2.06,1.58,3.35,2.45l-8.31,6.64c-13.17,10.53-23.6,24.31-30.15,39.84l-11.2,26.58-21.05,12.41-37.89-25.56c-28.73-19.36-67.87-11.75-87.25,16.97ZM1869.85,223.22l.1-.14v.12s-.1.02-.1.02ZM1951.22,61.76v5.73c0,3.25-2.65,5.89-5.89,5.89-2.71,0-5.06-1.84-5.72-4.46l-3.64-14.59c-.55-2.21.18-4.5,1.92-5.97l4.23-3.58,12.14,6.66-3.03,10.32ZM1958.74,53.92c2.08,1.27,3.54,3.35,4.06,5.7h-5.74l1.67-5.7ZM1930.4,31.91c-1.74-1.7-2.67-3.96-2.61-6.38.05-2.31,1-4.46,2.68-6.06,1.67-1.6,3.86-2.44,6.18-2.39,3.1.07,5.95,1.82,7.42,4.57l.8,1.48,1.67-.18c.44-.05.8-.07,1.13-.06,4.77.11,8.56,4.08,8.45,8.85-.03,1.38-.39,2.7-1.05,3.92l-.79,1.46,1.03,1.3c1.83,2.3,2.17,5.49.85,8.11l-.09.18-20.33-11.16c-1.12-.64-4.13-2.66-5.32-3.65ZM1859.57,129.52l24.64-14.53h0c5.36-3.29,11.56-4.6,17.91-3.79,7.31.94,14.04,5.02,18.45,11.21,4.5,6.29,6.2,14.15,4.68,21.55-1.21,5.89-4.66,10.82-11.18,15.96l-52.71,36.12v-38.78h-5v48.27l60.6-41.53.13-.1c7.56-5.95,11.58-11.79,13.05-18.94,1.8-8.76-.21-18.04-5.51-25.46-5.22-7.31-13.2-12.14-21.88-13.26-5.22-.67-10.35-.12-15.12,1.59l8.97-21.27c6.23-14.77,16.14-27.87,28.66-37.88l9.75-7.79,2.39,1.31-2.76,2.34c-3.2,2.71-4.56,6.93-3.54,11l3.64,14.59c1.21,4.86,5.56,8.25,10.57,8.25,1.27,0,2.48-.22,3.61-.62,6.47,12.2,9.89,25.97,9.89,39.89,0,27.96-13.73,54.16-36.73,70.12l-49.95,32.67-1.52.09-90.5-60.62c-2.62-1.75-4.4-4.43-5-7.52-.61-3.09.03-6.24,1.79-8.85,1.77-2.62,4.45-4.39,7.55-5,3.1-.6,6.25.04,8.87,1.8l21.04,14.19,2.8-4.15-21.04-14.19c-3.73-2.51-8.21-3.42-12.62-2.57-4.41.86-8.22,3.38-10.74,7.11-2.51,3.72-3.42,8.2-2.55,12.61.86,4.41,3.4,8.21,7.13,10.71l22.86,15.31v12.62l-28.67-19.33c-6.01-4.05-10.09-10.21-11.47-17.33-1.38-7.12.09-14.36,4.14-20.37,4.05-6.02,10.21-10.1,17.33-11.49,7.12-1.39,14.35.09,20.37,4.15l27.1,18.27,2.8-4.15-27.09-18.27c-7.12-4.81-15.69-6.56-24.12-4.91-8.43,1.64-15.72,6.47-20.52,13.6-4.8,7.11-6.54,15.68-4.9,24.11,1.64,8.44,6.47,15.73,13.59,20.53l31.46,21.21v12.48l-37.24-25.12c-19.42-13.12-24.57-39.59-11.48-59,13.12-19.42,39.59-24.57,59-11.48l33.16,22.36,2.8-4.15-33.16-22.36c-21.7-14.63-51.28-8.88-65.94,12.83-14.63,21.7-8.88,51.28,12.83,65.94l40.04,27v12.46l-45.82-30.88c-26.42-17.85-33.43-53.88-15.62-80.31,17.84-26.43,53.86-33.44,80.31-15.62l40.5,27.33Z"/>
  <rect x="1968.54" y="612.5" width="13.19" height="5" transform="translate(143.7 1576.89) rotate(-45)"/>
  <rect x="1953.07" y="627.97" width="13.19" height="5" transform="translate(128.16 1570.35) rotate(-45)"/>
  <rect x="1972.64" y="623.88" width="5" height="13.19" transform="translate(132.62 1581.16) rotate(-45)"/>
  <rect x="1957.17" y="608.41" width="5" height="13.19" transform="translate(139.09 1565.81) rotate(-45)"/>
  <rect x="1695.04" y="215.31" width="5" height="13.19" transform="translate(340.28 1265.34) rotate(-45)"/>
  <rect x="1706.41" y="219.41" width="13.19" height="5" transform="translate(344.81 1276.28) rotate(-45)"/>
  <rect x="1710.51" y="230.79" width="5" height="13.19" transform="translate(333.87 1280.8) rotate(-45)"/>
  <rect x="1690.94" y="234.88" width="13.19" height="5" transform="translate(329.34 1269.87) rotate(-45)"/>
  <rect x="2136.56" y="844.83" width="5" height="13.19" transform="translate(24.47 1761.92) rotate(-45)"/>
  <rect x="2132.46" y="833.46" width="13.19" height="5" transform="translate(35.47 1757.54) rotate(-45)"/>
  <rect x="2116.99" y="848.93" width="13.19" height="5" transform="translate(19.93 1750.98) rotate(-45)"/>
  <rect x="2121.09" y="829.36" width="5" height="13.19" transform="translate(30.87 1746.45) rotate(-45)"/>
</svg>