<svg xmlns="http://www.w3.org/2000/svg" viewBox="0 0 2400 2400">
  <path d="M105.55,1701.61l-2.29.1-.1,2.29c-.3,6.84,2.31,13.55,7.15,18.39,4.59,4.59,10.85,7.17,17.32,7.17.35,0,.71,0,1.06-.02l1.46-.06,1.46.06c.36.02.71.02,1.06.02,6.47,0,12.73-2.58,17.33-7.17,4.85-4.85,7.45-11.55,7.15-18.39l-.1-2.29-2.29-.1c-5.4-.24-10.7,1.33-15.08,4.38.06-.71.1-1.43.1-2.15,0-6.85-2.9-13.44-7.95-18.06l-1.69-1.55-1.69,1.54c-5.06,4.62-7.96,11.21-7.96,18.07,0,.72.04,1.44.1,2.15-4.38-3.05-9.69-4.62-15.08-4.38ZM139.92,1712.29c3.28-3.28,7.63-5.27,12.21-5.64-.38,4.58-2.37,8.93-5.65,12.21-3.28,3.28-7.63,5.27-12.2,5.64.37-4.57,2.36-8.92,5.64-12.2ZM130.17,1691.22c2.97,3.5,4.64,7.99,4.64,12.62s-1.67,9.12-4.64,12.62c-2.97-3.49-4.64-7.98-4.64-12.62s1.67-9.12,4.64-12.62ZM120.42,1712.29c3.28,3.28,5.27,7.63,5.64,12.2-4.58-.38-8.93-2.37-12.2-5.64-3.28-3.28-5.27-7.63-5.65-12.21,4.58.37,8.93,2.36,12.21,5.64Z"/>
  <path d="M112.04,1955.58c4.97.71,10.15,1.07,15.53,1.07,13.03,0,27.2-2.09,42.31-6.24l-1.32-4.82c-36.79,10.11-67.79,7.41-89.66-7.81-16.49-11.47-22.19-26.17-22.24-26.32l-4.68,1.75c.24.65,6.17,16.11,23.81,28.49,10.32,7.24,22.52,11.91,36.26,13.87Z"/>
  <path d="M95.9,1967.08l-.69,4.95c.48.07,6.65.9,16.36.9,5.54,0,12.24-.27,19.69-1.12,7.39.99,15.58,1.59,24.56,1.59,12.47,0,26.48-1.16,41.99-4.07l-.92-4.91c-17.16,3.22-32.4,4.25-45.71,3.93,14.01-3.34,26.88-8.44,38.32-15.21,16.25-9.61,29.64-22.6,39.8-38.61l-4.22-2.68c-22.01,34.7-55.86,47.87-80.39,52.82-4.65.94-9.15,1.62-13.41,2.11-11.14-1.53-20.37-3.95-27.63-6.45-20.05-6.9-29.97-15.84-30.07-15.93l-1.69,1.84-1.69,1.84c.42.39,10.59,9.61,31.51,16.87,2.93,1.02,6.18,2.02,9.73,2.97-9.43,0-15.39-.81-15.53-.83h0Z"/>
  <path d="M70.08,1964.6c-.13-.06-13.51-6.27-20.58-15.12l-3.9,3.12c7.82,9.78,21.81,16.26,22.4,16.54l2.09-4.54Z"/>
  <path d="M69.99,1883.56v.02s0,0,0,0c.46.98.96,1.98,1.5,2.96,2.81,5.06,6.19,9.82,10.05,14.15-3,3.65-3.58,9.87-1.59,17.27,1.92,7.12,5.92,14.22,10.69,18.99,3.98,3.98,9.2,6.26,14.69,6.42.21,0,.41,0,.62,0,5.31,0,10.23-2.01,13.91-5.69,1.58-1.58,2.85-3.39,3.78-5.36.09.26.18.51.27.76,2,5.17,5.85,9.15,10.86,11.19,2.35.96,4.82,1.44,7.3,1.44,2.8,0,5.61-.61,8.29-1.83,5-2.27,8.93-6.39,11.06-11.61.27-.67.53-1.37.76-2.07.52.94,1.12,1.84,1.82,2.71,3.38,4.21,8.29,6.78,13.82,7.22.56.04,1.13.07,1.69.07,4.89,0,9.67-1.69,13.61-4.86,5.38-4.32,10.17-10.96,12.82-17.77,2.93-7.53,2.79-14.1-.37-18.04-1.26-1.57-3.07-2.75-5.31-3.52,11.45-13.89,17.73-31.13,17.73-48.87v-46.06h5.85c2.72,0,5.22-1.49,6.5-3.89,1.29-2.4,1.15-5.3-.36-7.57l-9.59-14.43h10.8v-4.37c.01-3.66-2.02-7.04-5.21-8.76,1.48-3.5,1.14-7.51-.85-10.71.51-1.38.77-2.83.77-4.33,0-6.97-5.67-12.64-12.64-12.64h-.04c-2.37-3.15-6.11-5.05-10.1-5.05-6.97,0-12.64,5.67-12.64,12.64,0,3.47,1.45,6.81,3.98,9.19,0,0,.02.02.02.02-9.84,5.9-17.52,14.9-21.76,25.61l-15.16,38.23-40.28.08-57.92-54.14-15.8,34.62c-3.16,6.92-3.33,14.94-.47,21.99l25.18,61.96c.5,1.23,1.07,2.59,1.72,3.98ZM116.33,1934.17c-2.84,2.84-6.69,4.33-10.84,4.21-4.21-.12-8.22-1.88-11.3-4.96-4.18-4.18-7.7-10.45-9.4-16.76-1.6-5.93-1.25-10.96.91-13.12,1.37-1.37,3.62-2,6.35-2,7.03,0,17.2,4.16,23.53,10.48,3.08,3.08,4.84,7.09,4.96,11.3.12,4.15-1.38,8-4.21,10.84ZM156.79,1930.42h0c-1.65,4.03-4.66,7.2-8.5,8.95-3.78,1.72-7.91,1.83-11.63.31-3.71-1.52-6.58-4.49-8.08-8.37-1.52-3.93-1.45-8.31.2-12.33,4.14-10.12,15.35-19.78,22.14-19.78.77,0,1.48.12,2.12.39,6.41,2.62,8.44,19.34,3.74,30.84ZM201.67,1902.69c1.99,2.47,1.84,7.37-.39,13.1-2.34,6.02-6.57,11.89-11.29,15.68-3.39,2.72-7.57,4.04-11.77,3.7-4.14-.33-7.81-2.24-10.32-5.37-5.22-6.5-3.81-16.34,3.14-21.93,4.61-3.71,11.22-6.52,17.68-7.53,1.6-.25,3.12-.37,4.53-.37,3.94,0,7,.95,8.41,2.7ZM225.81,1792.42c.71,1.07.32,2.06.12,2.44-.2.38-.81,1.25-2.1,1.25h-5.85v-15.48l7.83,11.79ZM203.11,1734.36c2.74,0,5.29,1.49,6.65,3.88l.83,1.46,1.67-.22c.39-.05.71-.07,1-.07,4.21,0,7.64,3.43,7.64,7.64,0,1.22-.29,2.39-.85,3.49l-.76,1.47,1.06,1.27c1.54,1.84,1.96,4.37,1.13,6.59l-21.56-10.61c-.67-.33-1.24-.79-1.72-1.37l-.11-.14-.13-.12c-1.61-1.47-2.49-3.47-2.49-5.63,0-4.21,3.43-7.64,7.64-7.64ZM117.75,1820.15l43.21-.09,16.4-41.38c4.12-10.39,11.81-19.01,21.66-24.28l21.65,10.66-.02.04,2.03.96.92.45c1.4.76,2.36,2.15,2.56,3.72h-13.18v76.95c0,17.43-6.49,34.37-18.29,47.69l.2.17c-2.12-.13-4.45,0-6.94.38-7.28,1.14-14.78,4.34-20.04,8.57-1.65,1.32-3.05,2.83-4.21,4.47-1.25-6.39-4.14-11.62-8.76-13.51-9.77-3.99-25.12,8.77-30.62,21.75-1.08-3.04-2.84-5.84-5.2-8.2-8.93-8.93-24.58-14.57-33.51-10.77-3.75-4.16-7.03-8.73-9.74-13.62-.1-.18-.19-.36-.29-.53h64.93c19.11,0,34.77-15.55,34.91-34.66l-5-.04c-.12,16.38-13.55,29.7-29.93,29.7h-61.24l7.15-10.86h44.5v-5h-41.21l7.15-10.86h39.34v-5h-36.05l17.6-26.72ZM47.39,1799.48l21.33,19.83,3.41-3.66-22.61-21.03,4.48-9.83,29.35,27.29,3.41-3.66-30.57-28.43,4.84-10.6,52.09,48.7-18.95,28.77h-.25v.38l-20.65,31.34c-.13-.3-.25-.6-.37-.89l-25.18-61.96c-2.1-5.19-2.2-11.01-.33-16.25Z"/>
  <path d="M235.57,1952.89l-3.39-3.67c-6.17,5.69-21.69,10.19-21.85,10.23l1.38,4.81c.68-.2,16.82-4.87,23.86-11.37Z"/>
  <path d="M206.89,1772.08c2.19,0,3.96-1.78,3.96-3.96s-1.77-3.96-3.96-3.96-3.96,1.77-3.96,3.96,1.77,3.96,3.96,3.96Z"/>
  <rect x="31.26" y="2022.46" width="13.19" height="5" transform="translate(-1420.87 619.97) rotate(-45)"/>
  <rect x="50.83" y="2018.36" width="5" height="13.19" transform="translate(-1416.24 630.81) rotate(-45)"/>
  <rect x="46.73" y="2006.99" width="13.19" height="5" transform="translate(-1405.3 626.28) rotate(-45)"/>
  <rect x="35.36" y="2002.89" width="5" height="13.19" transform="translate(-1409.74 615.23) rotate(-45)"/>
  <path d="M662.41,1829.08l-.1-2.29-2.29-.1c-7.46-.33-14.79,2.05-20.62,6.62.21-1.47.33-2.96.33-4.46,0-8.73-3.69-17.13-10.13-23.02l-1.69-1.55-1.69,1.54c-6.45,5.89-10.14,14.29-10.14,23.03,0,1.5.12,2.99.33,4.46-5.83-4.56-13.16-6.95-20.62-6.62l-2.29.1-.1,2.29c-.38,8.72,2.94,17.27,9.12,23.44,5.85,5.85,13.83,9.14,22.08,9.14.45,0,.9,0,1.35-.03l1.95-.08,1.95.08c.45.02.9.03,1.35.03,8.25,0,16.23-3.29,22.08-9.14,6.18-6.18,9.5-14.72,9.12-23.44ZM606.06,1848.99c-4.62-4.62-7.34-10.82-7.65-17.3,6.48.31,12.68,3.02,17.3,7.65,4.63,4.63,7.34,10.82,7.64,17.3-6.48-.31-12.68-3.03-17.29-7.65ZM627.91,1846.48c-4.36-4.79-6.83-11.09-6.83-17.63s2.46-12.85,6.83-17.64c4.36,4.8,6.82,11.11,6.82,17.64s-2.46,12.83-6.82,17.63ZM632.46,1856.64c.3-6.47,3.02-12.67,7.64-17.3,4.62-4.62,10.82-7.34,17.3-7.65-.31,6.48-3.03,12.68-7.65,17.3s-10.81,7.33-17.29,7.65Z"/>
  <path d="M762.76,1651.51c-3.94,0-7.14,3.2-7.14,7.14s3.2,7.14,7.14,7.14,7.14-3.2,7.14-7.14-3.2-7.14-7.14-7.14ZM762.76,1660.79c-1.18,0-2.14-.96-2.14-2.14s.96-2.14,2.14-2.14,2.14.96,2.14,2.14-.96,2.14-2.14,2.14Z"/>
  <path d="M799.12,1667.67c0-5.17-2.29-10.02-6.28-13.31l-13.23-10.88c-6.63-5.46-15.75-8.35-26.38-8.36h-27.24c-3.02-14.95-10.31-28.53-21.16-39.38-10.24-10.24-23.06-17.38-37.08-20.67-1.76-.41-3.58.11-4.87,1.4-1.29,1.29-1.81,3.11-1.39,4.87,1.58,6.72,4.05,13.16,7.31,19.17-6.78-.75-13.63-.6-20.43.48-1.79.29-3.28,1.47-3.98,3.16-.7,1.68-.48,3.55.56,5,8.32,11.75,19.76,20.94,33.09,26.58,9.66,4.07,19.87,6.13,30.16,6.13,4.28,0,8.58-.36,12.85-1.08v24.04h-40.89c-15.88,0-30.87,5.94-42.2,16.74-8.5,8.09-14.17,18.21-16.55,29.27-3.34-4.39-8.62-7.23-14.55-7.23-10.07,0-18.27,8.2-18.27,18.27s8.2,18.27,18.27,18.27c5.84,0,11.04-2.75,14.38-7.03,4.69,21.32,23.66,37.34,46.34,37.48h0s56.54,0,56.54,0c0,0,.01,0,.02,0h33.84c1.38,0,2.5-1.12,2.5-2.5,0-4.72-1.84-9.15-5.18-12.49-2.74-2.74-6.23-4.47-10-5v-7.55c18.54-11.44,30-31.89,30.01-53.73l13.45-5.82c6.31-2.73,10.39-8.94,10.39-15.81ZM679.97,1631.12c-12.47-5.27-23.17-13.87-30.96-24.87-.02-.02-.05-.08-.01-.18.05-.12.14-.14.15-.14,7.63-1.2,15.34-1.17,22.91.08,2.91,4.44,6.28,8.6,10.08,12.41,8.32,8.32,18.25,14.54,29.16,18.36-10.67.46-21.32-1.44-31.34-5.66ZM685.68,1614.88c-9.57-9.57-16.26-21.57-19.34-34.68,0-.03-.02-.1.06-.19.06-.06.11-.07.14-.07.02,0,.04,0,.05,0,13.12,3.07,25.11,9.76,34.69,19.33,9.72,9.72,16.38,21.76,19.42,35.03-13.26-3.04-25.31-9.71-35.02-19.42ZM606.83,1735.13c-7.32,0-13.27-5.95-13.27-13.27s5.95-13.27,13.27-13.27,13.27,5.95,13.27,13.27-5.95,13.27-13.27,13.27ZM711.72,1765.58h0s-24.87,0-24.87,0c4.55-2.58,8.53-6.05,11.7-10.17h10.37c6.13,0,11.26,4.38,12.42,10.17h-9.63ZM771.78,1685.37c-.92.4-1.51,1.3-1.51,2.29v1.61c0,20.57-11.02,39.8-28.77,50.19-.77.45-1.24,1.27-1.24,2.16v11.29c0,1.38,1.12,2.5,2.5,2.5,3.39,0,6.57,1.32,8.97,3.71,1.79,1.79,2.98,4.03,3.47,6.46h-28.79c-1.22-8.56-8.6-15.17-17.49-15.17h-7.1c3.02-5.51,4.73-11.82,4.73-18.53,0-17.35-14.11-31.46-31.46-31.46v5c14.59,0,26.46,11.87,26.46,26.46,0,18.58-15.12,33.7-33.7,33.7-23.57,0-42.75-19.18-42.75-42.75,0-29.24,24.69-53.03,55.03-53.03h43.39c1.38,0,2.5-1.12,2.5-2.5v-27.19h27.19c6.59,0,15.97,1.27,23.21,7.22l13.23,10.88c2.83,2.33,4.46,5.77,4.46,9.44,0,4.88-2.89,9.29-7.38,11.22l-14.96,6.47Z"/>
  <rect x="768.54" y="1812.5" width="13.19" height="5" transform="translate(-1056.37 1079.72) rotate(-45)"/>
  <rect x="753.07" y="1827.97" width="13.19" height="5" transform="translate(-1071.88 1073.4) rotate(-45)"/>
  <rect x="772.64" y="1823.88" width="5" height="13.19" transform="translate(-1067.31 1084.24) rotate(-45)"/>
  <rect x="757.17" y="1808.41" width="5" height="13.19" transform="translate(-1060.86 1068.66) rotate(-45)"/>
  <path d="M1437.43,1464.24l-.1-2.29-2.29-.1c-7.46-.33-14.79,2.05-20.62,6.62.21-1.47.33-2.96.33-4.46,0-8.73-3.69-17.13-10.13-23.02l-1.69-1.55-1.69,1.54c-6.45,5.89-10.14,14.29-10.14,23.03,0,1.5.12,2.99.33,4.46-5.83-4.56-13.16-6.95-20.62-6.62l-2.29.1-.1,2.29c-.38,8.72,2.94,17.27,9.12,23.44,5.85,5.85,13.83,9.14,22.08,9.14.45,0,.9,0,1.35-.03l1.95-.09,1.95.09c.45.02.9.03,1.35.03,8.25,0,16.23-3.29,22.08-9.14,6.18-6.18,9.5-14.72,9.12-23.44ZM1381.08,1484.15c-4.62-4.62-7.34-10.82-7.65-17.3,6.48.31,12.68,3.02,17.3,7.65,4.62,4.63,7.34,10.82,7.64,17.3-6.48-.31-12.68-3.03-17.29-7.65ZM1402.93,1481.64c-4.36-4.79-6.83-11.09-6.83-17.63s2.46-12.85,6.83-17.64c4.36,4.8,6.82,11.11,6.82,17.64s-2.46,12.83-6.82,17.63ZM1424.78,1484.15c-4.62,4.62-10.82,7.33-17.29,7.65.3-6.47,3.02-12.67,7.64-17.3,4.62-4.62,10.82-7.34,17.3-7.65-.31,6.48-3.03,12.68-7.65,17.3Z"/>
  <path d="M1381.37,2073.58c.35,0,.71,0,1.06-.02l1.47-.06,1.47.06c.35.02.71.02,1.06.02,6.47,0,12.73-2.58,17.33-7.17,4.85-4.85,7.45-11.55,7.15-18.39l-.1-2.29-2.29-.1c-5.4-.24-10.7,1.33-15.08,4.38.06-.71.1-1.43.1-2.15,0-6.85-2.9-13.44-7.95-18.06l-1.69-1.55-1.69,1.54c-5.06,4.62-7.96,11.21-7.96,18.07,0,.72.04,1.44.1,2.15-4.38-3.05-9.68-4.62-15.08-4.38l-2.29.1-.1,2.29c-.3,6.84,2.31,13.55,7.15,18.39,4.59,4.59,10.85,7.17,17.33,7.17ZM1393.65,2056.31c3.28-3.28,7.63-5.27,12.21-5.64-.38,4.58-2.37,8.93-5.65,12.21-3.28,3.28-7.62,5.27-12.2,5.64.37-4.57,2.36-8.92,5.64-12.2ZM1383.9,2035.24c2.97,3.5,4.64,7.99,4.64,12.62s-1.67,9.12-4.64,12.62c-2.97-3.49-4.64-7.98-4.64-12.62s1.67-9.12,4.64-12.62ZM1374.14,2056.31c3.28,3.28,5.27,7.63,5.64,12.2-4.58-.38-8.93-2.37-12.2-5.64h0c-3.28-3.28-5.27-7.63-5.65-12.21,4.58.37,8.93,2.36,12.21,5.64Z"/>
  <path d="M1308.9,2328.99l-2.29-.1c-5.39-.24-10.7,1.33-15.08,4.38.06-.71.1-1.43.1-2.15,0-6.85-2.9-13.44-7.95-18.06l-1.69-1.55-1.69,1.54c-5.06,4.62-7.96,11.21-7.96,18.07,0,.72.04,1.44.1,2.15-4.38-3.05-9.69-4.62-15.08-4.38l-2.29.1-.1,2.29c-.3,6.84,2.31,13.55,7.15,18.39,4.59,4.59,10.85,7.17,17.33,7.17.35,0,.71,0,1.06-.02l1.47-.06,1.47.06c.35.02.71.02,1.06.02,6.47,0,12.74-2.58,17.33-7.17,4.85-4.84,7.45-11.55,7.15-18.39l-.1-2.29ZM1265.68,2346.13c-3.28-3.28-5.27-7.63-5.65-12.21,4.58.37,8.93,2.36,12.21,5.64,3.28,3.28,5.27,7.63,5.64,12.2-4.58-.38-8.93-2.37-12.2-5.64ZM1282,2343.74c-2.97-3.49-4.64-7.98-4.64-12.62s1.67-9.12,4.64-12.62c2.97,3.5,4.64,7.99,4.64,12.62s-1.67,9.12-4.64,12.62ZM1298.31,2346.13c-3.28,3.28-7.62,5.27-12.2,5.64.37-4.57,2.36-8.92,5.64-12.2,3.28-3.28,7.63-5.27,12.21-5.64-.38,4.58-2.37,8.93-5.65,12.21Z"/>
  <path d="M1499.78,2273.28l-.1-2.29-2.29-.1c-7.46-.33-14.79,2.06-20.62,6.62.21-1.47.33-2.96.33-4.46,0-8.73-3.69-17.13-10.13-23.02l-1.69-1.55-1.69,1.54c-6.45,5.89-10.14,14.29-10.14,23.03,0,1.5.12,2.99.33,4.46-5.83-4.56-13.15-6.94-20.62-6.62l-2.29.1-.1,2.29c-.38,8.72,2.94,17.27,9.12,23.44,5.85,5.85,13.83,9.14,22.08,9.14.45,0,.9,0,1.35-.03l1.95-.09,1.95.09c.45.02.9.03,1.35.03,8.25,0,16.23-3.29,22.08-9.14,6.18-6.18,9.5-14.72,9.12-23.44ZM1443.43,2293.19c-4.62-4.62-7.34-10.82-7.65-17.3,6.48.31,12.68,3.02,17.3,7.65,4.62,4.63,7.34,10.82,7.64,17.3-6.48-.31-12.68-3.03-17.29-7.65ZM1465.28,2290.68c-4.36-4.79-6.83-11.09-6.83-17.63s2.46-12.85,6.83-17.64c4.36,4.8,6.82,11.11,6.82,17.64s-2.46,12.83-6.82,17.63ZM1487.13,2293.19c-4.62,4.62-10.81,7.33-17.29,7.65.3-6.47,3.02-12.67,7.64-17.3,4.62-4.62,10.83-7.34,17.3-7.65-.31,6.48-3.03,12.68-7.65,17.3h0Z"/>
  <path d="M1450.67,1291.7v56.96c0,23.67,8.63,46.41,24.31,64.01,15.58,17.5,36.82,28.43,59.9,30.85v22.76h-43.68l33.63,25.04,23.19-16.35v-30.96c19.98-.61,39.18-7.39,55.08-19.63,18.74-14.42,31.45-35.15,35.8-58.36l.55-2.96h-76.17l-1.97-1.95c-14.49-14.3-35.09-22.5-56.54-22.5h-21.94l.09-69.96c0-15.34-12.48-27.83-27.83-27.83h-46.98c-2.87,0-5.2,2.33-5.2,5.2,0,2,1.17,3.84,2.97,4.7l25.76,12.23c.04,7.25,4.35,13.77,11.02,16.63,4.86,2.08,7.99,6.84,7.99,12.12ZM1431.66,1257.42l-23.62-11.21c-.07-.03-.11-.1-.11-.18,0-.11.09-.2.2-.2h23.53v11.59ZM1543.03,1472.38l-18.11,12.77-18.62-13.87h33.59v-27.36c1.05.06,2.1.1,3.15.12v28.34ZM1633.39,1368.06c-3.62,16.4-11.44,30.84-22.16,42.35l-42.87-42.35h65.03ZM1436.66,1262.86v-17.04h18.45c12.59,0,22.83,10.24,22.83,22.82l-.1,74.96h26.95c20.14,0,39.47,7.67,53.02,21.05l47.88,47.29h-54.6c-11.03,0-21.45-4.24-29.34-11.95l-28.94-28.27-3.49,3.58,28.94,28.27c8.83,8.63,20.49,13.38,32.84,13.38h53.37c-18.11,15.75-42.41,24.16-68.22,21.69-45.92-4.39-80.55-43.08-80.55-89.98v-56.96c0-7.28-4.33-13.85-11.02-16.72-4.85-2.08-7.99-6.84-7.99-12.12Z"/>
  <circle cx="1448.85" cy="1255.9" r="4.07"/>
  <path d="M1252.99,2149.88c10.12,0,18.36-8.24,18.36-18.36s-8.24-18.36-18.36-18.36-18.36,8.24-18.36,18.36,8.24,18.36,18.36,18.36ZM1252.99,2118.16c7.37,0,13.36,5.99,13.36,13.36s-5.99,13.36-13.36,13.36-13.36-5.99-13.36-13.36,5.99-13.36,13.36-13.36Z"/>
  <polygon points="1475.24 2147.48 1477.9 2151.72 1479.71 2150.59 1481.47 2155.28 1486.15 2153.52 1482.24 2143.1 1475.24 2147.48"/>
  <path d="M1491.42,2118.12l9.98-26.59.41-32.14-21.55,24.16.31-24.16-49.31,55.29-55.3,24.13h-28.91c.53-2.35.82-4.79.82-7.3,0-18.36-14.93-33.29-33.29-33.29-13.88,0-25.8,8.54-30.79,20.65-4.99-12.1-16.91-20.65-30.79-20.65-18.36,0-33.29,14.93-33.29,33.29,0,2.51.29,4.95.82,7.3h-50.17c-12.12,0-21.97,9.86-21.97,21.97v93.33h5v-93.33c0-8.78,6.71-16.03,15.26-16.89v59.78l11.22,50.49-11.3,28.25,12.43,74.91h30.69l-11.13-18.68-.02-45.12,40.77-46.16c18.37,6.22,37.57,9.24,58.64,9.24h45.84v82.41l4.58,18.31h30.26l-9.73-18.51,15.95-83.46,68.28-66.07,28.52,19.21c6.58,4.44,15.46,4.01,21.59-1.03l4.12-3.39c5.87-4.83,8.1-12.88,5.55-20.03l-23.48-65.94ZM1314.56,2103.23c15.6,0,28.29,12.69,28.29,28.29s-12.69,28.29-28.29,28.29-28.29-12.69-28.29-28.29,12.69-28.29,28.29-28.29ZM1314.56,2164.81c14.01,0,26.02-8.71,30.92-20.99h28.49v40.81c0,8.06-6.56,14.62-14.62,14.62h-82.59c-8.06,0-14.62-6.56-14.62-14.62v-21.11c9.82-2.81,17.79-10.02,21.63-19.36,4.99,12.1,16.91,20.65,30.79,20.65ZM1252.99,2103.23c15.6,0,28.29,12.69,28.29,28.29s-12.69,28.29-28.29,28.29-28.29-12.69-28.29-28.29,12.69-28.29,28.29-28.29ZM1506.17,2200.23l-4.12,3.39c-4.44,3.65-10.86,3.96-15.62.75l-31.88-21.48-71.76,69.44-.57.55-16.58,86.73,6.69,12.74h-18.08l-3.48-13.92v-86.79h-50.84c-21.11,0-40.27-3.11-58.58-9.51l-1.59-.55-39.76,45.01-4.49,5.08.03,48.39,4.46,7.49,2.87,4.81h-17.65l-11.5-69.35,11.36-28.39-11.44-51.46v-59.31h48.43c4.9,12.28,16.91,20.99,30.92,20.99,1.41,0,2.79-.1,4.16-.27v20.09c0,10.82,8.8,19.62,19.62,19.62h82.59c10.82,0,19.62-8.8,19.62-19.62v-41.67l54.78-23.91.5-.22,41.14-46.13-.21,16.62-21.37,24.04,3.74,3.32,39.09-43.97-.23,17.87-10.31,27.48,24.1,67.66c1.84,5.18.23,11-4.01,14.49Z"/>
  <rect x="1486.87" y="2373.8" width="13.19" height="5" transform="translate(-1242.92 1752.27) rotate(-45)"/>
  <rect x="1506.44" y="2369.7" width="5" height="13.19" transform="translate(-1238.34 1762.98) rotate(-45)"/>
  <rect x="1502.34" y="2358.33" width="13.19" height="5" transform="translate(-1227.39 1758.41) rotate(-45)"/>
  <rect x="1490.97" y="2354.23" width="5" height="13.19" transform="translate(-1231.94 1747.55) rotate(-45)"/>
  <rect x="2385.67" y="1734.6" width="13.19" height="5" transform="translate(-527.64 2200.37) rotate(-45)"/>
  <rect x="2389.76" y="1715.03" width="5" height="13.19" transform="translate(-516.7 2195.84) rotate(-45)"/>
  <rect x="1537.54" y="1273.78" width="13.19" height="5" transform="translate(-450.2 1465.69) rotate(-45)"/>
  <rect x="1522.07" y="1289.26" width="13.19" height="5" transform="translate(-465.68 1459.17) rotate(-45)"/>
  <rect x="1526.17" y="1269.69" width="5" height="13.19" transform="translate(-454.72 1454.89) rotate(-45)"/>
  <rect x="1541.64" y="1285.16" width="5" height="13.19" transform="translate(-461.14 1470.22) rotate(-45)"/>
  <path d="M2053.41,1776.73c.35,0,.71,0,1.06-.02l1.47-.06,1.46.06c.35.02.71.02,1.06.02,6.47,0,12.73-2.58,17.32-7.17,4.85-4.85,7.45-11.55,7.15-18.39l-.1-2.29-2.29-.1c-5.39-.24-10.7,1.33-15.08,4.38.06-.71.1-1.43.1-2.15,0-6.85-2.9-13.44-7.95-18.06l-1.69-1.55-1.69,1.54c-5.06,4.62-7.96,11.21-7.96,18.07,0,.72.04,1.44.1,2.15-4.38-3.05-9.68-4.62-15.08-4.38l-2.29.1-.1,2.29c-.3,6.84,2.31,13.55,7.15,18.39,4.59,4.59,10.85,7.17,17.33,7.17ZM2065.69,1759.46c3.28-3.28,7.63-5.27,12.21-5.64-.38,4.58-2.37,8.93-5.65,12.21-3.28,3.28-7.62,5.27-12.2,5.64.37-4.57,2.36-8.92,5.64-12.2ZM2055.94,1738.38c2.97,3.5,4.64,7.99,4.64,12.62s-1.67,9.12-4.64,12.62c-2.97-3.49-4.64-7.98-4.64-12.62s1.67-9.12,4.64-12.62ZM2046.18,1759.46c3.28,3.28,5.27,7.63,5.64,12.2-4.58-.38-8.93-2.37-12.2-5.64-3.28-3.28-5.27-7.63-5.65-12.21,4.58.37,8.93,2.36,12.21,5.64Z"/>
  <path d="M2227.9,1630.96c-12.4,0-22.49,10.09-22.49,22.49h5c0-9.65,7.85-17.49,17.49-17.49s17.49,7.85,17.49,17.49h5c0-12.4-10.09-22.49-22.49-22.49Z"/>
  <path d="M2172.12,1691.45c-9.65,0-17.49-7.85-17.49-17.49h-5c0,12.4,10.09,22.49,22.49,22.49s22.49-10.09,22.49-22.49h-5c0,9.65-7.85,17.49-17.49,17.49Z"/>
  <circle cx="2104.34" cy="1592.23" r="6.24"/>
  <path d="M2348.65,1671.44c1.81-1.81,2.81-4.22,2.81-6.78,0-7.56-2.86-19.95-10.87-32.06-6.34-9.57-18.1-22.05-38.17-27.14-17.94-4.55-33.62-1.72-40.99,3.54-6.25-7.26-15.45-11.53-25.12-11.53s-18.66,4.18-24.92,11.31c-5.02-4.5-11.56-7.04-18.35-7.04s-13.32,2.52-18.31,7.02l-4.69-8.28c.3.01.61.02.92.02.22,0,.45,0,.68,0,8.29-.22,16-3.65,21.71-9.67,5.71-6.02,8.73-13.9,8.51-22.19-.27-10.2-4.49-19.68-11.89-26.7-7.4-7.02-17.08-10.74-27.29-10.47-12.58.33-24.28,5.54-32.94,14.67-5.38,5.67-9.19,12.43-11.22,19.76-7.89.27-15.42,3.27-21.33,8.55l-26.38,23.67c-4.24,3.8-5.97,9.79-4.41,15.27l.02.07c1.82,6.42,7.76,10.9,14.43,10.9h16.58c-2.26,3.5-3.3,7.13-3.3,11.32,0,7.81,3.78,15.08,10.03,19.57-2.62,4.07-4.04,8.85-4.04,13.73,0,10.78,7.03,20.47,17.26,24.04,4.52,13.77,16.15,24,30.01,27.05l-15.37,82.02h18.19l16.25-67.19,7.23,14.45,4.54,52.74h16.88l3.7-53.8,10.92-25.8c11.53,4.97,24.04,7.58,36.36,7.58,1.72,0,3.49-.08,5.3-.21l27.72,19.88-3.61,52.34h17.93l12.87-63.64,15.39,11.02v52.62h17.65l11.8-81.81-8.86-10.24v-35.8c2.42-.1,4.67-1.08,6.39-2.8ZM2146.26,1797.09h-8.23l14.29-76.25c1.22.11,2.46.18,3.7.18h3.47l3.48,6.95-16.71,69.12ZM2289.32,1797.09h-8.48l3.43-49.78-25.54-18.32c8.02-1.29,16.47-3.71,24.47-7.06l18.62,13.33-12.5,61.83ZM2345.84,1721.82l-10.85,75.27h-8.32v-50.19l-42.85-30.68-1.3.56c-9.75,4.24-20.24,7.02-29.72,7.94h-.02s0,0,0,0c-2.3.22-4.54.34-6.7.34-12.44,0-25.1-2.83-36.61-8.18l-2.35-1.09-13.25,31.3-3.44,49.98h-7.62l-4.23-49.12-10.31-20.6v-.03s-.02,0-.02,0l-5.66-11.31h-6.56c-15.76,0-29.85-10.56-34.26-25.69l-.38-1.32-1.32-.38c-8.81-2.56-14.96-10.64-14.96-19.65,0-4.73,1.58-9.16,4.56-12.83l1.88-2.31-2.61-1.45c-6.06-3.37-9.82-9.77-9.82-16.7,0-4.57,1.59-8.19,5.3-12.1l4.01-4.22h-27.59c-4.45,0-8.41-2.99-9.63-7.28l-.02-.07c-1.04-3.65.12-7.65,2.94-10.18l26.37-23.66c4.71-4.2,10.63-6.71,16.88-7.2-.47,2.89-.67,5.84-.59,8.83l5-.13c-.3-11.24,3.8-21.93,11.54-30.09,7.74-8.16,18.2-12.82,29.44-13.11,8.86-.23,17.28,3,23.71,9.1,6.43,6.1,10.1,14.34,10.34,23.2.38,14.36-11,26.35-25.35,26.73-11.2.29-20.57-8.59-20.87-19.8-.11-4.21,1.42-8.21,4.32-11.27,2.9-3.06,6.82-4.8,11.03-4.91,3.23-.08,6.31,1.09,8.66,3.32,2.35,2.23,3.69,5.24,3.77,8.47.13,5.07-3.88,9.3-8.95,9.43l.13,5c7.82-.21,14.02-6.74,13.82-14.56-.25-9.44-8.13-16.91-17.56-16.66-5.55.15-10.7,2.44-14.52,6.47-3.82,4.03-5.84,9.3-5.69,14.84.3,11.21,7.87,20.55,18.07,23.61l10.07,17.77,2.32-2.69c4.25-4.94,10.43-7.77,16.96-7.77s12.43,2.71,16.7,7.44l2.06,2.28,1.82-2.48c5.29-7.22,13.78-11.52,22.7-11.52s17.48,4.33,22.75,11.58l1.77,2.44,2.07-2.2c4.2-4.46,19.27-8.81,38.29-3.99,18.52,4.7,29.38,16.22,35.23,25.05,7.41,11.2,10.04,22.79,10.04,29.31,0,1.23-.48,2.38-1.34,3.25-.87.87-2.02,1.34-3.25,1.34h-4.61v42.65l8.58,9.93Z"/>
  <path d="M2290.49,1694.03c-9.65,0-17.49-7.85-17.49-17.49h-5c0,12.4,10.09,22.49,22.49,22.49s22.49-10.09,22.49-22.49h-5c0,9.65-7.85,17.49-17.49,17.49Z"/>
  <path d="M2392.98,1472.62c-13.94,14.22-30.24,17.79-36.56,18.81-2.86.46-4.94,2.9-4.94,5.8,0,3.24,2.64,5.88,5.88,5.88h41.82l-17.69,39.43c-7.46,16.63-6.01,35.7,3.87,51.02,3.91,6.05,8.89,11.14,14.62,15.09v-6.23c-4.01-3.22-7.54-7.11-10.42-11.57-8.96-13.89-10.28-31.18-3.51-46.26l13.93-31.06v-15.42h-10.31c-.12-1.06-.19-2.12-.19-3.19,0-8.83,4.1-16.72,10.49-21.87v-6.21c-2.61,1.61-4.98,3.55-7.02,5.77ZM2384.66,1498.12h-27.29c-.49,0-.88-.4-.88-.88,0-.43.31-.8.74-.87,5.29-.86,17.01-3.6,29-11.95-1.11,3.31-1.72,6.84-1.72,10.52,0,1.06.05,2.13.16,3.19Z"/>
  <path d="M436.04,407.39c6.98,0,12.67-5.68,12.67-12.67s-5.68-12.67-12.67-12.67-12.67,5.68-12.67,12.67,5.68,12.67,12.67,12.67ZM436.04,387.06c4.23,0,7.67,3.44,7.67,7.67s-3.44,7.67-7.67,7.67-7.67-3.44-7.67-7.67,3.44-7.67,7.67-7.67Z"/>
  <path d="M268.83,316.99h-4.39c-8.79,0-15.94,7.15-15.94,15.94v80.09h5v-80.09c0-6.03,4.91-10.94,10.94-10.94h4.39v88.47l-6.36,32.05-.06.32,5.42,86.57h18.63l2.28-46.74,14.24,46.74h20.84l-8.26-56.94h18.34v13.77c0,1.38,1.12,2.5,2.5,2.5s2.5-1.12,2.5-2.5v-13.77h11.27v13.77c0,1.38,1.12,2.5,2.5,2.5s2.5-1.12,2.5-2.5v-13.77h.78l16.94-24.4,67.61-.09,5.08,81.43h19.14l3.54-70.99,5.41,16.57h0s17.78,54.43,17.78,54.43h20.81l-14.98-82.95,50.41-75.77,50.54,8.13c3.15.51,6.37-.54,8.63-2.79l7.06-7.06c3.46-3.46,3.88-9.04.96-12.98l-45.77-61.81,23.94-13.77h-55.94l13.28,20.23-18.26-8.03h-22.75l13.78,18.77-25.08,5.63h-229.26ZM318.05,524.4h-11.36l-15.82-51.94h19.65l7.54,51.94ZM353.33,467.46h-63.84l.33-6.8,24.15-28.46,53.49,14.92-14.12,20.35ZM506.28,524.4h-11.2l-21.4-65.53h0s-3.53-10.81-3.53-10.81h3.53s18.82-.03,18.82-.03l13.79,76.37ZM519.26,297.59h11.82l18.06,7.95-20.65,4.63-9.23-12.58ZM273.83,321.99h53.05c-1.76,4.77-2.68,9.85-2.68,14.98,0,23.87,19.42,43.29,43.29,43.29,6.55,0,12.76-1.46,18.33-4.08-.4-1.2-.62-2.49-.62-3.83,0-.51.03-1.01.1-1.5-5.32,2.81-11.38,4.41-17.81,4.41-21.11,0-38.29-17.18-38.29-38.29,0-5.16,1.05-10.27,3.05-14.98h70.49c2,4.71,3.05,9.82,3.05,14.98,0,8.71-2.93,16.75-7.85,23.2,1.86.08,3.61.57,5.17,1.4,4.84-6.99,7.69-15.47,7.69-24.59,0-5.13-.92-10.21-2.68-14.98h90.54l62.55-14.03-14.81-22.57h27.96l-12.58,7.23,49.11,66.33c1.45,1.96,1.25,4.74-.48,6.47l-7.06,7.06c-1.12,1.12-2.73,1.64-4.3,1.39l-53.71-8.64-51.76,77.8-19.88.02h-9.65s-4.05,81.34-4.05,81.34h-9.68l-5.08-81.43-73.66.1-59.31-16.54-27.32,32.2-3.21,65.68h-9.17l-5.08-81.23,6.39-32.22v-88.96Z"/>
  <path d="M464.74,372.49c-2.39-2.77-3.83-6.37-3.83-10.3,0-7.67,5.5-14.08,12.76-15.5h0c.98-.19,2-.3,3.04-.3,8.71,0,15.8,7.09,15.8,15.8s-7.03,15.74-15.69,15.8c.93,1.46,1.56,3.12,1.81,4.91,10.57-.97,18.88-9.89,18.88-20.71,0-11.47-9.33-20.8-20.8-20.8-1.03,0-2.05.08-3.04.22-10.03,1.48-17.76,10.14-17.76,20.58,0,4.54,1.47,8.74,3.94,12.17,1.45-.95,3.1-1.6,4.89-1.87Z"/>
  <path d="M777.17,943.9l-2.29.1-.1,2.29c-.3,6.84,2.31,13.55,7.15,18.39h0c4.59,4.59,10.85,7.17,17.32,7.17.35,0,.71,0,1.06-.02l1.46-.06,1.46.06c.36.02.71.02,1.06.02,6.47,0,12.73-2.58,17.32-7.17,4.85-4.85,7.45-11.55,7.15-18.39l-.1-2.29-2.29-.1c-5.39-.24-10.7,1.33-15.08,4.38.06-.71.1-1.43.1-2.15,0-6.85-2.9-13.44-7.95-18.06l-1.69-1.55-1.69,1.54c-5.06,4.62-7.96,11.21-7.96,18.07,0,.72.04,1.44.1,2.15-4.38-3.05-9.69-4.62-15.08-4.38ZM811.55,954.58c3.28-3.28,7.63-5.27,12.21-5.64-.38,4.58-2.37,8.93-5.65,12.21-3.28,3.28-7.62,5.27-12.2,5.64.37-4.57,2.36-8.92,5.64-12.2ZM801.8,933.51c2.97,3.5,4.64,7.99,4.64,12.62s-1.67,9.12-4.64,12.62c-2.97-3.49-4.64-7.98-4.64-12.62s1.67-9.12,4.64-12.62ZM792.04,954.58c3.28,3.28,5.27,7.63,5.64,12.2-4.58-.38-8.93-2.36-12.2-5.64h0c-3.28-3.28-5.27-7.63-5.65-12.21,4.58.37,8.93,2.36,12.21,5.64Z"/>
  <rect x="564.14" y="325.12" width="12.2" height="5"/>
  <path d="M1120.78,107.12c3.54,0,6.42-2.87,6.42-6.42s-2.87-6.42-6.42-6.42-6.42,2.87-6.42,6.42,2.87,6.42,6.42,6.42Z"/>
  <path d="M1148.27,153.03h3.56l4.87,31.03-.06,13.64h14.3l16.99-40.38,9.96,26.8v13.59h14.32l5.07-13.41,4.45-31.26h32.42c9.5,0,18.88-1.5,27.91-4.45l7.47,18.62v16.05l-3.86,14.45h14.8l7.89-13.21,7.79-38.29,15.76,21.4-.03,15.66-3.6,14.44h14.66l8.98-13.17,17.39-102.99c1.87-11.37-.16-23.07-5.7-33.15,10.04-14.74,6.67-23.58,3.25-27.87,1.67-2.13,3.13-5.27,3.13-9.74h-5c0,2.53-.62,4.66-1.85,6.37-3.9-2.54-8.78-3.37-12.11-1.88-2.19.98-3.44,2.84-3.44,5.11s1.27,4,3.48,4.99c2.97,1.33,7.89,1.13,12.07-1.51,3.53,4.66,2.61,11.77-2.6,20.09l-4.77-6.26-.2-.23c-8.9-9.14-21.54-14.46-36.56-15.37-37.16-2.26-82.53,5.67-119.01,14.29-29.12,6.89-52.57,14.22-61.63,17.16l-42.63-18.3c-.42-.19-.84-.37-1.27-.54l-.13-.05h0s-.03-.01-.05-.02l-3.31-1.34-.12,3.57c-.27,7.83,1.85,15.46,6.14,22.05,3.73,5.73,8.85,10.29,14.91,13.31l-16.66,31.11-13.78,5.47v-5.04h-5v25.64l8.97,5.6c18.86,11.79,40.59,18.02,62.83,18.02ZM1353.11,20.81c-.05-.02-.53-.24-.53-.43,0-.17,0-.33.48-.55.43-.19,1.02-.29,1.72-.29,1.15,0,2.59.28,4.03.93-2.25.9-4.51.88-5.71.34ZM1167.62,192.71h-5.96l.04-9.02-4.81-30.65h27.42l-16.69,39.67ZM1303.63,182.66l-6,10.04h-5.45l2.35-8.8v-17.67l-7.73-19.27,23.9-8.17,1.45,1.97-8.52,41.89ZM1101.19,56.19c-3.01-4.62-4.79-9.83-5.24-15.25,4.77,2.61,8.8,6.35,11.81,10.98,3,4.62,4.79,9.83,5.25,15.25-4.77-2.61-8.81-6.36-11.82-10.98ZM1081.47,114.19l17.33-6.88,18.73-34.98c.37-.48.58-1.07.59-1.68.14-7.62-1.99-15.04-6.16-21.45-.49-.75-1.01-1.49-1.55-2.2l27.72,11.9.9-.29c8.17-2.67,31.59-10.07,60.97-17.08,36.3-8.65,81.7-16.68,118.7-14.44,13.7.83,25.16,5.59,33.17,13.76l6.65,8.71c5.53,9.37,7.61,20.44,5.85,31.16l-17.21,101.9-6.87,10.08h-5.62l2.2-8.82.04-17.92-25.39-34.48c-7.37-10-11.26-21.86-11.26-34.29v-11.96h-5v11.96c0,13.51,4.23,26.39,12.24,37.26l.09.13-26.06,8.9c-8.83,3.02-18.04,4.55-27.38,4.55h-31.71l2.22-15.59v-11.69h-5v11.34l-7.25,50.95-3.65,9.66h-5.86v-9.49l-2.89-7.78-10.19-27.41h-41.54c-21.3,0-42.11-5.97-60.18-17.26l-6.62-4.13v-12.45Z"/>
  <path d="M894.53,1110.96l-1.27,2.15-1.27,2.15c.72.42,13.12,7.58,30.98,7.58,7.23,0,15.35-1.17,23.95-4.44l-1.77-4.67c-27.54,10.46-50.39-2.65-50.62-2.78Z"/>
  <path d="M948.18,921.39c-2.67,0-4.84,2.17-4.84,4.84s2.17,4.84,4.84,4.84,4.84-2.17,4.84-4.84-2.17-4.84-4.84-4.84ZM948.18,926.39c-.09,0-.16-.07-.16-.16s.07-.16.16-.16.16.07.16.16-.07.16-.16.16Z"/>
  <path d="M1009.14,966.23c2.67,0,4.84-2.17,4.84-4.84s-2.17-4.84-4.84-4.84-4.84,2.17-4.84,4.84,2.17,4.84,4.84,4.84ZM1009.14,961.23c.09,0,.16.07.16.16s-.07.16-.16.16-.16-.07-.16-.16.07-.16.16-.16Z"/>
  <path d="M965.59,933.2l19.66-10.68c1.98-1.05,3.22-3.1,3.22-5.35,0-3.34-2.73-6.06-6.08-6.06h-40.61c-7.78,0-15.08,3.42-20.04,9.39-4.11,4.93-6.37,10.89-6.37,16.77v66.59c0,3.74-3.04,6.77-6.77,6.77h-8.52c-81.39,0-124.31,41.56-126.11,43.34l-1.82,1.81,1.65,1.64c12.83,23.92,42,49.91,73.57,54.18,18.31,21.49,45.04,35.09,74.03,36.98v24.16l34.78,18.89,26.38-30.2h-47.11v-12.8c17.03-.85,46.62-5.91,66.22-29.18,11.22-13.32,17.1-29.31,17.98-48.88.76-16.91-2.19-33.71-5.05-49.96-2.15-12.24-4.19-23.85-4.21-33.84l4.7-1.51c6.48-2.08,10.83-8.05,10.83-14.86v-1.03l20.48-11.14c1.98-1.05,3.21-3.11,3.21-5.36,0-5.04-3.56-5.58-5.08-5.58h-42.22c-7.86,0-14.58,3.09-19.42,8.93-3.48,4.2-7.21,11.05-7.21,17.7v66.35c0,3.61-2.94,6.55-6.55,6.55h-9.37c2.96-12.87-.63-31.51-4.42-51.15-2.94-15.23-5.97-30.96-6.09-44.71l4.04-1.34c7.17-2.37,12.04-8.92,12.3-16.42ZM965.6,916.11h16.78c.6,0,1.08.48,1.08,1.06,0,.39-.21.75-.58.94l-17.29,9.39v-11.4ZM1025.92,952.3h18.61s.04,0,.05,0c.02.13.03.32.03.58,0,.4-.22.76-.58.95l-18.11,9.85v-11.39ZM971.55,1166.43l-16.5,18.9-28.65-15.56v-21.04h4.05s0,17.71,0,17.71h41.11ZM960.08,1051.83h9.05c6.37,0,11.55-5.18,11.55-11.55v-66.35c0-5.33,3.26-11.14,6.06-14.51,3.92-4.73,9.16-7.12,15.57-7.12h18.61v18.11c0,4.62-2.96,8.68-7.36,10.1l-8.11,2.61-.04,1.78c-.26,10.88,1.94,23.37,4.26,36.59,5.5,31.29,11.74,66.76-11.84,94.75-19.05,22.62-48.49,26.93-64.34,27.48-.04,0-.08,0-.12,0h0s-8.62.02-8.62.02v2.11s-.42,0-.42,0l.08-2.11c-35.37-1.36-67.53-21.01-84.4-51.43,3.04-2.74,11.15-9.53,24.13-16.77,8.17,15.36,22.23,26.89,38.94,31.85,5.95,1.77,12.12,2.66,18.34,2.66,11.31,0,22.51-2.97,32.4-8.58l-2.47-4.35c-9.14,5.19-19.48,7.93-29.93,7.93-5.74,0-11.43-.83-16.92-2.45-15.47-4.59-28.47-15.28-36-29.51,25.54-14.49,54.72-21.25,91.57-21.25ZM944.27,947.34l-.02,1.79c-.15,14.66,3.07,31.35,6.18,47.49,3.82,19.79,7.43,38.52,4.16,50.26-36.15.67-65.06,8.04-90.6,23.04-18.25,9.83-27.81,19.08-28.84,20.1l-1.32,1.31.87,1.64c2.36,4.47,5.04,8.73,7.99,12.75-27.31-5.94-52.08-28.37-63.85-49.47,7.9-7.14,48.78-40.61,121.22-40.61h8.52c6.49,0,11.77-5.28,11.77-11.77v-66.59c0-4.65,1.9-9.59,5.21-13.57,4.01-4.82,9.91-7.59,16.2-7.59h18.82v16.47c0,5.6-3.57,10.54-8.88,12.3l-7.45,2.47Z"/>
  <rect x="495.04" y="215.31" width="5" height="13.19" transform="translate(-11.19 416.81) rotate(-45)"/>
  <rect x="506.41" y="219.41" width="13.19" height="5" transform="translate(-6.66 427.75) rotate(-45)"/>
  <rect x="510.51" y="230.79" width="5" height="13.19" transform="translate(-17.6 432.28) rotate(-45)"/>
  <rect x="490.94" y="234.88" width="13.19" height="5" transform="translate(-22.13 421.34) rotate(-45)"/>
  <path d="M1621.14,993.06l-2.29.1-.1,2.29c-.38,8.72,2.94,17.27,9.12,23.44,5.85,5.85,13.83,9.14,22.08,9.14.45,0,.9,0,1.35-.03l1.95-.08,1.95.08c.45.02.9.03,1.35.03,6.1,0,12.06-1.81,17.11-5.11h0c1.78-1.16,3.45-2.51,4.97-4.03,6.18-6.18,9.5-14.72,9.12-23.44l-.1-2.29-2.29-.1c-4.01-.18-7.98.44-11.7,1.74h0c-3.2,1.13-6.22,2.76-8.92,4.87.21-1.47.33-2.96.33-4.46,0-8.73-3.69-17.13-10.13-23.02l-1.69-1.55-1.69,1.54c-6.45,5.89-10.14,14.29-10.14,23.03,0,1.5.12,2.99.33,4.46-5.83-4.56-13.15-6.95-20.62-6.62ZM1665.45,1005.71c2.38-2.38,5.18-4.25,8.22-5.55h0c2.86-1.23,5.94-1.95,9.09-2.1-.31,6.48-3.03,12.68-7.65,17.3-.46.46-.94.9-1.43,1.32h0c-4.43,3.81-10.03,6.05-15.86,6.33.3-6.47,3.02-12.67,7.64-17.3ZM1653.26,977.57c4.36,4.8,6.82,11.11,6.82,17.64s-2.46,12.83-6.82,17.63c-4.36-4.79-6.83-11.09-6.83-17.63s2.46-12.85,6.83-17.64ZM1641.06,1005.71c4.63,4.63,7.34,10.82,7.64,17.3-6.48-.31-12.68-3.03-17.29-7.65h0c-4.62-4.62-7.34-10.82-7.65-17.3,6.48.31,12.68,3.02,17.3,7.65Z"/>
  <rect x="1297.42" y="252.52" width="13.19" height="5" transform="translate(201.61 996.77) rotate(-45)"/>
  <rect x="1301.52" y="232.95" width="5" height="13.19" transform="translate(212.55 992.24) rotate(-45)"/>
  <rect x="1316.99" y="248.42" width="5" height="13.19" transform="translate(206.2 1007.79) rotate(-45)"/>
  <rect x="1312.89" y="237.04" width="13.19" height="5" transform="translate(217.03 1003.1) rotate(-45)"/>
  <path d="M1962.76,465.79c3.94,0,7.14-3.2,7.14-7.14s-3.2-7.14-7.14-7.14-7.14,3.2-7.14,7.14,3.2,7.14,7.14,7.14ZM1962.76,456.51c1.18,0,2.14.96,2.14,2.14s-.96,2.14-2.14,2.14-2.14-.96-2.14-2.14.96-2.14,2.14-2.14Z"/>
  <path d="M1925.98,435.12c-3.02-14.95-10.31-28.53-21.16-39.38-10.24-10.24-23.06-17.38-37.08-20.67-1.76-.41-3.58.11-4.87,1.4-1.29,1.29-1.81,3.11-1.39,4.87,1.58,6.72,4.05,13.16,7.31,19.17-6.78-.75-13.63-.6-20.43.48-1.79.29-3.28,1.47-3.98,3.16-.7,1.68-.48,3.55.56,5,8.32,11.75,19.76,20.94,33.09,26.58,9.66,4.07,19.87,6.13,30.16,6.13,4.28,0,8.58-.36,12.85-1.08v24.04h-40.89c-15.88,0-30.87,5.94-42.2,16.74-8.5,8.09-14.17,18.21-16.55,29.27-3.34-4.39-8.62-7.23-14.55-7.23-10.07,0-18.27,8.2-18.27,18.27s8.2,18.27,18.27,18.27c5.84,0,11.04-2.75,14.38-7.03,4.69,21.32,23.66,37.34,46.34,37.48h0s56.54,0,56.54,0c0,0,.01,0,.02,0h33.84c1.38,0,2.5-1.12,2.5-2.5,0-4.72-1.84-9.15-5.18-12.49-2.74-2.74-6.23-4.47-10-5v-7.55c18.54-11.44,30-31.89,30.01-53.73l13.45-5.82c6.31-2.73,10.39-8.94,10.39-15.81,0-5.17-2.29-10.02-6.28-13.31l-13.23-10.88c-6.63-5.46-15.75-8.35-26.38-8.36h-27.24ZM1879.97,431.12c-12.47-5.27-23.17-13.87-30.96-24.87-.02-.02-.05-.08-.01-.18.05-.12.14-.14.15-.14,7.63-1.2,15.34-1.17,22.91.08,2.91,4.44,6.28,8.6,10.08,12.41,8.32,8.32,18.25,14.54,29.16,18.36-10.67.46-21.32-1.44-31.34-5.66ZM1885.68,414.88c-9.57-9.57-16.26-21.57-19.34-34.68,0-.03-.02-.1.06-.19.06-.06.11-.07.14-.07.02,0,.04,0,.05,0,13.12,3.07,25.11,9.76,34.69,19.33,9.72,9.72,16.38,21.76,19.42,35.03-13.26-3.04-25.31-9.71-35.02-19.42ZM1806.83,535.13c-7.32,0-13.27-5.95-13.27-13.27s5.95-13.27,13.27-13.27,13.27,5.95,13.27,13.27-5.95,13.27-13.27,13.27ZM1911.72,565.58h0s-24.87,0-24.87,0c4.55-2.58,8.53-6.05,11.7-10.17h10.37c6.13,0,11.26,4.38,12.42,10.17h-9.63ZM1989.66,458.23c2.83,2.33,4.46,5.77,4.46,9.44,0,4.88-2.89,9.29-7.38,11.22l-14.96,6.47c-.92.4-1.51,1.3-1.51,2.29v1.61c0,20.57-11.02,39.8-28.77,50.19-.77.45-1.24,1.27-1.24,2.16v11.29c0,1.38,1.12,2.5,2.5,2.5,3.39,0,6.57,1.32,8.97,3.71,1.79,1.79,2.98,4.03,3.47,6.46h-28.79c-1.22-8.56-8.6-15.17-17.49-15.17h-7.1c3.01-5.51,4.73-11.82,4.73-18.53,0-17.35-14.11-31.46-31.46-31.46v5c14.59,0,26.46,11.87,26.46,26.46,0,18.58-15.12,33.7-33.7,33.7-23.57,0-42.75-19.18-42.75-42.75,0-29.24,24.69-53.03,55.03-53.03h43.39c1.38,0,2.5-1.12,2.5-2.5v-27.19h27.19c6.59,0,15.97,1.27,23.21,7.22l13.23,10.88Z"/>
</svg>