<svg xmlns="http://www.w3.org/2000/svg" viewBox="0 0 2400 2400">
  <path d="M181.37,2073.58c.35,0,.71,0,1.06-.02l1.47-.06,1.47.06c.35.02.71.02,1.06.02,6.47,0,12.73-2.58,17.33-7.17,4.85-4.85,7.45-11.55,7.15-18.39l-.1-2.29-2.29-.1c-5.4-.24-10.7,1.33-15.08,4.38.06-.71.1-1.43.1-2.15,0-6.85-2.9-13.44-7.95-18.06l-1.69-1.55-1.69,1.54c-5.06,4.62-7.96,11.21-7.96,18.07,0,.72.04,1.44.1,2.15-4.38-3.05-9.68-4.62-15.08-4.38l-2.29.1-.1,2.29c-.3,6.84,2.31,13.55,7.15,18.39,4.59,4.59,10.85,7.17,17.33,7.17ZM193.65,2056.31c3.28-3.28,7.63-5.27,12.21-5.64-.38,4.58-2.37,8.93-5.65,12.21-3.28,3.28-7.62,5.27-12.2,5.64.37-4.57,2.36-8.92,5.64-12.2ZM183.9,2035.24c2.97,3.5,4.64,7.99,4.64,12.62s-1.67,9.12-4.64,12.62c-2.97-3.49-4.64-7.98-4.64-12.62s1.67-9.12,4.64-12.62ZM174.14,2056.31c3.28,3.28,5.27,7.63,5.64,12.2-4.58-.38-8.93-2.37-12.2-5.64h0c-3.28-3.28-5.27-7.63-5.65-12.21,4.58.37,8.93,2.36,12.21,5.64Z"/>
  <path d="M108.9,2328.99l-2.29-.1c-5.39-.24-10.7,1.33-15.08,4.38.06-.71.1-1.43.1-2.15,0-6.85-2.9-13.44-7.95-18.06l-1.69-1.55-1.69,1.54c-5.06,4.62-7.96,11.21-7.96,18.07,0,.72.04,1.44.1,2.15-4.38-3.05-9.69-4.62-15.08-4.38l-2.29.1-.1,2.29c-.3,6.84,2.31,13.55,7.15,18.39,4.59,4.59,10.85,7.17,17.33,7.17.35,0,.71,0,1.06-.02l1.47-.06,1.47.06c.35.02.71.02,1.06.02,6.47,0,12.74-2.58,17.33-7.17,4.85-4.84,7.45-11.55,7.15-18.39l-.1-2.29ZM65.68,2346.13c-3.28-3.28-5.27-7.63-5.65-12.21,4.58.37,8.93,2.36,12.21,5.64,3.28,3.28,5.27,7.63,5.64,12.2-4.58-.38-8.93-2.37-12.2-5.64ZM82,2343.74c-2.97-3.49-4.64-7.98-4.64-12.62s1.67-9.12,4.64-12.62c2.97,3.5,4.64,7.99,4.64,12.62s-1.67,9.12-4.64,12.62ZM98.31,2346.13c-3.28,3.28-7.62,5.27-12.2,5.64.37-4.57,2.36-8.92,5.64-12.2,3.28-3.28,7.63-5.27,12.21-5.64-.38,4.58-2.37,8.93-5.65,12.21Z"/>
  <path d="M299.78,2273.28l-.1-2.29-2.29-.1c-7.46-.33-14.79,2.06-20.62,6.62.21-1.47.33-2.96.33-4.46,0-8.73-3.69-17.13-10.13-23.02l-1.69-1.55-1.69,1.54c-6.45,5.89-10.14,14.29-10.14,23.03,0,1.5.12,2.99.33,4.46-5.83-4.56-13.15-6.94-20.62-6.62l-2.29.1-.1,2.29c-.38,8.72,2.94,17.27,9.12,23.44,5.85,5.85,13.83,9.14,22.08,9.14.45,0,.9,0,1.35-.03l1.95-.09,1.95.09c.45.02.9.03,1.35.03,8.25,0,16.23-3.29,22.08-9.14,6.18-6.18,9.5-14.72,9.12-23.44ZM243.43,2293.19c-4.62-4.62-7.34-10.82-7.65-17.3,6.48.31,12.68,3.02,17.3,7.65,4.62,4.63,7.34,10.82,7.64,17.3-6.48-.31-12.68-3.03-17.29-7.65ZM265.28,2290.68c-4.36-4.79-6.83-11.09-6.83-17.63s2.46-12.85,6.83-17.64c4.36,4.8,6.82,11.11,6.82,17.64s-2.46,12.83-6.82,17.63ZM287.13,2293.19c-4.62,4.62-10.81,7.33-17.29,7.65.3-6.47,3.02-12.67,7.64-17.3,4.62-4.62,10.83-7.34,17.3-7.65-.31,6.48-3.03,12.68-7.65,17.3h0Z"/>
  <path d="M52.99,2113.16c-10.12,0-18.36,8.24-18.36,18.36s8.24,18.36,18.36,18.36,18.36-8.24,18.36-18.36-8.24-18.36-18.36-18.36ZM52.99,2144.88c-7.37,0-13.36-5.99-13.36-13.36s5.99-13.36,13.36-13.36,13.36,5.99,13.36,13.36-5.99,13.36-13.36,13.36Z"/>
  <polygon points="281.47 2155.28 286.15 2153.52 282.24 2143.1 275.24 2147.48 277.9 2151.72 279.71 2150.59 281.47 2155.28"/>
  <path d="M291.42,2118.12l9.98-26.59.41-32.14-21.55,24.16.31-24.16-49.31,55.29-55.3,24.13h-28.91c.53-2.35.82-4.79.82-7.3,0-18.36-14.93-33.29-33.29-33.29-13.88,0-25.8,8.54-30.79,20.65-4.99-12.1-16.91-20.65-30.79-20.65-18.36,0-33.29,14.93-33.29,33.29,0,2.51.29,4.95.82,7.3H0v5h22.06c4.9,12.28,16.91,20.99,30.92,20.99,1.41,0,2.79-.1,4.16-.27v20.09c0,10.82,8.8,19.62,19.62,19.62h82.59c10.82,0,19.62-8.8,19.62-19.62v-41.67l54.78-23.91.5-.22,41.14-46.13-.21,16.62-21.37,24.04,3.74,3.32,39.09-43.97-.23,17.87-10.31,27.48,24.1,67.66c1.84,5.18.23,11-4.01,14.49l-4.12,3.39c-4.44,3.65-10.86,3.96-15.62.75l-31.88-21.48-71.76,69.44-.57.55-16.58,86.73,6.69,12.74h-18.08l-3.48-13.92v-86.79h-50.84c-21.11,0-40.27-3.11-58.58-9.51l-1.59-.55-39.76,45.01v60.96l2.87,4.81H0v5h11.67l-11.13-18.68-.02-45.12,40.77-46.16c18.37,6.22,37.57,9.24,58.64,9.24h45.84v82.41l4.58,18.31h30.26l-9.73-18.51,15.95-83.46,68.28-66.07,28.52,19.21c6.58,4.44,15.46,4.01,21.59-1.03l4.12-3.39c5.87-4.83,8.1-12.88,5.55-20.03l-23.48-65.94ZM114.56,2103.23c15.6,0,28.29,12.69,28.29,28.29s-12.69,28.29-28.29,28.29-28.29-12.69-28.29-28.29,12.69-28.29,28.29-28.29ZM52.99,2159.81c-15.6,0-28.29-12.69-28.29-28.29s12.69-28.29,28.29-28.29,28.29,12.69,28.29,28.29-12.69,28.29-28.29,28.29ZM173.97,2184.63c0,8.06-6.56,14.62-14.62,14.62h-82.59c-8.06,0-14.62-6.56-14.62-14.62v-21.11c9.82-2.81,17.79-10.02,21.63-19.36,4.99,12.1,16.91,20.65,30.79,20.65s26.02-8.71,30.92-20.99h28.49v40.81Z"/>
  <path d="M0,2023.54v15.71c1.84-4.87,1.93-10.47,0-15.71Z"/>
  <rect x="286.87" y="2373.8" width="13.19" height="5" transform="translate(-1594.47 903.67) rotate(-45)"/>
  <rect x="306.44" y="2369.7" width="5" height="13.19" transform="translate(-1589.81 914.45) rotate(-45)"/>
  <rect x="302.34" y="2358.33" width="13.19" height="5" transform="translate(-1578.85 909.9) rotate(-45)"/>
  <rect x="290.97" y="2354.23" width="5" height="13.19" transform="translate(-1583.43 899.01) rotate(-45)"/>
  <rect x="1185.67" y="1734.6" width="13.19" height="5" transform="translate(-879.14 1351.99) rotate(-45)"/>
  <rect x="1189.76" y="1715.03" width="5" height="13.19" transform="translate(-868.14 1347.17) rotate(-45)"/>
  <path d="M853.41,1776.73c.35,0,.71,0,1.06-.02l1.47-.06,1.46.06c.35.02.71.02,1.06.02,6.47,0,12.73-2.58,17.32-7.17,4.85-4.85,7.45-11.55,7.15-18.39l-.1-2.29-2.29-.1c-5.39-.24-10.7,1.33-15.08,4.38.06-.71.1-1.43.1-2.15,0-6.85-2.9-13.44-7.95-18.06l-1.69-1.55-1.69,1.54c-5.06,4.62-7.96,11.21-7.96,18.07,0,.72.04,1.44.1,2.15-4.38-3.05-9.68-4.62-15.08-4.38l-2.29.1-.1,2.29c-.3,6.84,2.31,13.55,7.15,18.39,4.59,4.59,10.85,7.17,17.33,7.17ZM865.69,1759.46c3.28-3.28,7.63-5.27,12.21-5.64-.38,4.58-2.37,8.93-5.65,12.21-3.28,3.28-7.62,5.27-12.2,5.64.37-4.57,2.36-8.92,5.64-12.2ZM855.94,1738.38c2.97,3.5,4.64,7.99,4.64,12.62s-1.67,9.12-4.64,12.62c-2.97-3.49-4.64-7.98-4.64-12.62s1.67-9.12,4.64-12.62ZM846.18,1759.46c3.28,3.28,5.27,7.63,5.64,12.2-4.58-.38-8.93-2.37-12.2-5.64-3.28-3.28-5.27-7.63-5.65-12.21,4.58.37,8.93,2.36,12.21,5.64Z"/>
  <path d="M1087.96,1550.29c.35,0,.71,0,1.06-.02l1.46-.06,1.47.06c.35.02.71.02,1.06.02,6.47,0,12.73-2.58,17.32-7.17,4.85-4.85,7.45-11.55,7.15-18.39l-.1-2.29-2.29-.1c-5.4-.24-10.7,1.33-15.08,4.38.06-.71.1-1.43.1-2.15,0-6.85-2.9-13.44-7.95-18.06l-1.69-1.55-1.69,1.54c-5.06,4.62-7.96,11.21-7.96,18.07,0,.72.04,1.44.1,2.15-4.38-3.05-9.68-4.62-15.08-4.38l-2.29.1-.1,2.29c-.3,6.84,2.31,13.55,7.15,18.39,4.59,4.59,10.85,7.17,17.33,7.17ZM1100.24,1533.02c3.28-3.28,7.63-5.27,12.21-5.64-.38,4.58-2.37,8.93-5.65,12.21-3.28,3.28-7.62,5.27-12.2,5.64.37-4.57,2.36-8.92,5.64-12.2ZM1090.49,1511.94c2.97,3.5,4.64,7.99,4.64,12.62s-1.67,9.12-4.64,12.62c-2.97-3.49-4.64-7.98-4.64-12.62s1.67-9.12,4.64-12.62ZM1080.73,1533.02c3.28,3.28,5.27,7.63,5.64,12.2-4.58-.38-8.93-2.37-12.2-5.64-3.28-3.28-5.27-7.63-5.65-12.21,4.58.37,8.93,2.36,12.21,5.64Z"/>
  <path d="M1005.69,1843.63l-2.29.1-.1,2.29c-.3,6.84,2.31,13.55,7.15,18.39,4.59,4.59,10.85,7.17,17.33,7.17.35,0,.71,0,1.06-.02l1.46-.06,1.47.06c.35.02.71.02,1.06.02,6.47,0,12.74-2.58,17.33-7.17,4.85-4.85,7.45-11.55,7.15-18.39l-.1-2.29-2.29-.1c-5.39-.24-10.7,1.33-15.08,4.38.06-.71.1-1.43.1-2.15,0-6.85-2.9-13.44-7.95-18.06l-1.69-1.55-1.69,1.54c-5.06,4.62-7.96,11.21-7.96,18.07,0,.72.04,1.44.1,2.15-4.38-3.05-9.69-4.62-15.08-4.38ZM1040.07,1854.31c3.28-3.28,7.63-5.27,12.21-5.64-.38,4.58-2.37,8.93-5.65,12.21-3.28,3.28-7.62,5.27-12.2,5.64.37-4.57,2.36-8.92,5.64-12.2ZM1030.31,1833.24c2.97,3.5,4.64,7.99,4.64,12.62s-1.67,9.12-4.64,12.62c-2.97-3.49-4.64-7.98-4.64-12.62s1.67-9.12,4.64-12.62ZM1020.56,1854.31c3.28,3.28,5.27,7.63,5.64,12.2-4.58-.38-8.93-2.37-12.2-5.64-3.28-3.28-5.27-7.63-5.65-12.21,4.58.37,8.93,2.36,12.21,5.64Z"/>
  <path d="M1027.9,1635.96c9.65,0,17.49,7.85,17.49,17.49h5c0-12.4-10.09-22.49-22.49-22.49s-22.49,10.09-22.49,22.49h5c0-9.65,7.85-17.49,17.49-17.49Z"/>
  <path d="M972.12,1696.45c12.4,0,22.49-10.09,22.49-22.49h-5c0,9.65-7.85,17.49-17.49,17.49s-17.49-7.85-17.49-17.49h-5c0,12.4,10.09,22.49,22.49,22.49Z"/>
  <circle cx="904.34" cy="1592.23" r="6.24"/>
  <path d="M966.45,1734.9l7.23,14.45,4.54,52.74h16.88l3.7-53.8,10.92-25.8c11.53,4.97,24.04,7.58,36.36,7.58,1.72,0,3.49-.08,5.3-.21l27.72,19.88-3.61,52.34h17.93l12.87-63.64,15.39,11.02v52.62h17.65l11.8-81.81-8.86-10.24v-35.8c2.42-.1,4.67-1.08,6.39-2.8,1.81-1.81,2.81-4.22,2.81-6.78,0-7.56-2.86-19.95-10.87-32.06-6.34-9.57-18.1-22.05-38.17-27.14-17.94-4.55-33.62-1.72-40.99,3.54-6.25-7.26-15.45-11.53-25.12-11.53s-18.66,4.18-24.92,11.31c-5.02-4.5-11.56-7.04-18.35-7.04s-13.32,2.52-18.31,7.02l-4.69-8.28c.3.01.61.02.92.02.22,0,.45,0,.68,0,8.29-.22,16-3.65,21.71-9.67,5.71-6.02,8.73-13.9,8.51-22.19-.27-10.2-4.49-19.68-11.89-26.7-7.4-7.02-17.08-10.74-27.29-10.47-12.58.33-24.28,5.54-32.94,14.67-5.38,5.67-9.19,12.43-11.22,19.76-7.89.27-15.42,3.27-21.32,8.55l-26.38,23.67c-4.24,3.8-5.97,9.79-4.41,15.27l.02.07c1.82,6.42,7.76,10.9,14.43,10.9h16.58c-2.26,3.5-3.3,7.13-3.3,11.32,0,7.81,3.78,15.08,10.03,19.57-2.62,4.07-4.04,8.85-4.04,13.73,0,10.78,7.03,20.47,17.26,24.04,4.52,13.77,16.15,24,30.01,27.05l-15.37,82.02h18.19l16.25-67.19ZM1089.32,1797.09h-8.48l3.43-49.78-25.54-18.32c8.02-1.29,16.47-3.71,24.47-7.06l18.62,13.33-12.5,61.83ZM921.77,1690.33l-.38-1.32-1.32-.38c-8.81-2.56-14.96-10.64-14.96-19.65,0-4.73,1.58-9.16,4.56-12.83l1.88-2.31-2.61-1.45c-6.06-3.37-9.82-9.77-9.82-16.7,0-4.57,1.59-8.19,5.3-12.1l4.01-4.22h-27.59c-4.45,0-8.41-2.99-9.63-7.28l-.02-.07c-1.04-3.65.12-7.65,2.94-10.18l26.37-23.66c4.71-4.2,10.63-6.71,16.88-7.2-.47,2.89-.67,5.84-.59,8.83l5-.13c-.3-11.24,3.8-21.93,11.54-30.09,7.74-8.16,18.2-12.82,29.44-13.11,8.86-.23,17.28,3,23.71,9.1,6.43,6.1,10.1,14.34,10.34,23.2.38,14.36-11,26.35-25.35,26.73-11.2.29-20.57-8.59-20.87-19.8-.11-4.21,1.42-8.21,4.32-11.27,2.9-3.06,6.82-4.8,11.03-4.91,3.23-.08,6.31,1.09,8.66,3.32,2.35,2.23,3.69,5.24,3.77,8.47.13,5.07-3.88,9.3-8.95,9.43l.13,5c7.82-.21,14.02-6.74,13.82-14.56-.25-9.44-8.13-16.91-17.56-16.66-5.55.15-10.7,2.44-14.52,6.47-3.82,4.03-5.84,9.3-5.69,14.84.3,11.21,7.87,20.55,18.07,23.61l10.07,17.77,2.32-2.69c4.25-4.94,10.43-7.77,16.96-7.77s12.43,2.71,16.7,7.44l2.06,2.28,1.82-2.48c5.29-7.22,13.78-11.52,22.7-11.52s17.48,4.33,22.75,11.58l1.77,2.44,2.07-2.2c4.2-4.46,19.27-8.81,38.29-3.99,18.52,4.7,29.38,16.22,35.23,25.05,7.41,11.2,10.04,22.79,10.04,29.31,0,1.23-.48,2.38-1.34,3.25-.87.87-2.02,1.34-3.25,1.34h-4.61v42.65l8.58,9.93-10.85,75.27h-8.32v-50.19l-42.85-30.68-1.3.56c-9.75,4.24-20.24,7.02-29.72,7.94h-.01s0,0,0,0c-2.3.22-4.54.34-6.7.34-12.44,0-25.1-2.83-36.61-8.18l-2.35-1.09-13.25,31.3-3.44,49.98h-7.62l-4.23-49.12-10.31-20.6v-.03s-.02,0-.02,0l-5.66-11.31h-6.56c-15.76,0-29.85-10.56-34.26-25.69ZM938.04,1797.09l14.29-76.25c1.22.11,2.46.18,3.7.18h3.47l3.48,6.95-16.71,69.12h-8.23Z"/>
  <path d="M1090.49,1699.03c12.4,0,22.49-10.09,22.49-22.49h-5c0,9.65-7.85,17.49-17.49,17.49s-17.49-7.85-17.49-17.49h-5c0,12.4,10.09,22.49,22.49,22.49Z"/>
  <path d="M1621.14,2193.06l-2.29.1-.1,2.29c-.38,8.72,2.94,17.27,9.12,23.44,5.85,5.85,13.83,9.14,22.08,9.14.45,0,.9,0,1.35-.03l1.95-.08,1.95.08c.45.02.9.03,1.35.03,6.1,0,12.06-1.81,17.11-5.11h0c1.78-1.16,3.45-2.51,4.97-4.03,6.18-6.18,9.5-14.72,9.12-23.44l-.1-2.29-2.29-.1c-4.01-.18-7.98.44-11.7,1.74h0c-3.2,1.13-6.22,2.76-8.92,4.87.21-1.47.33-2.96.33-4.46,0-8.73-3.69-17.13-10.13-23.02l-1.69-1.55-1.69,1.54c-6.45,5.89-10.14,14.29-10.14,23.03,0,1.5.12,2.99.33,4.46-5.83-4.56-13.15-6.95-20.62-6.62ZM1665.45,2205.71c2.38-2.38,5.18-4.25,8.22-5.55h0c2.86-1.23,5.94-1.95,9.09-2.1-.31,6.48-3.03,12.68-7.65,17.3-.46.46-.94.9-1.43,1.32h0c-4.43,3.81-10.03,6.05-15.86,6.33.3-6.47,3.02-12.67,7.64-17.3ZM1653.26,2177.57c4.36,4.8,6.82,11.11,6.82,17.64s-2.46,12.83-6.82,17.63c-4.36-4.79-6.83-11.09-6.83-17.63s2.46-12.85,6.83-17.64ZM1641.06,2205.71c4.63,4.63,7.34,10.82,7.64,17.3-6.48-.31-12.68-3.03-17.29-7.65h0c-4.62-4.62-7.34-10.82-7.65-17.3,6.48.31,12.68,3.02,17.3,7.65Z"/>
  <polygon points="1641.37 2362.07 1598 2400 1605.6 2400 1618.69 2388.55 1620.69 2400 1625.76 2400 1623.09 2384.7 1643.25 2367.07 1673.67 2367.07 1682.26 2367.07 1673.67 2374.44 1643.9 2400 1651.58 2400 1673.67 2381.03 1689.93 2367.07 1721.07 2367.07 1721.07 2400 1726.07 2400 1726.07 2362.07 1673.67 2362.07 1641.37 2362.07"/>
  <rect x="1205.24" y="1730.5" width="5" height="13.19" transform="translate(-874.58 1362.78) rotate(-45)"/>
  <rect x="1201.14" y="1719.13" width="13.19" height="5" transform="translate(-863.64 1358.25) rotate(-45)"/>
  <path d="M2205.69,1843.63l-2.29.1-.1,2.29c-.3,6.84,2.31,13.55,7.15,18.39,4.59,4.59,10.85,7.17,17.33,7.17.35,0,.71,0,1.06-.02l1.46-.06,1.47.06c.35.02.71.02,1.06.02,6.47,0,12.74-2.58,17.33-7.17,4.85-4.85,7.45-11.55,7.15-18.39l-.1-2.29-2.29-.1c-5.39-.24-10.7,1.33-15.08,4.38.06-.71.1-1.43.1-2.15,0-6.85-2.9-13.44-7.95-18.06l-1.69-1.55-1.69,1.54c-5.06,4.62-7.96,11.21-7.96,18.07,0,.72.04,1.44.1,2.15-4.38-3.05-9.69-4.62-15.08-4.38ZM2240.07,1854.31c3.28-3.28,7.63-5.27,12.21-5.64-.38,4.58-2.37,8.93-5.65,12.21-3.28,3.28-7.62,5.27-12.2,5.64.37-4.57,2.36-8.92,5.64-12.2ZM2230.31,1833.24c2.97,3.5,4.64,7.99,4.64,12.62s-1.67,9.12-4.64,12.62c-2.97-3.49-4.64-7.98-4.64-12.62s1.67-9.12,4.64-12.62ZM2220.56,1854.31c3.28,3.28,5.27,7.63,5.64,12.2-4.58-.38-8.93-2.37-12.2-5.64-3.28-3.28-5.27-7.63-5.65-12.21,4.58.37,8.93,2.36,12.21,5.64Z"/>
  <path d="M2127.99,1230.23l-2.29.1-.1,2.29c-.38,8.72,2.94,17.27,9.12,23.44,5.85,5.85,13.83,9.14,22.08,9.14.45,0,.9,0,1.35-.03l1.95-.09,1.95.09c.45.02.9.03,1.35.03,8.25,0,16.23-3.29,22.08-9.14,6.18-6.18,9.5-14.72,9.12-23.44l-.1-2.29-2.29-.1c-7.46-.33-14.79,2.05-20.62,6.62.21-1.47.33-2.96.33-4.46,0-8.73-3.69-17.13-10.13-23.02l-1.69-1.55-1.69,1.54c-6.44,5.89-10.14,14.29-10.14,23.03,0,1.5.12,2.99.33,4.46-5.83-4.56-13.16-6.95-20.62-6.62ZM2172.3,1242.87c4.62-4.62,10.83-7.34,17.3-7.65-.31,6.48-3.03,12.68-7.65,17.3-4.62,4.62-10.82,7.33-17.29,7.65.3-6.47,3.02-12.67,7.64-17.3ZM2160.11,1214.74c4.36,4.8,6.82,11.11,6.82,17.64s-2.46,12.83-6.82,17.63c-4.36-4.79-6.83-11.09-6.83-17.63s2.46-12.84,6.83-17.64ZM2147.91,1242.87c4.63,4.63,7.34,10.82,7.64,17.3-6.48-.31-12.68-3.03-17.29-7.65-4.62-4.62-7.34-10.82-7.65-17.3,6.48.31,12.68,3.02,17.3,7.65Z"/>
  <path d="M1960.97,2324.59l-2.29-.1c-7.46-.33-14.79,2.06-20.62,6.62.21-1.47.33-2.96.33-4.46,0-8.73-3.69-17.13-10.13-23.02l-1.69-1.55-1.69,1.54c-6.45,5.89-10.14,14.29-10.14,23.03,0,1.5.12,2.99.33,4.46-5.83-4.56-13.16-6.95-20.62-6.62l-2.29.1-.1,2.29c-.38,8.72,2.94,17.27,9.12,23.44,5.85,5.85,13.84,9.14,22.08,9.14.45,0,.9,0,1.35-.03l1.95-.08,1.95.08c.45.02.9.03,1.35.03,8.25,0,16.23-3.29,22.08-9.14,6.18-6.18,9.5-14.72,9.12-23.44l-.1-2.29ZM1904.72,2346.78c-4.62-4.62-7.34-10.82-7.65-17.3,6.48.31,12.68,3.02,17.3,7.65s7.34,10.82,7.64,17.3c-6.48-.31-12.68-3.03-17.29-7.65ZM1926.57,2344.27c-4.36-4.79-6.83-11.09-6.83-17.63s2.46-12.85,6.83-17.64c4.36,4.8,6.82,11.11,6.82,17.64s-2.46,12.83-6.82,17.63ZM1948.41,2346.78c-4.62,4.62-10.81,7.33-17.29,7.65.3-6.47,3.02-12.67,7.64-17.3,4.62-4.62,10.82-7.34,17.3-7.65-.31,6.48-3.03,12.68-7.65,17.3Z"/>
  <path d="M1823.22,2216.59c-4.79-4.79-11.04-7.69-17.76-8.31v-.15h-.94l-9.89-10.52.06-.13-.3-.13-18.13-19.28c-5.52-5.88-13.32-9.25-21.38-9.25h-25.78c-1.48,0-2.75,1.06-3.03,2.51-.28,1.45.52,2.9,1.9,3.44l17.57,6.94,6.91,2.98c3.64,2.02,6.77,4.85,9.17,8.31l10.44,15.12h-26.73l8.23,12.16c4.64,6.85,11.97,11.29,20.07,12.28l-23.99,44.34h-121.81c-14.01,0-27.64,5.64-37.55,15.51l-32.96-16.67v12.46c0,5.34,1.6,10.49,4.62,14.89l10.39,15.11,8.03,33.5-9.21,13.81,4.59,34.46h5.04l-4.43-33.25,9.38-14.06-8.76-36.52-10.91-15.88c-2.45-3.56-3.75-7.73-3.75-12.06v-4.33l28.98,14.66,1.87-1.93c9.03-9.35,21.67-14.71,34.66-14.71h124.79l29.29-54.13h-4.8c-7.79,0-15.04-3.85-19.4-10.3l-2.95-4.36h47.61s1.04.03,1.04.03c6.17.16,11.95,2.63,16.28,6.96l23.38,23.38c3.34,3.34,5.18,7.77,5.18,12.49,0,3.93-3.06,7.28-6.98,7.62l-2.27.2h-30.26l-7.52,40.92c-4.35,23.64-15.64,45.11-32.67,62.07l-29,28.9-.39,4.29h5.02l.18-2.03,9-8.97,2.32,11h5.11l-3.21-15.21,11.97-11.93,3.68,27.14h5.05l-4.28-31.5-.14.02c16.75-17.39,27.88-39.08,32.26-62.88l6.77-36.82h6.4l11.46,22.93h13.22v-23.56c5.35-1.5,9.27-6.47,9.26-12.19,0-6.05-2.37-11.74-6.65-16.02l-23.38-23.38ZM1754.64,2180.21c-1.15-.63-2.35-1.19-3.58-1.68l-11.9-4.7h15.72c6.69,0,13.16,2.8,17.74,7.67l10.22,10.88-28.2-12.17ZM1778.12,2208.13l-12.14-17.59,25.47,10.99,6.2,6.59h-19.53ZM1838.98,2286.74h-5.13l-8.96-17.93h14.09v17.93Z"/>
  <path d="M1815.28,2240.11c3.62,0,6.55-2.93,6.55-6.55s-2.93-6.55-6.55-6.55-6.55,2.93-6.55,6.55,2.93,6.55,6.55,6.55Z"/>
  <path d="M2330.33,1864.16c-18.62,0-33.77,15.15-33.77,33.79l.1,14.25-29.79,8.57c-25.05,7.19-45.8,23.7-58.43,46.5-12.62,22.8-15.62,49.15-8.43,74.2l.99,3.45,64.03-18.41,5.81,21.08h-6.58v5h31.98v-5h-20.22l-6.19-22.46,16.89-4.86c22.31-6.4,40.79-21.1,52.02-41.41,11.25-20.3,13.91-43.76,7.51-66.07l-3.04-10.58,12.67-38.05h-25.56ZM2341.46,1914.17c6.03,21.02,3.52,43.14-7.07,62.27-10.6,19.14-28.01,32.99-49.03,39.02l-80.9,23.27c-6.33-23.35-3.38-47.81,8.38-69.03,11.98-21.63,31.67-37.3,55.44-44.12l28.42-8.18v4.62c-.12,28.88-19.58,54.66-47.32,62.69l-34.94,10.12c1.79-6.62,4.38-13.02,7.75-19.11,10.99-19.85,29.06-34.22,50.86-40.48l-1.38-4.81c-23.09,6.62-42.22,21.85-53.86,42.86-3.88,7-6.8,14.41-8.69,22.07h0c-.49,1.95-.91,3.92-1.26,5.91l-.12.69,3.18-.92,39.84-11.54c14.75-4.28,27.44-13.01,36.69-25.27,9.24-12.25,14.17-26.85,14.24-42.21v-6.07h.01v-1.76s-.01-.12-.01-.12l-.12-16.15c0-15.87,12.9-28.77,28.77-28.77h18.62l-10.97,32.94,3.47,12.07Z"/>
  <path d="M2326.37,1971.99l4.37,2.42c2.12-3.84,3.94-7.86,5.38-11.96l-4.72-1.66c-1.35,3.84-3.05,7.6-5.04,11.2Z"/>
  <path d="M2334.3,1949.96l4.92.91c1.06-5.73,1.47-11.6,1.21-17.43l-5,.22c.24,5.46-.14,10.94-1.13,16.3Z"/>
  <path d="M2328.1,1883.25c2.46,0,4.45-1.99,4.45-4.45s-1.99-4.45-4.45-4.45-4.45,1.99-4.45,4.45,1.99,4.45,4.45,4.45Z"/>
  <path d="M2326.3,1938.82c-.23,7.51-1.8,14.86-4.66,21.86l4.63,1.89c3.08-7.55,4.77-15.49,5.03-23.59l-5-.16Z"/>
  <path d="M2376.66,2036.89c-1.88,0-3.4,1.52-3.4,3.4s1.52,3.4,3.4,3.4,3.4-1.52,3.4-3.4-1.52-3.4-3.4-3.4Z"/>
  <path d="M2384.94,2017.23c-2.52,0-4.57,2.05-4.57,4.57s2.05,4.57,4.57,4.57,4.57-2.05,4.57-4.57-2.05-4.57-4.57-4.57ZM2384.94,2022.23c-.23,0-.43-.19-.43-.43s.19-.43.43-.43.43.19.43.43-.19.43-.43.43Z"/>
  <path d="M2338.92,2035.32c.45-.73.72-1.58.72-2.5,0-2.62-2.12-4.73-4.73-4.73s-4.73,2.12-4.73,4.73,1.93,4.53,4.38,4.72c-.24.51-.37,1.07-.37,1.67,0,2.19,1.77,3.96,3.96,3.96s3.96-1.77,3.96-3.96c0-1.92-1.36-3.52-3.18-3.88Z"/>
  <path d="M2363.8,2000.91c-.9.49-1.71,1.13-2.46,1.89-1.32-1.63-2.89-2.89-4.72-3.64-10.34-4.23-26.69,9.51-32.32,23.29-2.23,5.47-2.32,11.44-.25,16.82,2.1,5.43,6.14,9.6,11.38,11.74,2.46,1.01,5.05,1.51,7.65,1.51,2.94,0,5.89-.64,8.7-1.92,4.27-1.94,7.79-5.16,10.16-9.24,2.97,5.04,7.6,8.69,13.1,10.29,1.97.58,3.97.86,5.95.86,3.39,0,6.72-.84,9.74-2.49,4.42-2.43,7.58-6.3,9.27-10.78v-15.71c-.39-1.07-.87-2.12-1.43-3.15-7.31-13.33-24.78-24.94-34.76-19.48ZM2358.76,2036.53h0c-1.75,4.28-4.96,7.67-9.04,9.52-4.03,1.83-8.43,1.95-12.39.33-3.96-1.62-7.02-4.78-8.61-8.91-1.61-4.18-1.54-8.84.21-13.13,4.39-10.73,16.3-20.97,23.53-20.97.82,0,1.58.13,2.27.41,6.83,2.79,9.01,20.54,4.03,32.74ZM2388.32,2045.65c-3.6,1.97-7.81,2.4-11.88,1.21-4.47-1.31-8.2-4.36-10.52-8.59-.53-.96-1-1.96-1.42-2.99,2.85-9.17,2.75-20.28-.47-27.89.63-.94,1.36-1.64,2.17-2.09,6.48-3.55,21.64,5.94,27.97,17.5,4.56,8.32,1.93,18.58-5.86,22.86Z"/>
  <path d="M2351.06,2026.62c0,2.77,2.24,5.01,5.01,5.01s5.01-2.24,5.01-5.01-2.24-5.01-5.01-5.01-5.01,2.24-5.01,5.01Z"/>
  <rect x="2006.94" y="2385.67" width="5" height="13.19" transform="translate(-1103.04 2121.6) rotate(-45)"/>
  <rect x="2018.32" y="2389.76" width="13.19" height="5" transform="translate(-1098.51 2132.55) rotate(-45)"/>
  <rect x="2022.41" y="1201.14" width="5" height="13.19" transform="translate(-260.91 1785.57) rotate(-45)"/>
  <rect x="2002.85" y="1205.24" width="13.19" height="5" transform="translate(-265.41 1774.79) rotate(-45)"/>
  <rect x="2302.75" y="2090.14" width="5" height="13.19" transform="translate(-807.44 2243.91) rotate(-45)"/>
  <rect x="2318.22" y="2105.61" width="5" height="13.19" transform="translate(-813.84 2259.65) rotate(-45)"/>
  <rect x="2298.65" y="2109.71" width="13.19" height="5" transform="translate(-818.36 2248.97) rotate(-45)"/>
  <rect x="2314.12" y="2094.24" width="13.19" height="5" transform="translate(-802.88 2255.38) rotate(-45)"/>
  <path d="M105.55,501.61l-2.29.1-.1,2.29c-.3,6.84,2.31,13.55,7.15,18.39,4.59,4.59,10.85,7.17,17.32,7.17.35,0,.71,0,1.06-.02l1.46-.06,1.46.06c.35.02.71.02,1.06.02,6.47,0,12.73-2.58,17.33-7.17,4.85-4.85,7.45-11.55,7.15-18.39l-.1-2.29-2.29-.1c-5.4-.24-10.7,1.33-15.08,4.38.06-.71.1-1.43.1-2.15,0-6.85-2.9-13.44-7.95-18.06l-1.69-1.55-1.69,1.54c-5.06,4.62-7.96,11.21-7.96,18.07,0,.72.04,1.44.1,2.15-4.38-3.05-9.69-4.62-15.08-4.38ZM139.92,512.29c3.28-3.28,7.63-5.27,12.21-5.64-.38,4.58-2.37,8.93-5.65,12.21-3.28,3.28-7.63,5.27-12.2,5.64.37-4.57,2.36-8.92,5.64-12.2ZM130.17,491.22c2.97,3.5,4.64,7.99,4.64,12.62s-1.67,9.12-4.64,12.62c-2.97-3.49-4.64-7.98-4.64-12.62s1.67-9.12,4.64-12.62ZM120.42,512.29c3.28,3.28,5.27,7.63,5.64,12.2-4.58-.38-8.93-2.36-12.2-5.64-3.28-3.28-5.27-7.63-5.65-12.21,4.58.37,8.93,2.36,12.21,5.64Z"/>
  <path d="M112.04,755.59c4.97.71,10.15,1.06,15.53,1.06,13.03,0,27.2-2.09,42.31-6.24l-1.32-4.82c-36.79,10.11-67.79,7.41-89.66-7.81-16.49-11.47-22.19-26.17-22.24-26.32l-4.68,1.75c.24.65,6.17,16.11,23.81,28.49,10.32,7.24,22.52,11.91,36.26,13.87Z"/>
  <path d="M95.9,767.08l-.69,4.95c.48.07,6.65.9,16.36.9,5.54,0,12.24-.27,19.69-1.12,7.39.99,15.58,1.59,24.56,1.59,12.47,0,26.48-1.16,41.99-4.07l-.92-4.91c-17.16,3.22-32.4,4.25-45.71,3.93,14.01-3.34,26.88-8.44,38.32-15.21,16.25-9.61,29.64-22.6,39.8-38.61l-4.22-2.68c-22.01,34.7-55.86,47.87-80.39,52.82-4.65.94-9.15,1.62-13.41,2.11-11.14-1.53-20.37-3.95-27.63-6.45-20.05-6.9-29.97-15.84-30.07-15.93l-1.69,1.84-1.69,1.84c.42.39,10.59,9.61,31.51,16.87,2.93,1.02,6.18,2.02,9.73,2.97-9.43,0-15.39-.81-15.53-.83h0Z"/>
  <path d="M70.08,764.6c-.13-.06-13.51-6.27-20.58-15.12l-3.9,3.12c7.82,9.78,21.81,16.26,22.4,16.54l2.09-4.54Z"/>
  <path d="M69.99,683.56v.02s0,0,0,0c.46.98.96,1.98,1.5,2.96,2.81,5.06,6.19,9.82,10.05,14.15-3,3.65-3.58,9.87-1.59,17.27,1.92,7.12,5.92,14.22,10.69,18.99,3.98,3.98,9.2,6.26,14.69,6.42.21,0,.41,0,.62,0,5.31,0,10.23-2.01,13.91-5.69,1.58-1.58,2.85-3.39,3.78-5.36.09.26.18.51.27.76,2,5.17,5.85,9.15,10.86,11.19,2.35.96,4.82,1.44,7.3,1.44,2.8,0,5.61-.61,8.29-1.83,5-2.27,8.93-6.39,11.06-11.61.27-.67.53-1.37.76-2.07.52.94,1.12,1.84,1.82,2.71,3.38,4.21,8.29,6.78,13.82,7.22.56.04,1.13.07,1.69.07,4.89,0,9.67-1.69,13.61-4.86,5.38-4.32,10.17-10.96,12.82-17.77,2.93-7.53,2.79-14.1-.37-18.04-1.26-1.57-3.07-2.75-5.31-3.52,11.45-13.89,17.73-31.13,17.73-48.87v-46.06h5.85c2.72,0,5.22-1.49,6.5-3.89,1.29-2.4,1.15-5.3-.36-7.57l-9.59-14.43h10.8v-4.37c.01-3.66-2.02-7.04-5.21-8.76,1.48-3.5,1.14-7.51-.85-10.71.51-1.38.77-2.83.77-4.33,0-6.97-5.67-12.64-12.64-12.64h-.04c-2.37-3.15-6.11-5.05-10.1-5.05-6.97,0-12.64,5.67-12.64,12.64,0,3.47,1.45,6.81,3.98,9.19,0,0,.02.02.02.02-9.84,5.9-17.52,14.9-21.76,25.61l-15.16,38.23-40.28.09-57.92-54.14-15.8,34.62c-3.16,6.92-3.33,14.94-.47,21.99l25.18,61.96c.5,1.23,1.07,2.59,1.72,3.98ZM116.33,734.17c-2.84,2.84-6.69,4.33-10.84,4.21-4.21-.12-8.22-1.88-11.3-4.96-4.18-4.18-7.7-10.45-9.4-16.76-1.6-5.93-1.25-10.96.91-13.12,1.37-1.37,3.62-2,6.35-2,7.03,0,17.2,4.16,23.53,10.48,3.08,3.08,4.84,7.09,4.96,11.3.12,4.15-1.38,8-4.21,10.84ZM156.79,730.42h0c-1.65,4.03-4.66,7.2-8.5,8.95-3.78,1.72-7.91,1.83-11.63.31-3.71-1.52-6.58-4.49-8.08-8.37-1.52-3.93-1.45-8.31.2-12.33,4.14-10.12,15.35-19.78,22.14-19.78.77,0,1.48.12,2.12.39,6.41,2.62,8.44,19.34,3.74,30.84ZM201.67,702.69c1.99,2.47,1.84,7.37-.39,13.1-2.34,6.02-6.57,11.89-11.29,15.68-3.39,2.72-7.57,4.04-11.77,3.7-4.14-.33-7.81-2.24-10.32-5.37-5.22-6.5-3.81-16.34,3.14-21.93,4.61-3.71,11.22-6.52,17.68-7.53,1.6-.25,3.12-.37,4.53-.37,3.94,0,7,.95,8.41,2.7ZM225.81,592.42c.71,1.07.32,2.06.12,2.44-.2.38-.81,1.25-2.1,1.25h-5.85v-15.48l7.83,11.79ZM203.11,534.36c2.74,0,5.29,1.49,6.65,3.88l.83,1.46,1.67-.22c.39-.05.71-.07,1-.07,4.21,0,7.64,3.43,7.64,7.64,0,1.22-.29,2.39-.85,3.49l-.76,1.47,1.06,1.27c1.54,1.84,1.96,4.37,1.13,6.59l-21.56-10.61c-.67-.33-1.24-.79-1.72-1.37l-.11-.14-.13-.12c-1.61-1.47-2.49-3.47-2.49-5.63,0-4.21,3.43-7.64,7.64-7.64ZM117.75,620.15l43.21-.09,16.4-41.38c4.12-10.39,11.81-19.01,21.66-24.28l21.65,10.66-.02.04,2.03.96.92.45c1.4.76,2.36,2.15,2.56,3.72h-13.18v76.95c0,17.43-6.49,34.37-18.29,47.69l.2.17c-2.12-.13-4.45,0-6.94.38-7.28,1.14-14.78,4.34-20.04,8.57-1.65,1.32-3.05,2.83-4.21,4.47-1.25-6.39-4.14-11.62-8.76-13.51-9.77-3.99-25.12,8.77-30.62,21.75-1.08-3.04-2.84-5.84-5.2-8.2-8.93-8.93-24.58-14.57-33.51-10.77-3.75-4.16-7.03-8.73-9.74-13.62-.1-.18-.19-.36-.29-.53h64.93c19.11,0,34.77-15.55,34.91-34.66l-5-.04c-.12,16.38-13.55,29.7-29.93,29.7h-61.24l7.15-10.86h44.5v-5h-41.21l7.15-10.86h39.34v-5h-36.05l17.6-26.72ZM47.39,599.48l21.33,19.83,3.41-3.66-22.61-21.03,4.48-9.83,29.35,27.29,3.41-3.66-30.57-28.43,4.84-10.6,52.09,48.7-18.95,28.77h-.25v.38l-20.65,31.34c-.13-.3-.25-.6-.37-.89l-25.18-61.96c-2.1-5.19-2.2-11.01-.33-16.25Z"/>
  <path d="M235.57,752.89l-3.39-3.67c-6.17,5.69-21.69,10.19-21.85,10.23l1.38,4.81c.68-.2,16.82-4.87,23.86-11.37Z"/>
  <path d="M206.89,572.08c2.19,0,3.96-1.77,3.96-3.96s-1.77-3.96-3.96-3.96-3.96,1.77-3.96,3.96,1.77,3.96,3.96,3.96Z"/>
  <path d="M0,823.54v15.71c1.84-4.87,1.93-10.47,0-15.71Z"/>
  <path d="M11.51,286c0-3.1-2.52-5.62-5.62-5.62s-5.62,2.52-5.62,5.62,2.52,5.62,5.62,5.62,5.62-2.52,5.62-5.62Z"/>
  <polygon points="10.19 303.12 10.19 298.12 0 298.12 0 313.54 4.67 303.12 10.19 303.12"/>
  <path d="M77.94,418.2v20.42H29.01l26.84,27.59,35.52-19.19v-28.91c23.76-.88,46.94-7.75,67.38-20.01l54.18-32.51-53.33-16.97c-35.03-11.14-72.06-16.79-110.06-16.79h-16.66c8.44-10.85,17.81-23.12,17.81-36.91,0-18.24-14.84-33.09-33.08-33.09-6.39,0-12.46,1.84-17.59,5v6.21c4.82-3.88,10.94-6.21,17.59-6.21,15.49,0,28.08,12.6,28.08,28.09,0,12.3-9.13,24.03-17.18,34.38-2.34,3.01-4.55,5.84-6.52,8.66-5.2,7.39-6.74,15.54-4.35,22.93,2.49,7.71,9.16,13.8,18.78,17.13,9.44,3.27,22.08,4.98,36.02,4.98,5.01,0,10.19-.22,15.45-.67,21.04-1.8,41.36-7.05,57.2-14.75l22.95-11.04,32.84,10.45-44.68,26.81c-21.15,12.69-45.36,19.39-70.02,19.39-.08,0-.17,0-.25,0l-55.62-.1c-11.22-.03-21.83-3.88-30.29-10.68v6.23c8.76,6.04,19.25,9.42,30.28,9.45l47.66.09ZM142.88,363.1c-33.42,16.26-81.2,18.41-104.85,10.22-8.22-2.85-13.64-7.67-15.66-13.94-1.89-5.87-.58-12.44,3.69-18.52.92-1.31,1.91-2.65,2.95-4.01h20.53c37.49,0,74.01,5.57,108.55,16.56l2.99.95-18.19,8.75ZM82.94,418.21h2.96c.09,0,.17,0,.26,0,.07,0,.14,0,.22,0v25.83l-29.57,15.98-15.95-16.4h42.09v-25.41Z"/>
  <path d="M41.71,362.7c-4.62-1.6-7.77-4.07-8.65-6.77l-4.76,1.54c1.38,4.27,5.56,7.81,11.77,9.96,8.31,2.88,19.81,4.41,32.53,4.41,3.41,0,6.92-.11,10.47-.34l-.32-4.99c-16.14,1.02-31.1-.37-41.04-3.81Z"/>
  <rect x="31.26" y="822.46" width="13.19" height="5" transform="translate(-572.29 268.44) rotate(-45)"/>
  <rect x="50.83" y="818.36" width="5" height="13.19" transform="translate(-567.72 279.34) rotate(-45)"/>
  <rect x="1185.67" y="534.6" width="13.19" height="5" transform="translate(-30.57 1000.39) rotate(-45)"/>
  <rect x="1189.76" y="515.03" width="5" height="13.19" transform="translate(-19.65 995.82) rotate(-45)"/>
  <rect x="5.24" y="530.5" width="5" height="13.19" transform="translate(-377.52 162.78) rotate(-45)"/>
  <rect x="1.14" y="519.13" width="13.19" height="5" transform="translate(-366.58 158.25) rotate(-45)"/>
  <rect x="97.42" y="252.52" width="13.19" height="5" transform="translate(-149.85 148.23) rotate(-45)"/>
  <rect x="101.52" y="232.95" width="5" height="13.19" transform="translate(-138.92 143.73) rotate(-45)"/>
  <rect x="116.99" y="248.42" width="5" height="13.19" transform="translate(-145.33 159.18) rotate(-45)"/>
  <rect x="112.89" y="237.04" width="13.19" height="5" transform="translate(-134.39 154.65) rotate(-45)"/>
  <path d="M831.32,548.77l-2.29.1-.1,2.29c-.3,6.84,2.31,13.55,7.15,18.39,4.59,4.59,10.85,7.17,17.33,7.17.35,0,.71,0,1.06-.02l1.47-.06,1.46.06c.35.02.71.02,1.06.02,6.47,0,12.73-2.58,17.32-7.17,4.85-4.85,7.45-11.55,7.15-18.39l-.1-2.29-2.29-.1c-5.39-.24-10.7,1.33-15.08,4.38.06-.71.1-1.43.1-2.15,0-6.85-2.9-13.44-7.95-18.06l-1.69-1.55-1.69,1.54c-5.06,4.62-7.96,11.21-7.96,18.07,0,.72.04,1.44.1,2.15-4.38-3.05-9.68-4.62-15.08-4.38ZM865.69,559.46c3.28-3.28,7.63-5.27,12.21-5.64-.38,4.58-2.37,8.93-5.65,12.21-3.28,3.28-7.62,5.27-12.2,5.64.37-4.57,2.36-8.92,5.64-12.2ZM855.94,538.38c2.97,3.5,4.64,7.99,4.64,12.62s-1.67,9.12-4.64,12.62c-2.97-3.49-4.64-7.98-4.64-12.62s1.67-9.12,4.64-12.62ZM846.18,559.46c3.28,3.28,5.27,7.63,5.64,12.2-4.58-.38-8.93-2.37-12.2-5.64-3.28-3.28-5.27-7.63-5.65-12.21,4.58.37,8.93,2.36,12.21,5.64Z"/>
  <path d="M1010.41,453.45c0-9.65,7.85-17.49,17.49-17.49s17.49,7.85,17.49,17.49h5c0-12.4-10.09-22.49-22.49-22.49s-22.49,10.09-22.49,22.49h5Z"/>
  <path d="M972.12,491.45c-9.65,0-17.49-7.85-17.49-17.49h-5c0,12.4,10.09,22.49,22.49,22.49s22.49-10.09,22.49-22.49h-5c0,9.65-7.85,17.49-17.49,17.49Z"/>
  <circle cx="904.34" cy="392.23" r="6.24"/>
  <path d="M1011.38,408.78c-5.02-4.5-11.56-7.04-18.35-7.04s-13.32,2.52-18.31,7.02l-4.69-8.28c.3.01.61.02.92.02.22,0,.45,0,.68,0,8.29-.22,16-3.65,21.71-9.67,5.71-6.02,8.73-13.9,8.51-22.19-.27-10.2-4.49-19.68-11.89-26.7-7.4-7.02-17.08-10.74-27.29-10.47-12.58.33-24.28,5.54-32.94,14.67-5.38,5.67-9.19,12.44-11.22,19.76-7.89.27-15.42,3.27-21.32,8.55l-26.38,23.67c-4.24,3.8-5.97,9.79-4.41,15.27l.02.07c1.82,6.42,7.76,10.9,14.43,10.9h16.58c-2.26,3.5-3.3,7.13-3.3,11.32,0,7.81,3.78,15.08,10.03,19.57-2.62,4.07-4.04,8.85-4.04,13.73,0,10.78,7.03,20.47,17.26,24.04,4.52,13.77,16.15,24,30.01,27.05l-15.37,82.02h18.19l16.25-67.19,7.23,14.45,4.54,52.74h16.88l3.7-53.8,10.92-25.8c11.53,4.97,24.04,7.58,36.36,7.58,1.72,0,3.49-.08,5.3-.21l27.72,19.88-3.61,52.34h17.93l12.87-63.64,15.39,11.02v52.62h17.65l11.8-81.81-8.86-10.24v-35.8c2.42-.1,4.67-1.08,6.39-2.8,1.81-1.81,2.81-4.22,2.81-6.78,0-7.56-2.86-19.95-10.87-32.06-6.34-9.57-18.1-22.05-38.17-27.14-17.94-4.55-33.62-1.72-40.99,3.54-6.25-7.26-15.45-11.53-25.12-11.53s-18.66,4.18-24.92,11.31ZM946.26,597.09h-8.23l14.29-76.25c1.22.11,2.46.18,3.7.18h3.47l3.48,6.95-16.71,69.12ZM1089.32,597.09h-8.48l3.43-49.78-25.54-18.32c8.02-1.29,16.47-3.71,24.47-7.06l18.62,13.33-12.5,61.83ZM1036.3,402.47c8.98,0,17.48,4.33,22.75,11.58l1.77,2.44,2.07-2.2c4.2-4.46,19.27-8.81,38.29-3.99,18.52,4.7,29.38,16.22,35.23,25.05,7.41,11.2,10.04,22.79,10.04,29.31,0,1.23-.48,2.38-1.34,3.25-.87.87-2.02,1.34-3.25,1.34h-4.61v42.65l8.58,9.93-10.85,75.27h-8.32v-50.19l-42.85-30.68-1.3.56c-9.75,4.24-20.24,7.02-29.72,7.94h-.01s0,0,0,0c-2.3.22-4.54.34-6.7.34-12.44,0-25.1-2.83-36.61-8.18l-2.35-1.09-13.25,31.3-3.44,49.98h-7.62l-4.23-49.12-10.31-20.6v-.03s-.02,0-.02,0l-5.66-11.31h-6.56c-15.76,0-29.85-10.56-34.26-25.69l-.38-1.32-1.32-.38c-8.81-2.56-14.96-10.64-14.96-19.65,0-4.73,1.58-9.16,4.56-12.83l1.88-2.31-2.61-1.45c-6.06-3.37-9.82-9.77-9.82-16.7,0-4.57,1.59-8.19,5.3-12.1l4.01-4.22h-27.59c-4.45,0-8.41-2.99-9.63-7.28l-.02-.07c-1.04-3.65.12-7.65,2.94-10.18l26.37-23.66c4.71-4.2,10.63-6.71,16.88-7.2-.47,2.89-.67,5.84-.59,8.83l5-.13c-.3-11.24,3.8-21.93,11.54-30.09,7.74-8.16,18.2-12.82,29.44-13.11,8.86-.23,17.28,3,23.71,9.1,6.43,6.1,10.1,14.34,10.34,23.2.38,14.36-11,26.35-25.35,26.73-11.2.29-20.57-8.59-20.87-19.8-.11-4.21,1.42-8.21,4.32-11.27,2.9-3.06,6.82-4.8,11.03-4.91,3.23-.08,6.31,1.09,8.66,3.32,2.35,2.23,3.69,5.24,3.77,8.47.13,5.07-3.88,9.3-8.95,9.43l.13,5c7.82-.21,14.02-6.74,13.82-14.56-.25-9.44-8.13-16.91-17.56-16.66-5.55.15-10.7,2.44-14.52,6.47-3.82,4.03-5.84,9.3-5.69,14.84.3,11.21,7.87,20.55,18.07,23.61l10.07,17.77,2.32-2.69c4.25-4.94,10.43-7.77,16.96-7.77s12.43,2.71,16.7,7.44l2.06,2.28,1.82-2.48c5.29-7.22,13.78-11.52,22.7-11.52Z"/>
  <path d="M1090.49,499.03c12.4,0,22.49-10.09,22.49-22.49h-5c0,9.65-7.85,17.49-17.49,17.49s-17.49-7.85-17.49-17.49h-5c0,12.4,10.09,22.49,22.49,22.49Z"/>
  <path d="M1359.28,845.63l-2.29.1-.1,2.29c-.3,6.84,2.31,13.55,7.15,18.39,4.59,4.59,10.85,7.17,17.33,7.17.35,0,.71,0,1.06-.02l1.47-.06,1.47.06c.35.02.71.02,1.06.02,6.47,0,12.73-2.58,17.33-7.17,4.85-4.85,7.45-11.55,7.15-18.39l-.1-2.29-2.29-.1c-5.4-.24-10.7,1.33-15.08,4.38.06-.71.1-1.43.1-2.15,0-6.85-2.9-13.44-7.95-18.06l-1.69-1.55-1.69,1.54c-5.06,4.62-7.96,11.21-7.96,18.07,0,.72.04,1.44.1,2.15-4.38-3.05-9.68-4.62-15.08-4.38ZM1393.65,856.31c3.28-3.28,7.63-5.27,12.21-5.64-.38,4.58-2.37,8.93-5.65,12.21-3.28,3.28-7.62,5.27-12.2,5.64.37-4.57,2.36-8.92,5.64-12.2ZM1383.9,835.24c2.97,3.5,4.64,7.99,4.64,12.62s-1.67,9.12-4.64,12.62c-2.97-3.49-4.64-7.98-4.64-12.62s1.67-9.12,4.64-12.62ZM1374.14,856.31c3.28,3.28,5.27,7.63,5.64,12.2-4.58-.38-8.93-2.37-12.2-5.64h0c-3.28-3.28-5.27-7.63-5.65-12.21,4.58.37,8.93,2.36,12.21,5.64Z"/>
  <path d="M1257.37,1128.89l-2.29.1-.1,2.29c-.3,6.84,2.31,13.55,7.15,18.39,4.59,4.59,10.85,7.17,17.33,7.17.35,0,.71,0,1.06-.02l1.47-.06,1.47.06c.35.02.71.02,1.06.02,6.47,0,12.74-2.58,17.33-7.17,4.85-4.84,7.45-11.55,7.15-18.39l-.1-2.29-2.29-.1c-5.39-.24-10.7,1.33-15.08,4.38.06-.71.1-1.43.1-2.15,0-6.85-2.9-13.44-7.95-18.06l-1.69-1.55-1.69,1.54c-5.06,4.62-7.96,11.21-7.96,18.07,0,.72.04,1.44.1,2.15-4.38-3.05-9.69-4.62-15.08-4.38ZM1291.75,1139.57c3.28-3.28,7.63-5.27,12.21-5.64-.38,4.58-2.37,8.93-5.65,12.21-3.28,3.28-7.62,5.27-12.2,5.64.37-4.57,2.36-8.92,5.64-12.2ZM1282,1118.5c2.97,3.5,4.64,7.99,4.64,12.62s-1.67,9.12-4.64,12.62c-2.97-3.49-4.64-7.98-4.64-12.62s1.67-9.12,4.64-12.62ZM1272.24,1139.57c3.28,3.28,5.27,7.63,5.64,12.2-4.58-.38-8.93-2.37-12.2-5.64-3.28-3.28-5.27-7.63-5.65-12.21,4.58.37,8.93,2.36,12.21,5.64Z"/>
  <path d="M1433.16,1070.89l-2.29.1-.1,2.29c-.38,8.72,2.94,17.27,9.12,23.44,5.85,5.85,13.83,9.14,22.08,9.14.45,0,.9,0,1.35-.03l1.95-.08,1.95.08c.45.02.9.03,1.35.03,8.25,0,16.23-3.29,22.08-9.14,6.18-6.18,9.5-14.72,9.12-23.44l-.1-2.29-2.29-.1c-7.46-.33-14.79,2.06-20.62,6.62.21-1.47.33-2.96.33-4.46,0-8.73-3.69-17.13-10.13-23.02l-1.69-1.55-1.69,1.54c-6.45,5.89-10.14,14.29-10.14,23.03,0,1.5.12,2.99.33,4.46-5.83-4.56-13.15-6.94-20.62-6.62ZM1477.48,1083.54c4.62-4.62,10.83-7.34,17.3-7.65-.31,6.48-3.03,12.68-7.65,17.3h0c-4.62,4.62-10.81,7.33-17.29,7.65.3-6.47,3.02-12.67,7.64-17.3ZM1465.28,1055.4c4.36,4.8,6.82,11.11,6.82,17.64s-2.46,12.83-6.82,17.63c-4.36-4.79-6.83-11.09-6.83-17.63s2.46-12.85,6.83-17.64ZM1453.08,1083.54c4.62,4.63,7.34,10.82,7.64,17.3-6.48-.31-12.68-3.03-17.29-7.65-4.62-4.62-7.34-10.82-7.65-17.3,6.48.31,12.68,3.02,17.3,7.65Z"/>
  <path d="M1252.99,949.88c10.12,0,18.36-8.24,18.36-18.36s-8.24-18.36-18.36-18.36-18.36,8.24-18.36,18.36,8.24,18.36,18.36,18.36ZM1252.99,918.16c7.37,0,13.36,5.99,13.36,13.36s-5.99,13.36-13.36,13.36-13.36-5.99-13.36-13.36,5.99-13.36,13.36-13.36Z"/>
  <polygon points="1479.71 950.59 1481.47 955.28 1486.15 953.52 1482.24 943.1 1475.24 947.48 1477.9 951.72 1479.71 950.59"/>
  <path d="M1431.25,914.69l-55.3,24.13h-28.91c.53-2.35.82-4.79.82-7.3,0-18.36-14.93-33.29-33.29-33.29-13.88,0-25.8,8.54-30.79,20.65-4.99-12.1-16.91-20.65-30.79-20.65-18.36,0-33.29,14.93-33.29,33.29,0,2.51.29,4.95.82,7.3h-50.17c-12.12,0-21.97,9.86-21.97,21.97v93.33h5v-93.33c0-8.78,6.71-16.03,15.26-16.89v59.78l11.22,50.49-11.3,28.25,12.43,74.91h30.69l-11.13-18.68-.02-45.12,40.77-46.16c18.37,6.22,37.57,9.24,58.64,9.24h45.84v82.41l4.58,18.31h30.26l-9.73-18.51,15.95-83.46,68.28-66.07,28.52,19.21c6.58,4.44,15.46,4.01,21.59-1.03l4.12-3.39c5.87-4.83,8.1-12.88,5.55-20.03l-23.48-65.94,9.98-26.59.41-32.14-21.55,24.16.31-24.16-49.31,55.29ZM1314.56,903.23c15.6,0,28.29,12.69,28.29,28.29s-12.69,28.29-28.29,28.29-28.29-12.69-28.29-28.29,12.69-28.29,28.29-28.29ZM1314.56,964.81c14.01,0,26.02-8.71,30.92-20.99h28.49v40.81c0,8.06-6.56,14.62-14.62,14.62h-82.59c-8.06,0-14.62-6.56-14.62-14.62v-21.11c9.82-2.81,17.79-10.02,21.63-19.36,4.99,12.1,16.91,20.65,30.79,20.65ZM1252.99,903.23c15.6,0,28.29,12.69,28.29,28.29s-12.69,28.29-28.29,28.29-28.29-12.69-28.29-28.29,12.69-28.29,28.29-28.29ZM1496.64,872.72l-.23,17.87-10.31,27.48,24.1,67.66c1.84,5.18.23,11-4.01,14.49l-4.12,3.39c-4.44,3.65-10.86,3.96-15.62.75l-31.88-21.48-71.76,69.44-.57.55-16.58,86.73,6.69,12.74h-18.08l-3.48-13.92v-86.79h-50.84c-21.11,0-40.27-3.11-58.58-9.51l-1.59-.55-39.76,45.01-4.49,5.08.03,48.39,4.46,7.49,2.87,4.81h-17.65l-11.5-69.35,11.36-28.39-11.44-51.46v-59.31h48.43c4.9,12.28,16.91,20.99,30.92,20.99,1.41,0,2.79-.1,4.16-.27v20.09c0,10.82,8.8,19.62,19.62,19.62h82.59c10.82,0,19.62-8.8,19.62-19.62v-41.67l54.78-23.91.5-.22,41.14-46.13-.21,16.62-21.37,24.04,3.74,3.32,39.09-43.97Z"/>
  <rect x="1231.26" y="822.46" width="13.19" height="5" transform="translate(-220.77 1116.94) rotate(-45)"/>
  <rect x="1250.83" y="818.36" width="5" height="13.19" transform="translate(-216.24 1127.86) rotate(-45)"/>
  <rect x="1246.73" y="806.99" width="13.19" height="5" transform="translate(-205.3 1123.33) rotate(-45)"/>
  <rect x="1235.36" y="802.89" width="5" height="13.19" transform="translate(-209.84 1112.38) rotate(-45)"/>
  <rect x="1205.24" y="530.5" width="5" height="13.19" transform="translate(-26.04 1011.33) rotate(-45)"/>
  <rect x="1201.14" y="519.13" width="13.19" height="5" transform="translate(-15.12 1006.76) rotate(-45)"/>
  <path d="M1977.17,943.9l-2.29.1-.1,2.29c-.3,6.84,2.31,13.55,7.15,18.39h0c4.59,4.59,10.85,7.17,17.32,7.17.35,0,.71,0,1.06-.02l1.46-.06,1.46.06c.36.02.71.02,1.06.02,6.47,0,12.73-2.58,17.32-7.17,4.85-4.85,7.45-11.55,7.15-18.39l-.1-2.29-2.29-.1c-5.39-.24-10.7,1.33-15.08,4.38.06-.71.1-1.43.1-2.15,0-6.85-2.9-13.44-7.95-18.06l-1.69-1.55-1.69,1.54c-5.06,4.62-7.96,11.21-7.96,18.07,0,.72.04,1.44.1,2.15-4.38-3.05-9.69-4.62-15.08-4.38ZM2011.55,954.58c3.28-3.28,7.63-5.27,12.21-5.64-.38,4.58-2.37,8.93-5.65,12.21-3.28,3.28-7.62,5.27-12.2,5.64.37-4.57,2.36-8.92,5.64-12.2ZM2001.8,933.51c2.97,3.5,4.64,7.99,4.64,12.62s-1.67,9.12-4.64,12.62c-2.97-3.49-4.64-7.98-4.64-12.62s1.67-9.12,4.64-12.62ZM1992.04,954.58c3.28,3.28,5.27,7.63,5.64,12.2-4.58-.38-8.93-2.36-12.2-5.64h0c-3.28-3.28-5.27-7.63-5.65-12.21,4.58.37,8.93,2.36,12.21,5.64Z"/>
  <path d="M2156.8,65.2c.45,0,.9,0,1.35-.03l1.95-.09,1.95.09c.45.02.9.03,1.35.03,8.25,0,16.23-3.29,22.08-9.14,6.18-6.18,9.5-14.72,9.12-23.44l-.1-2.29-2.29-.1c-7.46-.33-14.79,2.05-20.62,6.62.21-1.47.33-2.96.33-4.46,0-8.73-3.69-17.13-10.13-23.02l-1.69-1.55-1.69,1.54c-6.44,5.89-10.14,14.29-10.14,23.03,0,1.5.12,2.99.33,4.46-5.83-4.56-13.16-6.95-20.62-6.62l-2.29.1-.1,2.29c-.38,8.72,2.94,17.27,9.12,23.44,5.85,5.85,13.83,9.14,22.08,9.14ZM2172.3,42.87c4.62-4.62,10.83-7.34,17.3-7.65-.31,6.48-3.03,12.68-7.65,17.3-4.62,4.62-10.82,7.33-17.29,7.65.3-6.47,3.02-12.67,7.64-17.3ZM2160.11,14.74c4.36,4.8,6.82,11.11,6.82,17.64s-2.46,12.83-6.82,17.63c-4.36-4.79-6.83-11.09-6.83-17.63s2.46-12.84,6.83-17.64ZM2147.91,42.87c4.63,4.63,7.34,10.82,7.64,17.3-6.48-.31-12.68-3.03-17.29-7.65-4.62-4.62-7.34-10.82-7.65-17.3,6.48.31,12.68,3.02,17.3,7.65Z"/>
  <path d="M2281.58,1183.06l1.95-.09,1.95.09c.45.02.9.03,1.35.03,8.25,0,16.23-3.29,22.08-9.14h0c6.18-6.18,9.5-14.72,9.12-23.44l-.1-2.29-2.29-.1c-7.47-.33-14.79,2.05-20.62,6.62.21-1.47.33-2.96.33-4.46,0-8.73-3.69-17.13-10.13-23.02l-1.69-1.55-1.69,1.54c-6.45,5.89-10.14,14.29-10.14,23.03,0,1.5.12,2.99.33,4.46-5.83-4.56-13.16-6.95-20.62-6.62l-2.29.1-.1,2.29c-.38,8.72,2.94,17.27,9.12,23.44,5.85,5.85,13.83,9.14,22.08,9.14.45,0,.9,0,1.35-.03ZM2295.73,1160.76c4.62-4.62,10.82-7.34,17.3-7.65-.31,6.48-3.03,12.68-7.65,17.3-4.62,4.62-10.82,7.33-17.29,7.65.3-6.47,3.02-12.67,7.64-17.3ZM2283.53,1132.63c4.36,4.8,6.82,11.11,6.82,17.64s-2.46,12.83-6.82,17.63c-4.36-4.79-6.83-11.09-6.83-17.63s2.46-12.85,6.83-17.64ZM2261.68,1170.41c-4.62-4.62-7.34-10.82-7.65-17.3,6.48.31,12.68,3.02,17.3,7.65,4.63,4.63,7.34,10.82,7.64,17.3-6.48-.31-12.68-3.03-17.29-7.65Z"/>
  <path d="M2314.36,100.7c0,3.54,2.87,6.42,6.42,6.42s6.42-2.87,6.42-6.42-2.87-6.42-6.42-6.42-6.42,2.87-6.42,6.42Z"/>
  <path d="M2339.03,58.59c8.17-2.67,31.59-10.07,60.97-17.08v-5.13c-29.12,6.89-52.57,14.22-61.63,17.16l-42.63-18.3c-.42-.19-.84-.37-1.27-.54l-.13-.05h0s-.03-.01-.05-.02l-3.31-1.34-.12,3.57c-.27,7.83,1.85,15.46,6.14,22.05,3.73,5.73,8.85,10.29,14.91,13.31l-16.66,31.11-13.78,5.47v-5.04h-5v25.64l8.97,5.6c18.86,11.79,40.59,18.02,62.83,18.02h3.56l4.87,31.03-.06,13.64h14.3l16.99-40.38,9.96,26.8v13.59h2.11v-22.26l-10.19-27.41h-41.54c-21.3,0-42.11-5.97-60.18-17.26l-6.62-4.13v-12.45l17.33-6.88,18.73-34.98c.37-.48.58-1.07.59-1.68.14-7.62-1.99-15.04-6.16-21.45-.49-.75-1.01-1.49-1.55-2.2l27.72,11.9.9-.29ZM2384.31,153.03l-16.69,39.67h-5.96l.04-9.02-4.81-30.65h27.42ZM2313.01,67.16c-4.77-2.61-8.81-6.36-11.82-10.98-3.01-4.62-4.79-9.83-5.24-15.25,4.77,2.61,8.8,6.35,11.81,10.98,3,4.62,4.79,9.83,5.25,15.25Z"/>
  <path d="M2074.07,229.65c1.87,0,3.39-1.3,3.39-2.91s-1.52-2.91-3.39-2.91-3.39,1.3-3.39,2.91,1.52,2.91,3.39,2.91Z"/>
  <path d="M2044.88,279.74c3.51,0,6.98-.87,10.05-2.53,7.53-4.06,11.88-12.19,11.08-20.7l-4.98.47c.61,6.51-2.71,12.72-8.47,15.83-2.34,1.26-5,1.93-7.68,1.93-4.83,0-9.36-2.08-12.44-5.71l-3.81,3.24c4.03,4.75,9.96,7.47,16.25,7.47Z"/>
  <path d="M2058.38,109.06c2.25,0,4.08-1.82,4.08-4.07s-1.82-4.07-4.08-4.07-4.08,1.82-4.08,4.07,1.82,4.07,4.08,4.07Z"/>
  <path d="M2028,300.06h.13c1.7.1,3.41.17,5.15.19v11.23h-5.25v5h28.11v-5h-17.85v-11.35c6.01-.37,12.62-1.67,20.75-5.14h0c11.89-5.09,21.77-12.99,27.82-22.26,3-4.61,4.9-9.3,5.66-13.88,9.9,4.52,20.44,6.89,31.41,7.07l-6.09,23.85h-17.74l-13.14,13.14h56.86l-11.41-11.4,6.59-25.92-2.03-.52c22.6-3.32,42.73-16.19,55.29-35.84,2.25-3.5,4.21-7.36,6.01-11.81l25.14-61.86c2.88-7.09,2.7-15.16-.48-22.14l-15.93-34.91-57.66,55.54h-40.73l-15.81-39.56c-4.15-10.45-12.72-20.63-22.4-26.81h0c2.55-2.4,4.01-5.76,4.01-9.25,0-7.01-5.71-12.72-12.72-12.72-4.02,0-7.78,1.92-10.17,5.09-.02,0-.03,0-.05,0-7.01,0-12.72,5.71-12.72,12.72,0,1.5.26,2.97.77,4.36-2.01,3.22-2.35,7.26-.85,10.78l-1.74.8c-3.53,1.63-5.8,5.19-5.8,9.08v4.36h13.17l-9.16,13.8c-1.51,2.28-1.65,5.2-.36,7.61,1.29,2.41,3.8,3.91,6.54,3.91h3.39v47.2c0,9.81,1.89,19.38,5.6,28.46-7.33,5.77-12.11,14.02-13.61,16.82-1.39.49-2.76,1.02-4.09,1.58-11.91,5.02-21.8,12.91-27.85,22.23-6.25,9.62-7.71,19.62-4.1,28.17,4.06,9.64,14.04,15.98,27.36,17.39ZM2126.85,293.02l4.88,4.88h-32.71l3.14-3.14h19.55l7.39-28.93c1.59-.08,3.18-.2,4.76-.37l-7.01,27.56ZM2205.37,107.01l4.66,10.22-30.68,31.19,3.56,3.51,29.34-29.82,4.52,9.91-22.71,23.7,3.61,3.46,21.29-22.22c2.01,5.38,1.96,11.39-.2,16.72l-25.14,61.86c-.16.39-.32.78-.48,1.16l-39.46-59.9,51.69-49.79ZM2044.6,87.04c-.57-1.1-.86-2.29-.86-3.52,0-4.26,3.46-7.72,7.72-7.72.29,0,.61.02,1.01.08l1.67.22.83-1.46c1.37-2.42,3.94-3.92,6.71-3.92,4.26,0,7.72,3.46,7.72,7.72,0,2.18-.89,4.2-2.51,5.68l-.13.12-.11.14c-.48.59-1.07,1.06-1.74,1.39l-21.74,10.7c-.84-2.25-.42-4.81,1.14-6.68l1.06-1.27-.76-1.47ZM2044.7,133.22h-3.39c-1.31,0-1.92-.89-2.13-1.27-.21-.38-.61-1.39.12-2.48l5.4-8.13v11.88ZM2049.7,185.41v-77.51h-13.53c.22-1.69,1.29-3.17,2.86-3.9l1.77-.82h0s.5-.24.5-.24l.55-.25h0s24.1-11.88,24.1-11.88c9.54,5.46,18.18,15.34,22.21,25.51l17.07,42.71h43.96l18.16,27.57h-38.71v5h42l7.43,11.29h-44.01v5h46.14v-1.76l6.81,10.33h-61.74c-16.51,0-30.05-13.43-30.17-29.94l-5,.04c.14,19.24,15.91,34.9,35.16,34.9h65.67c-.91,1.79-1.87,3.46-2.89,5.05-13.77,21.54-37.23,34.4-62.77,34.4-11.36,0-22.24-2.51-32.37-7.44-.09-3.08-.72-6.07-1.92-8.9-.83-1.98-1.92-3.83-3.25-5.53l11.57-2.76-9.75-10.29c-.81-10.1-11.13-18.15-23.56-18.15-4.2,0-8.04,1.25-11.46,3.17-3.21-8.19-4.84-16.8-4.84-25.61ZM2084.78,234.63l2.59-3.64,2.34,2.47-4.93,1.17ZM2034.53,236.88c1.53-.64,3.11-1.24,4.71-1.78l.99-.33.46-.94c.1-.21,10.43-20.97,25.3-20.97,9.79,0,17.91,5.97,18.56,13.46l-7.1,9.97,1.49,1.06,2.35,2.13c2.24,2.03,3.95,4.4,5.07,7.06,6.17,14.64-6.97,34.31-29.3,43.85h0c-11.9,5.09-20,5.14-28.61,4.69-11.43-1.23-19.89-6.45-23.22-14.35-6.22-14.75,6.92-34.42,29.29-43.85Z"/>
  <path d="M2348.37,960.79v93.33h5v-93.33c0-8.78,6.71-16.03,15.26-16.89v59.78l11.22,50.49-11.3,28.25,12.43,74.91h19.02v-5h-14.78l-11.5-69.35,11.36-28.39-11.44-51.46v-59.31h26.37v-5h-29.66c-12.12,0-21.97,9.86-21.97,21.97Z"/>
  <polygon points="2395.54 1140.04 2400 1147.53 2400 1086.57 2395.51 1091.65 2395.54 1140.04"/>
  <path d="M2094.53,1110.96l-1.27,2.15-1.27,2.15c.72.42,13.12,7.58,30.98,7.58,7.23,0,15.35-1.17,23.95-4.44l-1.77-4.67c-27.54,10.46-50.39-2.65-50.62-2.78Z"/>
  <path d="M2148.18,921.39c-2.67,0-4.84,2.17-4.84,4.84s2.17,4.84,4.84,4.84,4.84-2.17,4.84-4.84-2.17-4.84-4.84-4.84ZM2148.18,926.39c-.09,0-.16-.07-.16-.16s.07-.16.16-.16.16.07.16.16-.07.16-.16.16Z"/>
  <path d="M2209.14,966.23c2.67,0,4.84-2.17,4.84-4.84s-2.17-4.84-4.84-4.84-4.84,2.17-4.84,4.84,2.17,4.84,4.84,4.84ZM2209.14,961.23c.09,0,.16.07.16.16s-.07.16-.16.16-.16-.07-.16-.16.07-.16.16-.16Z"/>
  <path d="M2165.59,933.2l19.66-10.68c1.98-1.05,3.22-3.1,3.22-5.35,0-3.34-2.73-6.06-6.08-6.06h-40.61c-7.78,0-15.08,3.42-20.04,9.39-4.11,4.93-6.37,10.89-6.37,16.77v66.59c0,3.74-3.04,6.77-6.77,6.77h-8.52c-81.39,0-124.31,41.56-126.11,43.34l-1.82,1.81,1.65,1.64c12.83,23.92,42,49.91,73.57,54.18,18.31,21.49,45.04,35.09,74.03,36.98v24.16l34.78,18.89,26.38-30.2h-47.11v-12.8c17.03-.85,46.62-5.91,66.22-29.18,11.22-13.32,17.1-29.31,17.98-48.88.76-16.91-2.19-33.71-5.05-49.96-2.15-12.24-4.19-23.85-4.21-33.84l4.7-1.51c6.48-2.08,10.83-8.05,10.83-14.86v-1.03l20.48-11.14c1.98-1.05,3.21-3.11,3.21-5.36,0-5.04-3.56-5.58-5.08-5.58h-42.22c-7.86,0-14.58,3.09-19.42,8.93-3.48,4.2-7.21,11.05-7.21,17.7v66.35c0,3.61-2.94,6.55-6.55,6.55h-9.37c2.96-12.87-.63-31.51-4.42-51.15-2.94-15.23-5.97-30.96-6.09-44.71l4.04-1.34c7.17-2.37,12.04-8.92,12.3-16.42ZM2165.6,916.11h16.78c.6,0,1.08.48,1.08,1.06,0,.39-.21.75-.58.94l-17.29,9.39v-11.4ZM2225.92,952.3h18.61s.04,0,.05,0c.02.13.03.32.03.58,0,.4-.22.76-.58.95l-18.11,9.85v-11.39ZM2171.55,1166.43l-16.5,18.9-28.65-15.56v-21.04h4.05s0,17.71,0,17.71h41.11ZM2160.08,1051.83h9.05c6.37,0,11.55-5.18,11.55-11.55v-66.35c0-5.33,3.26-11.14,6.06-14.51,3.92-4.73,9.16-7.12,15.57-7.12h18.61v18.11c0,4.62-2.96,8.68-7.36,10.1l-8.11,2.61-.04,1.78c-.26,10.88,1.94,23.37,4.26,36.59,5.5,31.29,11.74,66.76-11.84,94.75-19.05,22.62-48.49,26.93-64.34,27.48-.04,0-.08,0-.12,0h0s-8.62.02-8.62.02v2.11s-.42,0-.42,0l.08-2.11c-35.37-1.36-67.53-21.01-84.4-51.43,3.04-2.74,11.15-9.53,24.13-16.77,8.17,15.36,22.23,26.89,38.94,31.85,5.95,1.77,12.12,2.66,18.34,2.66,11.31,0,22.51-2.97,32.4-8.58l-2.47-4.35c-9.14,5.19-19.48,7.93-29.93,7.93-5.74,0-11.43-.83-16.92-2.45-15.47-4.59-28.47-15.28-36-29.51,25.54-14.49,54.72-21.25,91.57-21.25ZM2144.27,947.34l-.02,1.79c-.15,14.66,3.07,31.35,6.18,47.49,3.82,19.79,7.43,38.52,4.16,50.26-36.15.67-65.06,8.04-90.6,23.04-18.25,9.83-27.81,19.08-28.84,20.1l-1.32,1.31.87,1.64c2.36,4.47,5.04,8.73,7.99,12.75-27.31-5.94-52.08-28.37-63.85-49.47,7.9-7.14,48.78-40.61,121.22-40.61h8.52c6.49,0,11.77-5.28,11.77-11.77v-66.59c0-4.65,1.9-9.59,5.21-13.57,4.01-4.82,9.91-7.59,16.2-7.59h18.82v16.47c0,5.6-3.57,10.54-8.88,12.3l-7.45,2.47Z"/>
  <rect x="2287.4" y="1072.3" width="5" height="13.19" transform="translate(-92.2 1935.2) rotate(-45)"/>
  <rect x="2267.83" y="1076.4" width="13.19" height="5" transform="translate(-96.73 1924.29) rotate(-45)"/>
  <rect x="2271.93" y="1056.83" width="5" height="13.19" transform="translate(-85.8 1919.71) rotate(-45)"/>
  <rect x="2283.3" y="1060.93" width="13.19" height="5" transform="translate(-81.26 1930.67) rotate(-45)"/>
  <rect x="2006.94" y="1185.67" width="5" height="13.19" transform="translate(-254.55 1769.94) rotate(-45)"/>
  <rect x="2018.32" y="1189.76" width="13.19" height="5" transform="translate(-249.97 1781.04) rotate(-45)"/>
  <rect x="2022.41" y="1.14" width="5" height="13.19" transform="translate(587.61 1434.1) rotate(-45)"/>
  <rect x="2002.85" y="5.24" width="13.19" height="5" transform="translate(583.1 1423.18) rotate(-45)"/>
  <rect x="2264.6" y="222.88" width="13.19" height="5" transform="translate(505.75 1671.86) rotate(-45)"/>
  <rect x="2268.7" y="234.25" width="5" height="13.19" transform="translate(494.9 1676.5) rotate(-45)"/>
  <rect x="2253.22" y="218.78" width="5" height="13.19" transform="translate(501.32 1661.05) rotate(-45)"/>
  <rect x="2249.13" y="238.35" width="13.19" height="5" transform="translate(490.38 1665.58) rotate(-45)"/>
</svg>