<svg xmlns="http://www.w3.org/2000/svg" viewBox="0 0 2400 2400">
  <path d="M237.43,1464.24l-.1-2.29-2.29-.1c-7.46-.33-14.79,2.05-20.62,6.62.21-1.47.33-2.96.33-4.46,0-8.73-3.69-17.13-10.13-23.02l-1.69-1.55-1.69,1.54c-6.45,5.89-10.14,14.29-10.14,23.03,0,1.5.12,2.99.33,4.46-5.83-4.56-13.16-6.95-20.62-6.62l-2.29.1-.1,2.29c-.38,8.72,2.94,17.27,9.12,23.44,5.85,5.85,13.83,9.14,22.08,9.14.45,0,.9,0,1.35-.03l1.95-.09,1.95.09c.45.02.9.03,1.35.03,8.25,0,16.23-3.29,22.08-9.14,6.18-6.18,9.5-14.72,9.12-23.44ZM181.08,1484.15c-4.62-4.62-7.34-10.82-7.65-17.3,6.48.31,12.68,3.02,17.3,7.65,4.62,4.63,7.34,10.82,7.64,17.3-6.48-.31-12.68-3.03-17.29-7.65ZM202.93,1481.64c-4.36-4.79-6.83-11.09-6.83-17.63s2.46-12.85,6.83-17.64c4.36,4.8,6.82,11.11,6.82,17.64s-2.46,12.83-6.82,17.63ZM224.78,1484.15c-4.62,4.62-10.82,7.33-17.29,7.65.3-6.47,3.02-12.67,7.64-17.3,4.62-4.62,10.82-7.34,17.3-7.65-.31,6.48-3.03,12.68-7.65,17.3Z"/>
  <path d="M421.14,2193.06l-2.29.1-.1,2.29c-.38,8.72,2.94,17.27,9.12,23.44,5.85,5.85,13.83,9.14,22.08,9.14.45,0,.9,0,1.35-.03l1.95-.08,1.95.08c.45.02.9.03,1.35.03,6.1,0,12.06-1.81,17.11-5.11h0c1.78-1.16,3.45-2.51,4.97-4.03,6.18-6.18,9.5-14.72,9.12-23.44l-.1-2.29-2.29-.1c-4.01-.18-7.98.44-11.7,1.74h0c-3.2,1.13-6.22,2.76-8.92,4.87.21-1.47.33-2.96.33-4.46,0-8.73-3.69-17.13-10.13-23.02l-1.69-1.55-1.69,1.54c-6.45,5.89-10.14,14.29-10.14,23.03,0,1.5.12,2.99.33,4.46-5.83-4.56-13.15-6.95-20.62-6.62ZM465.45,2205.71c2.38-2.38,5.18-4.25,8.22-5.55h0c2.86-1.23,5.94-1.95,9.09-2.1-.31,6.48-3.03,12.68-7.65,17.3-.46.46-.94.9-1.43,1.32h0c-4.43,3.81-10.03,6.05-15.86,6.33.3-6.47,3.02-12.67,7.64-17.3ZM453.26,2177.57c4.36,4.8,6.82,11.11,6.82,17.64s-2.46,12.83-6.82,17.63c-4.36-4.79-6.83-11.09-6.83-17.63s2.46-12.85,6.83-17.64ZM441.06,2205.71c4.63,4.63,7.34,10.82,7.64,17.3-6.48-.31-12.68-3.03-17.29-7.65h0c-4.62-4.62-7.34-10.82-7.65-17.3,6.48.31,12.68,3.02,17.3,7.65Z"/>
  <polygon points="441.37 2362.07 398 2400 405.6 2400 418.69 2388.55 420.69 2400 425.76 2400 423.09 2384.7 443.25 2367.07 473.67 2367.07 482.26 2367.07 473.67 2374.44 443.9 2400 451.58 2400 473.67 2381.03 489.93 2367.07 521.07 2367.07 521.07 2400 526.07 2400 526.07 2362.07 473.67 2362.07 441.37 2362.07"/>
  <path d="M2417.28,1384.29l4.45-31.26h32.42c9.5,0,18.88-1.5,27.91-4.45l7.47,18.62v16.05l-3.86,14.45h14.8l7.89-13.21,7.79-38.29,15.76,21.4-.03,15.66-3.6,14.44h14.66l8.98-13.17,17.39-102.99c1.87-11.37-.16-23.07-5.7-33.15,10.04-14.74,6.67-23.58,3.25-27.87,1.67-2.13,3.13-5.27,3.13-9.74h-5c0,2.53-.62,4.66-1.85,6.37-3.9-2.54-8.78-3.37-12.11-1.88-2.19.98-3.44,2.84-3.44,5.11s1.27,4,3.48,4.99c2.97,1.33,7.89,1.13,12.07-1.51,3.53,4.66,2.61,11.77-2.6,20.09l-4.77-6.26-.2-.23c-8.9-9.14-21.54-14.46-36.56-15.37-37.16-2.26-82.53,5.67-119.01,14.29v5.13c36.3-8.65,81.7-16.68,118.7-14.44,13.7.83,25.16,5.59,33.17,13.76l6.65,8.71c5.53,9.37,7.61,20.44,5.85,31.16l-17.21,101.9-6.87,10.08h-5.62l2.2-8.82.04-17.92-25.39-34.48c-7.37-10-11.26-21.86-11.26-34.29v-11.96h-5v11.96c0,13.51,4.23,26.39,12.24,37.26l.09.13-26.06,8.9c-8.83,3.02-18.04,4.55-27.38,4.55h-31.71l2.22-15.59v-11.69h-5v11.34l-7.25,50.95-3.65,9.66h-5.86v-9.49l-2.89-7.78v22.26h12.21l5.07-13.41ZM2553.11,1220.81c-.05-.02-.53-.24-.53-.43,0-.17,0-.33.48-.55.43-.19,1.02-.29,1.72-.29,1.15,0,2.59.28,4.03.93-2.25.9-4.51.88-5.71.34ZM2510.7,1338.8l1.45,1.97-8.52,41.89-6,10.04h-5.45l2.35-8.8v-17.67l-7.73-19.27,23.9-8.17Z"/>
  <path d="M11.51,1486c0-3.1-2.52-5.62-5.62-5.62s-5.62,2.52-5.62,5.62,2.52,5.62,5.62,5.62,5.62-2.52,5.62-5.62Z"/>
  <polygon points="10.19 1503.12 10.19 1498.12 0 1498.12 0 1513.54 4.67 1503.12 10.19 1503.12"/>
  <path d="M77.94,1618.2v20.42H29.01l26.84,27.59,35.52-19.19v-28.91c23.76-.88,46.94-7.75,67.38-20.01l54.18-32.51-53.33-16.97c-35.03-11.14-72.06-16.79-110.06-16.79h-16.66c8.44-10.85,17.81-23.12,17.81-36.91,0-18.24-14.84-33.08-33.08-33.08C11.2,1461.85,5.13,1463.69,0,1466.85v6.21c4.82-3.88,10.94-6.21,17.59-6.21,15.49,0,28.08,12.6,28.08,28.08,0,12.3-9.13,24.03-17.18,34.38-2.34,3.01-4.55,5.84-6.52,8.66-5.2,7.39-6.74,15.54-4.35,22.93,2.49,7.71,9.16,13.8,18.78,17.13,9.44,3.27,22.08,4.98,36.02,4.98,5.01,0,10.19-.22,15.45-.67,21.04-1.8,41.36-7.05,57.2-14.75l22.95-11.04,32.84,10.45-44.68,26.81c-21.15,12.69-45.36,19.39-70.02,19.39-.08,0-.17,0-.25,0l-55.62-.1C19.07,1613.08,8.46,1609.24,0,1602.43v6.23c8.76,6.04,19.25,9.42,30.28,9.45l47.66.09ZM142.88,1563.1c-33.42,16.26-81.2,18.41-104.85,10.22-8.22-2.85-13.64-7.67-15.66-13.94-1.89-5.87-.58-12.44,3.69-18.52.92-1.31,1.91-2.65,2.95-4.01h20.53c37.49,0,74.01,5.57,108.55,16.56l2.99.95-18.19,8.75ZM82.94,1618.21h2.96c.09,0,.17,0,.26,0,.07,0,.14,0,.22,0v25.83l-29.57,15.98-15.95-16.4h42.09v-25.41Z"/>
  <path d="M41.71,1562.7c-4.62-1.6-7.77-4.07-8.65-6.77l-4.76,1.54c1.38,4.27,5.56,7.81,11.77,9.96,8.31,2.88,19.81,4.42,32.53,4.42,3.41,0,6.92-.11,10.47-.34l-.32-4.99c-16.14,1.02-31.1-.37-41.04-3.81Z"/>
  <rect x="5.24" y="1730.5" width="5" height="13.19" transform="translate(-1226.05 514.25) rotate(-45)"/>
  <rect x="1.14" y="1719.13" width="13.19" height="5" transform="translate(-1215.11 509.72) rotate(-45)"/>
  <rect x="97.42" y="1452.52" width="13.19" height="5" transform="translate(-998.32 499.64) rotate(-45)"/>
  <rect x="101.52" y="1432.95" width="5" height="13.19" transform="translate(-987.51 495.26) rotate(-45)"/>
  <rect x="116.99" y="1448.42" width="5" height="13.19" transform="translate(-993.85 510.66) rotate(-45)"/>
  <rect x="112.89" y="1437.04" width="13.19" height="5" transform="translate(-982.91 506.12) rotate(-45)"/>
  <path d="M689.89,1501.97l-2.29.1-.1,2.29c-.38,8.72,2.94,17.27,9.12,23.44,5.85,5.85,13.83,9.14,22.08,9.14.45,0,.9,0,1.35-.03l1.95-.08,1.95.08c.45.02.9.03,1.35.03,8.25,0,16.23-3.29,22.08-9.14,6.18-6.18,9.5-14.72,9.12-23.44l-.1-2.29-2.29-.1c-7.46-.33-14.79,2.05-20.62,6.62.21-1.47.33-2.96.33-4.46,0-8.73-3.69-17.13-10.13-23.02l-1.69-1.55-1.69,1.54c-6.45,5.89-10.14,14.29-10.14,23.03,0,1.5.12,2.99.33,4.46-5.83-4.56-13.16-6.95-20.62-6.62ZM734.2,1514.62c4.62-4.62,10.82-7.34,17.3-7.65-.31,6.48-3.03,12.68-7.65,17.3-4.62,4.62-10.82,7.33-17.29,7.65.3-6.47,3.02-12.67,7.64-17.3ZM722.01,1486.49c4.36,4.8,6.82,11.11,6.82,17.64s-2.46,12.83-6.82,17.63c-4.36-4.79-6.83-11.09-6.83-17.63s2.46-12.85,6.83-17.64ZM709.81,1514.62c4.63,4.63,7.34,10.82,7.64,17.3-6.48-.31-12.68-3.03-17.29-7.65-4.62-4.62-7.34-10.82-7.65-17.3,6.48.31,12.68,3.02,17.3,7.65Z"/>
  <path d="M927.99,1230.23l-2.29.1-.1,2.29c-.38,8.72,2.94,17.27,9.12,23.44,5.85,5.85,13.83,9.14,22.08,9.14.45,0,.9,0,1.35-.03l1.95-.09,1.95.09c.45.02.9.03,1.35.03,8.25,0,16.23-3.29,22.08-9.14,6.18-6.18,9.5-14.72,9.12-23.44l-.1-2.29-2.29-.1c-7.46-.33-14.79,2.05-20.62,6.62.21-1.47.33-2.96.33-4.46,0-8.73-3.69-17.13-10.13-23.02l-1.69-1.55-1.69,1.54c-6.44,5.89-10.14,14.29-10.14,23.03,0,1.5.12,2.99.33,4.46-5.83-4.56-13.16-6.95-20.62-6.62ZM972.3,1242.87c4.62-4.62,10.83-7.34,17.3-7.65-.31,6.48-3.03,12.68-7.65,17.3-4.62,4.62-10.82,7.33-17.29,7.65.3-6.47,3.02-12.67,7.64-17.3ZM960.11,1214.74c4.36,4.8,6.82,11.11,6.82,17.64s-2.46,12.83-6.82,17.63c-4.36-4.79-6.83-11.09-6.83-17.63s2.46-12.84,6.83-17.64ZM947.91,1242.87c4.63,4.63,7.34,10.82,7.64,17.3-6.48-.31-12.68-3.03-17.29-7.65-4.62-4.62-7.34-10.82-7.65-17.3,6.48.31,12.68,3.02,17.3,7.65Z"/>
  <path d="M623.22,2216.59c-4.79-4.79-11.04-7.69-17.76-8.31v-.15h-.94l-9.89-10.52.06-.13-.3-.13-18.13-19.28c-5.52-5.88-13.32-9.25-21.38-9.25h-25.78c-1.48,0-2.75,1.06-3.03,2.51-.28,1.45.52,2.9,1.9,3.44l17.57,6.94,6.91,2.98c3.64,2.02,6.77,4.85,9.17,8.31l10.44,15.12h-26.73l8.23,12.16c4.64,6.85,11.97,11.29,20.07,12.28l-23.99,44.34h-121.81c-14.01,0-27.64,5.64-37.55,15.51l-32.96-16.67v12.46c0,5.34,1.6,10.49,4.62,14.89l10.39,15.11,8.03,33.5-9.21,13.81,4.59,34.46h5.04l-4.43-33.25,9.38-14.06-8.76-36.52-10.91-15.88c-2.45-3.56-3.75-7.73-3.75-12.06v-4.33l28.98,14.66,1.87-1.93c9.03-9.35,21.67-14.71,34.66-14.71h124.79l29.29-54.13h-4.8c-7.79,0-15.04-3.85-19.4-10.3l-2.95-4.36h47.61s1.04.03,1.04.03c6.17.16,11.95,2.63,16.28,6.96l23.38,23.38c3.34,3.34,5.18,7.77,5.18,12.49,0,3.93-3.06,7.28-6.98,7.62l-2.27.2h-30.26l-7.52,40.92c-4.35,23.64-15.64,45.11-32.67,62.07l-29,28.9-.39,4.29h5.02l.18-2.03,9-8.97,2.32,11h5.11l-3.21-15.21,11.97-11.93,3.68,27.14h5.05l-4.28-31.5-.14.02c16.75-17.39,27.88-39.08,32.26-62.88l6.77-36.82h6.4l11.46,22.93h13.22v-23.56c5.35-1.5,9.27-6.47,9.26-12.19,0-6.05-2.37-11.74-6.65-16.02l-23.38-23.38ZM554.64,2180.21c-1.15-.63-2.35-1.19-3.58-1.68l-11.9-4.7h15.72c6.69,0,13.16,2.8,17.74,7.67l10.22,10.88-28.2-12.17ZM578.12,2208.13l-12.14-17.59,25.47,10.99,6.2,6.59h-19.53ZM638.98,2286.74h-5.13l-8.96-17.93h14.09v17.93Z"/>
  <path d="M615.28,2240.11c3.62,0,6.55-2.93,6.55-6.55s-2.93-6.55-6.55-6.55-6.55,2.93-6.55,6.55,2.93,6.55,6.55,6.55Z"/>
  <path d="M874.07,1429.65c1.87,0,3.39-1.3,3.39-2.91s-1.52-2.91-3.39-2.91-3.39,1.3-3.39,2.91,1.52,2.91,3.39,2.91Z"/>
  <path d="M854.93,1477.22c7.53-4.06,11.88-12.19,11.08-20.7l-4.98.47c.61,6.51-2.71,12.72-8.47,15.83-2.34,1.26-5,1.93-7.68,1.93-4.83,0-9.36-2.08-12.44-5.71l-3.81,3.24c4.03,4.75,9.96,7.47,16.25,7.47,3.51,0,6.98-.87,10.05-2.53Z"/>
  <path d="M858.38,1309.06c2.25,0,4.08-1.82,4.08-4.07s-1.82-4.07-4.08-4.07-4.08,1.82-4.08,4.07,1.82,4.07,4.08,4.07Z"/>
  <path d="M828.03,1511.47v5h28.11v-5h-17.85v-11.35c6.01-.37,12.62-1.67,20.75-5.14h0c11.89-5.09,21.77-12.99,27.82-22.26,3-4.61,4.9-9.3,5.66-13.88,9.9,4.52,20.44,6.89,31.41,7.07l-6.09,23.85h-17.74l-13.14,13.14h56.86l-11.41-11.41,6.59-25.92-2.03-.52c22.6-3.32,42.73-16.19,55.29-35.84,2.25-3.5,4.21-7.36,6.01-11.81l25.14-61.86c2.88-7.09,2.7-15.16-.48-22.14l-15.93-34.91-57.66,55.54h-40.73l-15.81-39.56c-4.15-10.45-12.72-20.63-22.4-26.81h0c2.55-2.4,4.01-5.76,4.01-9.25,0-7.01-5.71-12.72-12.72-12.72-4.02,0-7.78,1.92-10.17,5.09-.02,0-.03,0-.05,0-7.01,0-12.72,5.71-12.72,12.72,0,1.5.26,2.97.77,4.36-2.01,3.22-2.35,7.26-.85,10.78l-1.74.8c-3.53,1.63-5.8,5.19-5.8,9.08v4.36h13.17l-9.16,13.8c-1.51,2.28-1.65,5.2-.36,7.61,1.29,2.41,3.8,3.91,6.54,3.91h3.39v47.2c0,9.81,1.89,19.38,5.6,28.46-7.33,5.77-12.11,14.02-13.61,16.82-1.39.49-2.76,1.02-4.09,1.58-11.91,5.02-21.8,12.91-27.85,22.23-6.25,9.62-7.71,19.62-4.1,28.17,4.06,9.64,14.04,15.98,27.36,17.39h.13c1.7.1,3.41.17,5.15.19v11.23h-5.25ZM926.85,1493.02l4.88,4.88h-32.71l3.14-3.14h19.55l7.39-28.93c1.59-.08,3.18-.2,4.76-.37l-7.01,27.56ZM1005.37,1307.01l4.66,10.22-30.68,31.19,3.56,3.51,29.34-29.82,4.52,9.91-22.71,23.7,3.61,3.46,21.29-22.22c2.01,5.38,1.96,11.39-.2,16.72l-25.14,61.86c-.16.39-.32.78-.48,1.16l-39.46-59.9,51.69-49.79ZM844.6,1287.04c-.57-1.1-.86-2.29-.86-3.52,0-4.26,3.46-7.72,7.72-7.72.29,0,.61.02,1.01.08l1.67.22.83-1.46c1.37-2.42,3.94-3.92,6.71-3.92,4.26,0,7.72,3.46,7.72,7.72,0,2.18-.89,4.2-2.51,5.68l-.13.12-.11.14c-.48.59-1.07,1.06-1.74,1.39l-21.74,10.7c-.84-2.25-.42-4.81,1.14-6.68l1.06-1.27-.76-1.47ZM844.7,1333.22h-3.39c-1.31,0-1.92-.89-2.13-1.27-.21-.38-.61-1.39.12-2.48l5.4-8.13v11.88ZM849.7,1385.41v-77.51h-13.53c.22-1.69,1.29-3.17,2.86-3.9l1.77-.82h0s.5-.24.5-.24l.55-.25h0s24.1-11.88,24.1-11.88c9.54,5.46,18.18,15.34,22.21,25.51l17.07,42.71h43.96l18.16,27.57h-38.71v5h42l7.43,11.29h-44.01v5h46.14v-1.76l6.81,10.33h-61.74c-16.51,0-30.05-13.43-30.17-29.94l-5,.04c.14,19.24,15.91,34.9,35.16,34.9h65.67c-.91,1.79-1.87,3.46-2.89,5.05-13.77,21.54-37.23,34.4-62.77,34.4-11.36,0-22.24-2.51-32.37-7.44-.09-3.08-.72-6.07-1.92-8.9-.83-1.98-1.92-3.83-3.25-5.53l11.57-2.76-9.75-10.29c-.81-10.1-11.13-18.15-23.56-18.15-4.2,0-8.04,1.25-11.46,3.17-3.21-8.19-4.84-16.8-4.84-25.61ZM884.78,1434.63l2.59-3.64,2.34,2.47-4.93,1.17ZM828.46,1495.08c-11.43-1.23-19.89-6.45-23.22-14.35-6.22-14.75,6.92-34.42,29.29-43.85,1.53-.64,3.11-1.24,4.71-1.78l.99-.33.46-.94c.1-.21,10.43-20.97,25.3-20.97,9.79,0,17.91,5.97,18.56,13.46l-7.1,9.97,1.49,1.06,2.35,2.13c2.24,2.03,3.95,4.4,5.07,7.06,6.17,14.64-6.97,34.31-29.3,43.85h0c-11.9,5.09-20,5.14-28.61,4.69Z"/>
  <path d="M1130.33,1864.16c-18.62,0-33.77,15.15-33.77,33.79l.1,14.25-29.79,8.57c-25.05,7.19-45.8,23.7-58.43,46.5-12.62,22.8-15.62,49.15-8.43,74.2l.99,3.45,64.03-18.41,5.81,21.08h-6.58v5h31.99v-5h-20.22l-6.19-22.46,16.88-4.86c22.31-6.4,40.79-21.1,52.03-41.41,11.24-20.3,13.91-43.76,7.5-66.07l-3.04-10.58,12.67-38.05h-25.56ZM1141.46,1914.17c6.03,21.02,3.52,43.14-7.07,62.27-10.6,19.14-28.01,32.99-49.03,39.02l-80.9,23.27c-6.33-23.35-3.38-47.81,8.38-69.03,11.98-21.63,31.67-37.3,55.44-44.12l28.42-8.18v4.62c-.12,28.88-19.58,54.66-47.32,62.69l-34.94,10.12c1.79-6.62,4.38-13.02,7.75-19.11,10.99-19.85,29.06-34.22,50.86-40.48l-1.38-4.81c-23.09,6.62-42.22,21.85-53.86,42.86-3.88,7-6.8,14.41-8.69,22.07h0c-.48,1.95-.9,3.92-1.25,5.91l-.12.69,3.18-.92,39.84-11.54c14.75-4.28,27.44-13.01,36.69-25.27,9.24-12.25,14.17-26.85,14.23-42.21v-6.07h.02l-.02-1.76v-.12l-.12-16.15c0-15.87,12.9-28.77,28.77-28.77h18.62l-10.97,32.94,3.47,12.07Z"/>
  <path d="M1126.37,1971.99l4.37,2.42c2.12-3.84,3.94-7.86,5.38-11.96l-4.72-1.66c-1.35,3.84-3.05,7.6-5.04,11.2Z"/>
  <path d="M1134.3,1949.96l4.92.91c1.06-5.73,1.47-11.6,1.21-17.43l-5,.22c.24,5.46-.14,10.94-1.13,16.3Z"/>
  <path d="M1128.1,1883.25c2.46,0,4.45-1.99,4.45-4.45s-1.99-4.45-4.45-4.45-4.45,1.99-4.45,4.45,1.99,4.45,4.45,4.45Z"/>
  <path d="M1126.3,1938.82c-.23,7.51-1.8,14.86-4.66,21.86l4.63,1.89c3.08-7.55,4.77-15.49,5.03-23.59l-5-.16Z"/>
  <path d="M1176.66,2043.69c1.88,0,3.4-1.52,3.4-3.4s-1.52-3.4-3.4-3.4-3.4,1.52-3.4,3.4,1.52,3.4,3.4,3.4Z"/>
  <path d="M1184.94,2026.37c2.52,0,4.57-2.05,4.57-4.57s-2.05-4.57-4.57-4.57-4.57,2.05-4.57,4.57,2.05,4.57,4.57,4.57ZM1184.94,2021.37c.23,0,.43.19.43.43s-.19.43-.43.43-.43-.19-.43-.43.19-.43.43-.43Z"/>
  <path d="M1138.92,2035.32c.45-.73.72-1.58.72-2.5,0-2.62-2.12-4.73-4.73-4.73s-4.73,2.12-4.73,4.73,1.93,4.53,4.38,4.72c-.24.51-.37,1.07-.37,1.67,0,2.19,1.77,3.96,3.96,3.96s3.96-1.77,3.96-3.96c0-1.92-1.36-3.52-3.18-3.88Z"/>
  <path d="M1161.94,2041.37c2.97,5.04,7.6,8.69,13.1,10.29,1.97.58,3.97.86,5.95.86,3.39,0,6.72-.84,9.74-2.49,4.42-2.43,7.58-6.3,9.27-10.78,1.84-4.87,1.93-10.47,0-15.71h0c-.39-1.07-.87-2.12-1.43-3.15-7.31-13.33-24.78-24.94-34.76-19.48-.9.49-1.71,1.13-2.46,1.89-1.32-1.63-2.89-2.89-4.72-3.64-10.34-4.23-26.69,9.51-32.32,23.29-2.23,5.47-2.32,11.44-.25,16.82,2.1,5.43,6.14,9.6,11.38,11.74,2.46,1.01,5.05,1.51,7.65,1.51,2.94,0,5.89-.64,8.7-1.92,4.27-1.94,7.79-5.16,10.16-9.24ZM1166.21,2005.3c6.48-3.55,21.64,5.94,27.97,17.5,4.56,8.32,1.93,18.58-5.86,22.86-3.6,1.97-7.81,2.4-11.88,1.21-4.47-1.31-8.2-4.36-10.52-8.59-.53-.96-1-1.96-1.42-2.99,2.85-9.17,2.75-20.28-.47-27.89.63-.94,1.36-1.64,2.17-2.09ZM1137.33,2046.39c-3.96-1.62-7.02-4.78-8.61-8.91-1.61-4.18-1.54-8.84.21-13.13,4.39-10.73,16.3-20.97,23.53-20.97.82,0,1.58.13,2.27.41,6.83,2.79,9.01,20.54,4.03,32.74h0c-1.75,4.28-4.96,7.67-9.04,9.52-4.03,1.83-8.43,1.95-12.39.33Z"/>
  <path d="M1161.08,2026.62c0-2.77-2.24-5.01-5.01-5.01s-5.01,2.24-5.01,5.01,2.24,5.01,5.01,5.01,5.01-2.24,5.01-5.01Z"/>
  <path d="M745.74,1257.85c2.41,0,4.37-1.96,4.37-4.37s-1.96-4.37-4.37-4.37-4.37,1.96-4.37,4.37,1.96,4.37,4.37,4.37ZM745.74,1252.85c.35,0,.63.28.63.63s-.28.63-.63.63-.63-.28-.63-.63.28-.63.63-.63Z"/>
  <path d="M756.22,1264.62h11.66l.11-2.45c.25-5.27-2.58-10.31-7.2-12.85l-.36-.2.17-.35c1.95-3.88,1.73-8.49-.48-12.15.61-1.52.94-3.11.98-4.76.17-7.53-5.81-13.79-13.33-13.97-.06,0-.11,0-.17,0-2.47-3.52-6.5-5.71-10.85-5.81-7.5-.17-13.79,5.81-13.97,13.33-.09,3.81,1.44,7.51,4.21,10.16l.12.11c.75.63,2.06,1.58,3.35,2.45l-8.31,6.64c-13.17,10.53-23.6,24.31-30.15,39.84l-11.2,26.58-21.05,12.41-37.89-25.56c-28.73-19.36-67.87-11.75-87.25,16.97-19.35,28.72-11.74,67.85,16.97,87.25l53.62,36.14v-55.68l63.34,42.43.03-.04,6.1,26.44h-10.39v5h46.02v-5h-30.49l-6.05-26.21h.02s51.08-33.42,51.08-33.42l.06-.04c24.37-16.88,38.91-44.64,38.91-74.24,0-14.87-3.69-29.59-10.67-42.6,1.89-1.96,3.06-4.62,3.06-7.55v-2.87ZM758.74,1253.92c2.08,1.27,3.54,3.35,4.06,5.7h-5.74l1.67-5.7ZM669.85,1423.22l.1-.14v.12s-.1.02-.1.02ZM758.84,1317.64c0,27.96-13.73,54.16-36.73,70.12l-49.95,32.67-1.52.09-90.5-60.62c-2.62-1.75-4.4-4.43-5-7.52-.61-3.09.03-6.24,1.79-8.85,1.77-2.62,4.45-4.39,7.55-5,3.1-.6,6.25.04,8.87,1.8l21.04,14.19,2.8-4.15-21.04-14.19c-3.73-2.51-8.21-3.42-12.62-2.57-4.41.86-8.22,3.38-10.74,7.11-2.51,3.72-3.42,8.2-2.55,12.61.86,4.41,3.4,8.21,7.13,10.71l22.86,15.31v12.62l-28.67-19.33c-6.01-4.05-10.09-10.21-11.47-17.33-1.38-7.12.09-14.36,4.14-20.37,4.05-6.02,10.21-10.1,17.33-11.49,7.12-1.39,14.35.09,20.37,4.15l27.1,18.27,2.8-4.15-27.09-18.27c-7.12-4.81-15.69-6.56-24.12-4.91-8.43,1.64-15.72,6.47-20.52,13.6-4.8,7.11-6.54,15.68-4.9,24.11,1.64,8.44,6.47,15.73,13.59,20.53l31.46,21.21v12.48l-37.24-25.12c-19.42-13.12-24.57-39.59-11.48-59,13.12-19.42,39.59-24.57,59-11.48l33.16,22.36,2.8-4.15-33.16-22.36c-21.7-14.63-51.28-8.88-65.94,12.83-14.63,21.7-8.88,51.28,12.83,65.94l40.04,27v12.46l-45.82-30.88c-26.42-17.85-33.43-53.88-15.62-80.31,17.84-26.43,53.86-33.44,80.31-15.62l40.5,27.33,24.64-14.53h0c5.36-3.29,11.56-4.6,17.91-3.79,7.31.94,14.04,5.02,18.45,11.21,4.5,6.29,6.2,14.15,4.68,21.55-1.21,5.89-4.66,10.82-11.18,15.96l-52.71,36.12v-38.78h-5v48.27l60.6-41.53.13-.1c7.56-5.95,11.58-11.79,13.05-18.94,1.8-8.76-.21-18.04-5.51-25.46-5.22-7.31-13.2-12.14-21.88-13.26-5.22-.67-10.35-.12-15.12,1.59l8.97-21.27c6.23-14.77,16.14-27.87,28.66-37.88l9.75-7.79,2.39,1.31-2.76,2.34c-3.2,2.71-4.56,6.93-3.54,11l3.64,14.59c1.21,4.86,5.56,8.25,10.57,8.25,1.27,0,2.48-.22,3.61-.62,6.47,12.2,9.89,25.97,9.89,39.89ZM751.22,1261.76v5.73c0,3.25-2.65,5.89-5.89,5.89-2.71,0-5.06-1.84-5.72-4.46l-3.64-14.59c-.55-2.21.18-4.5,1.92-5.97l4.23-3.58,12.14,6.66-3.03,10.32ZM756.05,1246.72l-20.33-11.16c-1.12-.64-4.13-2.66-5.32-3.65-1.74-1.7-2.67-3.96-2.61-6.38.05-2.31,1-4.46,2.68-6.06,1.67-1.6,3.86-2.44,6.18-2.39,3.1.07,5.95,1.82,7.42,4.57l.8,1.48,1.67-.18c.44-.05.8-.07,1.13-.06,4.77.11,8.56,4.08,8.45,8.85-.03,1.38-.39,2.7-1.05,3.92l-.79,1.46,1.03,1.3c1.83,2.3,2.17,5.49.85,8.11l-.09.18Z"/>
  <rect x="822.41" y="1201.14" width="5" height="13.19" transform="translate(-612.39 937.04) rotate(-45)"/>
  <rect x="802.85" y="1205.24" width="13.19" height="5" transform="translate(-616.94 926.2) rotate(-45)"/>
  <rect x="495.04" y="1415.31" width="5" height="13.19" transform="translate(-859.72 768.28) rotate(-45)"/>
  <rect x="506.41" y="1419.41" width="13.19" height="5" transform="translate(-855.19 779.22) rotate(-45)"/>
  <rect x="510.51" y="1430.79" width="5" height="13.19" transform="translate(-866.13 783.75) rotate(-45)"/>
  <rect x="490.94" y="1434.88" width="13.19" height="5" transform="translate(-870.66 772.81) rotate(-45)"/>
  <rect x="1102.75" y="2090.14" width="5" height="13.19" transform="translate(-1158.84 1395.46) rotate(-45)"/>
  <rect x="1118.22" y="2105.61" width="5" height="13.19" transform="translate(-1165.31 1411.12) rotate(-45)"/>
  <rect x="1098.65" y="2109.71" width="13.19" height="5" transform="translate(-1169.9 1400.37) rotate(-45)"/>
  <rect x="1114.12" y="2094.24" width="13.19" height="5" transform="translate(-1154.42 1406.75) rotate(-45)"/>
  <path d="M1305.55,1701.61l-2.29.1-.1,2.29c-.3,6.84,2.31,13.55,7.15,18.39,4.59,4.59,10.85,7.17,17.32,7.17.35,0,.71,0,1.06-.02l1.46-.06,1.46.06c.35.02.71.02,1.06.02,6.47,0,12.73-2.58,17.33-7.17,4.85-4.85,7.45-11.55,7.15-18.39l-.1-2.29-2.29-.1c-5.4-.24-10.7,1.33-15.08,4.38.06-.71.1-1.43.1-2.15,0-6.85-2.9-13.44-7.95-18.06l-1.69-1.55-1.69,1.54c-5.06,4.62-7.96,11.21-7.96,18.07,0,.72.04,1.44.1,2.15-4.38-3.05-9.69-4.62-15.08-4.38ZM1339.92,1712.29c3.28-3.28,7.63-5.27,12.21-5.64-.38,4.58-2.37,8.93-5.65,12.21-3.28,3.28-7.63,5.27-12.2,5.64.37-4.57,2.36-8.92,5.64-12.2ZM1330.17,1691.22c2.97,3.5,4.64,7.99,4.64,12.62s-1.67,9.12-4.64,12.62c-2.97-3.49-4.64-7.98-4.64-12.62s1.67-9.12,4.64-12.62ZM1320.42,1712.29c3.28,3.28,5.27,7.63,5.64,12.2-4.58-.38-8.93-2.37-12.2-5.64-3.28-3.28-5.27-7.63-5.65-12.21,4.58.37,8.93,2.36,12.21,5.64Z"/>
  <path d="M1312.04,1955.58c4.97.71,10.15,1.07,15.53,1.07,13.03,0,27.2-2.09,42.31-6.24l-1.32-4.82c-36.79,10.11-67.79,7.41-89.66-7.81-16.49-11.47-22.19-26.17-22.24-26.32l-4.68,1.75c.24.65,6.17,16.11,23.81,28.49,10.32,7.24,22.52,11.91,36.26,13.87Z"/>
  <path d="M1295.9,1967.08l-.69,4.95c.48.07,6.65.9,16.36.9,5.54,0,12.24-.27,19.69-1.12,7.39.99,15.58,1.59,24.56,1.59,12.47,0,26.48-1.16,41.99-4.07l-.92-4.91c-17.16,3.22-32.4,4.25-45.71,3.93,14.01-3.34,26.88-8.44,38.32-15.21,16.25-9.61,29.64-22.6,39.8-38.61l-4.22-2.68c-22.01,34.7-55.86,47.87-80.39,52.82-4.65.94-9.15,1.62-13.41,2.11-11.14-1.53-20.37-3.95-27.63-6.45-20.05-6.9-29.97-15.84-30.07-15.93l-1.69,1.84-1.69,1.84c.42.39,10.59,9.61,31.51,16.87,2.93,1.02,6.18,2.02,9.73,2.97-9.43,0-15.39-.81-15.53-.83h0Z"/>
  <path d="M1270.08,1964.6c-.13-.06-13.51-6.27-20.58-15.12l-3.9,3.12c7.82,9.78,21.81,16.26,22.4,16.54l2.09-4.54Z"/>
  <path d="M1269.99,1883.56v.02s0,0,0,0c.46.98.96,1.98,1.5,2.96,2.81,5.06,6.19,9.82,10.05,14.15-3,3.65-3.58,9.87-1.59,17.27,1.92,7.12,5.92,14.22,10.69,18.99,3.98,3.98,9.2,6.26,14.69,6.42.21,0,.41,0,.62,0,5.31,0,10.23-2.01,13.91-5.69,1.58-1.58,2.85-3.39,3.78-5.36.09.26.18.51.27.76,2,5.17,5.85,9.15,10.86,11.19,2.35.96,4.82,1.44,7.3,1.44,2.8,0,5.61-.61,8.29-1.83,5-2.27,8.93-6.39,11.06-11.61.27-.67.53-1.37.76-2.07.52.94,1.12,1.84,1.82,2.71,3.38,4.21,8.29,6.78,13.82,7.22.56.04,1.13.07,1.69.07,4.89,0,9.67-1.69,13.61-4.86,5.38-4.32,10.17-10.96,12.82-17.77,2.93-7.53,2.79-14.1-.37-18.04-1.26-1.57-3.07-2.75-5.31-3.52,11.45-13.89,17.73-31.13,17.73-48.87v-46.06h5.85c2.72,0,5.22-1.49,6.5-3.89,1.29-2.4,1.15-5.3-.36-7.57l-9.59-14.43h10.8v-4.37c.01-3.66-2.02-7.04-5.21-8.76,1.48-3.5,1.14-7.51-.85-10.71.51-1.38.77-2.83.77-4.33,0-6.97-5.67-12.64-12.64-12.64h-.04c-2.37-3.15-6.11-5.05-10.1-5.05-6.97,0-12.64,5.67-12.64,12.64,0,3.47,1.45,6.81,3.98,9.19,0,0,.02.02.02.02-9.84,5.9-17.52,14.9-21.76,25.61l-15.16,38.23-40.28.08-57.92-54.14-15.8,34.62c-3.16,6.92-3.33,14.94-.47,21.99l25.18,61.96c.5,1.23,1.07,2.59,1.72,3.98ZM1316.33,1934.17c-2.84,2.84-6.69,4.33-10.84,4.21-4.21-.12-8.22-1.88-11.3-4.96-4.18-4.18-7.7-10.45-9.4-16.76-1.6-5.93-1.25-10.96.91-13.12,1.37-1.37,3.62-2,6.35-2,7.03,0,17.2,4.16,23.53,10.48,3.08,3.08,4.84,7.09,4.96,11.3.12,4.15-1.38,8-4.21,10.84ZM1356.79,1930.42h0c-1.65,4.03-4.66,7.2-8.5,8.95-3.78,1.72-7.91,1.83-11.63.31-3.71-1.52-6.58-4.49-8.08-8.37-1.52-3.93-1.45-8.31.2-12.33,4.14-10.12,15.35-19.78,22.14-19.78.77,0,1.48.12,2.12.39,6.41,2.62,8.44,19.34,3.74,30.84ZM1401.67,1902.69c1.99,2.47,1.84,7.37-.39,13.1-2.34,6.02-6.57,11.89-11.29,15.68-3.39,2.72-7.57,4.04-11.77,3.7-4.14-.33-7.81-2.24-10.32-5.37-5.22-6.5-3.81-16.34,3.14-21.93,4.61-3.71,11.22-6.52,17.68-7.53,1.6-.25,3.12-.37,4.53-.37,3.94,0,7,.95,8.41,2.7ZM1425.81,1792.42c.71,1.07.32,2.06.12,2.44-.2.38-.81,1.25-2.1,1.25h-5.85v-15.48l7.83,11.79ZM1403.11,1734.36c2.74,0,5.29,1.49,6.65,3.88l.83,1.46,1.67-.22c.39-.05.71-.07,1-.07,4.21,0,7.64,3.43,7.64,7.64,0,1.22-.29,2.39-.85,3.49l-.76,1.47,1.06,1.27c1.54,1.84,1.96,4.37,1.13,6.59l-21.56-10.61c-.67-.33-1.24-.79-1.72-1.37l-.11-.14-.13-.12c-1.61-1.47-2.49-3.47-2.49-5.63,0-4.21,3.43-7.64,7.64-7.64ZM1317.75,1820.15l43.21-.09,16.4-41.38c4.12-10.39,11.81-19.01,21.66-24.28l21.65,10.66-.02.04,2.03.96.92.45c1.4.76,2.36,2.15,2.56,3.72h-13.18v76.95c0,17.43-6.49,34.37-18.29,47.69l.2.17c-2.12-.13-4.45,0-6.94.38-7.28,1.14-14.78,4.34-20.04,8.57-1.65,1.32-3.05,2.83-4.21,4.47-1.25-6.39-4.14-11.62-8.76-13.51-9.77-3.99-25.12,8.77-30.62,21.75-1.08-3.04-2.84-5.84-5.2-8.2-8.93-8.93-24.58-14.57-33.51-10.77-3.75-4.16-7.03-8.73-9.74-13.62-.1-.18-.19-.36-.29-.53h64.93c19.11,0,34.77-15.55,34.91-34.66l-5-.04c-.12,16.38-13.55,29.7-29.93,29.7h-61.24l7.15-10.86h44.5v-5h-41.21l7.15-10.86h39.34v-5h-36.05l17.6-26.72ZM1247.39,1799.48l21.33,19.83,3.41-3.66-22.61-21.03,4.48-9.83,29.35,27.29,3.41-3.66-30.57-28.43,4.84-10.6,52.09,48.7-18.95,28.77h-.25v.38l-20.65,31.34c-.13-.3-.25-.6-.37-.89l-25.18-61.96c-2.1-5.19-2.2-11.01-.33-16.25Z"/>
  <path d="M1435.57,1952.89l-3.39-3.67c-6.17,5.69-21.69,10.19-21.85,10.23l1.38,4.81c.68-.2,16.82-4.87,23.86-11.37Z"/>
  <path d="M1406.89,1772.08c2.19,0,3.96-1.78,3.96-3.96s-1.77-3.96-3.96-3.96-3.96,1.77-3.96,3.96,1.77,3.96,3.96,3.96Z"/>
  <rect x="1231.26" y="2022.46" width="13.19" height="5" transform="translate(-1069.34 1468.56) rotate(-45)"/>
  <rect x="1250.83" y="2018.36" width="5" height="13.19" transform="translate(-1064.77 1479.34) rotate(-45)"/>
  <rect x="1246.73" y="2006.99" width="13.19" height="5" transform="translate(-1053.83 1474.8) rotate(-45)"/>
  <rect x="1235.36" y="2002.89" width="5" height="13.19" transform="translate(-1058.32 1463.7) rotate(-45)"/>
  <path d="M1977.17,2143.9l-2.29.1-.1,2.29c-.3,6.84,2.31,13.55,7.15,18.39h0c4.59,4.59,10.85,7.17,17.32,7.17.35,0,.71,0,1.06-.02l1.46-.06,1.46.06c.36.02.71.02,1.06.02,6.47,0,12.73-2.58,17.32-7.17,4.85-4.85,7.45-11.55,7.15-18.39l-.1-2.29-2.29-.1c-5.39-.24-10.7,1.33-15.08,4.38.06-.71.1-1.43.1-2.15,0-6.85-2.9-13.44-7.95-18.06l-1.69-1.55-1.69,1.54c-5.06,4.62-7.96,11.21-7.96,18.07,0,.72.04,1.44.1,2.15-4.38-3.05-9.69-4.62-15.08-4.38ZM2011.55,2154.58c3.28-3.28,7.63-5.27,12.21-5.64-.38,4.58-2.37,8.93-5.65,12.21-3.28,3.28-7.62,5.27-12.2,5.64.37-4.57,2.36-8.92,5.64-12.2ZM2001.8,2133.51c2.97,3.5,4.64,7.99,4.64,12.62s-1.67,9.12-4.64,12.62c-2.97-3.49-4.64-7.98-4.64-12.62s1.67-9.12,4.64-12.62ZM1992.04,2154.58c3.28,3.28,5.27,7.63,5.64,12.2-4.58-.38-8.93-2.36-12.2-5.64h0c-3.28-3.28-5.27-7.63-5.65-12.21,4.58.37,8.93,2.36,12.21,5.64Z"/>
  <path d="M2265.87,1522.33l-2.29.1-.1,2.29c-.3,6.84,2.31,13.55,7.15,18.39,4.59,4.59,10.85,7.17,17.33,7.17.35,0,.71,0,1.06-.02l1.46-.06,1.46.06c.35.02.71.02,1.06.02,6.47,0,12.73-2.58,17.32-7.17,4.85-4.85,7.45-11.55,7.15-18.39l-.1-2.29-2.29-.1c-5.4-.24-10.7,1.33-15.08,4.38.06-.71.1-1.43.1-2.15,0-6.85-2.9-13.44-7.95-18.06l-1.69-1.55-1.69,1.54c-5.06,4.62-7.96,11.21-7.96,18.07,0,.72.04,1.44.1,2.15-4.38-3.05-9.68-4.62-15.08-4.38ZM2300.24,1533.02c3.28-3.28,7.63-5.27,12.21-5.64-.38,4.58-2.37,8.93-5.65,12.21-3.28,3.28-7.62,5.27-12.2,5.64.37-4.57,2.36-8.92,5.64-12.2ZM2290.49,1511.94c2.97,3.5,4.64,7.99,4.64,12.62s-1.67,9.12-4.64,12.62c-2.97-3.49-4.64-7.98-4.64-12.62s1.67-9.12,4.64-12.62ZM2280.73,1533.02c3.28,3.28,5.27,7.63,5.64,12.2-4.58-.38-8.93-2.37-12.2-5.64-3.28-3.28-5.27-7.63-5.65-12.21,4.58.37,8.93,2.36,12.21,5.64Z"/>
  <path d="M1862.41,1829.08l-.1-2.29-2.29-.1c-7.46-.33-14.79,2.05-20.62,6.62.21-1.47.33-2.96.33-4.46,0-8.73-3.69-17.13-10.13-23.02l-1.69-1.55-1.69,1.54c-6.45,5.89-10.14,14.29-10.14,23.03,0,1.5.12,2.99.33,4.46-5.83-4.56-13.16-6.95-20.62-6.62l-2.29.1-.1,2.29c-.38,8.72,2.94,17.27,9.12,23.44,5.85,5.85,13.83,9.14,22.08,9.14.45,0,.9,0,1.35-.03l1.95-.08,1.95.08c.45.02.9.03,1.35.03,8.25,0,16.23-3.29,22.08-9.14,6.18-6.18,9.5-14.72,9.12-23.44ZM1806.06,1848.99c-4.62-4.62-7.34-10.82-7.65-17.3,6.48.31,12.68,3.02,17.3,7.65,4.63,4.63,7.34,10.82,7.64,17.3-6.48-.31-12.68-3.03-17.29-7.65ZM1827.91,1846.48c-4.36-4.79-6.83-11.09-6.83-17.63s2.46-12.85,6.83-17.64c4.36,4.8,6.82,11.11,6.82,17.64s-2.46,12.83-6.82,17.63ZM1832.46,1856.64c.3-6.47,3.02-12.67,7.64-17.3,4.62-4.62,10.82-7.34,17.3-7.65-.31,6.48-3.03,12.68-7.65,17.3s-10.81,7.33-17.29,7.65Z"/>
  <path d="M2317.93,2348.22l-2.29-.1c-7.47-.33-14.79,2.05-20.62,6.62.21-1.47.33-2.96.33-4.46,0-8.73-3.69-17.13-10.13-23.02l-1.69-1.55-1.69,1.54c-6.45,5.89-10.14,14.29-10.14,23.03,0,1.5.12,2.99.33,4.46-5.83-4.56-13.16-6.95-20.62-6.62l-2.29.1-.1,2.29c-.38,8.72,2.94,17.27,9.12,23.44,5.85,5.85,13.83,9.14,22.08,9.14.45,0,.9,0,1.35-.03l1.95-.09,1.95.09c.45.02.9.03,1.35.03,8.25,0,16.23-3.29,22.08-9.14h0c6.18-6.18,9.5-14.72,9.12-23.44l-.1-2.29ZM2261.68,2370.41c-4.62-4.62-7.34-10.82-7.65-17.3,6.48.31,12.68,3.02,17.3,7.65,4.63,4.63,7.34,10.82,7.64,17.3-6.48-.31-12.68-3.03-17.29-7.65ZM2283.53,2367.9c-4.36-4.79-6.83-11.09-6.83-17.63s2.46-12.85,6.83-17.64c4.36,4.8,6.82,11.11,6.82,17.64s-2.46,12.83-6.82,17.63ZM2305.38,2370.41c-4.62,4.62-10.82,7.33-17.29,7.65.3-6.47,3.02-12.67,7.64-17.3,4.62-4.62,10.82-7.34,17.3-7.65-.31,6.48-3.03,12.68-7.65,17.3Z"/>
  <path d="M1962.76,1651.51c-3.94,0-7.14,3.2-7.14,7.14s3.2,7.14,7.14,7.14,7.14-3.2,7.14-7.14-3.2-7.14-7.14-7.14ZM1962.76,1660.79c-1.18,0-2.14-.96-2.14-2.14s.96-2.14,2.14-2.14,2.14.96,2.14,2.14-.96,2.14-2.14,2.14Z"/>
  <path d="M1999.12,1667.67c0-5.17-2.29-10.02-6.28-13.31l-13.23-10.88c-6.63-5.46-15.75-8.35-26.38-8.36h-27.24c-3.02-14.95-10.31-28.53-21.16-39.38-10.24-10.24-23.06-17.38-37.08-20.67-1.76-.41-3.58.11-4.87,1.4-1.29,1.29-1.81,3.11-1.39,4.87,1.58,6.72,4.05,13.16,7.31,19.17-6.78-.75-13.63-.6-20.43.48-1.79.29-3.28,1.47-3.98,3.16-.7,1.68-.48,3.55.56,5,8.32,11.75,19.76,20.94,33.09,26.58,9.66,4.07,19.87,6.13,30.16,6.13,4.28,0,8.58-.36,12.85-1.08v24.04h-40.89c-15.88,0-30.87,5.94-42.2,16.74-8.5,8.09-14.17,18.21-16.55,29.27-3.34-4.39-8.62-7.23-14.55-7.23-10.07,0-18.27,8.2-18.27,18.27s8.2,18.27,18.27,18.27c5.84,0,11.04-2.75,14.38-7.03,4.69,21.32,23.66,37.34,46.34,37.48h0s56.54,0,56.54,0c0,0,.01,0,.02,0h33.84c1.38,0,2.5-1.12,2.5-2.5,0-4.72-1.84-9.15-5.18-12.49-2.74-2.74-6.23-4.47-10-5v-7.55c18.54-11.44,30-31.89,30.01-53.73l13.45-5.82c6.31-2.73,10.39-8.94,10.39-15.81ZM1879.97,1631.12c-12.47-5.27-23.17-13.87-30.96-24.87-.02-.02-.05-.08-.01-.18.05-.12.14-.14.15-.14,7.63-1.2,15.34-1.17,22.91.08,2.91,4.44,6.28,8.6,10.08,12.41,8.32,8.32,18.25,14.54,29.16,18.36-10.67.46-21.32-1.44-31.34-5.66ZM1885.68,1614.88c-9.57-9.57-16.26-21.57-19.34-34.68,0-.03-.02-.1.06-.19.06-.06.11-.07.14-.07.02,0,.04,0,.05,0,13.12,3.07,25.11,9.76,34.69,19.33,9.72,9.72,16.38,21.76,19.42,35.03-13.26-3.04-25.31-9.71-35.02-19.42ZM1806.83,1735.13c-7.32,0-13.27-5.95-13.27-13.27s5.95-13.27,13.27-13.27,13.27,5.95,13.27,13.27-5.95,13.27-13.27,13.27ZM1911.72,1765.58h0s-24.87,0-24.87,0c4.55-2.58,8.53-6.05,11.7-10.17h10.37c6.13,0,11.26,4.38,12.42,10.17h-9.63ZM1971.78,1685.37c-.92.4-1.51,1.3-1.51,2.29v1.61c0,20.57-11.02,39.8-28.77,50.19-.77.45-1.24,1.27-1.24,2.16v11.29c0,1.38,1.12,2.5,2.5,2.5,3.39,0,6.57,1.32,8.97,3.71,1.79,1.79,2.98,4.03,3.47,6.46h-28.79c-1.22-8.56-8.6-15.17-17.49-15.17h-7.1c3.01-5.51,4.73-11.82,4.73-18.53,0-17.35-14.11-31.46-31.46-31.46v5c14.59,0,26.46,11.87,26.46,26.46,0,18.58-15.12,33.7-33.7,33.7-23.57,0-42.75-19.18-42.75-42.75,0-29.24,24.69-53.03,55.03-53.03h43.39c1.38,0,2.5-1.12,2.5-2.5v-27.19h27.19c6.59,0,15.97,1.27,23.21,7.22l13.23,10.88c2.83,2.33,4.46,5.77,4.46,9.44,0,4.88-2.89,9.29-7.38,11.22l-14.96,6.47Z"/>
  <path d="M1721.07,1268.61h16.91s6.2-68.61,6.2-68.61l.18-2.03,9-8.97,2.32,11,14.47,68.6h17.45l-9.31-68.6-4.28-31.5-.14.02c16.75-17.39,27.88-39.08,32.26-62.88l6.77-36.82h6.4l11.46,22.93h13.22v-23.56c5.35-1.5,9.27-6.47,9.26-12.19,0-6.05-2.37-11.74-6.65-16.02l-23.38-23.38c-4.79-4.79-11.04-7.69-17.76-8.31v-.15h-.94l-9.89-10.52.06-.13-.3-.13-18.13-19.28c-5.52-5.88-13.32-9.25-21.38-9.25h-25.78c-1.48,0-2.75,1.06-3.03,2.51-.28,1.45.52,2.9,1.9,3.44l17.57,6.94,6.91,2.98c3.64,2.02,6.77,4.85,9.17,8.31l10.44,15.12h-26.73l8.23,12.16c4.64,6.85,11.97,11.29,20.07,12.28l-23.99,44.34h-121.81c-14.01,0-27.64,5.64-37.55,15.51l-32.96-16.67v12.46c0,5.34,1.6,10.49,4.62,14.89l10.39,15.11,8.03,33.5-9.21,13.81,4.59,34.46,9.13,68.6h16.75l-.02-65.1,4-3.5h0l13.09-11.45,2,11.45h0l11.98,68.6h17.31l-3.86-63.92,5.46-4.68h0l22.09-18.97,16.26-13.96h31.14v101.54ZM1781.87,1263.6h-7.67l-13.42-63.6h0l-3.21-15.21,11.97-11.93,3.68,27.14,8.63,63.6ZM1838.98,1086.74h-5.13l-8.96-17.93h14.09v17.93ZM1754.64,980.21c-1.15-.63-2.35-1.19-3.58-1.68l-11.9-4.7h15.72c6.69,0,13.16,2.8,17.74,7.67l10.22,10.88-28.2-12.17ZM1765.97,990.54l25.47,10.99,6.2,6.59h-19.53l-12.14-17.59ZM1673.67,1174.44l-29.77,25.56h0l-2.92,2.51,3.69,61.1h-7.8l-11.1-63.6-2.67-15.3,20.16-17.63h39.01l-8.59,7.37ZM1673.67,1162.07h-32.3l-43.37,37.93-1.41,1.23.02,62.37h-7.37l-8.47-63.6h0l-4.43-33.25,9.38-14.06-8.76-36.52-10.91-15.88c-2.45-3.56-3.75-7.73-3.75-12.06v-4.33l28.98,14.66,1.87-1.93c9.03-9.35,21.67-14.71,34.66-14.71h124.79l29.29-54.13h-4.8c-7.79,0-15.04-3.85-19.4-10.3l-2.95-4.36h47.61s1.04.03,1.04.03c6.17.16,11.95,2.63,16.28,6.96l23.38,23.38c3.34,3.34,5.18,7.77,5.18,12.49,0,3.93-3.06,7.28-6.98,7.62l-2.27.2h-30.26l-7.52,40.92c-4.35,23.64-15.64,45.11-32.67,62.07l-29,28.9-.39,4.29h0l-5.75,63.6h-7.34s0-63.6,0-63.6v-37.93h-52.4Z"/>
  <path d="M2314.36,1300.7c0,3.54,2.87,6.42,6.42,6.42s6.42-2.87,6.42-6.42-2.87-6.42-6.42-6.42-6.42,2.87-6.42,6.42Z"/>
  <path d="M2295.74,1235.25c-.42-.19-.84-.37-1.27-.54l-.13-.05h0s-.03-.01-.05-.02l-3.31-1.34-.12,3.57c-.27,7.83,1.85,15.46,6.14,22.05,3.73,5.73,8.85,10.29,14.91,13.31l-16.66,31.11-13.78,5.47v-5.04h-5v25.64l8.97,5.6c18.86,11.79,40.59,18.02,62.83,18.02h3.56l4.87,31.03-.06,13.64h14.3l16.99-40.38,9.96,26.8v13.59h2.11v-22.26l-10.19-27.41h-41.54c-21.3,0-42.11-5.97-60.18-17.26l-6.62-4.13v-12.45l17.33-6.88,18.73-34.98c.37-.48.58-1.07.59-1.68.14-7.62-1.99-15.04-6.16-21.45-.49-.75-1.01-1.49-1.55-2.2l27.72,11.9.9-.29c8.17-2.67,31.59-10.07,60.97-17.08v-5.13c-29.12,6.89-52.57,14.22-61.63,17.16l-42.63-18.3ZM2384.31,1353.03l-16.69,39.67h-5.96l.04-9.02-4.81-30.65h27.42ZM2313.01,1267.16c-4.77-2.61-8.81-6.36-11.82-10.98-3.01-4.62-4.79-9.83-5.24-15.25,4.77,2.61,8.8,6.35,11.81,10.98,3,4.62,4.79,9.83,5.25,15.25Z"/>
  <path d="M2348.37,2160.79v93.33h5v-93.33c0-8.78,6.71-16.03,15.26-16.89v59.78l11.22,50.49-11.3,28.25,12.43,74.91h19.02v-5h-14.78l-11.5-69.35,11.36-28.39-11.44-51.46v-59.31h26.37v-5h-29.66c-12.12,0-21.97,9.86-21.97,21.97Z"/>
  <polygon points="2395.54 2340.04 2400 2347.53 2400 2286.57 2395.51 2291.65 2395.54 2340.04"/>
  <path d="M1945.74,1257.85c2.41,0,4.37-1.96,4.37-4.37s-1.96-4.37-4.37-4.37-4.37,1.96-4.37,4.37,1.96,4.37,4.37,4.37ZM1945.74,1252.85c.35,0,.63.28.63.63s-.28.63-.63.63-.63-.28-.63-.63.28-.63.63-.63Z"/>
  <path d="M1956.22,1264.62h11.66l.11-2.45c.25-5.27-2.58-10.31-7.2-12.85l-.36-.2.17-.35c1.95-3.88,1.73-8.49-.48-12.15.61-1.52.94-3.11.98-4.76.17-7.53-5.81-13.79-13.33-13.97-.06,0-.11,0-.17,0-2.47-3.52-6.5-5.71-10.85-5.81-7.5-.17-13.79,5.81-13.97,13.33-.09,3.81,1.44,7.51,4.21,10.16l.12.11c.75.63,2.06,1.58,3.35,2.45l-8.31,6.64c-13.17,10.53-23.6,24.31-30.15,39.84l-11.2,26.58-21.05,12.41-37.89-25.56c-28.73-19.36-67.87-11.75-87.25,16.97-19.35,28.72-11.74,67.85,16.97,87.25l53.62,36.14v-55.68l63.34,42.43.03-.04,6.1,26.44h-10.39v5h46.02v-5h-30.49l-6.05-26.21h.02s51.08-33.42,51.08-33.42l.06-.04c24.37-16.88,38.91-44.64,38.91-74.24,0-14.87-3.69-29.59-10.67-42.6,1.89-1.96,3.06-4.62,3.06-7.55v-2.87ZM1958.74,1253.92c2.08,1.27,3.54,3.35,4.06,5.7h-5.74l1.67-5.7ZM1869.85,1423.22l.1-.14v.12s-.1.02-.1.02ZM1958.84,1317.64c0,27.96-13.73,54.16-36.73,70.12l-49.95,32.67-1.52.09-90.5-60.62c-2.62-1.75-4.4-4.43-5-7.52-.61-3.09.03-6.24,1.79-8.85,1.77-2.62,4.45-4.39,7.55-5,3.1-.6,6.25.04,8.87,1.8l21.04,14.19,2.8-4.15-21.04-14.19c-3.73-2.51-8.21-3.42-12.62-2.57-4.41.86-8.22,3.38-10.74,7.11-2.51,3.72-3.42,8.2-2.55,12.61.86,4.41,3.4,8.21,7.13,10.71l22.86,15.31v12.62l-28.67-19.33c-6.01-4.05-10.09-10.21-11.47-17.33-1.38-7.12.09-14.36,4.14-20.37,4.05-6.02,10.21-10.1,17.33-11.49,7.12-1.39,14.35.09,20.37,4.15l27.1,18.27,2.8-4.15-27.09-18.27c-7.12-4.81-15.69-6.56-24.12-4.91-8.43,1.64-15.72,6.47-20.52,13.6-4.8,7.11-6.54,15.68-4.9,24.11,1.64,8.44,6.47,15.73,13.59,20.53l31.46,21.21v12.48l-37.24-25.12c-19.42-13.12-24.57-39.59-11.48-59,13.12-19.42,39.59-24.57,59-11.48l33.16,22.36,2.8-4.15-33.16-22.36c-21.7-14.63-51.28-8.88-65.94,12.83-14.63,21.7-8.88,51.28,12.83,65.94l40.04,27v12.46l-45.82-30.88c-26.42-17.85-33.43-53.88-15.62-80.31,17.84-26.43,53.86-33.44,80.31-15.62l40.5,27.33,24.64-14.53h0c5.36-3.29,11.56-4.6,17.91-3.79,7.31.94,14.04,5.02,18.45,11.21,4.5,6.29,6.2,14.15,4.68,21.55-1.21,5.89-4.66,10.82-11.18,15.96l-52.71,36.12v-38.78h-5v48.27l60.6-41.53.13-.1c7.56-5.95,11.58-11.79,13.05-18.94,1.8-8.76-.21-18.04-5.51-25.46-5.22-7.31-13.2-12.14-21.88-13.26-5.22-.67-10.35-.12-15.12,1.59l8.97-21.27c6.23-14.77,16.14-27.87,28.66-37.88l9.75-7.79,2.39,1.31-2.76,2.34c-3.2,2.71-4.56,6.93-3.54,11l3.64,14.59c1.21,4.86,5.56,8.25,10.57,8.25,1.27,0,2.48-.22,3.61-.62,6.47,12.2,9.89,25.97,9.89,39.89ZM1951.22,1261.76v5.73c0,3.25-2.65,5.89-5.89,5.89-2.71,0-5.06-1.84-5.72-4.46l-3.64-14.59c-.55-2.21.18-4.5,1.92-5.97l4.23-3.58,12.14,6.66-3.03,10.32ZM1956.05,1246.72l-20.33-11.16c-1.12-.64-4.13-2.66-5.32-3.65-1.74-1.7-2.67-3.96-2.61-6.38.05-2.31,1-4.46,2.68-6.06,1.67-1.6,3.86-2.44,6.18-2.39,3.1.07,5.95,1.82,7.42,4.57l.8,1.48,1.67-.18c.44-.05.8-.07,1.13-.06,4.77.11,8.56,4.08,8.45,8.85-.03,1.38-.39,2.7-1.05,3.92l-.79,1.46,1.03,1.3c1.83,2.3,2.17,5.49.85,8.11l-.09.18Z"/>
  <path d="M2094.53,2310.96l-1.27,2.15-1.27,2.15c.72.42,13.12,7.58,30.98,7.58,7.23,0,15.35-1.17,23.95-4.44l-1.77-4.67c-27.54,10.46-50.39-2.65-50.62-2.78Z"/>
  <path d="M2148.18,2131.06c2.67,0,4.84-2.17,4.84-4.84s-2.17-4.84-4.84-4.84-4.84,2.17-4.84,4.84,2.17,4.84,4.84,4.84ZM2148.18,2126.06c.09,0,.16.07.16.16s-.07.16-.16.16-.16-.07-.16-.16.07-.16.16-.16Z"/>
  <path d="M2209.14,2166.23c2.67,0,4.84-2.17,4.84-4.84s-2.17-4.84-4.84-4.84-4.84,2.17-4.84,4.84,2.17,4.84,4.84,4.84ZM2209.14,2161.23c.09,0,.16.07.16.16s-.07.16-.16.16-.16-.07-.16-.16.07-.16.16-.16Z"/>
  <path d="M2244.53,2147.3h-42.22c-7.86,0-14.58,3.09-19.42,8.93-3.48,4.2-7.21,11.05-7.21,17.7v66.35c0,3.61-2.94,6.55-6.55,6.55h-9.37c2.96-12.87-.63-31.51-4.42-51.15-2.94-15.23-5.97-30.96-6.09-44.71l4.04-1.34c7.17-2.37,12.04-8.92,12.3-16.42l19.66-10.68c1.98-1.05,3.22-3.1,3.22-5.35,0-3.34-2.73-6.06-6.08-6.06h-40.61c-7.78,0-15.08,3.42-20.04,9.39-4.11,4.93-6.37,10.89-6.37,16.77v66.59c0,3.74-3.04,6.77-6.77,6.77h-8.52c-81.39,0-124.31,41.56-126.11,43.34l-1.82,1.81,1.65,1.64c12.83,23.92,42,49.91,73.57,54.18,18.31,21.49,45.04,35.09,74.03,36.98v24.16l34.78,18.89,26.38-30.2h-47.11v-12.8c17.03-.85,46.62-5.91,66.22-29.18,11.22-13.32,17.1-29.31,17.98-48.88.76-16.91-2.19-33.71-5.05-49.96-2.15-12.24-4.19-23.85-4.21-33.84l4.7-1.51c6.48-2.08,10.83-8.05,10.83-14.86v-1.03l20.48-11.14c1.98-1.05,3.21-3.11,3.21-5.36,0-5.04-3.56-5.58-5.08-5.58ZM2165.6,2116.11h16.78c.6,0,1.08.48,1.08,1.06,0,.39-.21.75-.58.94l-17.29,9.39v-11.4ZM1978.84,2256.24c7.9-7.14,48.78-40.61,121.22-40.61h8.52c6.49,0,11.77-5.28,11.77-11.77v-66.59c0-4.65,1.9-9.59,5.21-13.57,4.01-4.82,9.91-7.59,16.2-7.59h18.82v16.47c0,5.6-3.57,10.54-8.88,12.3l-7.45,2.47-.02,1.79c-.15,14.66,3.07,31.35,6.18,47.49,3.82,19.79,7.43,38.52,4.16,50.26-36.15.67-65.06,8.04-90.6,23.04-18.25,9.83-27.81,19.08-28.84,20.1l-1.32,1.31.87,1.64c2.36,4.47,5.04,8.73,7.99,12.75-27.31-5.94-52.08-28.37-63.85-49.47ZM2171.55,2366.43l-16.5,18.9-28.65-15.56v-21.04h4.05s0,17.71,0,17.71h41.11ZM2220.92,2166.41v4c0,4.62-2.96,8.68-7.36,10.1l-8.11,2.61-.04,1.78c-.26,10.88,1.94,23.37,4.26,36.59,5.5,31.29,11.74,66.76-11.84,94.75-19.05,22.62-48.49,26.93-64.34,27.48-.04,0-.08,0-.12,0h0s-8.62.02-8.62.02v2.11s-.42,0-.42,0l.08-2.1c-35.37-1.36-67.53-21.01-84.4-51.43,3.04-2.74,11.15-9.53,24.13-16.77,8.17,15.36,22.23,26.89,38.94,31.85,5.95,1.77,12.12,2.66,18.34,2.66,11.31,0,22.51-2.97,32.4-8.58l-2.47-4.35c-9.14,5.19-19.48,7.93-29.93,7.93-5.74,0-11.43-.83-16.92-2.45-15.47-4.59-28.47-15.28-36-29.51,25.54-14.49,54.72-21.25,91.57-21.25h9.05c6.37,0,11.55-5.18,11.55-11.55v-66.35c0-5.33,3.26-11.14,6.06-14.51,3.92-4.73,9.16-7.12,15.57-7.12h18.61v14.11ZM2244.03,2153.84l-18.11,9.85v-11.39h18.61s.04,0,.05,0c.02.13.03.32.03.58,0,.4-.22.76-.58.95Z"/>
  <rect x="2287.4" y="2272.3" width="5" height="13.19" transform="translate(-940.73 2286.68) rotate(-45)"/>
  <rect x="2267.83" y="2276.4" width="13.19" height="5" transform="translate(-945.26 2275.92) rotate(-45)"/>
  <rect x="2271.93" y="2256.83" width="5" height="13.19" transform="translate(-934.32 2271.02) rotate(-45)"/>
  <rect x="2283.3" y="2260.93" width="13.19" height="5" transform="translate(-929.79 2282.14) rotate(-45)"/>
  <rect x="1968.54" y="1812.5" width="13.19" height="5" transform="translate(-704.9 1928.25) rotate(-45)"/>
  <rect x="1953.07" y="1827.97" width="13.19" height="5" transform="translate(-720.36 1921.98) rotate(-45)"/>
  <rect x="1972.64" y="1823.88" width="5" height="13.19" transform="translate(-715.84 1932.77) rotate(-45)"/>
  <rect x="1957.17" y="1808.41" width="5" height="13.19" transform="translate(-709.43 1917.14) rotate(-45)"/>
  <rect x="1695.04" y="1415.31" width="5" height="13.19" transform="translate(-508.25 1616.81) rotate(-45)"/>
  <rect x="1706.41" y="1419.41" width="13.19" height="5" transform="translate(-503.71 1627.76) rotate(-45)"/>
  <rect x="1710.51" y="1430.79" width="5" height="13.19" transform="translate(-514.66 1632.27) rotate(-45)"/>
  <rect x="1690.94" y="1434.88" width="13.19" height="5" transform="translate(-519.19 1621.34) rotate(-45)"/>
  <rect x="2264.6" y="1422.88" width="13.19" height="5" transform="translate(-342.68 2023.46) rotate(-45)"/>
  <rect x="2268.7" y="1434.25" width="5" height="13.19" transform="translate(-353.62 2027.96) rotate(-45)"/>
  <path d="M168.43,264.24c-.38,8.72,2.94,17.27,9.12,23.44,5.85,5.85,13.83,9.14,22.08,9.14.45,0,.9,0,1.35-.03l1.95-.09,1.95.09c.45.02.9.03,1.35.03,8.25,0,16.23-3.29,22.08-9.14,6.18-6.18,9.5-14.72,9.12-23.44l-.1-2.29-2.29-.1c-7.46-.33-14.79,2.05-20.62,6.62.21-1.47.33-2.96.33-4.46,0-8.73-3.69-17.13-10.13-23.02l-1.69-1.55-1.69,1.54c-6.45,5.89-10.14,14.29-10.14,23.03,0,1.5.12,2.99.33,4.46-5.83-4.56-13.16-6.95-20.62-6.62l-2.29.1-.1,2.29ZM215.12,274.5c4.62-4.62,10.82-7.34,17.3-7.65-.31,6.48-3.03,12.68-7.65,17.3-4.62,4.62-10.82,7.33-17.29,7.65.3-6.47,3.02-12.67,7.64-17.3ZM202.93,246.36c4.36,4.8,6.82,11.11,6.82,17.64s-2.46,12.83-6.82,17.63c-4.36-4.79-6.83-11.09-6.83-17.63s2.46-12.85,6.83-17.64ZM190.73,274.5c4.62,4.63,7.34,10.82,7.64,17.3-6.48-.31-12.68-3.03-17.29-7.65-4.62-4.62-7.34-10.82-7.65-17.3,6.48.31,12.68,3.02,17.3,7.65Z"/>
  <path d="M181.37,873.58c.35,0,.71,0,1.06-.02l1.47-.06,1.47.06c.35.02.71.02,1.06.02,6.47,0,12.73-2.58,17.33-7.17,4.85-4.85,7.45-11.55,7.15-18.39l-.1-2.29-2.29-.1c-5.4-.24-10.7,1.33-15.08,4.38.06-.71.1-1.43.1-2.15,0-6.85-2.9-13.44-7.95-18.06l-1.69-1.55-1.69,1.54c-5.06,4.62-7.96,11.21-7.96,18.07,0,.72.04,1.44.1,2.15-4.38-3.05-9.68-4.62-15.08-4.38l-2.29.1-.1,2.29c-.3,6.84,2.31,13.55,7.15,18.39,4.59,4.59,10.85,7.17,17.33,7.17ZM193.65,856.31c3.28-3.28,7.63-5.27,12.21-5.64-.38,4.58-2.37,8.93-5.65,12.21-3.28,3.28-7.62,5.27-12.2,5.64.37-4.57,2.36-8.92,5.64-12.2ZM183.9,835.24c2.97,3.5,4.64,7.99,4.64,12.62s-1.67,9.12-4.64,12.62c-2.97-3.49-4.64-7.98-4.64-12.62s1.67-9.12,4.64-12.62ZM174.14,856.31c3.28,3.28,5.27,7.63,5.64,12.2-4.58-.38-8.93-2.37-12.2-5.64h0c-3.28-3.28-5.27-7.63-5.65-12.21,4.58.37,8.93,2.36,12.21,5.64Z"/>
  <path d="M57.37,1128.89l-2.29.1-.1,2.29c-.3,6.84,2.31,13.55,7.15,18.39,4.59,4.59,10.85,7.17,17.33,7.17.35,0,.71,0,1.06-.02l1.47-.06,1.47.06c.35.02.71.02,1.06.02,6.47,0,12.74-2.58,17.33-7.17,4.85-4.84,7.45-11.55,7.15-18.39l-.1-2.29-2.29-.1c-5.39-.24-10.7,1.33-15.08,4.38.06-.71.1-1.43.1-2.15,0-6.85-2.9-13.44-7.95-18.06l-1.69-1.55-1.69,1.54c-5.06,4.62-7.96,11.21-7.96,18.07,0,.72.04,1.44.1,2.15-4.38-3.05-9.69-4.62-15.08-4.38ZM91.75,1139.57c3.28-3.28,7.63-5.27,12.21-5.64-.38,4.58-2.37,8.93-5.65,12.21-3.28,3.28-7.62,5.27-12.2,5.64.37-4.57,2.36-8.92,5.64-12.2ZM82,1118.5c2.97,3.5,4.64,7.99,4.64,12.62s-1.67,9.12-4.64,12.62c-2.97-3.49-4.64-7.98-4.64-12.62s1.67-9.12,4.64-12.62ZM72.24,1139.57c3.28,3.28,5.27,7.63,5.64,12.2-4.58-.38-8.93-2.37-12.2-5.64-3.28-3.28-5.27-7.63-5.65-12.21,4.58.37,8.93,2.36,12.21,5.64Z"/>
  <path d="M233.16,1070.89l-2.29.1-.1,2.29c-.38,8.72,2.94,17.27,9.12,23.44,5.85,5.85,13.83,9.14,22.08,9.14.45,0,.9,0,1.35-.03l1.95-.08,1.95.08c.45.02.9.03,1.35.03,8.25,0,16.23-3.29,22.08-9.14,6.18-6.18,9.5-14.72,9.12-23.44l-.1-2.29-2.29-.1c-7.46-.33-14.79,2.06-20.62,6.62.21-1.47.33-2.96.33-4.46,0-8.73-3.69-17.13-10.13-23.02l-1.69-1.55-1.69,1.54c-6.45,5.89-10.14,14.29-10.14,23.03,0,1.5.12,2.99.33,4.46-5.83-4.56-13.15-6.94-20.62-6.62ZM277.48,1083.54c4.62-4.62,10.83-7.34,17.3-7.65-.31,6.48-3.03,12.68-7.65,17.3h0c-4.62,4.62-10.81,7.33-17.29,7.65.3-6.47,3.02-12.67,7.64-17.3ZM265.28,1055.4c4.36,4.8,6.82,11.11,6.82,17.64s-2.46,12.83-6.82,17.63c-4.36-4.79-6.83-11.09-6.83-17.63s2.46-12.85,6.83-17.64ZM253.08,1083.54c4.62,4.63,7.34,10.82,7.64,17.3-6.48-.31-12.68-3.03-17.29-7.65-4.62-4.62-7.34-10.82-7.65-17.3,6.48.31,12.68,3.02,17.3,7.65Z"/>
  <polygon points="401.61 68.6 401.59 3.5 405.6 0 398 0 396.59 1.23 396.61 63.6 389.24 63.6 380.77 0 375.73 0 384.86 68.6 401.61 68.6"/>
  <polygon points="449.98 68.6 446.12 4.68 451.58 0 443.9 0 440.98 2.51 444.67 63.6 436.87 63.6 425.76 0 420.69 0 432.66 68.6 449.98 68.6"/>
  <path d="M2417.28,184.29l4.45-31.26h32.42c9.5,0,18.88-1.5,27.91-4.45l7.47,18.62v16.05l-3.86,14.45h14.8l7.89-13.21,7.79-38.29,15.76,21.4-.03,15.66-3.6,14.44h14.66l8.98-13.17,17.39-102.99c1.87-11.37-.16-23.07-5.7-33.15,10.04-14.74,6.67-23.58,3.25-27.87,1.67-2.13,3.13-5.27,3.13-9.74h-5c0,2.53-.62,4.66-1.85,6.37-3.9-2.54-8.78-3.37-12.11-1.88-2.19.98-3.44,2.84-3.44,5.11s1.27,4,3.48,4.99c2.97,1.33,7.89,1.13,12.07-1.51,3.53,4.66,2.61,11.77-2.6,20.09l-4.77-6.26-.2-.23c-8.9-9.14-21.54-14.46-36.56-15.37-37.16-2.26-82.53,5.67-119.01,14.29v5.13c36.3-8.65,81.7-16.68,118.7-14.44,13.7.83,25.16,5.59,33.17,13.76l6.65,8.71c5.53,9.37,7.61,20.44,5.85,31.16l-17.21,101.9-6.87,10.08h-5.62l2.2-8.82.04-17.92-25.39-34.48c-7.37-10-11.26-21.86-11.26-34.29v-11.96h-5v11.96c0,13.51,4.23,26.39,12.24,37.26l.09.13-26.06,8.9c-8.83,3.02-18.04,4.55-27.38,4.55h-31.71l2.22-15.59v-11.69h-5v11.34l-7.25,50.95-3.65,9.66h-5.86v-9.49l-2.89-7.78v22.26h12.21l5.07-13.41ZM2553.11,20.81c-.05-.02-.53-.24-.53-.43,0-.17,0-.33.48-.55.43-.19,1.02-.29,1.72-.29,1.15,0,2.59.28,4.03.93-2.25.9-4.51.88-5.71.34ZM2510.7,138.8l1.45,1.97-8.52,41.89-6,10.04h-5.45l2.35-8.8v-17.67l-7.73-19.27,23.9-8.17Z"/>
  <path d="M205.9,50.72l25.76,12.23c.04,7.25,4.35,13.77,11.02,16.63,4.86,2.08,7.99,6.84,7.99,12.12v56.96c0,23.67,8.63,46.41,24.31,64.01,15.58,17.5,36.82,28.43,59.9,30.85v22.76h-43.68l33.63,25.04,23.19-16.35v-30.96c19.98-.61,39.18-7.39,55.08-19.63,18.74-14.42,31.45-35.15,35.8-58.36l.55-2.96h-76.17l-1.97-1.95c-14.49-14.3-35.09-22.5-56.54-22.5h-21.94l.09-69.96c0-15.34-12.48-27.83-27.83-27.83h-46.98c-2.87,0-5.2,2.33-5.2,5.2,0,2,1.17,3.84,2.97,4.7ZM343.03,272.38l-18.11,12.77-18.62-13.87h33.59v-27.36c1.05.06,2.1.1,3.15.12v28.34ZM433.39,168.06c-3.62,16.4-11.44,30.84-22.16,42.35l-42.87-42.35h65.03ZM236.66,45.82h18.45c12.59,0,22.83,10.24,22.83,22.82l-.1,74.96h26.95c20.14,0,39.47,7.67,53.02,21.05l47.88,47.29h-54.6c-11.03,0-21.45-4.24-29.34-11.95l-28.94-28.27-3.49,3.58,28.94,28.27c8.83,8.63,20.49,13.38,32.84,13.38h53.37c-18.11,15.75-42.41,24.16-68.22,21.69-45.92-4.39-80.55-43.08-80.55-89.98v-56.96c0-7.28-4.33-13.85-11.02-16.72-4.85-2.08-7.99-6.84-7.99-12.12v-17.04ZM208.13,45.82h23.53v11.59l-23.62-11.21c-.07-.03-.11-.1-.11-.18,0-.11.09-.2.2-.2Z"/>
  <circle cx="248.85" cy="55.9" r="4.07"/>
  <path d="M52.99,913.16c-10.12,0-18.36,8.24-18.36,18.36s8.24,18.36,18.36,18.36,18.36-8.24,18.36-18.36-8.24-18.36-18.36-18.36ZM52.99,944.88c-7.37,0-13.36-5.99-13.36-13.36s5.99-13.36,13.36-13.36,13.36,5.99,13.36,13.36-5.99,13.36-13.36,13.36Z"/>
  <polygon points="281.47 955.28 286.15 953.52 282.24 943.1 275.24 947.48 277.9 951.72 279.71 950.59 281.47 955.28"/>
  <path d="M.54,1138.66l-.02-45.12,40.77-46.16c18.37,6.22,37.57,9.24,58.64,9.24h45.84v82.41l4.58,18.31h30.26l-9.73-18.51,15.95-83.46,68.28-66.07,28.52,19.21c6.58,4.44,15.46,4.01,21.59-1.03l4.12-3.39c5.87-4.83,8.1-12.88,5.55-20.03l-23.48-65.94,9.98-26.59.41-32.14-21.55,24.16.31-24.16-49.31,55.29-55.3,24.13h-28.91c.53-2.35.82-4.79.82-7.3,0-18.36-14.93-33.29-33.29-33.29-13.88,0-25.8,8.54-30.79,20.65-4.99-12.1-16.91-20.65-30.79-20.65-18.36,0-33.29,14.93-33.29,33.29,0,2.51.29,4.95.82,7.3H0v5h22.06c4.9,12.28,16.91,20.99,30.92,20.99,1.41,0,2.79-.1,4.16-.27v20.09c0,10.82,8.8,19.62,19.62,19.62h82.59c10.82,0,19.62-8.8,19.62-19.62v-41.67l54.78-23.91.5-.22,41.14-46.13-.21,16.62-21.37,24.04,3.74,3.32,39.09-43.97-.23,17.87-10.31,27.48,24.1,67.66c1.84,5.18.23,11-4.01,14.49l-4.12,3.39c-4.44,3.65-10.86,3.96-15.62.75l-31.88-21.48-71.76,69.44-.57.55-16.58,86.73,6.69,12.74h-18.08l-3.48-13.92v-86.79h-50.84c-21.11,0-40.27-3.11-58.58-9.51l-1.59-.55L0,1086.57v60.96l2.87,4.81H0v5h11.67l-11.13-18.68ZM114.56,903.23c15.6,0,28.29,12.69,28.29,28.29s-12.69,28.29-28.29,28.29-28.29-12.69-28.29-28.29,12.69-28.29,28.29-28.29ZM52.99,959.81c-15.6,0-28.29-12.69-28.29-28.29s12.69-28.29,28.29-28.29,28.29,12.69,28.29,28.29-12.69,28.29-28.29,28.29ZM173.97,984.63c0,8.06-6.56,14.62-14.62,14.62h-82.59c-8.06,0-14.62-6.56-14.62-14.62v-21.11c9.82-2.81,17.79-10.02,21.63-19.36,4.99,12.1,16.91,20.65,30.79,20.65s26.02-8.71,30.92-20.99h28.49v40.81Z"/>
  <rect x="286.87" y="1173.8" width="13.19" height="5" transform="translate(-745.87 552.13) rotate(-45)"/>
  <rect x="306.44" y="1169.7" width="5" height="13.19" transform="translate(-741.28 562.98) rotate(-45)"/>
  <rect x="302.34" y="1158.33" width="13.19" height="5" transform="translate(-730.33 558.44) rotate(-45)"/>
  <rect x="290.97" y="1154.23" width="5" height="13.19" transform="translate(-734.83 547.44) rotate(-45)"/>
  <rect x="46.73" y="806.99" width="13.19" height="5" transform="translate(-556.78 274.8) rotate(-45)"/>
  <rect x="35.36" y="802.89" width="5" height="13.19" transform="translate(-561.27 263.82) rotate(-45)"/>
  <rect x="337.54" y="73.78" width="13.19" height="5" transform="translate(46.84 265.67) rotate(-45)"/>
  <rect x="322.07" y="89.26" width="13.19" height="5" transform="translate(31.37 259.26) rotate(-45)"/>
  <rect x="326.17" y="69.69" width="5" height="13.19" transform="translate(42.32 254.75) rotate(-45)"/>
  <rect x="341.64" y="85.16" width="5" height="13.19" transform="translate(35.91 270.22) rotate(-45)"/>
  <path d="M1005.69,643.63l-2.29.1-.1,2.29c-.3,6.84,2.31,13.55,7.15,18.39,4.59,4.59,10.85,7.17,17.33,7.17.35,0,.71,0,1.06-.02l1.46-.06,1.47.06c.35.02.71.02,1.06.02,6.47,0,12.74-2.58,17.33-7.17,4.85-4.85,7.45-11.55,7.15-18.39l-.1-2.29-2.29-.1c-5.39-.24-10.7,1.33-15.08,4.38.06-.71.1-1.43.1-2.15,0-6.85-2.9-13.44-7.95-18.06l-1.69-1.55-1.69,1.54c-5.06,4.62-7.96,11.21-7.96,18.07,0,.72.04,1.44.1,2.15-4.38-3.05-9.69-4.62-15.08-4.38ZM1040.07,654.31c3.28-3.28,7.63-5.27,12.21-5.64-.38,4.58-2.37,8.93-5.65,12.21-3.28,3.28-7.62,5.27-12.2,5.64.37-4.57,2.36-8.92,5.64-12.2ZM1030.31,633.24c2.97,3.5,4.64,7.99,4.64,12.62s-1.67,9.12-4.64,12.62c-2.97-3.49-4.64-7.98-4.64-12.62s1.67-9.12,4.64-12.62ZM1020.56,654.31c3.28,3.28,5.27,7.63,5.64,12.2-4.58-.38-8.93-2.37-12.2-5.64-3.28-3.28-5.27-7.63-5.65-12.21,4.58.37,8.93,2.36,12.21,5.64Z"/>
  <path d="M692.07,1126.87c-.38,8.72,2.94,17.27,9.12,23.44,5.85,5.85,13.84,9.14,22.08,9.14.45,0,.9,0,1.35-.03l1.95-.08,1.95.08c.45.02.9.03,1.35.03,8.25,0,16.23-3.29,22.08-9.14,6.18-6.18,9.5-14.72,9.12-23.44l-.1-2.29-2.29-.1c-7.46-.33-14.79,2.06-20.62,6.62.21-1.47.33-2.96.33-4.46,0-8.73-3.69-17.13-10.13-23.02l-1.69-1.55-1.69,1.54c-6.45,5.89-10.14,14.29-10.14,23.03,0,1.5.12,2.99.33,4.46-5.83-4.56-13.16-6.95-20.62-6.62l-2.29.1-.1,2.29ZM738.76,1137.13c4.62-4.62,10.82-7.34,17.3-7.65-.31,6.48-3.03,12.68-7.65,17.3s-10.81,7.33-17.29,7.65c.3-6.47,3.02-12.67,7.64-17.3ZM726.57,1109c4.36,4.8,6.82,11.11,6.82,17.64s-2.46,12.83-6.82,17.63c-4.36-4.79-6.83-11.09-6.83-17.63s2.46-12.85,6.83-17.64ZM714.37,1137.13c4.63,4.63,7.34,10.82,7.64,17.3-6.48-.31-12.68-3.03-17.29-7.65-4.62-4.62-7.34-10.82-7.65-17.3,6.48.31,12.68,3.02,17.3,7.65Z"/>
  <path d="M762.76,465.79c3.94,0,7.14-3.2,7.14-7.14s-3.2-7.14-7.14-7.14-7.14,3.2-7.14,7.14,3.2,7.14,7.14,7.14ZM762.76,456.51c1.18,0,2.14.96,2.14,2.14s-.96,2.14-2.14,2.14-2.14-.96-2.14-2.14.96-2.14,2.14-2.14Z"/>
  <path d="M725.98,435.12c-3.02-14.95-10.31-28.53-21.16-39.38-10.24-10.24-23.06-17.38-37.08-20.67-1.76-.41-3.58.11-4.87,1.4-1.29,1.29-1.81,3.11-1.39,4.87,1.58,6.72,4.05,13.16,7.31,19.17-6.78-.75-13.63-.6-20.43.48-1.79.29-3.28,1.47-3.98,3.16-.7,1.68-.48,3.55.56,5,8.32,11.75,19.76,20.94,33.09,26.58,9.66,4.07,19.87,6.13,30.16,6.13,4.28,0,8.58-.36,12.85-1.08v24.04h-40.89c-15.88,0-30.87,5.94-42.2,16.74-8.5,8.09-14.17,18.21-16.55,29.27-3.34-4.39-8.62-7.23-14.55-7.23-10.07,0-18.27,8.2-18.27,18.27s8.2,18.27,18.27,18.27c5.84,0,11.04-2.75,14.38-7.03,4.69,21.32,23.66,37.34,46.34,37.48h0s56.54,0,56.54,0c0,0,.01,0,.02,0h33.84c1.38,0,2.5-1.12,2.5-2.5,0-4.72-1.84-9.15-5.18-12.49-2.74-2.74-6.23-4.47-10-5v-7.55c18.54-11.44,30-31.89,30.01-53.73l13.45-5.82c6.31-2.73,10.39-8.94,10.39-15.81,0-5.17-2.29-10.02-6.28-13.31l-13.23-10.88c-6.63-5.46-15.75-8.35-26.38-8.36h-27.24ZM679.97,431.12c-12.47-5.27-23.17-13.87-30.96-24.87-.02-.02-.05-.08-.01-.18.05-.12.14-.14.15-.14,7.63-1.2,15.34-1.17,22.91.08,2.91,4.44,6.28,8.6,10.08,12.41,8.32,8.32,18.25,14.54,29.16,18.36-10.67.46-21.32-1.44-31.34-5.66ZM685.68,414.88c-9.57-9.57-16.26-21.57-19.34-34.68,0-.03-.02-.1.06-.19.06-.06.11-.07.14-.07.02,0,.04,0,.05,0,13.12,3.07,25.11,9.76,34.69,19.33,9.72,9.72,16.38,21.76,19.42,35.03-13.26-3.04-25.31-9.71-35.02-19.42ZM606.83,535.13c-7.32,0-13.27-5.95-13.27-13.27s5.95-13.27,13.27-13.27,13.27,5.95,13.27,13.27-5.95,13.27-13.27,13.27ZM711.72,565.58h0s-24.87,0-24.87,0c4.55-2.58,8.53-6.05,11.7-10.17h10.37c6.13,0,11.26,4.38,12.42,10.17h-9.63ZM789.66,458.23c2.83,2.33,4.46,5.77,4.46,9.44,0,4.88-2.89,9.29-7.38,11.22l-14.96,6.47c-.92.4-1.51,1.3-1.51,2.29v1.61c0,20.57-11.02,39.8-28.77,50.19-.77.45-1.24,1.27-1.24,2.16v11.29c0,1.38,1.12,2.5,2.5,2.5,3.39,0,6.57,1.32,8.97,3.71,1.79,1.79,2.98,4.03,3.47,6.46h-28.79c-1.22-8.56-8.6-15.17-17.49-15.17h-7.1c3.02-5.51,4.73-11.82,4.73-18.53,0-17.35-14.11-31.46-31.46-31.46v5c14.59,0,26.46,11.87,26.46,26.46,0,18.58-15.12,33.7-33.7,33.7-23.57,0-42.75-19.18-42.75-42.75,0-29.24,24.69-53.03,55.03-53.03h43.39c1.38,0,2.5-1.12,2.5-2.5v-27.19h27.19c6.59,0,15.97,1.27,23.21,7.22l13.23,10.88Z"/>
  <polygon points="587.6 68.6 578.29 0 573.24 0 581.87 63.6 574.21 63.6 560.79 0 555.68 0 570.15 68.6 587.6 68.6"/>
  <polygon points="544.18 0 539.16 0 533.41 63.6 526.07 63.6 526.07 0 521.07 0 521.07 68.61 537.98 68.59 544.18 0"/>
  <path d="M1000.02,841.47l.99,3.45,64.03-18.41,5.81,21.08h-6.58v5h31.99v-5h-20.22l-6.19-22.46,16.88-4.86c22.31-6.4,40.79-21.1,52.03-41.41,11.24-20.3,13.91-43.76,7.5-66.07l-3.04-10.58,12.67-38.05h-25.56c-18.62,0-33.77,15.15-33.77,33.79l.1,14.25-29.79,8.57c-25.05,7.19-45.8,23.7-58.43,46.5-12.62,22.8-15.62,49.15-8.43,74.2ZM1012.82,769.7c11.98-21.63,31.67-37.3,55.44-44.12l28.42-8.18v4.62c-.12,28.88-19.58,54.66-47.32,62.69l-34.94,10.12c1.79-6.62,4.38-13.02,7.75-19.11,10.99-19.85,29.06-34.22,50.86-40.48l-1.38-4.8c-23.09,6.62-42.22,21.85-53.86,42.86-3.88,7.01-6.8,14.41-8.69,22.08h0c-.48,1.95-.9,3.92-1.25,5.91l-.12.69,3.18-.92,39.84-11.54c14.75-4.28,27.44-13.01,36.69-25.27,9.24-12.25,14.17-26.85,14.23-42.21v-6.07h.02l-.02-1.76v-.12l-.12-16.15c0-15.86,12.9-28.77,28.77-28.77h18.62l-10.97,32.94,3.47,12.07c6.03,21.02,3.52,43.14-7.07,62.26-10.6,19.14-28.01,33-49.03,39.02l-80.9,23.27c-6.33-23.35-3.38-47.81,8.38-69.03Z"/>
  <path d="M1126.37,771.99l4.37,2.42c2.12-3.84,3.94-7.86,5.38-11.96l-4.72-1.66c-1.35,3.84-3.05,7.6-5.04,11.2Z"/>
  <path d="M1139.22,750.87c1.06-5.73,1.47-11.6,1.21-17.43l-5,.22c.24,5.46-.14,10.94-1.13,16.3l4.92.91Z"/>
  <path d="M1128.1,683.25c2.46,0,4.45-1.99,4.45-4.45s-1.99-4.45-4.45-4.45-4.45,1.99-4.45,4.45,1.99,4.45,4.45,4.45Z"/>
  <path d="M1131.29,738.97l-5-.16c-.23,7.51-1.8,14.86-4.66,21.86l4.63,1.89c3.08-7.55,4.77-15.49,5.03-23.59Z"/>
  <path d="M1176.66,843.69c1.88,0,3.4-1.52,3.4-3.4s-1.52-3.4-3.4-3.4-3.4,1.52-3.4,3.4,1.52,3.4,3.4,3.4Z"/>
  <path d="M1184.94,826.37c2.52,0,4.57-2.05,4.57-4.57s-2.05-4.57-4.57-4.57-4.57,2.05-4.57,4.57,2.05,4.57,4.57,4.57ZM1184.94,821.37c.23,0,.43.19.43.43s-.19.43-.43.43-.43-.19-.43-.43.19-.43.43-.43Z"/>
  <path d="M1138.92,835.32c.45-.73.72-1.58.72-2.5,0-2.62-2.12-4.73-4.73-4.73s-4.73,2.12-4.73,4.73,1.93,4.53,4.38,4.72c-.24.51-.37,1.07-.37,1.67,0,2.19,1.77,3.96,3.96,3.96s3.96-1.77,3.96-3.96c0-1.92-1.36-3.52-3.18-3.88Z"/>
  <path d="M1163.8,800.91c-.9.49-1.71,1.13-2.46,1.89-1.32-1.63-2.89-2.89-4.72-3.64-10.34-4.23-26.69,9.51-32.32,23.29-2.23,5.47-2.32,11.44-.25,16.82,2.1,5.43,6.14,9.6,11.38,11.74,2.46,1.01,5.05,1.51,7.65,1.51,2.94,0,5.89-.64,8.7-1.92,4.27-1.94,7.79-5.16,10.16-9.24,2.97,5.04,7.6,8.69,13.1,10.29,1.97.58,3.97.86,5.95.86,3.39,0,6.72-.84,9.74-2.49,4.42-2.43,7.58-6.3,9.27-10.78,1.84-4.87,1.93-10.47,0-15.71h0c-.39-1.07-.87-2.12-1.43-3.15-7.31-13.33-24.78-24.94-34.76-19.48ZM1158.76,836.53h0c-1.75,4.28-4.96,7.67-9.04,9.52-4.03,1.83-8.43,1.95-12.39.33-3.96-1.62-7.02-4.78-8.61-8.91-1.61-4.18-1.54-8.84.21-13.13,4.39-10.73,16.3-20.97,23.53-20.97.82,0,1.58.13,2.27.41,6.83,2.79,9.01,20.54,4.03,32.74ZM1194.18,822.79c4.56,8.32,1.93,18.58-5.86,22.86-3.6,1.97-7.81,2.4-11.88,1.21-4.47-1.31-8.2-4.36-10.52-8.59-.53-.96-1-1.96-1.42-2.99,2.85-9.17,2.75-20.28-.47-27.89.63-.94,1.36-1.64,2.17-2.09,6.48-3.55,21.64,5.94,27.97,17.5Z"/>
  <path d="M1151.06,826.62c0,2.77,2.24,5.01,5.01,5.01s5.01-2.24,5.01-5.01-2.24-5.01-5.01-5.01-5.01,2.24-5.01,5.01Z"/>
  <rect x="806.94" y="1185.67" width="5" height="13.19" transform="translate(-605.96 921.47) rotate(-45)"/>
  <rect x="818.32" y="1189.76" width="13.19" height="5" transform="translate(-601.45 932.51) rotate(-45)"/>
  <rect x="822.41" y="1.14" width="5" height="13.19" transform="translate(236.14 585.57) rotate(-45)"/>
  <rect x="802.85" y="5.24" width="13.19" height="5" transform="translate(231.62 574.64) rotate(-45)"/>
  <rect x="768.54" y="612.5" width="13.19" height="5" transform="translate(-207.83 728.3) rotate(-45)"/>
  <rect x="753.07" y="627.97" width="13.19" height="5" transform="translate(-223.31 721.83) rotate(-45)"/>
  <rect x="772.64" y="623.88" width="5" height="13.19" transform="translate(-218.79 732.7) rotate(-45)"/>
  <rect x="757.17" y="608.41" width="5" height="13.19" transform="translate(-212.37 717.29) rotate(-45)"/>
  <rect x="1102.75" y="890.14" width="5" height="13.19" transform="translate(-310.37 1044.18) rotate(-45)"/>
  <rect x="1118.22" y="905.61" width="5" height="13.19" transform="translate(-316.79 1059.55) rotate(-45)"/>
  <rect x="1098.65" y="909.71" width="13.19" height="5" transform="translate(-321.31 1048.71) rotate(-45)"/>
  <rect x="1114.12" y="894.24" width="13.19" height="5" transform="translate(-305.84 1055.12) rotate(-45)"/>
  <path d="M1636.04,407.39c6.98,0,12.67-5.68,12.67-12.67s-5.68-12.67-12.67-12.67-12.67,5.68-12.67,12.67,5.68,12.67,12.67,12.67ZM1636.04,387.06c4.23,0,7.67,3.44,7.67,7.67s-3.44,7.67-7.67,7.67-7.67-3.44-7.67-7.67,3.44-7.67,7.67-7.67Z"/>
  <path d="M1468.83,316.99h-4.39c-8.79,0-15.94,7.15-15.94,15.94v80.09h5v-80.09c0-6.03,4.91-10.94,10.94-10.94h4.39v88.47l-6.36,32.05-.06.32,5.42,86.57h18.63l2.28-46.74,14.24,46.74h20.84l-8.26-56.94h18.34v13.77c0,1.38,1.12,2.5,2.5,2.5s2.5-1.12,2.5-2.5v-13.77h11.27v13.77c0,1.38,1.12,2.5,2.5,2.5s2.5-1.12,2.5-2.5v-13.77h.78l16.94-24.4,67.61-.09,5.08,81.43h19.14l3.54-70.99,5.41,16.57h0s17.78,54.43,17.78,54.43h20.81l-14.98-82.95,50.41-75.77,50.54,8.13c3.15.51,6.37-.54,8.63-2.79l7.06-7.06c3.46-3.46,3.88-9.04.96-12.98l-45.77-61.81,23.94-13.77h-55.94l13.28,20.23-18.26-8.03h-22.75l13.78,18.77-25.08,5.63h-229.26ZM1518.05,524.4h-11.36l-15.82-51.94h19.65l7.54,51.94ZM1553.33,467.46h-63.84l.33-6.8,24.15-28.46,53.49,14.92-14.12,20.35ZM1706.28,524.4h-11.2l-21.4-65.53h0s-3.53-10.81-3.53-10.81h3.53s18.82-.03,18.82-.03l13.79,76.37ZM1719.26,297.59h11.82l18.06,7.95-20.65,4.63-9.23-12.58ZM1473.83,321.99h53.05c-1.76,4.77-2.68,9.85-2.68,14.98,0,23.87,19.42,43.29,43.29,43.29,6.55,0,12.76-1.46,18.33-4.08-.4-1.2-.62-2.49-.62-3.83,0-.51.03-1.01.1-1.5-5.32,2.81-11.38,4.41-17.81,4.41-21.11,0-38.29-17.18-38.29-38.29,0-5.16,1.05-10.27,3.05-14.98h70.49c2,4.71,3.05,9.82,3.05,14.98,0,8.71-2.93,16.75-7.85,23.2,1.86.08,3.61.57,5.17,1.4,4.84-6.99,7.69-15.47,7.69-24.59,0-5.13-.92-10.21-2.68-14.98h90.54l62.55-14.03-14.81-22.57h27.96l-12.58,7.23,49.11,66.33c1.45,1.96,1.25,4.74-.48,6.47l-7.06,7.06c-1.12,1.12-2.73,1.64-4.3,1.39l-53.71-8.64-51.76,77.8-19.88.02h-9.65s-4.05,81.34-4.05,81.34h-9.68l-5.08-81.43-73.66.1-59.31-16.54-27.32,32.2-3.21,65.68h-9.17l-5.08-81.23,6.39-32.22v-88.96Z"/>
  <path d="M1664.74,372.49c-2.39-2.77-3.83-6.37-3.83-10.3,0-7.67,5.5-14.08,12.76-15.5h0c.98-.19,2-.3,3.04-.3,8.71,0,15.8,7.09,15.8,15.8s-7.03,15.74-15.69,15.8c.93,1.46,1.56,3.12,1.81,4.91,10.57-.97,18.88-9.89,18.88-20.71,0-11.47-9.33-20.8-20.8-20.8-1.03,0-2.05.08-3.04.22-10.03,1.48-17.76,10.14-17.76,20.58,0,4.54,1.47,8.74,3.94,12.17,1.45-.95,3.1-1.6,4.89-1.87Z"/>
  <polygon points="1601.61 68.6 1601.59 3.5 1605.6 0 1598 0 1596.59 1.23 1596.61 63.6 1589.24 63.6 1580.77 0 1575.73 0 1584.86 68.6 1601.61 68.6"/>
  <polygon points="1649.98 68.6 1646.12 4.68 1651.58 0 1643.9 0 1640.98 2.51 1644.67 63.6 1636.87 63.6 1625.76 0 1620.69 0 1632.66 68.6 1649.98 68.6"/>
  <rect x="1486.87" y="1173.8" width="13.19" height="5" transform="translate(-394.32 1400.73) rotate(-45)"/>
  <rect x="1506.44" y="1169.7" width="5" height="13.19" transform="translate(-389.81 1411.51) rotate(-45)"/>
  <rect x="1502.34" y="1158.33" width="13.19" height="5" transform="translate(-378.87 1406.98) rotate(-45)"/>
  <rect x="1490.97" y="1154.23" width="5" height="13.19" transform="translate(-383.42 1395.91) rotate(-45)"/>
  <path d="M2205.69,643.63l-2.29.1-.1,2.29c-.3,6.84,2.31,13.55,7.15,18.39,4.59,4.59,10.85,7.17,17.33,7.17.35,0,.71,0,1.06-.02l1.46-.06,1.47.06c.35.02.71.02,1.06.02,6.47,0,12.74-2.58,17.33-7.17,4.85-4.85,7.45-11.55,7.15-18.39l-.1-2.29-2.29-.1c-5.39-.24-10.7,1.33-15.08,4.38.06-.71.1-1.43.1-2.15,0-6.85-2.9-13.44-7.95-18.06l-1.69-1.55-1.69,1.54c-5.06,4.62-7.96,11.21-7.96,18.07,0,.72.04,1.44.1,2.15-4.38-3.05-9.69-4.62-15.08-4.38ZM2240.07,654.31c3.28-3.28,7.63-5.27,12.21-5.64-.38,4.58-2.37,8.93-5.65,12.21-3.28,3.28-7.62,5.27-12.2,5.64.37-4.57,2.36-8.92,5.64-12.2ZM2230.31,633.24c2.97,3.5,4.64,7.99,4.64,12.62s-1.67,9.12-4.64,12.62c-2.97-3.49-4.64-7.98-4.64-12.62s1.67-9.12,4.64-12.62ZM2220.56,654.31c3.28,3.28,5.27,7.63,5.64,12.2-4.58-.38-8.93-2.37-12.2-5.64-3.28-3.28-5.27-7.63-5.65-12.21,4.58.37,8.93,2.36,12.21,5.64Z"/>
  <path d="M1889.89,301.97l-2.29.1-.1,2.29c-.38,8.72,2.94,17.27,9.12,23.44,5.85,5.85,13.83,9.14,22.08,9.14.45,0,.9,0,1.35-.03l1.95-.09,1.95.09c.45.02.9.03,1.35.03,8.25,0,16.23-3.29,22.08-9.14,6.18-6.18,9.5-14.72,9.12-23.44l-.1-2.29-2.29-.1c-7.46-.33-14.79,2.05-20.62,6.62.21-1.47.33-2.96.33-4.46,0-8.73-3.69-17.13-10.13-23.02l-1.69-1.55-1.69,1.54c-6.45,5.89-10.14,14.29-10.14,23.03,0,1.5.12,2.99.33,4.46-5.83-4.56-13.16-6.95-20.62-6.62ZM1934.2,314.62c4.62-4.62,10.82-7.34,17.3-7.65-.31,6.48-3.03,12.68-7.65,17.3-4.62,4.62-10.82,7.33-17.29,7.65.3-6.47,3.02-12.67,7.64-17.3ZM1922.01,286.49c4.36,4.8,6.82,11.11,6.82,17.64s-2.46,12.83-6.82,17.63c-4.36-4.79-6.83-11.09-6.83-17.63s2.46-12.85,6.83-17.64ZM1909.81,314.62c4.63,4.63,7.34,10.82,7.64,17.3-6.48-.31-12.68-3.03-17.29-7.65-4.62-4.62-7.34-10.82-7.65-17.3,6.48.31,12.68,3.02,17.3,7.65Z"/>
  <path d="M1892.07,1126.87c-.38,8.72,2.94,17.27,9.12,23.44,5.85,5.85,13.84,9.14,22.08,9.14.45,0,.9,0,1.35-.03l1.95-.08,1.95.08c.45.02.9.03,1.35.03,8.25,0,16.23-3.29,22.08-9.14,6.18-6.18,9.5-14.72,9.12-23.44l-.1-2.29-2.29-.1c-7.46-.33-14.79,2.06-20.62,6.62.21-1.47.33-2.96.33-4.46,0-8.73-3.69-17.13-10.13-23.02l-1.69-1.55-1.69,1.54c-6.45,5.89-10.14,14.29-10.14,23.03,0,1.5.12,2.99.33,4.46-5.83-4.56-13.16-6.95-20.62-6.62l-2.29.1-.1,2.29ZM1938.76,1137.13c4.62-4.62,10.82-7.34,17.3-7.65-.31,6.48-3.03,12.68-7.65,17.3s-10.81,7.33-17.29,7.65c.3-6.47,3.02-12.67,7.64-17.3ZM1926.57,1109c4.36,4.8,6.82,11.11,6.82,17.64s-2.46,12.83-6.82,17.63c-4.36-4.79-6.83-11.09-6.83-17.63s2.46-12.85,6.83-17.64ZM1914.37,1137.13c4.63,4.63,7.34,10.82,7.64,17.3-6.48-.31-12.68-3.03-17.29-7.65-4.62-4.62-7.34-10.82-7.65-17.3,6.48.31,12.68,3.02,17.3,7.65Z"/>
  <rect x="1764.14" y="325.12" width="12.2" height="5"/>
  <path d="M1815.28,1040.11c3.62,0,6.55-2.93,6.55-6.55s-2.93-6.55-6.55-6.55-6.55,2.93-6.55,6.55,2.93,6.55,6.55,6.55Z"/>
  <polygon points="1787.6 68.6 1778.29 0 1773.24 0 1781.87 63.6 1774.21 63.6 1760.79 0 1755.68 0 1770.15 68.6 1787.6 68.6"/>
  <polygon points="1744.18 0 1739.16 0 1733.41 63.6 1726.07 63.6 1726.07 0 1721.07 0 1721.07 68.61 1737.98 68.59 1744.18 0"/>
  <path d="M2330.33,664.16c-18.62,0-33.77,15.15-33.77,33.79l.1,14.25-29.79,8.57c-25.05,7.19-45.8,23.7-58.43,46.5-12.62,22.8-15.62,49.15-8.43,74.2l.99,3.45,64.03-18.41,5.81,21.08h-6.58v5h31.98v-5h-20.22l-6.19-22.46,16.89-4.86c22.31-6.4,40.79-21.1,52.02-41.41,11.25-20.3,13.91-43.76,7.51-66.07l-3.04-10.58,12.67-38.05h-25.56ZM2341.46,714.17c6.03,21.02,3.52,43.14-7.07,62.26-10.6,19.14-28.01,33-49.03,39.02l-80.9,23.27c-6.33-23.35-3.38-47.81,8.38-69.03,11.98-21.63,31.67-37.3,55.44-44.12l28.42-8.18v4.62c-.12,28.88-19.58,54.66-47.32,62.69l-34.94,10.12c1.79-6.62,4.38-13.02,7.75-19.11,10.99-19.85,29.06-34.22,50.86-40.48l-1.38-4.8c-23.09,6.62-42.22,21.85-53.86,42.86-3.88,7.01-6.8,14.41-8.69,22.08h0c-.49,1.95-.91,3.92-1.26,5.91l-.12.69,3.18-.92,39.84-11.54c14.75-4.28,27.44-13.01,36.69-25.27,9.24-12.25,14.17-26.85,14.24-42.21v-6.07h.01v-1.76s-.01-.12-.01-.12l-.12-16.15c0-15.86,12.9-28.77,28.77-28.77h18.62l-10.97,32.94,3.47,12.07Z"/>
  <path d="M2326.37,771.99l4.37,2.42c2.12-3.84,3.94-7.86,5.38-11.96l-4.72-1.66c-1.35,3.84-3.05,7.6-5.04,11.2Z"/>
  <path d="M2334.3,749.96l4.92.91c1.06-5.73,1.47-11.6,1.21-17.43l-5,.22c.24,5.46-.14,10.94-1.13,16.3Z"/>
  <path d="M2328.1,683.25c2.46,0,4.45-1.99,4.45-4.45s-1.99-4.45-4.45-4.45-4.45,1.99-4.45,4.45,1.99,4.45,4.45,4.45Z"/>
  <path d="M2326.3,738.82c-.23,7.51-1.8,14.86-4.66,21.86l4.63,1.89c3.08-7.55,4.77-15.49,5.03-23.59l-5-.16Z"/>
  <path d="M2376.66,836.89c-1.88,0-3.4,1.52-3.4,3.4s1.52,3.4,3.4,3.4,3.4-1.52,3.4-3.4-1.52-3.4-3.4-3.4Z"/>
  <path d="M2384.94,817.23c-2.52,0-4.57,2.05-4.57,4.57s2.05,4.57,4.57,4.57,4.57-2.05,4.57-4.57-2.05-4.57-4.57-4.57ZM2384.94,822.23c-.23,0-.43-.19-.43-.43s.19-.43.43-.43.43.19.43.43-.19.43-.43.43Z"/>
  <path d="M2338.92,835.32c.45-.73.72-1.58.72-2.5,0-2.62-2.12-4.73-4.73-4.73s-4.73,2.12-4.73,4.73,1.93,4.53,4.38,4.72c-.24.51-.37,1.07-.37,1.67,0,2.19,1.77,3.96,3.96,3.96s3.96-1.77,3.96-3.96c0-1.92-1.36-3.52-3.18-3.88Z"/>
  <path d="M2363.8,800.91c-.9.49-1.71,1.13-2.46,1.89-1.32-1.63-2.89-2.89-4.72-3.64-10.34-4.23-26.69,9.51-32.32,23.29-2.23,5.47-2.32,11.44-.25,16.82,2.1,5.43,6.14,9.6,11.38,11.74,2.46,1.01,5.05,1.51,7.65,1.51,2.94,0,5.89-.64,8.7-1.92,4.27-1.94,7.79-5.16,10.16-9.24,2.97,5.04,7.6,8.69,13.1,10.29,1.97.58,3.97.86,5.95.86,3.39,0,6.72-.84,9.74-2.49,4.42-2.43,7.58-6.3,9.27-10.78v-15.71c-.39-1.07-.87-2.12-1.43-3.15-7.31-13.33-24.78-24.94-34.76-19.48ZM2358.76,836.53h0c-1.75,4.28-4.96,7.67-9.04,9.52-4.03,1.83-8.43,1.95-12.39.33-3.96-1.62-7.02-4.78-8.61-8.91-1.61-4.18-1.54-8.84.21-13.13,4.39-10.73,16.3-20.97,23.53-20.97.82,0,1.58.13,2.27.41,6.83,2.79,9.01,20.54,4.03,32.74ZM2388.32,845.65c-3.6,1.97-7.81,2.4-11.88,1.21-4.47-1.31-8.2-4.36-10.52-8.59-.53-.96-1-1.96-1.42-2.99,2.85-9.17,2.75-20.28-.47-27.89.63-.94,1.36-1.64,2.17-2.09,6.48-3.55,21.64,5.94,27.97,17.5,4.56,8.32,1.93,18.58-5.86,22.86Z"/>
  <path d="M2351.06,826.62c0,2.77,2.24,5.01,5.01,5.01s5.01-2.24,5.01-5.01-2.24-5.01-5.01-5.01-5.01,2.24-5.01,5.01Z"/>
  <rect x="1908.97" y="998.13" width="13.19" height="5" transform="translate(-146.45 1647.74) rotate(-45)"/>
  <rect x="1897.6" y="994.03" width="5" height="13.19" transform="translate(-151.03 1636.65) rotate(-45)"/>
  <rect x="1893.5" y="1013.6" width="13.19" height="5" transform="translate(-161.97 1641.18) rotate(-45)"/>
  <rect x="1913.07" y="1009.51" width="5" height="13.19" transform="translate(-157.48 1651.98) rotate(-45)"/>
  <rect x="2302.75" y="890.14" width="5" height="13.19" transform="translate(41.1 1892.7) rotate(-45)"/>
  <rect x="2318.22" y="905.61" width="5" height="13.19" transform="translate(34.69 1908.18) rotate(-45)"/>
  <rect x="2298.65" y="909.71" width="13.19" height="5" transform="translate(30.16 1897.24) rotate(-45)"/>
  <rect x="2314.12" y="894.24" width="13.19" height="5" transform="translate(45.63 1903.64) rotate(-45)"/>
</svg>