<?xml version="1.0" encoding="UTF-8"?>
<svg id="a" data-name="Capa 1" xmlns="http://www.w3.org/2000/svg" viewBox="0 0 2000 2000">
  <path d="M1045.09,1412.95c10.75,32.72,11.35,67.52,20.21,100.66,9.5,38.79,14.92,78.51,25.03,117.16.46,8.48.51,17.19,2.83,25.54,11.86,43.05,15.53,87.91,27.76,130.88,3.85,12.98,6.12,26.32,7.32,39.86-13.39-6.81-25.81-15.39-39.44-21.64.09,16.22.19,32.49.32,48.8-35.04.51-70.07-.05-105.15.32,3.06-41.71,11.63-82.72,16.82-124.16,16.08-105.62,27.3-211.93,44.3-317.41Z" fill="none" stroke-miterlimit="10"/>
  <path d="M1584.07,1013.32c1.58.93,4.77,2.73,6.35,3.66,57.56,110.16,112.75,222.59,169.53,333.58-19.84,13.9-42.78,22.62-62.75,36.24-20.95,39.58-38.19,81.15-58.16,121.28-2.41-.83-7.23-2.5-9.69-3.34-.93,2.69-2.87,8.06-3.8,10.75-7.97-13.12-15.85-27.02-15.39-42.82-24.75-18.31-38.74-46.44-60.48-67.66-25.63-33.09-59.18-59.6-81.8-95.14-5.33-8.39-15.29-11.77-22.06-18.68-20.07-24.89-40.97-49.22-62.56-72.76,2.97-2.92,5.98-5.75,9.04-8.48,33.65-9.22,68.36-14.18,101.59-24.66,29.52-54.87,55.15-111.78,85.69-166.1,1.11-1.48,3.38-4.4,4.5-5.89Z" fill="none" stroke-miterlimit="10"/>
  <path d="M701.82,197.06c28.78-16.78,55.1-38.05,85.5-51.81-6.4,16.41-14.92,32.02-19.74,49.03,21.46-11.17,42.03-27.95,67.48-27.48,32.53-.6,65.07-1.85,97.65-1.9,4.22,3.52,8.48,7.04,12.74,10.61,32.77-7.42,65.53-15.02,98.57-20.9-5.19,13.12-12.28,25.4-17.89,38.33,19.05,5.19,38,10.8,57.28,15.29,6.53.97,11.49,5.56,15.9,10.24,17.38,18.35,35.18,36.38,52.09,55.2,10.57,14.55,31.65,10.29,45.32,19.56,18.54,21.78,36.29,44.21,54.5,66.23,8.2,10.66,18.03,20.39,23.36,33-9.32-2.27-18.44-4.91-27.48-7.97-1.58,1.53-4.77,4.59-6.4,6.07-18.95-.83-29.38-18.58-42.36-29.75-33.78-23.4-69.52-44.17-102.61-68.68-17.43-12.61-37.54-20.76-55.24-33-37.12-24.75-70.72-57.23-114.28-70.63-16.96-5.61-30.87,9.22-44.95,16.08-53.16,27.71-104,59.74-158.73,84.35-3.94-12.19-6.77-24.65-8.99-37.17-42.82,12.23-82.17,34.11-125.45,44.81-29.98,2.22-58.39,15.8-88.7,13.58,21.32-22.25,45-42.03,67.01-63.54,12.84-12.93,28.08-24.61,46.53-27.71-4.26,7.65-9.04,15.06-13.81,22.43,34.9-19.79,67.43-43.75,102.88-62.43-.05,4.54-.14,13.63-.19,18.17Z" fill="none" stroke-miterlimit="10"/>
  <path d="M881.27,204.57c14.09-6.86,27.99-21.69,44.95-16.08,43.56,13.39,77.16,45.88,114.28,70.63,17.7,12.23,37.82,20.39,55.24,33,33.09,24.52,68.82,45.28,102.61,68.68,12.98,11.17,23.4,28.92,42.36,29.75l5.84.88c24.79,23.26,49.22,46.95,74.61,69.56,4.12,3.57,7.97,7.6,10.52,12.61l-3.71-1.02c-94.68-53.48-188.25-108.91-283.07-162.16-7.18-2.64-14.6-4.59-21.92-6.53-3.15-4.5-6.16-9.08-9.64-13.21-12.42-4.26-26-2.13-38.93-2.41-55.57,1.81-111.41-2.97-166.79,3.66-41.62,1.11-83.37-.97-124.94,2.36-31.33,3.99-63.17,5.19-94.59,2.27,43.29-10.71,82.63-32.58,125.45-44.81,2.22,12.51,5.05,24.98,8.99,37.17,54.73-24.61,105.57-56.63,158.73-84.35Z" fill="none" stroke-miterlimit="10"/>
  <path d="M538.46,471.1c4.31-2.41,8.9-4.4,13.67-5.89,22.48,17.52,43.93,36.24,65.95,54.36-16.92,2.69-33.65,6.26-50.24,10.52-29.71,6.63-59.46,13.35-88.52,22.57-1.62,0-4.87-.09-6.44-.09,14.83-24.89,37.77-43.1,57.7-63.58,5.42-4.45,7-11.35,7.88-17.89Z" fill="none" stroke-miterlimit="10"/>
  <path d="M1007.37,525.87c11.77,3.15,23.36,7,34.9,10.94-8.9,36.15-1.95,75.96-20.85,109.56-6.3-18.72-12.23-37.54-17.89-56.4,9.18,3.2,18.4,6.35,27.71,9.36-4.96-25.44-16.92-48.66-23.87-73.46Z" fill="none" stroke-miterlimit="10"/>
  <path d="M1147.61,567.77c10.71,18.86,21.27,37.82,33.14,55.98,7.83,13.07,14.69,26.69,22.89,39.53-2.87,14.6-8.76,28.32-15.43,41.57,3.75,5.84,8.85,11.59,8.11,19.19.05,19.74,1.39,39.76-1.25,59.41-9.04,9.45-16.17,20.44-16.08,34.02-.23,22.01-17.8,40.41-13.53,62.75,1.9,8.3-4.17,14.97-7.79,21.83l-1.53-.6c-25.44-9.27-53.43-10.01-78.14-21.55-8.94-6.86-13.07-18.12-19.09-27.34-18.07-29.38-35.41-59.23-52.65-89.07,19.97,2.13,39.21,10.71,59.37,10.52,16.27-14.78,36.19-29.57,42.08-51.81,6.49-20.25,16.36-39.25,22.89-59.51.79-1.48,2.36-4.4,3.15-5.89,7.23-12.42,7.65-27.11,9.55-40.92,1.67-16.04,6.49-31.88,4.31-48.1Z" fill="none" stroke-miterlimit="10"/>
  <path d="M523.4,611.75c21.69-13.39,43.24-27.06,65.72-39.07,2.41.6,7.23,1.9,9.64,2.55,23.54,30.08,55.29,53.39,75.17,86.52-11.08,1.25-23.87,3.57-24.05,17.47-16.45,5.47-30.68,15.43-45.6,23.91-7.42-.32-14.83-1.07-22.2-2.13-4.87-.93-9.73-1.9-14.6-2.87-5.75-6.16-11.96-11.73-18.72-16.64-5.61,8.11-10.66,16.54-15.9,24.93-4.31,3.34-8.81,6.53-13.21,9.82.74-30.26-5.56-60.06-7.42-90.14-1.71-7.6,6.44-10.61,11.17-14.37" fill="none" stroke-miterlimit="10"/>
  <path d="M328.57,623.85c-5.01-5.79-25.16-13.67-12.51-20.85,30.22,1.67,59.69,10.2,89.77,13.53,7.32,3.15,14.69,6.35,22.25,9.04-8.53,2.46-16.92,5.24-25.3,8.11-21.97-.32-43.84-2.87-65.81-2.13l-3.34-.23c-.09,8.02-.19,16.04.05,24.1-1.76-10.52-3.48-21.04-5.1-31.56Z" fill="none" stroke-miterlimit="10"/>
  <path d="M1372.88,669.08c8.11.79,16.22,1.58,24.28,2.87,10.43,8.25,21.87,15.25,34.85,18.82l1.3.46c45.46,85.92,92.55,171.01,136.9,257.58,5.24,12.65,15.39,25.03,12.61,39.53-.74,10.06,5.33,19.05,7.6,28.64-1.58-.93-4.77-2.73-6.35-3.66-26.18-15.62-53.3-29.66-80.87-42.68-15.71-12.88-23.68-31.42-27.95-50.75-11.73-5.47-13.86-18.77-17.7-29.71-3.75-12.79-13.53-22.85-16.13-36.01-5.38-22.48-15.85-43.24-22.2-65.44-5.19-20.67-21.27-36.89-24.42-58.25-1.3-9.13-4.82-17.56-9.82-25.21,2.04-4.36,4.17-8.67,5.93-13.02-4.68-8.71-11.86-15.62-18.03-23.17Z" fill="none" stroke-miterlimit="10"/>
  <path d="M952.68,811.91c13.9-11.68,26.14-25.21,40.32-36.52-9.55,22.85-27.34,40.69-40.27,61.54-15.06,24.56-35.31,45.51-48.94,71-5.28,7-10.94,13.76-16.27,20.76.97-12.84-3.8-25.63-14.41-33.27-10.47,8.62-21.5,16.64-33.28,23.54-.28-5.75-.51-11.4-.65-17.05,4.68-.51,10.24,1.67,14.32-1.58,18.26-12.42,35.22-26.83,50.28-42.96,14.88-16.78,35.82-26.93,48.89-45.46Z" fill="none" stroke-miterlimit="10"/>
  <path d="M446.24,780.67c26.05,8.43,51.86-1.58,78.09-2.36,3.89,8.94,8.76,17.52,14.23,25.67,7.37,16.45,16.22,32.21,26.46,47.09.7,1.39,2.13,4.17,2.83,5.61l-4.91,1.95c-13.53,5.19-26.32,12.1-39.58,17.94-3.06-17.61-2.18-35.68-5.61-53.11-9.13-12.28-20.9-22.66-33.74-30.87-10.66-5.98-19.65,6.26-28.36,10.75,1.07-5.42,2.13-10.8,3.15-16.13-8.94.28-18.68.88-25.49,7.46-3.61,6.3-2.46,14.04-3.52,21.04-18.91,2.6-38.09,2.78-56.91,6.35-2.97-.42-8.9-1.2-11.91-1.62,27.81-14.64,59.13-22.01,85.27-39.76Z" fill="none" stroke-miterlimit="10"/>
  <path d="M438.08,845.74c31.56-6.91,55.24,16.64,78.55,33.32-20.16,7.46-41.06,14.32-57.74,28.5-25.86,13.72-50.56,30.73-79.02,38.56,21.74-16.78,47.92-26.09,71.42-39.95,5.93-2.55,9.18-8.39,9.82-14.55,2.18-15.06,2.13-30.31,1.11-45.42-8.57.79-17.15,1.58-25.67,2.73l1.53-3.2Z" fill="none" stroke-miterlimit="10"/>
  <path d="M790.71,847.69c1.58-1.34,4.77-3.99,6.35-5.33-.83,6.02-1.44,12.19-1.99,18.35,5.79,5.65,11.96,11.59,13.3,20.07,10.15,40.18,18.54,80.82,27.57,121.28-1.85,2.27-5.56,6.81-7.42,9.08-26.37,26.65-51.35,54.96-74.61,84.39l-1.3-2.83c-1.85-26.46-16.64-50.19-17.98-76.42,12.47-49.31,39.02-94.08,52.79-142.88,1.11-8.62,1.81-17.24,3.29-25.72Z" fill="none" stroke-miterlimit="10"/>
  <path d="M523.35,876.56c13.25-5.84,26.05-12.74,39.58-17.94-6.16,13.39-12.74,26.6-18.68,40.18-8.2-5.56-16.54-10.94-24.1-17.29l.7-3.99,2.5-.97Z" fill="none" stroke-miterlimit="10"/>
  <path d="M293.44,886.57c.19-5.28,4.26-8.81,6.86-12.93-.19,17.29,3.71,34.25,4.91,51.49,14.32,8.94,27.9,19.51,44.07,25.12-.32,1.99-.97,5.98-1.3,8.02-13.53-6.3-26.05-14.51-39.72-20.48-.6,22.43.28,44.95-1.39,67.43-10.66-13.3-21.09-26.83-31.33-40.5,7.14-25.77,13.3-51.81,17.89-78.14Z" fill="none" stroke-miterlimit="10"/>
  <path d="M312.39,886.8c.32-9.04,11.17-7.79,17.43-7.6,8.71,2.97,17.19,6.58,25.67,10.24,5.75,15.06,4.59,31.93-2.46,46.34-18.44-10.29-42.45-24.61-40.64-48.99Z" fill="none" stroke-miterlimit="10"/>
  <path d="M416.67,979.44c33.14-7,66.32-14.41,99.08-23.13,12.61,5.01,24.84,10.8,37.03,16.68-5.7,28.69-15.76,56.26-22.11,84.81-.32.97-.93,2.97-1.25,3.94-22.57,10.98-44.35,23.59-65.58,37.03-2.22-.19-6.77-.56-9.04-.79-3.06-21.5-11.68-41.62-19.14-61.82-7.14-18.77-12.65-38.09-21.87-55.98.74-.19,2.18-.56,2.87-.74Z" fill="none" stroke-miterlimit="10"/>
  <path d="M275.55,964.71c10.24,13.67,20.67,27.2,31.33,40.5-6.86,26.83-13.49,53.76-22.2,80.08l-.23,2.92c-15.11,13.72-28.5,29.24-41.71,44.81-.32-38.05,2.36-76.05,3.89-114.05,8.43-18.68,19.56-36.06,28.92-54.27Z" fill="none" stroke-miterlimit="10"/>
  <path d="M552.78,973l.88-2.78c1.53,1.53,4.63,4.63,6.16,6.21,21.46,14,42.68,28.32,63.12,43.8-30.82,12.37-60.57,27.62-92.27,37.58,6.35-28.55,16.41-56.12,22.11-84.81Z" fill="none" stroke-miterlimit="10"/>
  <path d="M306.88,1005.21c36.19-5.84,71.37-16.36,106.92-25.03-4.91,37.4-14.09,74.01-22.52,110.72-35.55-2.13-71.09-3.75-106.59-5.61,8.71-26.32,15.34-53.25,22.2-80.08Z" fill="none" stroke-miterlimit="10"/>
  <path d="M624.61,986.39c8.11,10.38,15.66,21.18,22.38,32.53,8.99,15.62,18.44,31.05,25.49,47.73-24.01,11.35-46.44,25.63-69.01,39.58-5.65-.51-11.26-.88-16.92-1.25-16.68-17.89-37.35-31.37-55.89-47.18,31.7-9.96,61.45-25.21,92.27-37.58,5.42,3.75,11.03,7.32,16.59,10.89-6.21-14.46-13.07-28.87-14.92-44.72Z" fill="none" stroke-miterlimit="10"/>
  <path d="M1165.87,1022.87c2.78-2.09,8.3-6.26,11.03-8.34,7.46,40.69,12.79,81.84,21.69,122.26-1.81,4.03-3.61,8.16-5.38,12.33-17.84,8.43-33.65,20.44-50.1,31.19-47.6,31.19-95.42,62.01-142.92,93.34-24.05,14.92-46.58,32.44-72.06,44.86,11.49-20.39,27.53-37.59,41.89-55.94,65.39-79.8,129.95-160.3,195.85-239.69Z" fill="none" stroke-miterlimit="10"/>
  <path d="M284.68,1085.29c35.5,1.85,71.05,3.48,106.59,5.61,15.85.46,31.56,2.83,47.13,6.02-16.13,3.71-38.79,2.55-44.77,21.87-7.46.37-14.88,1.25-22.25,2.41-22.29,4.22-45.09,3.89-67.62,5.93-5.7-13.35-12.7-26.05-19.33-38.93l.23-2.92Z" fill="none" stroke-miterlimit="10"/>
  <path d="M748.03,1104.85l4.12-2.09c3.71,25.72,8.16,51.49,14.46,76.75-3.24,4.82-9.59,9.41-7.88,16.08,2.13,17.56,6.44,34.8,10.01,52.09-1.95,2.13-3.85,4.31-5.79,6.53-14.88,16.04-31.51,30.31-47.46,45.32-4.59-3.15-9.13-6.21-13.67-9.27.42,4.63.79,9.36,1.16,14.13-7.97-2.55-6.02-11.35-4.36-17.52,4.5-16.08,10.33-31.84,12.33-48.48,2.6-22.2,12.61-43.93,7.04-66.55,10.01-22.34,19.51-44.91,30.03-67.01Z" fill="none" stroke-miterlimit="10"/>
  <path d="M530.35,1126.54c20.3-5.33,40.92-9.32,61.41-13.81-8.2,14.46-18.63,27.44-26.79,41.89-18.68-1.67-37.35-.19-56.03-.37-2.5-.09-7.46-.32-9.96-.46,8.81-10.84,20.11-19.19,31.37-27.25Z" fill="none" stroke-miterlimit="10"/>
  <path d="M508.94,1154.25c18.68.19,37.35-1.3,56.03.37,31.75,12.74,62.75,27.34,94.96,38.93-10.2,33.09-24.66,64.84-33.27,98.39l-4.87,3.89c-13.72-6.95-19.46-21.69-28.59-33.04-24.61-30.87-51.02-60.25-76.1-90.74-4.59-4.91-5.93-11.77-8.16-17.8Z" fill="none" stroke-miterlimit="10"/>
  <path d="M991.47,1161.71c1.67-1.85,5.05-5.51,6.72-7.37-.65,8.94-1.25,17.94-1.99,26.93-6.3,1.48-12.56,3.06-18.86,4.68,3.52-8.76,7.37-17.56,14.13-24.24Z" fill="none" stroke-miterlimit="10"/>
  <path d="M297.19,1158.24c5.61-.56,11.22-1.07,16.87-1.44,5.24,42.31,7.65,84.9,12.93,127.21-.83,2.6-2.55,7.88-3.43,10.47-9.92-45.14-21.69-90.19-26.37-136.25Z" fill="none" stroke-miterlimit="10"/>
  <path d="M912.36,1187.99c6.12,14.09,11.77,28.46,17.29,42.82,3.57,10.1,6.4,20.62,7.65,31.33-8.57,20.21-15.34,41.06-20.72,62.33l-2.09,2.6c-3.34,4.12-6.63,8.3-9.78,12.61-53.11,67.85-104.83,136.76-157.34,205.07-8.02,10.57-16.08,21.13-24.15,31.7-1.53-2.22-4.59-6.72-6.12-8.99-18.44-32.02-35.41-64.93-53.43-97.18-5.61-10.47-19-12.05-28.55-17.43-5.56-2.46-11.12-5.01-16.64-7.51-8.34-3.89-16.64-7.92-24.89-11.96-6.16,1.71-12.33,3.43-18.44,5.24-6.3-13.44-11.96-27.11-18.4-40.41-18.72,28.04-36.61,56.59-53.99,85.5.51-2.04,1.53-6.12,1.99-8.16-12.84-29.43-24.52-59.46-38.42-88.38l-2.46,10.57c-1.2-4.77-2.41-9.5-3.61-14.23,15.43-4.03,33.32-4.77,43.24-19.19,37.77-25.58,78.69-45.97,118.27-68.5l4.87-3.89c9.18,17.75,12.37,37.77,20.48,55.94-.05,2.55-.19,7.55-.23,10.06,22.8-19.56,46.71-37.82,68.59-58.39,15.94-15.02,32.58-29.29,47.46-45.32,2.32,5.01,2.73,10.2,1.3,15.53-14.97,50.14-34.76,98.76-49.26,149,16.68-17.24,31.28-36.66,50.1-51.81,1.39,7.18,2.69,14.41,3.94,21.74.09,5.47.28,10.94.51,16.5,12.7-44.3,27.06-88.15,45.51-130.41,6.26,25.3.6,52.09,8.48,77.12,15.06-48.75,30.26-97.51,45.37-146.26,1.07-1.25,3.2-3.8,4.26-5.05,6.77,26.56,11.68,53.57,19.37,79.9,5.47-31.05,13.02-61.68,19.84-92.46Z" fill="none" stroke-miterlimit="10"/>
  <path d="M487.57,1714c3.29-38.23,3.2-76.7,7.65-114.79,14.18,30.87,26,62.8,38.14,94.54l1.3,3.06c-4.45,50.98-4.63,102.23-10.61,153.12-22.06.28-45.79,7.37-66.74-2.09,8.81-16.27,20.99-30.91,27.48-48.29,2.04-28.46,1.39-57.05,2.78-85.55Z" fill="none" stroke-miterlimit="10"/>
  <path d="M766.52,1842.6c27.06-49.26,47.69-101.86,75.91-150.43,20.9,55.52,51.53,106.96,72.57,162.44-51.67-.19-103.35.6-154.97-.37l1.85-3.11c1.16-2.13,3.48-6.4,4.63-8.53Z" fill="none" stroke-miterlimit="10"/>
  <rect x="100" y="100" width="1800" height="1800" fill="none" stroke-width="0"/>
</svg>