<?xml version="1.0" encoding="UTF-8"?>
<svg id="a" data-name="Capa 1" xmlns="http://www.w3.org/2000/svg" viewBox="0 0 2000 2000">
  <path d="M602.69,371.09c38.09-25.26,70.49-62.01,116.65-72.44,29.24-1.71,58.58,1.39,87.87,0,23.36-1.53,46.39,3.66,69.7,3.99,27.95-.37,55.47,6.16,83.47,4.59,28.36-1.53,56.26,9.04,84.53,3.2,94.82,53.25,188.39,108.68,283.07,162.16-9.45,7.32-23.13,9.45-30.03,19.79,14.04,7.74,35.22,7.14,41.94,24.19,30.96,57.93,62.61,115.58,92.13,174.21-12.98-3.57-24.42-10.57-34.85-18.82-28.13-22.71-62.75-35.18-92.04-56.17-29.61-22.34-62.47-39.72-94.36-58.44-10.89-6.63-21.41-13.9-33.37-18.49-3.2,25.95-6.67,56.03,12.19,77.49-2.22,1.85-6.63,5.56-8.85,7.42-11.86-18.17-22.43-37.12-33.14-55.98-19.6-36.06-36.01-73.73-55.52-109.79-3.71-10.1-15.85-9.87-24.33-13.07,6.4-12.88.74-26.65-1.81-39.62-5.84-25.16-10.38-50.56-16.54-75.63-1.95-4.12-2.22-13.35-8.99-11.17-13.76,5.14-25.54,14.46-38.23,21.74-27.99,18.17-57.47,34.06-83.93,54.55-32.49,16.54-66.92,28.69-100.2,43.38-6.67,2.87-12.14,7.69-17.56,12.42-9.32-.23-18.63-.19-27.9-.28-8.06-6.91-17.19-12.28-26.51-17.24-16.73-9.18-31.05-23.45-50.14-27.99-13.07,1.71-24.75,8.53-36.75,13.49-31.98,14.74-66.87,22.75-97.69,40.04,8.06,1.25,16.13,2.46,24.28,3.34-11.22,1.11-22.43,2.22-33.65,3.29-4.77,1.48-9.36,3.48-13.67,5.89-28.87,17.33-58.35,33.69-87.27,50.98-2.55-.7-7.6-2.13-10.15-2.83,16.13-19.23,34.2-36.8,54.13-52.09,34.94-33,71.88-63.77,107.52-96.07Z" fill="none" stroke-miterlimit="10"/>
  <path d="M1040.41,318.49c6.77-2.18,7.04,7.04,8.99,11.17,6.16,25.07,10.71,50.47,16.54,75.63,2.55,12.98,8.2,26.74,1.81,39.62-19.46-5.93-38.84-12.05-58.44-17.38-7.46-3.34-14.97-6.44-22.75-8.85-.19-4.31-.37-8.57-.51-12.79-22.15-5.61-44.54-15.66-67.8-11.12,26.46-20.48,55.94-36.38,83.93-54.55,12.7-7.28,24.47-16.59,38.23-21.74Z" fill="none" stroke-miterlimit="10"/>
  <path d="M918.25,394.77c23.26-4.54,45.65,5.51,67.8,11.12.14,4.22.32,8.48.51,12.79,7.79,2.41,15.29,5.51,22.75,8.85-23.22,12.93-48.06,22.62-71.32,35.55-5.51,2.13-10.98,4.4-16.45,6.67.28,2.73.79,8.11,1.07,10.8-.83,28.78.19,57.56-.42,86.34.09,9.04-7.92,15.06-12.47,22.11-22.85,3.48-36.66,23.17-54.45,35.68,2.87-14.32,5.14-28.73,7.23-43.15-11.73-2.97-23.68-5.19-35.64-7.09,7.42-19.97,28.92-29.66,36.7-49.45-15.25-1.53-30.59-1.71-45.88-1.44-28.04.37-56.22-.19-83.98-5.01,18.03-4.96,36.66-6.72,55.24-7.6,8.3-1.02,19.42-.65,23.68-9.5-.74-16.59-10.75-35.45,2.27-49.68-3.61-.28-10.8-.88-14.41-1.21,5.42-4.73,10.89-9.55,17.56-12.42,33.27-14.69,67.71-26.83,100.2-43.38Z" fill="none" stroke-miterlimit="10"/>
  <path d="M937.99,463.08c32.53,2.32,65.44-11.77,97.37.6-2.69-.14-8.02-.46-10.71-.6-20.39,8.3-39.81,18.68-59.23,29.01-14.74-7.23-29.2-15.02-43.89-22.34,5.47-2.27,10.94-4.54,16.45-6.67Z" fill="none" stroke-miterlimit="10"/>
  <path d="M965.43,492.09c19.42-10.33,38.84-20.72,59.23-29.01,11.96,20.25,23.36,40.88,34.9,61.41,3.1,6.16,5.89,12.61,8.48,19.09-8.71-1.9-17.33-4.08-25.77-6.77-11.54-3.94-23.13-7.79-34.9-10.94,6.95,24.79,18.91,48.01,23.87,73.46-9.32-3.01-18.54-6.16-27.71-9.36,5.65,18.86,11.59,37.68,17.89,56.4-10.52,11.54-22.34,21.83-33.18,33.09-21.27-32.81-39.11-67.66-55.01-103.35,2.5-5.89,5.05-11.77,7.51-17.61,8.71-21.97,18.31-43.66,24.7-66.41Z" fill="none" stroke-miterlimit="10"/>
  <path d="M1024.65,463.08c2.69.14,8.02.46,10.71.6,11.68,2.5,23.5,4.45,35.36,6.26,6.63,12.79,13.12,25.63,20.35,38.14-12.74-.14-24.42,5.7-31.51,16.41-11.54-20.53-22.94-41.15-34.9-61.41Z" fill="none" stroke-miterlimit="10"/>
  <path d="M921.54,469.75c14.69,7.32,29.15,15.11,43.89,22.34-6.4,22.75-15.99,44.44-24.7,66.41-4.45-14.09-8.85-28.36-10.29-43.1-1.34-11.91-.46-24.66-7.83-34.85-.28-2.69-.79-8.06-1.07-10.8Z" fill="none" stroke-miterlimit="10"/>
  <path d="M624.52,521.29c8.48.32,17.61-1.07,25.35,3.48,17.98,9.22,38.56,10.47,57.42,17.24,18.35,6.58,36.89,12.79,55.75,17.75,17.33,4.4,34.16,12.74,52.46,11.35,3.15-15.66,5.7-31.75,2.18-47.55,15.29-.28,30.63-.09,45.88,1.44-7.79,19.79-29.29,29.47-36.7,49.45,11.96,1.9,23.91,4.12,35.64,7.09-2.09,14.41-4.36,28.83-7.23,43.15-1.02,1.9-3.06,5.7-4.08,7.65-46.9-24.1-95.7-44.12-142.37-68.54-27.95-14.46-57.37-26.18-84.3-42.5Z" fill="none" stroke-miterlimit="10"/>
  <path d="M469.92,556.37c.74-.93,2.22-2.87,2.97-3.8,1.58,0,4.82.09,6.44.09,14.92,8.53,32.02,10.1,48.85,11.08-25.58,14.6-49.12,32.35-73.69,48.48-4.03,2.36-8.06,4.73-12.14,7.04,10.1-20.53,23.64-39.9,27.57-62.89Z" fill="none" stroke-miterlimit="10"/>
  <path d="M336.96,631.54c21.97-.74,43.84,1.81,65.81,2.13,11.17.97,22.34,2.22,33.51,3.01,13.95,13.53,24.38,30.08,36.43,45.23,3.24,16.08,3.89,32.67,1.71,49.03-7.6-1.71-15.15-6.07-23.08-4.63-12.37,4.91-23.5,15.39-37.63,13.81-11.49-3.71-21.04-13.95-33.88-12.23-5.65,2.04-11.22,4.31-16.73,6.77-2.27-.6-6.77-1.71-9.04-2.32-.28-13.63-1.53-27.9,3.43-40.83,17.29-14.04,43.24-7.46,60.94-20.48-27.34-12.61-56.91-21.83-81.47-39.49" fill="none" stroke-miterlimit="10"/>
  <path d="M403.74,723.86c12.47,8.02,27.9,1.11,38.33-7.14-6.58.42-13.12.88-19.65,1.44-5.56-9.08-20.67-5.93-18.68,5.7Z" fill="none" stroke-miterlimit="10"/>
  <path d="M740.01,646.79c.65.7,1.85,2.04,2.5,2.73-2.04,5.56-4.36,11.08-7.14,16.36l-1.76,3.11c-22.75,23.17-40.92,51.44-54.32,80.96,4.96,5.33,9.92,10.66,14.83,16.08-22.94,12.37-45.28,25.81-68.08,38.47-9.27-1.48-18.44-3.01-27.67-4.59,4.03-.37,12.1-1.11,16.13-1.44-20.02-20.3-43.98-37.58-71.14-46.81-.37,3.75-1.11,11.26-1.48,15.02-3.34-8.85-5.05-19.33,2.46-26.6,13.25,3.61,26.42,8.2,40.41,6.53-6.07-5.65-12.23-11.22-18.31-16.82,6.44-1.9,12.93-3.8,19.46-5.42,2.46.09,7.37.23,9.82.32,25.26,3.48,41.52-18.95,57.88-34.06,8.76-9.27,22.57-8.06,33.92-11.63,18.44-8.94,36.19-19.74,52.46-32.21" fill="none" stroke-miterlimit="10"/>
  <path d="M618.26,753.61c-2.64,15.25-.97,30.91,3.61,45.65,16.04-15.25,31.61-31.1,46.67-47.27-16.78-1.99-33.55.32-50.28,1.62Z" fill="none" stroke-miterlimit="10"/>
  <path d="M1203.64,663.28c46.34,75.54,91.99,151.5,137.73,227.36-59.46,7.51-119.71,4.03-179.21,11.17l-4.5.23c3.61-6.86,9.69-13.53,7.79-21.83-4.26-22.34,13.3-40.74,13.53-62.75-.09-13.58,7.04-24.56,16.08-34.02,2.64-19.65,1.3-39.67,1.25-59.41.74-7.6-4.36-13.35-8.11-19.19,6.67-13.25,12.56-26.97,15.43-41.57Z" fill="none" stroke-miterlimit="10"/>
  <path d="M622.95,674.96c7.83-3.01,10.52-.83,8.06,6.58-7.88,3.01-10.57.83-8.06-6.58Z" fill="none" stroke-miterlimit="10"/>
  <path d="M413.7,740.12c14.13,1.58,25.26-8.9,37.63-13.81,7.92-1.44,15.48,2.92,23.08,4.63-.88,6.77-1.95,13.63-2.97,20.48-1.07-3.11-3.2-9.32-4.26-12.42-12,10.2-21.64,28.08-39.76,26.32-23.73,2.78-37.72-19.6-47.6-37.45,12.84-1.71,22.38,8.53,33.88,12.23Z" fill="none" stroke-miterlimit="10"/>
  <path d="M543.37,751.66c27.16,9.22,51.12,26.51,71.14,46.81-4.03.32-12.1,1.07-16.13,1.44-3.48-.56-10.47-1.76-14-2.36l-5.24-1.76c-13.58-6.12-24.52-16.5-36.19-25.44l-1.07-3.66c.37-3.75,1.11-11.26,1.48-15.02Z" fill="none" stroke-miterlimit="10"/>
  <path d="M605.61,838c-4.77-8.67-12.23-17.7-7.92-28.13,22.52,21.78,45.14,43.38,67.8,64.97,17.33,14.78,32.77,31.93,51.91,44.49,4.73,27.62,8.06,55.43,12.23,83.14,2.18,11.26-.79,22.52-5.05,32.95-17.52,43.75-34.29,87.82-50.56,132.03-3.24,4.03-6.58,8.06-9.92,12.05.7-37.77,10.94-75.08,8.39-112.85-7.04-16.68-16.5-32.12-25.49-47.73,6.26-17.7-3.1-34.16-10.61-49.59-11.77-27.57-33.55-49.96-42.45-78.78,30.22,23.87,47.64,60.39,78.65,83.51-5.75-20.25-17.1-38.09-25.91-57-13.67-26.37-25.4-53.81-41.06-79.06Z" fill="none" stroke-miterlimit="10"/>
  <path d="M520.15,881.52c7.55,6.35,15.9,11.73,24.1,17.29l-.97,2.32-1.11,2.6c-18.31,8.85-35.87,19.74-55.57,25.44,11.86-15.39,23.73-30.87,33.55-47.64Z" fill="none" stroke-miterlimit="10"/>
  <path d="M1157.66,902.05l4.5-.23c40.5,40.18,88.61,71.83,128.28,112.99,20.9,19.51,44.4,36.1,65.16,55.8,12.28,11.59,22.71,25.07,36.01,35.68l-.88,1.44c-62.84,13.16-127.08,18.4-189.78,32.39l-2.36-3.34c-8.9-40.41-14.23-81.57-21.69-122.26-6.86-37.4-11.26-75.31-19.23-112.48Z" fill="none" stroke-miterlimit="10"/>
  <path d="M486.6,929.16c19.7-5.7,37.26-16.59,55.57-25.44-6.02,15.94-15.8,30.08-22.94,45.56-.88,1.76-2.64,5.28-3.48,7.04-32.77,8.71-65.95,16.13-99.08,23.13,22.01-16.87,44.58-33.14,67.48-48.75l2.46-1.53Z" fill="none" stroke-miterlimit="10"/>
  <path d="M887.52,928.7c5.33-7,10.98-13.76,16.27-20.76-.97,6.07-1.76,12.23-2.64,18.4,11.91-7.97,25.86-1.53,38.74-.46.09,3.38.19,6.77.37,10.24,13.86,11.68,13.16,30.91,16.59,47.22,2.41,12.19-3.75,23.96-3.34,36.1,3.8,12.74,12.61,23.17,19.6,34.29-4.03,16.5,4.08,31.75,9.32,46.85,7.46,19.56,4.87,40.88,9.04,61.13-6.77,6.67-10.61,15.48-14.13,24.24-12.65,25.72-27.3,50.47-40.04,76.19-1.25-10.71-4.08-21.23-7.65-31.33,11.82-27.53,9.82-57.93,12.61-87.08,2.69-11.49,4.68-23.17,4.22-34.94-.83-32.39,1.02-64.84-1.62-97.09-23.22,19.6-33.51,51.26-59.92,67.71-5.65-.6-4.59-7.23-6.21-11.08-1.95-13.49-11.68-24.75-24.28-29.47-13.07-4.17-18.72-17.33-25.91-27.71,1.85-2.27,5.56-6.81,7.42-9.08,18.54-23.5,33.97-49.22,51.58-73.36Z" fill="none" stroke-miterlimit="10"/>
  <path d="M1523.22,1041.64c18.86-7.14,35.55-21.87,56.35-22.43-30.54,54.32-56.17,111.23-85.69,166.1-35.64-15.62-55.29-52.18-85.83-74.61-2.87-.7-8.57-2.09-11.45-2.78l-5.89-.19.88-1.44c1.2-2.18,3.66-6.49,4.87-8.67,45.51-10.2,83.37-40.09,126.75-55.98Z" fill="none" stroke-miterlimit="10"/>
  <path d="M438.4,1096.93c5.47.28,10.94.65,16.41,1.07,2.27.23,6.81.6,9.04.79,18.95,2.09,37.96,2.69,57,2.64,21.92.6,43.8,2.73,65.72,3.57,5.65.37,11.26.74,16.92,1.25-3.85,2.22-7.74,4.4-11.73,6.49-20.48,4.5-41.11,8.48-61.41,13.81-35.45,2.36-70.72-2.92-105.99-5.33-10.24-.79-20.48-1.76-30.73-2.41,5.98-19.33,28.64-18.17,44.77-21.87Z" fill="none" stroke-miterlimit="10"/>
  <path d="M398.64,1153.74c33.41-.42,66.87-.23,100.33.05,2.5.14,7.46.37,9.96.46,2.22,6.02,3.57,12.88,8.16,17.8,25.07,30.49,51.49,59.88,76.1,90.74,9.13,11.35,14.88,26.09,28.59,33.04-39.58,22.52-80.5,42.91-118.27,68.5-2.09.32-6.26.97-8.34,1.25-20.95-46.99-43.52-93.29-63.63-140.65-9.92-24.24-23.82-46.62-32.9-71.18Z" fill="none" stroke-miterlimit="10"/>
  <path d="M758.73,1195.59c-1.71-6.67,4.63-11.26,7.88-16.08,10.71,22.01,4.54,48.75,18.77,69.15,10.57-12.88,16.45-30.91,33.55-36.8,10.89,10.75,27.71,17.19,27.95,34.99,6.72-14.04,11.03-29.75,22.01-41.25-15.11,48.75-30.31,97.51-45.37,146.26-7.88-25.03-2.22-51.81-8.48-77.12-18.44,42.27-32.81,86.11-45.51,130.41-.23-5.56-.42-11.03-.51-16.5,1.67-9.82,2.78-19.79,1.48-29.66-3.75-36.98-.14-74.24-1.76-111.32-3.57-17.29-7.88-34.53-10.01-52.09Z" fill="none" stroke-miterlimit="10"/>
  <path d="M1120.03,1361.09c20.58-11.49,41.76-22.06,63.58-31.05,2.22,3.89,4.12,7.97,5.7,12.28,16.27,88.93,33.88,177.68,52.74,266.11,3.2,42.03,15.53,82.68,22.06,124.29,6.21,39.21,18.95,77.3,22.01,116.97-3.29-.05-9.92-.19-13.21-.23,1.2-2.04,2.41-3.99,3.66-5.89-3.61-12.23-5.51-25.63-14.51-35.31-7.23-10.52-21.36-12.19-28.96-22.29-17.01-19.97-32.77-41.11-51.4-59.64-7.69-7-11.59-16.78-17.15-25.26-12.56-9.59-28.36-13.72-41.39-22.57-8.11-7-12.33-17.15-17.52-26.18-.83,1.67-2.41,5.05-3.24,6.72-3.38-9.73-7.51-19.14-12.1-28.27-10.1-38.65-15.53-78.37-25.03-117.16-8.85-33.14-9.45-67.94-20.21-100.66l-.37-5.42c.7-1.11,2.13-3.24,2.83-4.36,4.36-5.75,9.22-11.08,13.95-16.45,4.26-2.32,8.62-4.36,12.98-6.4,17.38.56,31.1-11.35,45.56-19.23Z" fill="none" stroke-miterlimit="10"/>
  <path d="M502.78,1483.71c17.38-28.92,35.27-57.47,53.99-85.5,6.44,13.3,12.1,26.97,18.4,40.41,6.12-1.81,12.28-3.52,18.44-5.24,8.25,4.03,16.54,8.06,24.89,11.96l-2.18,3.24c-39.16,50.56-79.29,100.29-120.26,149.41-9.82-20.95-14.83-44.03-27.99-63.35,11.35-17.15,23.22-33.92,34.71-50.93Z" fill="none" stroke-miterlimit="10"/>
  <path d="M618.5,1445.34c5.51,2.5,11.08,5.05,16.64,7.51-3.24,7.23-1.2,14.78,1.76,21.74,16.73,41.48,27.3,85.23,45.28,126.29l-.28,3.38c-30.12,17.52-59.37,36.43-89.44,54.04-18.12,10.2-34.62,23.31-54.13,31.05,3.24-22.62,13.9-42.96,20.81-64.46,11.91-35.68,23.36-71.51,36.75-106.68,7.69-22.94,17.1-45.51,20.44-69.61l2.18-3.24Z" fill="none" stroke-miterlimit="10"/>
  <path d="M458.19,1674.93c2.83-46.76,5.89-93.57,9.87-140.28,13.16,19.33,18.17,42.4,27.99,63.35l-.83,1.2c-4.45,38.09-4.36,76.56-7.65,114.79-13.95-8.11-18.07-24.7-27.99-36.52l-1.39-2.55Z" fill="none" stroke-miterlimit="10"/>
  <path d="M613.91,1849.46c23.68-78.27,44.21-157.48,66.69-236.08,3.71,13.39,10.15,25.91,13.58,39.44,7.18,42.08,18.49,83.28,27.67,124.99,3.85,24.28,6.77,48.71,11.77,72.81-39.9-.37-79.85.88-119.71-1.16Z" fill="none" stroke-miterlimit="10"/>
  <path d="M1090.32,1630.76c4.59,9.13,8.71,18.54,12.1,28.27.83-1.67,2.41-5.05,3.24-6.72,5.19,9.04,9.41,19.19,17.52,26.18,13.02,8.85,28.83,12.98,41.39,22.57,5.56,8.48,9.45,18.26,17.15,25.26,18.63,18.54,34.39,39.67,51.4,59.64,7.6,10.1,21.74,11.77,28.96,22.29,8.99,9.69,10.89,23.08,14.51,35.31-1.25,1.9-2.46,3.85-3.66,5.89,3.29.05,9.92.19,13.21.23,12.14.32,24.33.88,36.47,1.95-5.56,4.03-12.74,2.27-19.14,2.78-41.9-.23-83.79.42-125.68-.28-17.75-6.3-33.09-18.07-49.54-27.11-1.2-13.53-3.48-26.88-7.32-39.86-12.23-42.96-15.9-87.82-27.76-130.88-2.32-8.34-2.36-17.05-2.83-25.54Z" fill="none" stroke-miterlimit="10"/>
  <rect x="100" y="100" width="1800" height="1800" fill="none" stroke-width="0"/>
</svg>