<?xml version="1.0" encoding="UTF-8"?>
<svg id="a" data-name="Capa 1" xmlns="http://www.w3.org/2000/svg" viewBox="0 0 2000 2000">
  <path d="M403.74,723.86c-1.99-11.63,13.12-14.78,18.68-5.7,6.53-.56,13.07-1.02,19.65-1.44-10.43,8.25-25.86,15.15-38.33,7.14Z" fill="#3ba1ac" stroke-width="0"/>
  <path d="M952.5,1536.5c31.65-42.36,60.15-87.03,92.22-128.98l.37,5.42c-17.01,105.48-28.22,211.79-44.3,317.41-5.19,41.43-13.76,82.45-16.82,124.16-22.99.37-45.97.23-68.96.09-21.04-55.47-51.67-106.92-72.57-162.44,35.64-52.65,73.36-103.81,110.07-155.67Z" fill="#666980" stroke-width="0"/>
  <path d="M1045.09,1412.95c10.75,32.72,11.35,67.52,20.21,100.66,9.5,38.79,14.92,78.51,25.03,117.16.46,8.48.51,17.19,2.83,25.54,11.86,43.05,15.53,87.91,27.76,130.88,3.85,12.98,6.12,26.32,7.32,39.86-13.39-6.81-25.81-15.39-39.44-21.64.09,16.22.19,32.49.32,48.8-35.04.51-70.07-.05-105.15.32,3.06-41.71,11.63-82.72,16.82-124.16,16.08-105.62,27.3-211.93,44.3-317.41Z" fill="#de4d58" stroke-width="0"/>
  <path d="M1584.07,1013.32c1.58.93,4.77,2.73,6.35,3.66,57.56,110.16,112.75,222.59,169.53,333.58-19.84,13.9-42.78,22.62-62.75,36.24-20.95,39.58-38.19,81.15-58.16,121.28-2.41-.83-7.23-2.5-9.69-3.34-.93,2.69-2.87,8.06-3.8,10.75-7.97-13.12-15.85-27.02-15.39-42.82-24.75-18.31-38.74-46.44-60.48-67.66-25.63-33.09-59.18-59.6-81.8-95.14-5.33-8.39-15.29-11.77-22.06-18.68-20.07-24.89-40.97-49.22-62.56-72.76,2.97-2.92,5.98-5.75,9.04-8.48,33.65-9.22,68.36-14.18,101.59-24.66,29.52-54.87,55.15-111.78,85.69-166.1,1.11-1.48,3.38-4.4,4.5-5.89Z" fill="#f49e38" stroke-width="0"/>
  <path d="M701.82,197.06c28.78-16.78,55.1-38.05,85.5-51.81-6.4,16.41-14.92,32.02-19.74,49.03,21.46-11.17,42.03-27.95,67.48-27.48,32.53-.6,65.07-1.85,97.65-1.9,4.22,3.52,8.48,7.04,12.74,10.61,32.77-7.42,65.53-15.02,98.57-20.9-5.19,13.12-12.28,25.4-17.89,38.33,19.05,5.19,38,10.8,57.28,15.29,6.53.97,11.49,5.56,15.9,10.24,17.38,18.35,35.18,36.38,52.09,55.2,10.57,14.55,31.65,10.29,45.32,19.56,18.54,21.78,36.29,44.21,54.5,66.23,8.2,10.66,18.03,20.39,23.36,33-9.32-2.27-18.44-4.91-27.48-7.97-1.58,1.53-4.77,4.59-6.4,6.07-18.95-.83-29.38-18.58-42.36-29.75-33.78-23.4-69.52-44.17-102.61-68.68-17.43-12.61-37.54-20.76-55.24-33-37.12-24.75-70.72-57.23-114.28-70.63-16.96-5.61-30.87,9.22-44.95,16.08-53.16,27.71-104,59.74-158.73,84.35-3.94-12.19-6.77-24.65-8.99-37.17-42.82,12.23-82.17,34.11-125.45,44.81-29.98,2.22-58.39,15.8-88.7,13.58,21.32-22.25,45-42.03,67.01-63.54,12.84-12.93,28.08-24.61,46.53-27.71-4.26,7.65-9.04,15.06-13.81,22.43,34.9-19.79,67.43-43.75,102.88-62.43-.05,4.54-.14,13.63-.19,18.17Z" fill="#f7a936" stroke-width="0"/>
  <path d="M881.27,204.57c14.09-6.86,27.99-21.69,44.95-16.08,43.56,13.39,77.16,45.88,114.28,70.63,17.7,12.23,37.82,20.39,55.24,33,33.09,24.52,68.82,45.28,102.61,68.68,12.98,11.17,23.4,28.92,42.36,29.75l5.84.88c24.79,23.26,49.22,46.95,74.61,69.56,4.12,3.57,7.97,7.6,10.52,12.61l-3.71-1.02c-94.68-53.48-188.25-108.91-283.07-162.16-7.18-2.64-14.6-4.59-21.92-6.53-3.15-4.5-6.16-9.08-9.64-13.21-12.42-4.26-26-2.13-38.93-2.41-55.57,1.81-111.41-2.97-166.79,3.66-41.62,1.11-83.37-.97-124.94,2.36-31.33,3.99-63.17,5.19-94.59,2.27,43.29-10.71,82.63-32.58,125.45-44.81,2.22,12.51,5.05,24.98,8.99,37.17,54.73-24.61,105.57-56.63,158.73-84.35Z" fill="#f3973b" stroke-width="0"/>
  <path d="M807.63,291.93c55.38-6.63,111.23-1.85,166.79-3.66,12.93.28,26.51-1.85,38.93,2.41,3.48,4.12,6.49,8.71,9.64,13.21,7.32,1.95,14.74,3.89,21.92,6.53-28.27,5.84-56.17-4.73-84.53-3.2-27.99,1.58-55.52-4.96-83.47-4.59-23.31-.32-46.34-5.51-69.7-3.99-29.29,1.39-58.63-1.71-87.87,0-46.16,10.43-78.55,47.18-116.65,72.44-35.64,32.3-72.57,63.07-107.52,96.07-19.93,15.29-38,32.86-54.13,52.09,2.55.7,7.6,2.13,10.15,2.83-5.65,3.24-11.59,6.53-18.31,6.58,8.9-36.61,10.29-74.52,15.76-111.69,2.18-13.44,2.6-27.11.88-40.6-10.75,11.17-14.41,27.95-28.5,36.01-2.83,7.46-5.47,15.06-8.57,22.48-2.55.74-7.69,2.32-10.24,3.11,3.48-16.36,5.56-34.39,14.6-48.61,27.53-26.37,53.9-54.18,82.58-79.2,30.31,2.22,58.72-11.35,88.7-13.58,31.42,2.92,63.26,1.71,94.59-2.27,41.57-3.34,83.33-1.25,124.94-2.36Z" fill="#f18c3e" stroke-width="0"/>
  <path d="M602.69,371.09c38.09-25.26,70.49-62.01,116.65-72.44,29.24-1.71,58.58,1.39,87.87,0,23.36-1.53,46.39,3.66,69.7,3.99,27.95-.37,55.47,6.16,83.47,4.59,28.36-1.53,56.26,9.04,84.53,3.2,94.82,53.25,188.39,108.68,283.07,162.16-9.45,7.32-23.13,9.45-30.03,19.79,14.04,7.74,35.22,7.14,41.94,24.19,30.96,57.93,62.61,115.58,92.13,174.21-12.98-3.57-24.42-10.57-34.85-18.82-28.13-22.71-62.75-35.18-92.04-56.17-29.61-22.34-62.47-39.72-94.36-58.44-10.89-6.63-21.41-13.9-33.37-18.49-3.2,25.95-6.67,56.03,12.19,77.49-2.22,1.85-6.63,5.56-8.85,7.42-11.86-18.17-22.43-37.12-33.14-55.98-19.6-36.06-36.01-73.73-55.52-109.79-3.71-10.1-15.85-9.87-24.33-13.07,6.4-12.88.74-26.65-1.81-39.62-5.84-25.16-10.38-50.56-16.54-75.63-1.95-4.12-2.22-13.35-8.99-11.17-13.76,5.14-25.54,14.46-38.23,21.74-27.99,18.17-57.47,34.06-83.93,54.55-32.49,16.54-66.92,28.69-100.2,43.38-6.67,2.87-12.14,7.69-17.56,12.42-9.32-.23-18.63-.19-27.9-.28-8.06-6.91-17.19-12.28-26.51-17.24-16.73-9.18-31.05-23.45-50.14-27.99-13.07,1.71-24.75,8.53-36.75,13.49-31.98,14.74-66.87,22.75-97.69,40.04,8.06,1.25,16.13,2.46,24.28,3.34-11.22,1.11-22.43,2.22-33.65,3.29-4.77,1.48-9.36,3.48-13.67,5.89-28.87,17.33-58.35,33.69-87.27,50.98-2.55-.7-7.6-2.13-10.15-2.83,16.13-19.23,34.2-36.8,54.13-52.09,34.94-33,71.88-63.77,107.52-96.07Z" fill="#ee7940" stroke-width="0"/>
  <path d="M1040.41,318.49c6.77-2.18,7.04,7.04,8.99,11.17,6.16,25.07,10.71,50.47,16.54,75.63,2.55,12.98,8.2,26.74,1.81,39.62-19.46-5.93-38.84-12.05-58.44-17.38-7.46-3.34-14.97-6.44-22.75-8.85-.19-4.31-.37-8.57-.51-12.79-22.15-5.61-44.54-15.66-67.8-11.12,26.46-20.48,55.94-36.38,83.93-54.55,12.7-7.28,24.47-16.59,38.23-21.74Z" fill="#eb6645" stroke-width="0"/>
  <path d="M421.02,412.38c14.09-8.06,17.75-24.84,28.5-36.01,1.71,13.49,1.3,27.16-.88,40.6-5.47,37.17-6.86,75.08-15.76,111.69-17.1-8.2-34.43-15.94-51.35-24.42,7.32-21.69,13.58-43.7,19.23-65.85l1.44-.42c2.55-.79,7.69-2.36,10.24-3.11,3.11-7.42,5.75-15.02,8.57-22.48Z" fill="#ed7641" stroke-width="0"/>
  <path d="M918.25,394.77c23.26-4.54,45.65,5.51,67.8,11.12.14,4.22.32,8.48.51,12.79,7.79,2.41,15.29,5.51,22.75,8.85-23.22,12.93-48.06,22.62-71.32,35.55-5.51,2.13-10.98,4.4-16.45,6.67.28,2.73.79,8.11,1.07,10.8-.83,28.78.19,57.56-.42,86.34.09,9.04-7.92,15.06-12.47,22.11-22.85,3.48-36.66,23.17-54.45,35.68,2.87-14.32,5.14-28.73,7.23-43.15-11.73-2.97-23.68-5.19-35.64-7.09,7.42-19.97,28.92-29.66,36.7-49.45-15.25-1.53-30.59-1.71-45.88-1.44-28.04.37-56.22-.19-83.98-5.01,18.03-4.96,36.66-6.72,55.24-7.6,8.3-1.02,19.42-.65,23.68-9.5-.74-16.59-10.75-35.45,2.27-49.68-3.61-.28-10.8-.88-14.41-1.21,5.42-4.73,10.89-9.55,17.56-12.42,33.27-14.69,67.71-26.83,100.2-43.38Z" fill="#eb6150" stroke-width="0"/>
  <path d="M659.19,418.54c12-4.96,23.68-11.77,36.75-13.49,19.09,4.54,33.41,18.82,50.14,27.99,9.32,4.96,18.44,10.33,26.51,17.24-16.68-.28-33.32,1.3-49.77,3.89-45.6,4.12-91.39,4.31-137.04,7.74-8.16-.88-16.22-2.09-24.28-3.34,30.82-17.29,65.72-25.3,97.69-40.04Z" fill="#ea5b4b" stroke-width="0"/>
  <path d="M937.99,463.08c23.26-12.93,48.11-22.62,71.32-35.55,19.6,5.33,38.98,11.45,58.44,17.38,8.48,3.2,20.62,2.97,24.33,13.07,19.51,36.06,35.92,73.73,55.52,109.79-16.87-11.03-27.06-29.52-44.49-39.95-4.08-6.58-8.16-13.16-12.05-19.74-7.23-12.51-13.72-25.35-20.35-38.14-11.86-1.81-23.68-3.75-35.36-6.26-31.93-12.37-64.84,1.71-97.37-.6Z" fill="#b7d7a3" stroke-width="0"/>
  <path d="M722.82,454.18c16.45-2.6,33.09-4.17,49.77-3.89,9.27.09,18.58.05,27.9.28,3.61.32,10.8.93,14.41,1.21-13.02,14.23-3.01,33.09-2.27,49.68-4.26,8.85-15.39,8.48-23.68,9.5-18.58.88-37.21,2.64-55.24,7.6,27.76,4.82,55.94,5.38,83.98,5.01,3.52,15.8.97,31.88-2.18,47.55-18.31,1.39-35.13-6.95-52.46-11.35-18.86-4.96-37.4-11.17-55.75-17.75-18.86-6.77-39.44-8.02-57.42-17.24-7.74-4.54-16.87-3.15-25.35-3.48l-4.22-1.25c30.12-14.97,63.21-22.66,92.97-38.33,17.19-8.81,35.22-15.9,52.23-25.12-14.27,0-28.5-.88-42.68-2.41Z" fill="#ef7f46" stroke-width="0"/>
  <path d="M585.78,461.92c45.65-3.43,91.44-3.61,137.04-7.74,14.18,1.53,28.41,2.41,42.68,2.41-17.01,9.22-35.04,16.31-52.23,25.12-29.75,15.66-62.84,23.36-92.97,38.33l-2.22-.46c-22.01-18.12-43.47-36.84-65.95-54.36,11.22-1.07,22.43-2.18,33.65-3.29Z" fill="#f49a3b" stroke-width="0"/>
  <path d="M937.99,463.08c32.53,2.32,65.44-11.77,97.37.6-2.69-.14-8.02-.46-10.71-.6-20.39,8.3-39.81,18.68-59.23,29.01-14.74-7.23-29.2-15.02-43.89-22.34,5.47-2.27,10.94-4.54,16.45-6.67Z" fill="#79c3b0" stroke-width="0"/>
  <path d="M538.46,471.1c4.31-2.41,8.9-4.4,13.67-5.89,22.48,17.52,43.93,36.24,65.95,54.36-16.92,2.69-33.65,6.26-50.24,10.52-29.71,6.63-59.46,13.35-88.52,22.57-1.62,0-4.87-.09-6.44-.09,14.83-24.89,37.77-43.1,57.7-63.58,5.42-4.45,7-11.35,7.88-17.89Z" fill="#d5e193" stroke-width="0"/>
  <path d="M965.43,492.09c19.42-10.33,38.84-20.72,59.23-29.01,11.96,20.25,23.36,40.88,34.9,61.41,3.1,6.16,5.89,12.61,8.48,19.09-8.71-1.9-17.33-4.08-25.77-6.77-11.54-3.94-23.13-7.79-34.9-10.94,6.95,24.79,18.91,48.01,23.87,73.46-9.32-3.01-18.54-6.16-27.71-9.36,5.65,18.86,11.59,37.68,17.89,56.4-10.52,11.54-22.34,21.83-33.18,33.09-21.27-32.81-39.11-67.66-55.01-103.35,2.5-5.89,5.05-11.77,7.51-17.61,8.71-21.97,18.31-43.66,24.7-66.41Z" fill="#2a1b42" stroke-width="0"/>
  <path d="M1024.65,463.08c2.69.14,8.02.46,10.71.6,11.68,2.5,23.5,4.45,35.36,6.26,6.63,12.79,13.12,25.63,20.35,38.14-12.74-.14-24.42,5.7-31.51,16.41-11.54-20.53-22.94-41.15-34.9-61.41Z" fill="#16567e" stroke-width="0"/>
  <path d="M451.19,522.07c28.92-17.29,58.39-33.65,87.27-50.98-.88,6.53-2.46,13.44-7.88,17.89-19.93,20.48-42.87,38.7-57.7,63.58-.74.93-2.22,2.87-2.97,3.8-14.13,8.62-28.08,17.56-42.4,25.91-36.01-10.33-72.2-20.11-108.17-30.68,3.48-7.37,10.66-11.45,17.1-15.85,15.34-10.06,29.15-22.34,45.09-31.51,16.92,8.48,34.25,16.22,51.35,24.42,6.72-.05,12.65-3.34,18.31-6.58Z" fill="#e6e898" stroke-width="0"/>
  <path d="M921.54,469.75c14.69,7.32,29.15,15.11,43.89,22.34-6.4,22.75-15.99,44.44-24.7,66.41-4.45-14.09-8.85-28.36-10.29-43.1-1.34-11.91-.46-24.66-7.83-34.85-.28-2.69-.79-8.06-1.07-10.8Z" fill="#21537e" stroke-width="0"/>
  <path d="M922.61,480.55c7.37,10.2,6.49,22.94,7.83,34.85,1.44,14.74,5.84,29.01,10.29,43.1-2.46,5.84-5.01,11.73-7.51,17.61,15.9,35.68,33.74,70.54,55.01,103.35-1.39,10.33-2.69,20.67-3.94,31-14.55-11.63-28.92-23.5-42.91-35.82,9.18,1.39,18.31,2.69,27.48,3.99-12.61-17.29-28.73-31.51-42.13-48.15,9.87,3.43,19.6,7.28,29.38,11.03-14.13-18.68-30.17-35.73-46.39-52.51,4.54-7.04,12.56-13.07,12.47-22.11.6-28.78-.42-57.56.42-86.34Z" fill="#253467" stroke-width="0"/>
  <path d="M1059.55,524.48c7.09-10.71,18.77-16.54,31.51-16.41,3.89,6.58,7.97,13.16,12.05,19.74,5.1,14.04,13.35,26.6,20.35,39.76,2.83,14.18-.32,28.87.46,43.29-2.41,1.76-7.18,5.24-9.59,6.95-40.83,33.74-78.41,71.32-119.47,104.88-3.2-4.4-6.77-8.48-10.57-12.23,1.25-10.33,2.55-20.67,3.94-31,10.84-11.26,22.66-21.55,33.18-33.09,18.91-33.6,11.96-73.41,20.85-109.56,8.43,2.69,17.05,4.87,25.77,6.77-2.6-6.49-5.38-12.93-8.48-19.09Z" fill="#147b8f" stroke-width="0"/>
  <path d="M567.84,530.09c16.59-4.26,33.32-7.83,50.24-10.52l-.23,2.55c-1.02,1.62-3.1,4.87-4.12,6.49-21.5,15.85-48.2,20.67-71.69,32.49-3.48.7-10.38,1.99-13.86,2.64,9.18-14.09,26.46-17.52,39.72-26.28,0-1.85-.05-5.51-.05-7.37Z" fill="#4dbbbd" stroke-width="0"/>
  <path d="M618.08,519.57l2.22.46,4.22,1.25c26.93,16.31,56.35,28.04,84.3,42.5,46.67,24.42,95.47,44.44,142.37,68.54-.83,35.64-12.88,70.07-12.7,105.8.46,54.59,1.58,109.19.7,163.78.14,5.65.37,11.31.65,17.05,11.77-6.91,22.8-14.92,33.28-23.54,10.61,7.65,15.39,20.44,14.41,33.27-17.61,24.15-33.04,49.87-51.58,73.36-9.04-40.46-17.43-81.1-27.57-121.28-1.34-8.48-7.51-14.41-13.3-20.07.56-6.16,1.16-12.33,1.99-18.35,5.1-29.89,1.02-60.29,2.41-90.42-.88-13.58,3.24-29.61-6.77-40.74-16.73-20.58-32.53-41.9-50.19-61.68-.65-.7-1.85-2.04-2.5-2.73-41.57-40.69-81.57-83-122.16-124.67l.23-2.55Z" fill="#e24559" stroke-width="0"/>
  <path d="M624.52,521.29c8.48.32,17.61-1.07,25.35,3.48,17.98,9.22,38.56,10.47,57.42,17.24,18.35,6.58,36.89,12.79,55.75,17.75,17.33,4.4,34.16,12.74,52.46,11.35,3.15-15.66,5.7-31.75,2.18-47.55,15.29-.28,30.63-.09,45.88,1.44-7.79,19.79-29.29,29.47-36.7,49.45,11.96,1.9,23.91,4.12,35.64,7.09-2.09,14.41-4.36,28.83-7.23,43.15-1.02,1.9-3.06,5.7-4.08,7.65-46.9-24.1-95.7-44.12-142.37-68.54-27.95-14.46-57.37-26.18-84.3-42.5Z" fill="#ed7346" stroke-width="0"/>
  <path d="M613.72,528.61c1.02-1.62,3.11-4.87,4.12-6.49,40.6,41.66,80.59,83.98,122.16,124.67-44.86-27.06-89.35-55.06-131.8-85.83,9.27-8.94,8.67-20.76,5.51-32.35Z" fill="#41859a" stroke-width="0"/>
  <path d="M1007.37,525.87c11.77,3.15,23.36,7,34.9,10.94-8.9,36.15-1.95,75.96-20.85,109.56-6.3-18.72-12.23-37.54-17.89-56.4,9.18,3.2,18.4,6.35,27.71,9.36-4.96-25.44-16.92-48.66-23.87-73.46Z" fill="#24496c" stroke-width="0"/>
  <path d="M542.03,561.1c23.5-11.82,50.19-16.64,71.69-32.49,3.15,11.59,3.75,23.4-5.51,32.35-6.12-.28-12.23-.37-18.31-.28-15.94.56-31.93,1.02-47.87.42Z" fill="#2b8da0" stroke-width="0"/>
  <path d="M1103.12,527.82c17.43,10.43,27.62,28.92,44.49,39.95,2.18,16.22-2.64,32.07-4.31,48.11-1.9,13.81-2.32,28.5-9.55,40.92-5.33-14.83-8.25-30.36-9.82-45.93-.79-14.41,2.36-29.1-.46-43.29-7-13.16-15.25-25.72-20.35-39.76Z" fill="#63beb2" stroke-width="0"/>
  <path d="M479.33,552.66c29.06-9.22,58.81-15.94,88.52-22.57,0,1.85.05,5.51.05,7.37-13.25,8.76-30.54,12.19-39.72,26.28-16.82-.97-33.92-2.55-48.85-11.08Z" fill="#0db0b5" stroke-width="0"/>
  <path d="M1189.59,616.34c-18.86-21.46-15.39-51.53-12.19-77.49,11.96,4.59,22.48,11.86,33.37,18.49,31.88,18.72,64.74,36.1,94.36,58.44,29.29,20.99,63.91,33.46,92.04,56.17-8.06-1.3-16.17-2.09-24.28-2.87,6.16,7.55,13.35,14.46,18.03,23.17-1.76,4.36-3.89,8.67-5.93,13.02,5.01,7.65,8.53,16.08,9.82,25.21,3.15,21.36,19.23,37.58,24.42,58.25,6.35,22.2,16.82,42.96,22.2,65.44,2.6,13.16,12.37,23.22,16.13,36.01,3.85,10.94,5.98,24.24,17.7,29.71,4.26,19.33,12.23,37.86,27.95,50.75-53.39-17.84-97.28-59.13-154.65-65.9-2.22-4.87-4.68-9.5-7.18-14.09-45.74-75.87-91.39-151.82-137.73-227.36-8.2-12.84-15.06-26.46-22.89-39.53,2.22-1.85,6.63-5.56,8.85-7.42Z" fill="#f0853b" stroke-width="0"/>
  <path d="M296.27,565.92c6.44-5.14,12.84-10.29,19.14-15.53l3.94,1.2c35.96,10.57,72.16,20.34,108.17,30.68,14.32-8.34,28.27-17.29,42.4-25.91-3.94,22.99-17.47,42.36-27.57,62.89-4.5,2.6-9.22,4.91-14.27,6.3-7.55-2.69-14.92-5.89-22.25-9.04-28.22-18.63-55.71-38.7-85.41-54.78-14.46,9.18-14.13,32.63-28.59,43.7,1.44-13.21,3.06-26.37,4.45-39.53Z" fill="#10b0b3" stroke-width="0"/>
  <path d="M469.92,556.37c.74-.93,2.22-2.87,2.97-3.8,1.58,0,4.82.09,6.44.09,14.92,8.53,32.02,10.1,48.85,11.08-25.58,14.6-49.12,32.35-73.69,48.48-4.03,2.36-8.06,4.73-12.14,7.04,10.1-20.53,23.64-39.9,27.57-62.89Z" fill="#157f90" stroke-width="0"/>
  <path d="M291.82,605.45c14.46-11.08,14.13-34.53,28.59-43.7,29.71,16.08,57.19,36.15,85.41,54.78-30.08-3.34-59.55-11.86-89.77-13.53-12.65,7.18,7.51,15.06,12.51,20.85,1.62,10.52,3.34,21.04,5.1,31.56,4.59,27.62,4.4,55.71,4.5,83.65-15.62-36.98-29.66-74.66-44.63-111.87-3.89-6.91-3.29-14.46-1.71-21.74Z" fill="#17879c" stroke-width="0"/>
  <path d="M528.17,563.74c3.48-.65,10.38-1.95,13.86-2.64,15.94.6,31.93.14,47.87-.42,2.92,4.82,5.79,9.73,8.85,14.55-2.41-.65-7.23-1.95-9.64-2.55-22.48,12-44.03,25.67-65.72,39.07-4.73,3.75-12.88,6.77-11.17,14.37,1.85,30.08,8.16,59.88,7.42,90.14-11.54-11.08-18.54-25.58-26.65-39.11-12.65-21.74-26.93-42.54-38.51-64.93,24.56-16.13,48.1-33.88,73.69-48.48Z" fill="#2c3061" stroke-width="0"/>
  <path d="M589.9,560.68c6.07-.09,12.19,0,18.31.28,42.45,30.77,86.94,58.76,131.8,85.83-16.27,12.47-34.02,23.26-52.46,32.21-12.56.7-25.12.05-37.68.23.19-13.9,12.98-16.22,24.05-17.47-19.88-33.14-51.63-56.45-75.17-86.52-3.06-4.82-5.93-9.73-8.85-14.55Z" fill="#29426e" stroke-width="0"/>
  <path d="M1147.61,567.77c10.71,18.86,21.27,37.82,33.14,55.98,7.83,13.07,14.69,26.69,22.89,39.53-2.87,14.6-8.76,28.32-15.43,41.57,3.75,5.84,8.85,11.59,8.11,19.19.05,19.74,1.39,39.76-1.25,59.41-9.04,9.45-16.17,20.44-16.08,34.02-.23,22.01-17.8,40.41-13.53,62.75,1.9,8.3-4.17,14.97-7.79,21.83l-1.53-.6c-25.44-9.27-53.43-10.01-78.14-21.55-8.94-6.86-13.07-18.12-19.09-27.34-18.07-29.38-35.41-59.23-52.65-89.07,19.97,2.13,39.21,10.71,59.37,10.52,16.27-14.78,36.19-29.57,42.08-51.81,6.49-20.25,16.36-39.25,22.89-59.51.79-1.48,2.36-4.4,3.15-5.89,7.23-12.42,7.65-27.11,9.55-40.92,1.67-16.04,6.49-31.88,4.31-48.11Z" fill="#e6434f" stroke-width="0"/>
  <path d="M523.4,611.75c21.69-13.39,43.24-27.06,65.72-39.07,2.41.6,7.23,1.9,9.64,2.55,23.54,30.08,55.29,53.39,75.17,86.52-11.08,1.25-23.87,3.57-24.05,17.47-16.45,5.47-30.68,15.43-45.6,23.91-7.42-.32-14.83-1.07-22.2-2.13-4.87-.93-9.73-1.9-14.6-2.87-5.75-6.16-11.96-11.73-18.72-16.64-5.61,8.11-10.66,16.54-15.9,24.93-4.31,3.34-8.81,6.53-13.21,9.82.74-30.26-5.56-60.06-7.42-90.14-1.71-7.6,6.44-10.61,11.17-14.37" fill="#2c1e4a" stroke-width="0"/>
  <path d="M590.46,690.12c9.04-.74,18.07-1.85,26.97-3.8-1.58-4.26-3.11-8.43-4.63-12.61-10.38.74-27.02,1.16-22.34,16.41" fill="#2c1e4a" stroke-width="0"/>
  <path d="M622.95,674.96c-2.5,7.42.19,9.59,8.06,6.58,2.46-7.42-.23-9.59-8.06-6.58Z" fill="#2c1e4a" stroke-width="0"/>
  <path d="M855.27,624.68c17.8-12.51,31.61-32.21,54.45-35.68,16.22,16.78,32.26,33.83,46.39,52.51-9.78-3.75-19.51-7.6-29.38-11.03,13.39,16.64,29.52,30.87,42.13,48.15-9.18-1.3-18.31-2.6-27.48-3.99,14,12.33,28.36,24.19,42.91,35.82,3.8,3.75,7.37,7.83,10.57,12.23.6,1.07,1.9,3.11,2.5,4.17-2.97-.79-8.9-2.36-11.86-3.15-3.01-.93-9.04-2.83-12.05-3.75,3.57,4.96,7.18,9.87,10.94,14.83-7.28.23-13.9,3.1-18.49,8.9-13.3,14.46-28.59,27.16-40.88,42.54-5.47,7.97,2.27,15.62,6.49,21.97-4.4,7.46-8.67,15.06-12.37,22.99,12.23-4.82,20.25-16.73,33.55-19.28-13.07,18.54-34.02,28.69-48.89,45.46-15.06,16.13-32.02,30.54-50.28,42.96-4.08,3.24-9.64,1.07-14.32,1.58.88-54.59-.23-109.19-.7-163.78-.19-35.73,11.86-70.16,12.7-105.8,1.02-1.95,3.06-5.75,4.08-7.65Z" fill="#ea5a46" stroke-width="0"/>
  <path d="M328.57,623.85c-5.01-5.79-25.16-13.67-12.51-20.85,30.22,1.67,59.69,10.2,89.77,13.53,7.32,3.15,14.69,6.35,22.25,9.04-8.53,2.46-16.92,5.24-25.3,8.11-21.97-.32-43.84-2.87-65.81-2.13l-3.34-.23c-.09,8.02-.19,16.04.05,24.1-1.76-10.52-3.48-21.04-5.1-31.56Z" fill="#13718b" stroke-width="0"/>
  <path d="M442.34,619.26c4.08-2.32,8.11-4.68,12.14-7.04,11.59,22.38,25.86,43.19,38.51,64.93,8.11,13.53,15.11,28.04,26.65,39.11,4.4-3.29,8.9-6.49,13.21-9.82,16.45,5.93,33.74.74,49.22-5.42,7.37,1.07,14.78,1.81,22.2,2.13-5.84,1.9-11.82,3.43-17.7,5.1,3.34,2.69,6.72,5.38,10.1,8.16-.23,2.09-.7,6.21-.93,8.3-2.46-.09-7.37-.23-9.82-.32-12.47-2.18-25.58-1.3-32.26,10.98-4.77-6.4-9.69-12.7-14.69-18.82-4.91,7.51-9.87,14.97-14.41,22.71-2.13-14.46-14.88-22.71-24.28-32.35-8.81-8.85-17.98-17.15-27.57-24.98-12.05-15.15-22.48-31.7-36.43-45.23-11.17-.79-22.34-2.04-33.51-3.01,8.39-2.87,16.78-5.65,25.3-8.11,5.05-1.39,9.78-3.71,14.27-6.3Z" fill="#1a5677" stroke-width="0"/>
  <path d="M1114.33,617.82c2.41-1.71,7.18-5.19,9.59-6.95,1.58,15.57,4.5,31.1,9.82,45.93-.79,1.48-2.36,4.4-3.15,5.89-24.89,19.97-42.68,46.99-63.49,70.91-11.03.09-22.06.56-33.04-.23,13.53-16.27,25.03-34.06,37.45-51.16,14.83-21.09,31.24-41.2,42.82-64.37Z" fill="#2fb5b6" stroke-width="0"/>
  <path d="M994.86,722.7c41.06-33.55,78.65-71.14,119.47-104.88-11.59,23.17-27.99,43.29-42.82,64.37-12.42,17.1-23.91,34.9-37.45,51.16-12.37-1.16-24.75-3.11-36.7-6.49-.6-1.07-1.9-3.11-2.5-4.17Z" fill="#15a7af" stroke-width="0"/>
  <path d="M333.62,631.31l3.34.23c24.56,17.66,54.13,26.88,81.47,39.49-17.7,13.02-43.66,6.44-60.94,20.48-4.96,12.93-3.71,27.2-3.43,40.83,2.27.6,6.77,1.71,9.04,2.32-7.42,4.59-14.78,9.27-22.43,13.63l-1.39.83c-.28-2.5-.83-7.55-1.11-10.06-.09-27.95.09-56.03-4.5-83.65-.23-8.06-.14-16.08-.05-24.1Z" fill="#2b2f5f" stroke-width="0"/>
  <path d="M336.96,631.54c21.97-.74,43.84,1.81,65.81,2.13,11.17.97,22.34,2.22,33.51,3.01,13.95,13.53,24.38,30.08,36.43,45.23,3.24,16.08,3.89,32.67,1.71,49.03-7.6-1.71-15.15-6.07-23.08-4.63-12.37,4.91-23.5,15.39-37.63,13.81-11.49-3.71-21.04-13.95-33.88-12.23-5.65,2.04-11.22,4.31-16.73,6.77-2.27-.6-6.77-1.71-9.04-2.32-.28-13.63-1.53-27.9,3.43-40.83,17.29-14.04,43.24-7.46,60.94-20.48-27.34-12.61-56.91-21.83-81.47-39.49" fill="#2b1d48" stroke-width="0"/>
  <path d="M403.74,723.86c12.47,8.02,27.9,1.11,38.33-7.14-6.58.42-13.12.88-19.65,1.44-5.56-9.08-20.67-5.93-18.68,5.7Z" fill="#2b1d48" stroke-width="0"/>
  <path d="M740.01,646.79c.65.7,1.85,2.04,2.5,2.73-2.04,5.56-4.36,11.08-7.14,16.36l-1.76,3.11c-22.75,23.17-40.92,51.44-54.32,80.96,4.96,5.33,9.92,10.66,14.83,16.08-22.94,12.37-45.28,25.81-68.08,38.47-9.27-1.48-18.44-3.01-27.67-4.59,4.03-.37,12.1-1.11,16.13-1.44-20.02-20.3-43.98-37.58-71.14-46.81-.37,3.75-1.11,11.26-1.48,15.02-3.34-8.85-5.05-19.33,2.46-26.6,13.25,3.61,26.42,8.2,40.41,6.53-6.07-5.65-12.23-11.22-18.31-16.82,6.44-1.9,12.93-3.8,19.46-5.42,2.46.09,7.37.23,9.82.32,25.26,3.48,41.52-18.95,57.88-34.06,8.76-9.27,22.57-8.06,33.92-11.63,18.44-8.94,36.19-19.74,52.46-32.21" fill="#1198a5" stroke-width="0"/>
  <path d="M618.26,753.61c-2.64,15.25-.97,30.91,3.61,45.65,16.04-15.25,31.61-31.1,46.67-47.27-16.78-1.99-33.55.32-50.28,1.62Z" fill="#1198a5" stroke-width="0"/>
  <path d="M742.51,649.52c17.66,19.79,33.46,41.11,50.19,61.68,10.01,11.12,5.89,27.16,6.77,40.74-1.39,30.12,2.69,60.53-2.41,90.42-1.58,1.34-4.77,3.99-6.35,5.33-1.48,8.48-2.18,17.1-3.29,25.72-16.41-69.42-35.92-138.06-52.04-207.53,2.78-5.28,5.1-10.8,7.14-16.36Z" fill="#ca3b5a" stroke-width="0"/>
  <path d="M1067.11,733.59c20.81-23.91,38.6-50.93,63.49-70.91-6.53,20.25-16.41,39.25-22.89,59.51-8.62,3.71-17.24,7.55-25.4,12.19-3.8-.19-11.4-.6-15.2-.79Z" fill="#207595" stroke-width="0"/>
  <path d="M1203.64,663.28c46.34,75.54,91.99,151.5,137.73,227.36-59.46,7.51-119.71,4.03-179.21,11.17l-4.5.23c3.61-6.86,9.69-13.53,7.79-21.83-4.26-22.34,13.3-40.74,13.53-62.75-.09-13.58,7.04-24.56,16.08-34.02,2.64-19.65,1.3-39.67,1.25-59.41.74-7.6-4.36-13.35-8.11-19.19,6.67-13.25,12.56-26.97,15.43-41.57Z" fill="#e84949" stroke-width="0"/>
  <path d="M679.3,749.95c13.39-29.52,31.56-57.79,54.32-80.96-10.06,32.63-24.28,63.77-36.84,95.47l-2.64,1.58c-4.91-5.42-9.87-10.75-14.83-16.08Z" fill="#197e98" stroke-width="0"/>
  <path d="M733.61,668.98l1.76-3.11c16.13,69.47,35.64,138.11,52.04,207.53-13.76,48.8-40.32,93.57-52.79,142.88,1.34,26.23,16.13,49.96,17.98,76.42-.14,2.5-.37,7.55-.46,10.06l-4.12,2.09c-10.57,4.17-17.56,13.35-25.21,21.23-15.39,16.45-31.79,31.98-46.95,48.61-.46-1.81-1.39-5.42-1.85-7.23,16.27-44.21,33.04-88.29,50.56-132.03,4.26-10.43,7.23-21.69,5.05-32.95-4.17-27.71-7.51-55.52-12.23-83.14-5.98-51.77-15.76-103.07-20.62-154.88,12.56-31.7,26.79-62.84,36.84-95.47Z" fill="#9c2e52" stroke-width="0"/>
  <path d="M1372.88,669.08c8.11.79,16.22,1.58,24.28,2.87,10.43,8.25,21.87,15.25,34.85,18.82l1.3.46c45.46,85.92,92.55,171.01,136.9,257.58,5.24,12.65,15.39,25.03,12.61,39.53-.74,10.06,5.33,19.05,7.6,28.64-1.58-.93-4.77-2.73-6.35-3.66-26.18-15.62-53.3-29.66-80.87-42.68-15.71-12.88-23.68-31.42-27.95-50.75-11.73-5.47-13.86-18.77-17.7-29.71-3.75-12.79-13.53-22.85-16.13-36.01-5.38-22.48-15.85-43.24-22.2-65.44-5.19-20.67-21.27-36.89-24.42-58.25-1.3-9.13-4.82-17.56-9.82-25.21,2.04-4.36,4.17-8.67,5.93-13.02-4.68-8.71-11.86-15.62-18.03-23.17Z" fill="#f2933b" stroke-width="0"/>
  <path d="M590.46,690.12c-4.68-15.25,11.96-15.66,22.34-16.41,1.53,4.17,3.06,8.34,4.63,12.61-8.9,1.95-17.94,3.06-26.97,3.8Z" fill="#22a5c5" stroke-width="0"/>
  <path d="M622.95,674.96c7.83-3.01,10.52-.83,8.06,6.58-7.88,3.01-10.57.83-8.06-6.58Z" fill="#2a6a94" stroke-width="0"/>
  <path d="M649.87,679.23c12.56-.19,25.12.46,37.68-.23-11.35,3.57-25.16,2.36-33.92,11.63-16.36,15.11-32.63,37.54-57.88,34.06.23-2.09.7-6.21.93-8.3-3.38-2.78-6.77-5.47-10.1-8.16,5.89-1.67,11.86-3.2,17.7-5.1,14.92-8.48,29.15-18.44,45.6-23.91Z" fill="#147996" stroke-width="0"/>
  <path d="M472.7,681.91c9.59,7.83,18.77,16.13,27.57,24.98,9.41,9.64,22.15,17.89,24.28,32.35-.7,9.18-1.07,18.35-.65,27.62-5.1-9.41-10.43-18.63-15.62-27.9-11.86,13.95-20.44,30.54-34.2,42.78.37-8.76,10.2-20.3.42-26.65-11.12,6.53-19.42,16.5-28.27,25.58-26.14,17.75-57.47,25.12-85.27,39.76-5.89,1.9-11.73,3.85-17.47,6.16-.56-26.14-3.43-52.18-2.83-78.32,7.65-4.36,15.02-9.04,22.43-13.63,5.51-2.46,11.08-4.73,16.73-6.77,9.87,17.84,23.87,40.23,47.6,37.45,18.12,1.76,27.76-16.13,39.76-26.32,1.07,3.11,3.2,9.32,4.26,12.42,1.02-6.86,2.09-13.72,2.97-20.48,2.18-16.36,1.53-32.95-1.71-49.03Z" fill="#0ea3a9" stroke-width="0"/>
  <path d="M548.75,681.5c6.77,4.91,12.98,10.47,18.72,16.64,4.87.97,9.73,1.95,14.6,2.87-15.48,6.16-32.77,11.35-49.22,5.42,5.24-8.39,10.29-16.82,15.9-24.93Z" fill="#22345b" stroke-width="0"/>
  <path d="M524.56,739.24c4.54-7.74,9.5-15.2,14.41-22.71,5.01,6.12,9.92,12.42,14.69,18.82,6.67-12.28,19.79-13.16,32.26-10.98-6.53,1.62-13.02,3.52-19.46,5.42,6.07,5.61,12.23,11.17,18.31,16.82-14,1.67-27.16-2.92-40.41-6.53-7.51,7.28-5.79,17.75-2.46,26.6l1.07,3.66c8.02,26.69,17.94,53.02,22.06,80.73-10.24-14.88-19.09-30.63-26.46-47.09-3.43-12.93-8.34-25.4-14.64-37.12-.42-9.27-.05-18.44.65-27.62Z" fill="#12748a" stroke-width="0"/>
  <path d="M413.7,740.12c14.13,1.58,25.26-8.9,37.63-13.81,7.92-1.44,15.48,2.92,23.08,4.63-.88,6.77-1.95,13.63-2.97,20.48-1.07-3.11-3.2-9.32-4.26-12.42-12,10.2-21.64,28.08-39.76,26.32-23.73,2.78-37.72-19.6-47.6-37.45,12.84-1.71,22.38,8.53,33.88,12.23Z" fill="#186a89" stroke-width="0"/>
  <path d="M973.44,719.96c3.01.93,9.04,2.83,12.05,3.75,8.11,14.13,24.56,18.58,38.33,25.21,7.79,2.83,15.71,7.23,24.24,6.49,12.51-5.05,22.89-13.9,34.25-21.04,8.16-4.63,16.78-8.48,25.4-12.19-5.89,22.25-25.81,37.03-42.08,51.81-20.16.19-39.39-8.39-59.37-10.52-6.77-9.96-14.55-19.19-21.87-28.69-3.75-4.96-7.37-9.87-10.94-14.83Z" fill="#381b46" stroke-width="0"/>
  <path d="M985.49,723.72c2.97.79,8.9,2.36,11.86,3.15,11.96,3.38,24.33,5.33,36.7,6.49,10.98.79,22.01.32,33.04.23,3.8.19,11.4.6,15.2.79-11.35,7.14-21.74,15.99-34.25,21.04-8.53.74-16.45-3.66-24.24-6.49-13.76-6.63-30.22-11.08-38.33-25.21Z" fill="#1e5673" stroke-width="0"/>
  <path d="M965.89,743.69c4.59-5.79,11.22-8.67,18.49-8.9,7.32,9.5,15.11,18.72,21.87,28.69,17.24,29.85,34.57,59.69,52.65,89.07,6.02,9.22,10.15,20.48,19.09,27.34,24.7,11.54,52.69,12.28,78.14,21.55-18.26,33.51-40.09,64.93-59.51,97.74-6.3,10.94-7.79,23.64-10.38,35.78-1.85-3.99-3.66-7.92-5.47-11.82-24.79,32.21-36.19,71.32-47.41,109.65-1.07-14-1.58-28.08-3.29-41.99-13.53,19.56-23.26,41.43-31.88,63.54-1.67,1.85-5.05,5.51-6.72,7.37-4.17-20.25-1.58-41.57-9.04-61.13-5.24-15.11-13.35-30.36-9.32-46.85-7-11.12-15.8-21.55-19.6-34.29-.42-12.14,5.75-23.91,3.34-36.1-3.43-16.31-2.73-35.55-16.59-47.22-.19-3.48-.28-6.86-.37-10.24-12.88-1.07-26.83-7.51-38.74.46.88-6.16,1.67-12.33,2.64-18.4,13.63-25.49,33.88-46.44,48.94-71,12.93-20.85,30.73-38.7,40.27-61.54-14.18,11.31-26.42,24.84-40.32,36.52-13.3,2.55-21.32,14.46-33.55,19.28,3.71-7.92,7.97-15.53,12.37-22.99-4.22-6.35-11.96-14-6.49-21.97,12.28-15.39,27.57-28.08,40.88-42.54Z" fill="#ea5e45" stroke-width="0"/>
  <path d="M474.09,781.74c13.76-12.23,22.34-28.83,34.2-42.78,5.19,9.27,10.52,18.49,15.62,27.9,6.3,11.73,11.22,24.19,14.64,37.12-5.47-8.16-10.33-16.73-14.23-25.67-26.23.79-52.04,10.8-78.09,2.36,8.85-9.08,17.15-19.05,28.27-25.58,9.78,6.35-.05,17.89-.42,26.65Z" fill="#36b6b4" stroke-width="0"/>
  <path d="M543.37,751.66c27.16,9.22,51.12,26.51,71.14,46.81-4.03.32-12.1,1.07-16.13,1.44-3.48-.56-10.47-1.76-14-2.36l-5.24-1.76c-13.58-6.12-24.52-16.5-36.19-25.44l-1.07-3.66c.37-3.75,1.11-11.26,1.48-15.02Z" fill="#23b4b7" stroke-width="0"/>
  <path d="M618.26,753.61c16.73-1.3,33.51-3.61,50.28-1.62-15.06,16.17-30.63,32.02-46.67,47.27-4.59-14.74-6.26-30.4-3.61-45.65Z" fill="#35b6b5" stroke-width="0"/>
  <path d="M694.13,766.03l2.64-1.58c4.87,51.81,14.64,103.12,20.62,154.88-19.14-12.56-34.57-29.71-51.91-44.49,4.4-8.02-2.64-14.41-6.77-20.53-12.05-15.85-22.99-32.49-32.67-49.82,22.8-12.65,45.14-26.09,68.08-38.47Z" fill="#393265" stroke-width="0"/>
  <path d="M1143.11,1180.3c16.45-10.75,32.26-22.75,50.1-31.19-30.22,60.29-65.95,117.81-98.94,176.66-11.22,20.16-24.75,39.16-32.77,60.94-4.73,5.38-9.59,10.71-13.95,16.45-43.52-26.83-90.28-48.15-133.05-76.1l2.09-2.6c2.87-1.48,8.62-4.5,11.54-5.98,25.49-12.42,48.01-29.94,72.06-44.86,47.5-31.33,95.33-62.15,142.92-93.34Z" fill="#5eb4a9" stroke-width="0"/>
  <path d="M542.96,770.34c11.68,8.94,22.62,19.33,36.19,25.44-.14,21.64.42,43.33,1.02,65.02-1.99-.14-5.98-.42-7.97-.51l-4.36-3.61c-.7-1.44-2.13-4.22-2.83-5.61-4.12-27.71-14.04-54.04-22.06-80.73Z" fill="#07a2ac" stroke-width="0"/>
  <path d="M952.68,811.91c13.9-11.68,26.14-25.21,40.32-36.52-9.55,22.85-27.34,40.69-40.27,61.54-15.06,24.56-35.31,45.51-48.94,71-5.28,7-10.94,13.76-16.27,20.76.97-12.84-3.8-25.63-14.41-33.27-10.47,8.62-21.5,16.64-33.28,23.54-.28-5.75-.51-11.4-.65-17.05,4.68-.51,10.24,1.67,14.32-1.58,18.26-12.42,35.22-26.83,50.28-42.96,14.88-16.78,35.82-26.93,48.89-45.46Z" fill="#e84a4c" stroke-width="0"/>
  <path d="M446.24,780.67c26.05,8.43,51.86-1.58,78.09-2.36,3.89,8.94,8.76,17.52,14.23,25.67,7.37,16.45,16.22,32.21,26.46,47.09.7,1.39,2.13,4.17,2.83,5.61l-4.91,1.95c-13.53,5.19-26.32,12.1-39.58,17.94-3.06-17.61-2.18-35.68-5.61-53.11-9.13-12.28-20.9-22.66-33.74-30.87-10.66-5.98-19.65,6.26-28.36,10.75,1.07-5.42,2.13-10.8,3.15-16.13-8.94.28-18.68.88-25.49,7.46-3.61,6.3-2.46,14.04-3.52,21.04-18.91,2.6-38.09,2.78-56.91,6.35-2.97-.42-8.9-1.2-11.91-1.62,27.81-14.64,59.13-22.01,85.27-39.76Z" fill="#89c7a2" stroke-width="0"/>
  <path d="M433.31,794.67c6.81-6.58,16.54-7.18,25.49-7.46-1.02,5.33-2.09,10.71-3.15,16.13,8.71-4.5,17.7-16.73,28.36-10.75,12.84,8.2,24.61,18.58,33.74,30.87,3.43,17.43,2.55,35.5,5.61,53.11l-2.5.97-4.22,1.53c-23.31-16.68-46.99-40.23-78.55-33.32,1.62-7.92,2.6-15.94,3.57-23.87-19.7-2.69-37.49,5.98-54.59,14.46-11.4,6.16-27.85,4.77-34.34-7.65,6.72-2.32,13.44-4.59,20.16-6.63,18.82-3.57,38-3.75,56.91-6.35,1.07-7-.09-14.74,3.52-21.04Z" fill="#c9dc98" stroke-width="0"/>
  <path d="M579.15,795.78l5.24,1.76c4.63,3.85,8.99,8.06,13.3,12.33-4.31,10.43,3.15,19.46,7.92,28.13,15.66,25.26,27.39,52.69,41.06,79.06,8.81,18.91,20.16,36.75,25.91,57-31-23.13-48.43-59.64-78.65-83.51,8.9,28.83,30.68,51.21,42.45,78.78,7.51,15.43,16.87,31.88,10.61,49.59-6.72-11.35-14.27-22.15-22.38-32.53-1.9-4.59-3.85-9.18-5.79-13.67-16.22-36.84-32.35-73.69-48.48-110.58l1.85-1.85c1.99.09,5.98.37,7.97.51-.6-21.69-1.16-43.38-1.02-65.02Z" fill="#293262" stroke-width="0"/>
  <path d="M584.39,797.54c3.52.6,10.52,1.81,14,2.36,9.22,1.58,18.4,3.11,27.67,4.59,9.69,17.33,20.62,33.97,32.67,49.82,4.12,6.12,11.17,12.51,6.77,20.53-22.66-21.6-45.28-43.19-67.8-64.97-4.31-4.26-8.67-8.48-13.3-12.33Z" fill="#2b5178" stroke-width="0"/>
  <path d="M605.61,838c-4.77-8.67-12.23-17.7-7.92-28.13,22.52,21.78,45.14,43.38,67.8,64.97,17.33,14.78,32.77,31.93,51.91,44.49,4.73,27.62,8.06,55.43,12.23,83.14,2.18,11.26-.79,22.52-5.05,32.95-17.52,43.75-34.29,87.82-50.56,132.03-3.24,4.03-6.58,8.06-9.92,12.05.7-37.77,10.94-75.08,8.39-112.85-7.04-16.68-16.5-32.12-25.49-47.73,6.26-17.7-3.1-34.16-10.61-49.59-11.77-27.57-33.55-49.96-42.45-78.78,30.22,23.87,47.64,60.39,78.65,83.51-5.75-20.25-17.1-38.09-25.91-57-13.67-26.37-25.4-53.81-41.06-79.06Z" fill="#381f4e" stroke-width="0"/>
  <path d="M343.49,826.6c5.75-2.32,11.59-4.26,17.47-6.16,3.01.42,8.94,1.2,11.91,1.62-6.72,2.04-13.44,4.31-20.16,6.63,6.49,12.42,22.94,13.81,34.34,7.65,17.1-8.48,34.9-17.15,54.59-14.46-.97,7.92-1.95,15.94-3.57,23.87l-1.53,3.2c-23.17,7.09-43.1,22.01-62.33,36.24-9.36,16.5-17.56,35.87-11.26,54.96-3.06.56-9.18,1.71-12.23,2.32.56-1.67,1.76-5.01,2.32-6.67,7.04-14.41,8.2-31.28,2.46-46.34-8.48-3.66-16.96-7.28-25.67-10.24,2.69-.28,8.06-.79,10.75-1.07-10.33-4.08-20.53-8.43-30.26-13.76,9.78-13.67,22.06-25.26,33.18-37.77Z" fill="#a5cf9a" stroke-width="0"/>
  <path d="M438.08,845.74c31.56-6.91,55.24,16.64,78.55,33.32-20.16,7.46-41.06,14.32-57.74,28.5-25.86,13.72-50.56,30.73-79.02,38.56,21.74-16.78,47.92-26.09,71.42-39.95,5.93-2.55,9.18-8.39,9.82-14.55,2.18-15.06,2.13-30.31,1.11-45.42-8.57.79-17.15,1.58-25.67,2.73l1.53-3.2Z" fill="#7ac2a4" stroke-width="0"/>
  <path d="M790.71,847.69c1.58-1.34,4.77-3.99,6.35-5.33-.83,6.02-1.44,12.19-1.99,18.35,5.79,5.65,11.96,11.59,13.3,20.07,10.15,40.18,18.54,80.82,27.57,121.28-1.85,2.27-5.56,6.81-7.42,9.08-26.37,26.65-51.35,54.96-74.61,84.39l-1.3-2.83c-1.85-26.46-16.64-50.19-17.98-76.42,12.47-49.31,39.02-94.08,52.79-142.88,1.11-8.62,1.81-17.24,3.29-25.72Z" fill="#c43a50" stroke-width="0"/>
  <path d="M374.22,885.18c19.23-14.23,39.16-29.15,62.33-36.24,8.53-1.16,17.1-1.95,25.67-2.73,1.02,15.11,1.07,30.36-1.11,45.42.79-11.91.28-23.82-.42-35.64-21.13,10.29-43.38,18.03-65.53,25.86-12.42,3.75-12.98,18.95-17.15,29.2-1.02-8.71-2.41-17.29-3.8-25.86Z" fill="#108cab" stroke-width="0"/>
  <path d="M395.16,881.84c22.15-7.83,44.4-15.57,65.53-25.86.7,11.82,1.2,23.73.42,35.64-.65,6.16-3.89,12-9.82,14.55-23.5,13.86-49.68,23.17-71.42,39.95l-2.36,1.48c-.14-12.23-.23-24.42.51-36.57,4.17-10.24,4.73-25.44,17.15-29.2Z" fill="#221739" stroke-width="0"/>
  <path d="M523.35,876.56c13.25-5.84,26.05-12.74,39.58-17.94-6.16,13.39-12.74,26.6-18.68,40.18-8.2-5.56-16.54-10.94-24.1-17.29l.7-3.99,2.5-.97Z" fill="#749c82" stroke-width="0"/>
  <path d="M562.93,858.62l4.91-1.95,4.36,3.61-1.85,1.85c-10.06,14-7.79,32.02-9.45,48.24-5.84-3.15-11.73-6.21-17.61-9.27l.97-2.32c5.93-13.58,12.51-26.79,18.68-40.18Z" fill="#71807f" stroke-width="0"/>
  <path d="M300.3,873.64c3.38-3.11,6.72-6.16,10.01-9.27,9.73,5.33,19.93,9.69,30.26,13.76-2.69.28-8.06.79-10.75,1.07-6.26-.19-17.1-1.44-17.43,7.6-1.81,24.38,22.2,38.7,40.64,48.99-.56,1.67-1.76,5.01-2.32,6.67l-1.44,7.79c-16.17-5.61-29.75-16.17-44.07-25.12-1.21-17.24-5.1-34.2-4.91-51.49Z" fill="#165e72" stroke-width="0"/>
  <path d="M560.89,910.39c1.67-16.22-.6-34.25,9.45-48.24,16.13,36.89,32.26,73.73,48.48,110.58-2.22-.42-6.67-1.25-8.9-1.67l-2.73-4.59c-12.56-20.11-27.81-39.02-46.48-53.76l.19-2.32Z" fill="#92927f" stroke-width="0"/>
  <path d="M293.44,886.57c.19-5.28,4.26-8.81,6.86-12.93-.19,17.29,3.71,34.25,4.91,51.49,14.32,8.94,27.9,19.51,44.07,25.12-.32,1.99-.97,5.98-1.3,8.02-13.53-6.3-26.05-14.51-39.72-20.48-.6,22.43.28,44.95-1.39,67.43-10.66-13.3-21.09-26.83-31.33-40.5,7.14-25.77,13.3-51.81,17.89-78.14Z" fill="#b3d399" stroke-width="0"/>
  <path d="M312.39,886.8c.32-9.04,11.17-7.79,17.43-7.6,8.71,2.97,17.19,6.58,25.67,10.24,5.75,15.06,4.59,31.93-2.46,46.34-18.44-10.29-42.45-24.61-40.64-48.99Z" fill="#261535" stroke-width="0"/>
  <path d="M516.63,879.06l4.22-1.53-.7,3.99c-9.82,16.78-21.69,32.26-33.55,47.64l-2.46,1.53c-8.48-7.69-16.92-15.39-25.26-23.13,16.68-14.18,37.58-21.04,57.74-28.5Z" fill="#abcf9d" stroke-width="0"/>
  <path d="M520.15,881.52c7.55,6.35,15.9,11.73,24.1,17.29l-.97,2.32-1.11,2.6c-18.31,8.85-35.87,19.74-55.57,25.44,11.86-15.39,23.73-30.87,33.55-47.64Z" fill="#39a49e" stroke-width="0"/>
  <path d="M362.96,940.14c-6.3-19.09,1.9-38.47,11.26-54.96,1.39,8.57,2.78,17.15,3.8,25.86-.74,12.14-.65,24.33-.51,36.57-2.78,1.76-8.39,5.33-11.22,7.09-.83-3.66-2.5-10.94-3.34-14.55Z" fill="#1eb0aa" stroke-width="0"/>
  <path d="M1162.16,901.82c59.51-7.14,119.75-3.66,179.21-11.17,2.5,4.59,4.96,9.22,7.18,14.09,14.41,64.6,30.49,128.98,47.92,192.88-1.21,2.18-3.66,6.49-4.87,8.67-13.3-10.61-23.73-24.1-36.01-35.68-20.76-19.7-44.26-36.29-65.16-55.8-39.67-41.15-87.78-72.81-128.28-112.99Z" fill="#eb6744" stroke-width="0"/>
  <path d="M543.28,901.12c5.89,3.06,11.77,6.12,17.61,9.27l-.19,2.32c-1.25,11.45-3.06,22.85-4.59,34.34-12.28.93-24.61,1.34-36.89,2.22,7.14-15.48,16.92-29.61,22.94-45.56l1.11-2.6Z" fill="#829983" stroke-width="0"/>
  <path d="M1156.13,901.45l1.53.6c7.97,37.17,12.37,75.08,19.23,112.48-2.73,2.09-8.25,6.26-11.03,8.34-65.9,79.39-130.46,159.89-195.85,239.69-14.37,18.35-30.4,35.55-41.89,55.94-2.92,1.48-8.67,4.5-11.54,5.98,5.38-21.27,12.14-42.13,20.72-62.33,12.74-25.72,27.39-50.47,40.04-76.19,6.3-1.62,12.56-3.2,18.86-4.68.74-8.99,1.34-17.98,1.99-26.93,8.62-22.11,18.35-43.98,31.88-63.54,1.71,13.9,2.22,27.99,3.29,41.99,11.22-38.33,22.62-77.44,47.41-109.65,1.81,3.89,3.61,7.83,5.47,11.82,2.6-12.14,4.08-24.84,10.38-35.78,19.42-32.81,41.25-64.23,59.51-97.74Z" fill="#115c75" stroke-width="0"/>
  <path d="M1157.66,902.05l4.5-.23c40.5,40.18,88.61,71.83,128.28,112.99,20.9,19.51,44.4,36.1,65.16,55.8,12.28,11.59,22.71,25.07,36.01,35.68l-.88,1.44c-62.84,13.16-127.08,18.4-189.78,32.39l-2.36-3.34c-8.9-40.41-14.23-81.57-21.69-122.26-6.86-37.4-11.26-75.31-19.23-112.48Z" fill="#ea594b" stroke-width="0"/>
  <path d="M486.6,929.16c19.7-5.7,37.26-16.59,55.57-25.44-6.02,15.94-15.8,30.08-22.94,45.56-.88,1.76-2.64,5.28-3.48,7.04-32.77,8.71-65.95,16.13-99.08,23.13,22.01-16.87,44.58-33.14,67.48-48.75l2.46-1.53Z" fill="#57666f" stroke-width="0"/>
  <path d="M1348.55,904.74c57.37,6.77,101.26,48.06,154.65,65.9,27.57,13.02,54.69,27.06,80.87,42.68-1.11,1.48-3.38,4.4-4.5,5.89-20.81.56-37.49,15.29-56.35,22.43-43.38,15.9-81.24,45.79-126.75,55.98-17.43-63.91-33.51-128.28-47.92-192.88Z" fill="#ee7d41" stroke-width="0"/>
  <path d="M379.87,946.12c28.46-7.83,53.16-24.84,79.02-38.56,8.34,7.74,16.78,15.43,25.26,23.13-22.89,15.62-45.46,31.88-67.48,48.75-.7.19-2.13.56-2.87.74-35.55,8.67-70.72,19.19-106.92,25.03,1.67-22.48.79-45,1.39-67.43,13.67,5.98,26.18,14.18,39.72,20.48.32-2.04.97-6.02,1.3-8.02l1.44-7.79c3.06-.6,9.18-1.76,12.23-2.32.83,3.61,2.5,10.89,3.34,14.55,2.83-1.76,8.43-5.33,11.22-7.09l2.36-1.48Z" fill="#d6e298" stroke-width="0"/>
  <path d="M887.52,928.7c5.33-7,10.98-13.76,16.27-20.76-.97,6.07-1.76,12.23-2.64,18.4,11.91-7.97,25.86-1.53,38.74-.46.09,3.38.19,6.77.37,10.24,13.86,11.68,13.16,30.91,16.59,47.22,2.41,12.19-3.75,23.96-3.34,36.1,3.8,12.74,12.61,23.17,19.6,34.29-4.03,16.5,4.08,31.75,9.32,46.85,7.46,19.56,4.87,40.88,9.04,61.13-6.77,6.67-10.61,15.48-14.13,24.24-12.65,25.72-27.3,50.47-40.04,76.19-1.25-10.71-4.08-21.23-7.65-31.33,11.82-27.53,9.82-57.93,12.61-87.08,2.69-11.49,4.68-23.17,4.22-34.94-.83-32.39,1.02-64.84-1.62-97.09-23.22,19.6-33.51,51.26-59.92,67.71-5.65-.6-4.59-7.23-6.21-11.08-1.95-13.49-11.68-24.75-24.28-29.47-13.07-4.17-18.72-17.33-25.91-27.71,1.85-2.27,5.56-6.81,7.42-9.08,18.54-23.5,33.97-49.22,51.58-73.36Z" fill="#ea564a" stroke-width="0"/>
  <path d="M560.71,912.71c18.68,14.74,33.92,33.65,46.48,53.76-14.64-7.14-30.03-12.65-45.6-17.52-2.69,7.04-5.42,14.09-7.92,21.27l-.88,2.78c-12.19-5.89-24.42-11.68-37.03-16.68.83-1.76,2.6-5.28,3.48-7.04,12.28-.88,24.61-1.3,36.89-2.22,1.53-11.49,3.34-22.89,4.59-34.34Z" fill="#a3a681" stroke-width="0"/>
  <path d="M553.66,970.22c2.5-7.18,5.24-14.23,7.92-21.27,15.57,4.87,30.96,10.38,45.6,17.52l2.73,4.59c-16.45,2.22-35.41-3.94-50.1,5.38-1.53-1.58-4.63-4.68-6.16-6.21Z" fill="#c4b88c" stroke-width="0"/>
  <path d="M416.67,979.44c33.14-7,66.32-14.41,99.08-23.13,12.61,5.01,24.84,10.8,37.03,16.68-5.7,28.69-15.76,56.26-22.11,84.81-.32.97-.93,2.97-1.25,3.94-22.57,10.98-44.35,23.59-65.58,37.03-2.22-.19-6.77-.56-9.04-.79-3.06-21.5-11.68-41.62-19.14-61.82-7.14-18.77-12.65-38.09-21.87-55.98.74-.19,2.18-.56,2.87-.74Z" fill="#41b6ab" stroke-width="0"/>
  <path d="M275.55,964.71c10.24,13.67,20.67,27.2,31.33,40.5-6.86,26.83-13.49,53.76-22.2,80.08l-.23,2.92c-15.11,13.72-28.5,29.24-41.71,44.81-.32-38.05,2.36-76.05,3.89-114.05,8.43-18.68,19.56-36.06,28.92-54.27Z" fill="#22b3b3" stroke-width="0"/>
  <path d="M552.78,973l.88-2.78c1.53,1.53,4.63,4.63,6.16,6.21,21.46,14,42.68,28.32,63.12,43.8-30.82,12.37-60.57,27.62-92.27,37.58,6.35-28.55,16.41-56.12,22.11-84.81Z" fill="#adc296" stroke-width="0"/>
  <path d="M559.82,976.43c14.69-9.32,33.65-3.15,50.1-5.38,2.22.42,6.67,1.25,8.9,1.67,1.95,4.5,3.89,9.08,5.79,13.67,1.85,15.85,8.71,30.26,14.92,44.72-5.56-3.57-11.17-7.14-16.59-10.89-20.44-15.48-41.66-29.8-63.12-43.8Z" fill="#f0b887" stroke-width="0"/>
  <path d="M306.88,1005.21c36.19-5.84,71.37-16.36,106.92-25.03-4.91,37.4-14.09,74.01-22.52,110.72-35.55-2.13-71.09-3.75-106.59-5.61,8.71-26.32,15.34-53.25,22.2-80.08Z" fill="#44b8b8" stroke-width="0"/>
  <path d="M413.79,980.18c9.22,17.89,14.74,37.21,21.87,55.98,7.46,20.21,16.08,40.32,19.14,61.82-5.47-.42-10.94-.79-16.41-1.07-15.57-3.2-31.28-5.56-47.13-6.02,8.43-36.7,17.61-73.32,22.52-110.72Z" fill="#0fa5aa" stroke-width="0"/>
  <path d="M624.61,986.39c8.11,10.38,15.66,21.18,22.38,32.53,8.99,15.62,18.44,31.05,25.49,47.73-24.01,11.35-46.44,25.63-69.01,39.58-5.65-.51-11.26-.88-16.92-1.25-16.68-17.89-37.35-31.37-55.89-47.18,31.7-9.96,61.45-25.21,92.27-37.58,5.42,3.75,11.03,7.32,16.59,10.89-6.21-14.46-13.07-28.87-14.92-44.72Z" fill="#957b6c" stroke-width="0"/>
  <path d="M753.91,1095.54c23.26-29.43,48.24-57.74,74.61-84.39,7.18,10.38,12.84,23.54,25.91,27.71,12.61,4.73,22.34,15.99,24.28,29.47,1.62,3.85.56,10.47,6.21,11.08,26.42-16.45,36.7-48.11,59.92-67.71,2.64,32.26.79,64.7,1.62,97.09.46,11.77-1.53,23.45-4.22,34.94-11.17-13.86-18.31-30.31-27.85-45.14-5.38-4.96-13.63-7.23-20.76-5.75-20.62,19.97-36.57,44.21-53.02,67.62-5.19,7.18-11.45,13.72-19.37,17.89-8.76-7.46-14.6-18.12-25.35-23.22-20.85-10.29-13.63-42.27-36.7-49.4-1.34-2.55-3.99-7.65-5.28-10.2Z" fill="#e84c4d" stroke-width="0"/>
  <path d="M1165.87,1022.87c2.78-2.09,8.3-6.26,11.03-8.34,7.46,40.69,12.79,81.84,21.69,122.26-1.81,4.03-3.61,8.16-5.38,12.33-17.84,8.43-33.65,20.44-50.1,31.19-47.6,31.19-95.42,62.01-142.92,93.34-24.05,14.92-46.58,32.44-72.06,44.86,11.49-20.39,27.53-37.59,41.89-55.94,65.39-79.8,129.95-160.3,195.85-239.69Z" fill="#13788c" stroke-width="0"/>
  <path d="M1523.22,1041.64c18.86-7.14,35.55-21.87,56.35-22.43-30.54,54.32-56.17,111.23-85.69,166.1-35.64-15.62-55.29-52.18-85.83-74.61-2.87-.7-8.57-2.09-11.45-2.78l-5.89-.19.88-1.44c1.2-2.18,3.66-6.49,4.87-8.67,45.51-10.2,83.37-40.09,126.75-55.98Z" fill="#ed7146" stroke-width="0"/>
  <path d="M529.42,1061.75c.32-.97.93-2.97,1.25-3.94,18.54,15.8,39.21,29.29,55.89,47.18-21.92-.83-43.8-2.97-65.72-3.57,3.01-13.21,5.14-26.6,8.57-39.67Z" fill="#6a7779" stroke-width="0"/>
  <path d="M463.85,1098.78c21.23-13.44,43.01-26.05,65.58-37.03-3.43,13.07-5.56,26.46-8.57,39.67-19.05.05-38.05-.56-57-2.64Z" fill="#42777e" stroke-width="0"/>
  <path d="M603.48,1106.24c22.57-13.95,45-28.22,69.01-39.58,2.55,37.77-7.69,75.08-8.39,112.85,3.34-3.99,6.67-8.02,9.92-12.05.46,1.81,1.39,5.42,1.85,7.23-5.38,6.21-10.89,12.33-15.94,18.86-32.21-11.59-63.21-26.18-94.96-38.93,8.16-14.46,18.58-27.44,26.79-41.89,3.99-2.09,7.88-4.26,11.73-6.49Z" fill="#8f3159" stroke-width="0"/>
  <path d="M284.68,1085.29c35.5,1.85,71.05,3.48,106.59,5.61,15.85.46,31.56,2.83,47.13,6.02-16.13,3.71-38.79,2.55-44.77,21.87-7.46.37-14.88,1.25-22.25,2.41-22.29,4.22-45.09,3.89-67.62,5.93-5.7-13.35-12.7-26.05-19.33-38.93l.23-2.92Z" fill="#204c70" stroke-width="0"/>
  <path d="M242.74,1133.03c13.21-15.57,26.6-31.1,41.71-44.81,6.63,12.88,13.63,25.58,19.33,38.93l-4.68.93c-18.82,3.8-33.78,16.82-42.31,33.74-5.24-8.81-10.66-17.47-16.73-25.63l2.69-3.15Z" fill="#0b8597" stroke-width="0"/>
  <path d="M893.64,1092.85c7.14-1.48,15.39.79,20.76,5.75,9.55,14.83,16.68,31.28,27.85,45.14-2.78,29.15-.79,59.55-12.61,87.08-5.51-14.37-11.17-28.73-17.29-42.82-6.81,30.77-14.37,61.41-19.84,92.46-7.69-26.32-12.61-53.34-19.37-79.9-1.07,1.25-3.2,3.8-4.26,5.05-10.98,11.49-15.29,27.2-22.01,41.25-.23-17.8-17.05-24.24-27.95-34.99-17.1,5.89-22.99,23.91-33.55,36.8-14.23-20.39-8.06-47.13-18.77-69.15-6.3-25.26-10.75-51.02-14.46-76.75.09-2.5.32-7.55.46-10.06l1.3,2.83c1.3,2.55,3.94,7.65,5.28,10.2,23.08,7.14,15.85,39.11,36.7,49.4,10.75,5.1,16.59,15.76,25.35,23.22,7.92-4.17,14.18-10.71,19.37-17.89,16.45-23.4,32.39-47.64,53.02-67.62Z" fill="#dc4750" stroke-width="0"/>
  <path d="M438.4,1096.93c5.47.28,10.94.65,16.41,1.07,2.27.23,6.81.6,9.04.79,18.95,2.09,37.96,2.69,57,2.64,21.92.6,43.8,2.73,65.72,3.57,5.65.37,11.26.74,16.92,1.25-3.85,2.22-7.74,4.4-11.73,6.49-20.48,4.5-41.11,8.48-61.41,13.81-35.45,2.36-70.72-2.92-105.99-5.33-10.24-.79-20.48-1.76-30.73-2.41,5.98-19.33,28.64-18.17,44.77-21.87Z" fill="#2c2a5b" stroke-width="0"/>
  <path d="M722.82,1126.08c7.65-7.88,14.64-17.05,25.21-21.23-10.52,22.11-20.02,44.68-30.03,67.01-18.07,36.66-33.65,74.52-52.09,111.04-10.98,20.16-11.68,43.52-18.77,64.97-8.11-18.17-11.31-38.19-20.48-55.94,8.62-33.55,23.08-65.3,33.27-98.39,5.05-6.53,10.57-12.65,15.94-18.86,15.15-16.64,31.56-32.16,46.95-48.61Z" fill="#332153" stroke-width="0"/>
  <path d="M748.03,1104.85l4.12-2.09c3.71,25.72,8.16,51.49,14.46,76.75-3.24,4.82-9.59,9.41-7.88,16.08,2.13,17.56,6.44,34.8,10.01,52.09-1.95,2.13-3.85,4.31-5.79,6.53-14.88,16.04-31.51,30.31-47.46,45.32-4.59-3.15-9.13-6.21-13.67-9.27.42,4.63.79,9.36,1.16,14.13-7.97-2.55-6.02-11.35-4.36-17.52,4.5-16.08,10.33-31.84,12.33-48.48,2.6-22.2,12.61-43.93,7.04-66.55,10.01-22.34,19.51-44.91,30.03-67.01Z" fill="#bb3953" stroke-width="0"/>
  <path d="M1200.95,1140.12c62.7-14,126.94-19.23,189.78-32.39l5.89.19c-7.69,7.69-15.57,15.2-23.59,22.62-37.17,25.81-68.91,58.58-104.51,86.48-18.44-29.15-46.9-49.59-67.57-76.88Z" fill="#94887f" stroke-width="0"/>
  <path d="M1396.61,1107.91c2.87.7,8.57,2.09,11.45,2.78,30.54,22.43,50.19,59,85.83,74.61-33.23,10.47-67.94,15.43-101.59,24.66-14.23,1.07-28.18,4.4-41.11,10.52,7.46,41.06,13.12,82.49,23.17,123.09,7.28,51.91,21.32,102.56,30.36,154.14,3.34,36.61,17.75,71.37,19.46,108.07-9.55-18.58-14.97-39.76-29.57-55.29-12.65-13.63-26.14-26.42-39.11-39.62-29.34-27.76-52.51-61.41-83.14-87.82-12.23-10.1-18.68-24.89-27.95-37.35-9.55-13.72-25.81-21.23-33.37-36.47-4.31-1.48-8.57-2.87-12.88-4.17,1.71-2.5,3.48-4.96,5.24-7.32-1.9-1.95-5.75-5.79-7.65-7.74,2.46-5.19,4.4-10.71,8.02-15.2,26.74-30.22,56.63-57.42,84.02-87.03,26.09-34.43,63.68-59.37,85.23-97.23,8.02-7.42,15.9-14.92,23.59-22.62Z" fill="#ee7942" stroke-width="0"/>
  <path d="M530.35,1126.54c20.3-5.33,40.92-9.32,61.41-13.81-8.2,14.46-18.63,27.44-26.79,41.89-18.68-1.67-37.35-.19-56.03-.37-2.5-.09-7.46-.32-9.96-.46,8.81-10.84,20.11-19.19,31.37-27.25Z" fill="#7a4b67" stroke-width="0"/>
  <path d="M371.39,1121.21c7.37-1.16,14.78-2.04,22.25-2.41,10.24.65,20.48,1.62,30.73,2.41-10.47,10.57-20.9,21.27-30.59,32.63-12.28.28-24.61.56-36.89.7l-3.52.05c6.35-10.98,12.47-22.01,18.03-33.37Z" fill="#2c9aa6" stroke-width="0"/>
  <path d="M303.77,1127.14c22.52-2.04,45.32-1.71,67.62-5.93-5.56,11.35-11.68,22.38-18.03,33.37-13.12.14-26.23,1.16-39.3,2.22-5.65.37-11.26.88-16.87,1.44l-2.87.6c1.53-10.29,3.15-20.58,4.77-30.77l4.68-.93Z" fill="#9fcfa6" stroke-width="0"/>
  <path d="M424.36,1121.21c35.27,2.41,70.54,7.69,105.99,5.33-11.26,8.06-22.57,16.41-31.37,27.25-33.46-.28-66.92-.46-100.33-.05l-4.87.09c9.69-11.35,20.11-22.06,30.59-32.63Z" fill="#6b7581" stroke-width="0"/>
  <path d="M256.78,1161.81c8.53-16.92,23.5-29.94,42.31-33.74-1.62,10.2-3.24,20.48-4.77,30.77-12.47,4.77-25.44,8.2-38.93,7.83l1.39-4.87Z" fill="#19a0a6" stroke-width="0"/>
  <path d="M1268.52,1217c35.59-27.9,67.34-60.66,104.51-86.48-21.55,37.86-59.13,62.8-85.23,97.23-27.39,29.61-57.28,56.82-84.02,87.03-3.61,4.5-5.56,10.01-8.02,15.2,1.9,1.95,5.75,5.79,7.65,7.74-1.76,2.36-3.52,4.82-5.24,7.32,4.31,1.3,8.57,2.69,12.88,4.17,7.55,15.25,23.82,22.75,33.37,36.47,9.27,12.47,15.71,27.25,27.95,37.35,30.63,26.42,53.81,60.06,83.14,87.82,12.98,13.21,26.46,26,39.11,39.62,14.6,15.53,20.02,36.7,29.57,55.29,13.72,61.64,23.36,124.2,39.3,185.42-16.82,16.73-31.47,35.68-49.45,51.26-10.89-31.28-17.61-63.82-27.2-95.47-2.22,2.22-6.72,6.63-8.94,8.85-14.51-13.58-20.81-33.32-35.78-46.39-19.93-18.68-33.88-42.87-55.52-59.78-16.36-12.14-27.99-29.34-44.54-41.25-18.86-88.42-36.47-177.17-52.74-266.11-1.58-4.31-3.48-8.39-5.7-12.28-21.83,8.99-43.01,19.56-63.58,31.05-14.46,7.88-28.18,19.79-45.56,19.23,62.75-56.63,129.11-109.14,194.04-163.32Z" fill="#ed6f47" stroke-width="0"/>
  <path d="M1198.58,1136.78l2.36,3.34c20.67,27.3,49.12,47.73,67.57,76.88-64.93,54.18-131.29,106.68-194.04,163.32-4.36,2.04-8.71,4.08-12.98,6.4,8.02-21.78,21.55-40.78,32.77-60.94,33-58.86,68.73-116.37,98.94-176.66,1.76-4.17,3.57-8.3,5.38-12.33Z" fill="#9a7b72" stroke-width="0"/>
  <path d="M314.06,1156.8c13.07-1.07,26.18-2.09,39.3-2.22l3.52-.05c4.91,33.78,20.3,64.74,29.94,97.28,11.63,40.55,27.95,79.48,40.41,119.75-11.86.42-23.64.97-35.45,2.09,2.55,30.82-.32,61.82.74,92.73-15.94-33.14-20.95-71-38.05-103.81-.88,31.19-.42,62.47-.37,93.66-10.47-37.68-15.34-76.88-25.54-114.75,3.34-19.14,2.6-38.56-1.58-57.47-5.28-42.31-7.69-84.9-12.93-127.21Z" fill="#204b73" stroke-width="0"/>
  <path d="M356.88,1154.53c12.28-.14,24.61-.42,36.89-.7l4.87-.09c9.08,24.56,22.99,46.95,32.9,71.18,20.11,47.36,42.68,93.66,63.63,140.65-18.07,8.53-38.37,6.53-57.65,9.5-13.07,1.85-26.28,3.52-39.53,2.5l-6.21-3.94c11.82-1.11,23.59-1.67,35.45-2.09-12.47-40.27-28.78-79.2-40.41-119.75-9.64-32.53-25.03-63.49-29.94-97.28Z" fill="#2d3864" stroke-width="0"/>
  <path d="M398.64,1153.74c33.41-.42,66.87-.23,100.33.05,2.5.14,7.46.37,9.96.46,2.22,6.02,3.57,12.88,8.16,17.8,25.07,30.49,51.49,59.88,76.1,90.74,9.13,11.35,14.88,26.09,28.59,33.04-39.58,22.52-80.5,42.91-118.27,68.5-2.09.32-6.26.97-8.34,1.25-20.95-46.99-43.52-93.29-63.63-140.65-9.92-24.24-23.82-46.62-32.9-71.18Z" fill="#52375a" stroke-width="0"/>
  <path d="M508.94,1154.25c18.68.19,37.35-1.3,56.03.37,31.75,12.74,62.75,27.34,94.96,38.93-10.2,33.09-24.66,64.84-33.27,98.39l-4.87,3.89c-13.72-6.95-19.46-21.69-28.59-33.04-24.61-30.87-51.02-60.25-76.1-90.74-4.59-4.91-5.93-11.77-8.16-17.8Z" fill="#6a2d57" stroke-width="0"/>
  <path d="M991.47,1161.71c1.67-1.85,5.05-5.51,6.72-7.37-.65,8.94-1.25,17.94-1.99,26.93-6.3,1.48-12.56,3.06-18.86,4.68,3.52-8.76,7.37-17.56,14.13-24.24Z" fill="#805858" stroke-width="0"/>
  <path d="M255.39,1166.67c13.49.37,26.46-3.06,38.93-7.83l2.87-.6c4.68,46.07,16.45,91.11,26.37,136.25.88-2.6,2.6-7.88,3.43-10.47,4.17,18.91,4.91,38.33,1.58,57.47-25.58-44.07-48.8-89.54-73.96-133.84-8.62-12.19-2.78-27.39-1.62-40.83l2.41-.14Z" fill="#106580" stroke-width="0"/>
  <path d="M297.19,1158.24c5.61-.56,11.22-1.07,16.87-1.44,5.24,42.31,7.65,84.9,12.93,127.21-.83,2.6-2.55,7.88-3.43,10.47-9.92-45.14-21.69-90.19-26.37-136.25Z" fill="#0f7c90" stroke-width="0"/>
  <path d="M665.91,1282.9c18.44-36.52,34.02-74.38,52.09-111.04,5.56,22.62-4.45,44.35-7.04,66.55-1.99,16.64-7.83,32.39-12.33,48.48-1.67,6.16-3.61,14.97,4.36,17.52-.37-4.77-.74-9.5-1.16-14.13,4.54,3.06,9.08,6.12,13.67,9.27-21.87,20.58-45.79,38.84-68.59,58.39.05-2.5.19-7.51.23-10.06,7.09-21.46,7.79-44.81,18.77-64.97Z" fill="#9d3356" stroke-width="0"/>
  <path d="M758.73,1195.59c-1.71-6.67,4.63-11.26,7.88-16.08,10.71,22.01,4.54,48.75,18.77,69.15,10.57-12.88,16.45-30.91,33.55-36.8,10.89,10.75,27.71,17.19,27.95,34.99,6.72-14.04,11.03-29.75,22.01-41.25-15.11,48.75-30.31,97.51-45.37,146.26-7.88-25.03-2.22-51.81-8.48-77.12-18.44,42.27-32.81,86.11-45.51,130.41-.23-5.56-.42-11.03-.51-16.5,1.67-9.82,2.78-19.79,1.48-29.66-3.75-36.98-.14-74.24-1.76-111.32-3.57-17.29-7.88-34.53-10.01-52.09Z" fill="#cc4053" stroke-width="0"/>
  <path d="M912.36,1187.99c6.12,14.09,11.77,28.46,17.29,42.82,3.57,10.1,6.4,20.62,7.65,31.33-8.57,20.21-15.34,41.06-20.72,62.33l-2.09,2.6c-3.34,4.12-6.63,8.3-9.78,12.61-53.11,67.85-104.83,136.76-157.34,205.07-8.02,10.57-16.08,21.13-24.15,31.7-1.53-2.22-4.59-6.72-6.12-8.99-18.44-32.02-35.41-64.93-53.43-97.18-5.61-10.47-19-12.05-28.55-17.43-5.56-2.46-11.12-5.01-16.64-7.51-8.34-3.89-16.64-7.92-24.89-11.96-6.16,1.71-12.33,3.43-18.44,5.24-6.3-13.44-11.96-27.11-18.4-40.41-18.72,28.04-36.61,56.59-53.99,85.5.51-2.04,1.53-6.12,1.99-8.16-12.84-29.43-24.52-59.46-38.42-88.38l-2.46,10.57c-1.2-4.77-2.41-9.5-3.61-14.23,15.43-4.03,33.32-4.77,43.24-19.19,37.77-25.58,78.69-45.97,118.27-68.5l4.87-3.89c9.18,17.75,12.37,37.77,20.48,55.94-.05,2.55-.19,7.55-.23,10.06,22.8-19.56,46.71-37.82,68.59-58.39,15.94-15.02,32.58-29.29,47.46-45.32,2.32,5.01,2.73,10.2,1.3,15.53-14.97,50.14-34.76,98.76-49.26,149,16.68-17.24,31.28-36.66,50.1-51.81,1.39,7.18,2.69,14.41,3.94,21.74.09,5.47.28,10.94.51,16.5,12.7-44.3,27.06-88.15,45.51-130.41,6.26,25.3.6,52.09,8.48,77.12,15.06-48.75,30.26-97.51,45.37-146.26,1.07-1.25,3.2-3.8,4.26-5.05,6.77,26.56,11.68,53.57,19.37,79.9,5.47-31.05,13.02-61.68,19.84-92.46Z" fill="#301d48" stroke-width="0"/>
  <path d="M1351.19,1220.48c12.93-6.12,26.88-9.45,41.11-10.52-3.06,2.73-6.07,5.56-9.04,8.48,21.6,23.54,42.5,47.87,62.56,72.76,6.77,6.91,16.73,10.29,22.06,18.68,22.62,35.55,56.17,62.05,81.8,95.14,21.74,21.23,35.73,49.36,60.48,67.66-.46,15.8,7.42,29.71,15.39,42.82.93-2.69,2.87-8.06,3.8-10.75,2.46.83,7.28,2.5,9.69,3.34-30.68,62.52-58.02,126.8-90.51,188.39-3.38-16.17-6.67-32.35-10.2-48.48-3.43,0-6.91.05-10.29.14-10.75-33.37-42.64-52.65-62.66-79.94-12.61-19.7-35.78-30.77-43.98-53.39-2.64-8.16-10.1-12.61-16.68-17.1-9.04-51.58-23.08-102.23-30.36-154.14-10.06-40.6-15.71-82.03-23.17-123.09Z" fill="#f2933d" stroke-width="0"/>
  <path d="M762.95,1254.22c1.95-2.22,3.85-4.4,5.79-6.53,1.62,37.08-1.99,74.34,1.76,111.32,1.3,9.87.19,19.84-1.48,29.66-1.25-7.32-2.55-14.55-3.94-21.74-18.82,15.15-33.41,34.57-50.1,51.81,14.51-50.24,34.29-98.85,49.26-149,1.44-5.33,1.02-10.52-1.3-15.53Z" fill="#8f2d52" stroke-width="0"/>
  <path d="M904.72,1339.68c3.15-4.31,6.44-8.48,9.78-12.61,42.78,27.95,89.54,49.26,133.05,76.1-.7,1.11-2.13,3.24-2.83,4.36-32.07,41.94-60.57,86.62-92.22,128.98-36.7,51.86-74.43,103.02-110.07,155.67-28.22,48.57-48.85,101.17-75.91,150.43-1.11-6.07-3.24-12.28.19-17.89-3.85-13.81-12.61-26.09-13.67-40.6-2.46-29.8-1.48-59.74-.32-89.54,11.73-8.9,19.6-21.46,27.81-33.41,12.56-18.58,29.47-34.71,36.61-56.45,25.77-74.71,49.91-149.92,76.51-224.3,5.33-13.12,8.9-26.83,11.08-40.74Z" fill="#1397a4" stroke-width="0"/>
  <path d="M1120.03,1361.09c20.58-11.49,41.76-22.06,63.58-31.05,2.22,3.89,4.12,7.97,5.7,12.28,16.27,88.93,33.88,177.68,52.74,266.11,3.2,42.03,15.53,82.68,22.06,124.29,6.21,39.21,18.95,77.3,22.01,116.97-3.29-.05-9.92-.19-13.21-.23,1.2-2.04,2.41-3.99,3.66-5.89-3.61-12.23-5.51-25.63-14.51-35.31-7.23-10.52-21.36-12.19-28.96-22.29-17.01-19.97-32.77-41.11-51.4-59.64-7.69-7-11.59-16.78-17.15-25.26-12.56-9.59-28.36-13.72-41.39-22.57-8.11-7-12.33-17.15-17.52-26.18-.83,1.67-2.41,5.05-3.24,6.72-3.38-9.73-7.51-19.14-12.1-28.27-10.1-38.65-15.53-78.37-25.03-117.16-8.85-33.14-9.45-67.94-20.21-100.66l-.37-5.42c.7-1.11,2.13-3.24,2.83-4.36,4.36-5.75,9.22-11.08,13.95-16.45,4.26-2.32,8.62-4.36,12.98-6.4,17.38.56,31.1-11.35,45.56-19.23Z" fill="#ea574f" stroke-width="0"/>
  <path d="M747.38,1544.75c52.51-68.31,104.23-137.22,157.34-205.07-2.18,13.9-5.75,27.62-11.08,40.74-26.6,74.38-50.75,149.6-76.51,224.3-7.14,21.74-24.05,37.86-36.61,56.45-8.2,11.96-16.08,24.52-27.81,33.41.83-33.04-.42-66.13.14-99.22-.28-16.96,2.46-34.85-5.47-50.61Z" fill="#188195" stroke-width="0"/>
  <path d="M495.17,1365.58c2.09-.28,6.26-.93,8.34-1.25-9.92,14.41-27.81,15.15-43.24,19.19,1.21,4.73,2.41,9.45,3.61,14.23-11.45,38.19-20.72,77.12-33.6,114.79-1.2-29.57-3.75-59.04-4.96-88.56,1.62-19.88-18.35-30.96-27.34-46.39,13.25,1.02,26.46-.65,39.53-2.5,19.28-2.97,39.58-.97,57.65-9.5Z" fill="#322854" stroke-width="0"/>
  <path d="M502.78,1483.71c17.38-28.92,35.27-57.47,53.99-85.5,6.44,13.3,12.1,26.97,18.4,40.41,6.12-1.81,12.28-3.52,18.44-5.24,8.25,4.03,16.54,8.06,24.89,11.96l-2.18,3.24c-39.16,50.56-79.29,100.29-120.26,149.41-9.82-20.95-14.83-44.03-27.99-63.35,11.35-17.15,23.22-33.92,34.71-50.93Z" fill="#ee793e" stroke-width="0"/>
  <path d="M618.5,1445.34c5.51,2.5,11.08,5.05,16.64,7.51-3.24,7.23-1.2,14.78,1.76,21.74,16.73,41.48,27.3,85.23,45.28,126.29l-.28,3.38c-30.12,17.52-59.37,36.43-89.44,54.04-18.12,10.2-34.62,23.31-54.13,31.05,3.24-22.62,13.9-42.96,20.81-64.46,11.91-35.68,23.36-71.51,36.75-106.68,7.69-22.94,17.1-45.51,20.44-69.61l2.18-3.24Z" fill="#108c9a" stroke-width="0"/>
  <path d="M496.06,1598c40.97-49.12,81.1-98.85,120.26-149.41-3.34,24.1-12.74,46.67-20.44,69.61-13.39,35.18-24.84,71-36.75,106.68-6.91,21.5-17.56,41.85-20.81,64.46-1.25,1.11-3.71,3.29-4.96,4.4-12.14-31.75-23.96-63.68-38.14-94.54l.83-1.2Z" fill="#17b3b4" stroke-width="0"/>
  <path d="M636.89,1474.58c-2.97-6.95-5.01-14.51-1.76-21.74,9.55,5.38,22.94,6.95,28.55,17.43,18.03,32.26,34.99,65.16,53.43,97.18-.93,2.46-2.83,7.42-3.75,9.87-11.17,6.77-21.32,15.02-31.19,23.54-17.98-41.06-28.55-84.81-45.28-126.29Z" fill="#10acb0" stroke-width="0"/>
  <path d="M1404.72,1497.71c6.58,4.5,14.04,8.94,16.68,17.1,8.2,22.62,31.37,33.69,43.98,53.39,20.02,27.3,51.91,46.58,62.66,79.94,3.38-.09,6.86-.14,10.29-.14,3.52,16.13,6.81,32.3,10.2,48.48-.05,7.23-6.63,12.19-10.94,17.33-25.03,25.49-48.99,52-74.1,77.39-15.94-61.22-25.58-123.78-39.3-185.42-1.71-36.7-16.13-71.46-19.46-108.07Z" fill="#f0863e" stroke-width="0"/>
  <path d="M458.19,1674.93c2.83-46.76,5.89-93.57,9.87-140.28,13.16,19.33,18.17,42.4,27.99,63.35l-.83,1.2c-4.45,38.09-4.36,76.56-7.65,114.79-13.95-8.11-18.07-24.7-27.99-36.52l-1.39-2.55Z" fill="#f39639" stroke-width="0"/>
  <path d="M723.23,1576.45c8.06-10.57,16.13-21.13,24.15-31.7,7.92,15.76,5.19,33.65,5.47,50.61-.56,33.09.7,66.18-.14,99.22-1.16,29.8-2.13,59.74.32,89.54,1.07,14.51,9.82,26.79,13.67,40.6-3.43,5.61-1.3,11.82-.19,17.89-1.16,2.13-3.48,6.4-4.63,8.53-9.45-.19-18.86-.37-28.27-.51-5.01-24.1-7.92-48.52-11.77-72.81-9.18-41.71-20.48-82.91-27.67-124.99-3.43-13.53-9.87-26.05-13.58-39.44.32-2.32.97-6.86,1.3-9.13l.28-3.38c9.87-8.53,20.02-16.78,31.19-23.54.93-2.46,2.83-7.42,3.75-9.87,1.53,2.27,4.59,6.77,6.12,8.99Z" fill="#119faa" stroke-width="0"/>
  <path d="M487.57,1714c3.29-38.23,3.2-76.7,7.65-114.79,14.18,30.87,26,62.8,38.14,94.54l1.3,3.06c-4.45,50.98-4.63,102.23-10.61,153.12-22.06.28-45.79,7.37-66.74-2.09,8.81-16.27,20.99-30.91,27.48-48.29,2.04-28.46,1.39-57.05,2.78-85.55Z" fill="#179ea7" stroke-width="0"/>
  <path d="M592.45,1658.29c30.08-17.61,59.32-36.52,89.44-54.04-.32,2.27-.97,6.81-1.3,9.13-22.48,78.6-43.01,157.8-66.69,236.08l-3.61-.56c-26.83-49.91-47.22-103.02-75.63-152.1l-1.3-3.06c1.25-1.11,3.71-3.29,4.96-4.4,19.51-7.74,36.01-20.85,54.13-31.05Z" fill="#156881" stroke-width="0"/>
  <path d="M1242.05,1608.42c16.54,11.91,28.18,29.1,44.54,41.25,21.64,16.92,35.59,41.11,55.52,59.78,14.97,13.07,21.27,32.81,35.78,46.39l1.02,1.3c-18.26,31.79-38.6,62.33-56.31,94.5-12.14-1.07-24.33-1.62-36.47-1.95-3.06-39.67-15.8-77.77-22.01-116.97-6.53-41.62-18.86-82.26-22.06-124.29Z" fill="#ec684a" stroke-width="0"/>
  <path d="M613.91,1849.46c23.68-78.27,44.21-157.48,66.69-236.08,3.71,13.39,10.15,25.91,13.58,39.44,7.18,42.08,18.49,83.28,27.67,124.99,3.85,24.28,6.77,48.71,11.77,72.81-39.9-.37-79.85.88-119.71-1.16Z" fill="#1596a3" stroke-width="0"/>
  <path d="M1090.32,1630.76c4.59,9.13,8.71,18.54,12.1,28.27.83-1.67,2.41-5.05,3.24-6.72,5.19,9.04,9.41,19.19,17.52,26.18,13.02,8.85,28.83,12.98,41.39,22.57,5.56,8.48,9.45,18.26,17.15,25.26,18.63,18.54,34.39,39.67,51.4,59.64,7.6,10.1,21.74,11.77,28.96,22.29,8.99,9.69,10.89,23.08,14.51,35.31-1.25,1.9-2.46,3.85-3.66,5.89,3.29.05,9.92.19,13.21.23,12.14.32,24.33.88,36.47,1.95-5.56,4.03-12.74,2.27-19.14,2.78-41.9-.23-83.79.42-125.68-.28-17.75-6.3-33.09-18.07-49.54-27.11-1.2-13.53-3.48-26.88-7.32-39.86-12.23-42.96-15.9-87.82-27.76-130.88-2.32-8.34-2.36-17.05-2.83-25.54Z" fill="#e85555" stroke-width="0"/>
  <path d="M459.58,1677.48c9.92,11.82,14.04,28.41,27.99,36.52-1.39,28.5-.74,57.1-2.78,85.55-6.49,17.38-18.68,32.02-27.48,48.29-.97,1.58-2.92,4.77-3.89,6.35-16.36.23-32.72.05-49.08,0,2.73-13.53,6.67-26.74,10.84-39.86-10.01.23-19.14,4.87-28.5,7.83,23.45-48.66,47.69-96.95,72.9-144.69Z" fill="#f7a934" stroke-width="0"/>
  <path d="M766.52,1842.6c27.06-49.26,47.69-101.86,75.91-150.43,20.9,55.52,51.53,106.96,72.57,162.44-51.67-.19-103.35.6-154.97-.37l1.85-3.11c1.16-2.13,3.48-6.4,4.63-8.53Z" fill="#3a5f7f" stroke-width="0"/>
  <path d="M534.66,1696.8c28.41,49.08,48.8,102.19,75.63,152.1l3.61.56c39.86,2.04,79.8.79,119.71,1.16,9.41.14,18.82.32,28.27.51l-1.85,3.11c-102.19.19-204.42.32-306.61-.05.97-1.58,2.92-4.77,3.89-6.35,20.95,9.45,44.68,2.36,66.74,2.09,5.98-50.89,6.16-102.14,10.61-153.12Z" fill="#1c8497" stroke-width="0"/>
  <rect x="100" y="100" width="1800" height="1800" fill="none" stroke-width="0"/>
</svg>