<?xml version="1.0" encoding="UTF-8"?>
<svg id="a" data-name="Capa 1" xmlns="http://www.w3.org/2000/svg" viewBox="0 0 2000 2000">
  <path d="M403.74,723.86c-1.99-11.63,13.12-14.78,18.68-5.7,6.53-.56,13.07-1.02,19.65-1.44-10.43,8.25-25.86,15.15-38.33,7.14Z" fill="none" stroke-miterlimit="10"/>
  <path d="M421.02,412.38c14.09-8.06,17.75-24.84,28.5-36.01,1.71,13.49,1.3,27.16-.88,40.6-5.47,37.17-6.86,75.08-15.76,111.69-17.1-8.2-34.43-15.94-51.35-24.42,7.32-21.69,13.58-43.7,19.23-65.85l1.44-.42c2.55-.79,7.69-2.36,10.24-3.11,3.11-7.42,5.75-15.02,8.57-22.48Z" fill="none" stroke-miterlimit="10"/>
  <path d="M922.61,480.55c7.37,10.2,6.49,22.94,7.83,34.85,1.44,14.74,5.84,29.01,10.29,43.1-2.46,5.84-5.01,11.73-7.51,17.61,15.9,35.68,33.74,70.54,55.01,103.35-1.39,10.33-2.69,20.67-3.94,31-14.55-11.63-28.92-23.5-42.91-35.82,9.18,1.39,18.31,2.69,27.48,3.99-12.61-17.29-28.73-31.51-42.13-48.15,9.87,3.43,19.6,7.28,29.38,11.03-14.13-18.68-30.17-35.73-46.39-52.51,4.54-7.04,12.56-13.07,12.47-22.11.6-28.78-.42-57.56.42-86.34Z" fill="none" stroke-miterlimit="10"/>
  <path d="M1059.55,524.48c7.09-10.71,18.77-16.54,31.51-16.41,3.89,6.58,7.97,13.16,12.05,19.74,5.1,14.04,13.35,26.6,20.35,39.76,2.83,14.18-.32,28.87.46,43.29-2.41,1.76-7.18,5.24-9.59,6.95-40.83,33.74-78.41,71.32-119.47,104.88-3.2-4.4-6.77-8.48-10.57-12.23,1.25-10.33,2.55-20.67,3.94-31,10.84-11.26,22.66-21.55,33.18-33.09,18.91-33.6,11.96-73.41,20.85-109.56,8.43,2.69,17.05,4.87,25.77,6.77-2.6-6.49-5.38-12.93-8.48-19.09Z" fill="none" stroke-miterlimit="10"/>
  <path d="M613.72,528.61c1.02-1.62,3.11-4.87,4.12-6.49,40.6,41.66,80.59,83.98,122.16,124.67-44.86-27.06-89.35-55.06-131.8-85.83,9.27-8.94,8.67-20.76,5.51-32.35Z" fill="none" stroke-miterlimit="10"/>
  <path d="M1103.12,527.82c17.43,10.43,27.62,28.92,44.49,39.95,2.18,16.22-2.64,32.07-4.31,48.11-1.9,13.81-2.32,28.5-9.55,40.92-5.33-14.83-8.25-30.36-9.82-45.93-.79-14.41,2.36-29.1-.46-43.29-7-13.16-15.25-25.72-20.35-39.76Z" fill="none" stroke-miterlimit="10"/>
  <path d="M291.82,605.45c14.46-11.08,14.13-34.53,28.59-43.7,29.71,16.08,57.19,36.15,85.41,54.78-30.08-3.34-59.55-11.86-89.77-13.53-12.65,7.18,7.51,15.06,12.51,20.85,1.62,10.52,3.34,21.04,5.1,31.56,4.59,27.62,4.4,55.71,4.5,83.65-15.62-36.98-29.66-74.66-44.63-111.87-3.89-6.91-3.29-14.46-1.71-21.74Z" fill="none" stroke-miterlimit="10"/>
  <path d="M528.17,563.74c3.48-.65,10.38-1.95,13.86-2.64,15.94.6,31.93.14,47.87-.42,2.92,4.82,5.79,9.73,8.85,14.55-2.41-.65-7.23-1.95-9.64-2.55-22.48,12-44.03,25.67-65.72,39.07-4.73,3.75-12.88,6.77-11.17,14.37,1.85,30.08,8.16,59.88,7.42,90.14-11.54-11.08-18.54-25.58-26.65-39.11-12.65-21.74-26.93-42.54-38.51-64.93,24.56-16.13,48.1-33.88,73.69-48.48Z" fill="none" stroke-miterlimit="10"/>
  <path d="M442.34,619.26c4.08-2.32,8.11-4.68,12.14-7.04,11.59,22.38,25.86,43.19,38.51,64.93,8.11,13.53,15.11,28.04,26.65,39.11,4.4-3.29,8.9-6.49,13.21-9.82,16.45,5.93,33.74.74,49.22-5.42,7.37,1.07,14.78,1.81,22.2,2.13-5.84,1.9-11.82,3.43-17.7,5.1,3.34,2.69,6.72,5.38,10.1,8.16-.23,2.09-.7,6.21-.93,8.3-2.46-.09-7.37-.23-9.82-.32-12.47-2.18-25.58-1.3-32.26,10.98-4.77-6.4-9.69-12.7-14.69-18.82-4.91,7.51-9.87,14.97-14.41,22.71-2.13-14.46-14.88-22.71-24.28-32.35-8.81-8.85-17.98-17.15-27.57-24.98-12.05-15.15-22.48-31.7-36.43-45.23-11.17-.79-22.34-2.04-33.51-3.01,8.39-2.87,16.78-5.65,25.3-8.11,5.05-1.39,9.78-3.71,14.27-6.3Z" fill="none" stroke-miterlimit="10"/>
  <path d="M994.86,722.7c41.06-33.55,78.65-71.14,119.47-104.88-11.59,23.17-27.99,43.29-42.82,64.37-12.42,17.1-23.91,34.9-37.45,51.16-12.37-1.16-24.75-3.11-36.7-6.49-.6-1.07-1.9-3.11-2.5-4.17Z" fill="none" stroke-miterlimit="10"/>
  <path d="M333.62,631.31l3.34.23c24.56,17.66,54.13,26.88,81.47,39.49-17.7,13.02-43.66,6.44-60.94,20.48-4.96,12.93-3.71,27.2-3.43,40.83,2.27.6,6.77,1.71,9.04,2.32-7.42,4.59-14.78,9.27-22.43,13.63l-1.39.83c-.28-2.5-.83-7.55-1.11-10.06-.09-27.95.09-56.03-4.5-83.65-.23-8.06-.14-16.08-.05-24.1Z" fill="none" stroke-miterlimit="10"/>
  <path d="M679.3,749.95c13.39-29.52,31.56-57.79,54.32-80.96-10.06,32.63-24.28,63.77-36.84,95.47l-2.64,1.58c-4.91-5.42-9.87-10.75-14.83-16.08Z" fill="none" stroke-miterlimit="10"/>
  <path d="M649.87,679.23c12.56-.19,25.12.46,37.68-.23-11.35,3.57-25.16,2.36-33.92,11.63-16.36,15.11-32.63,37.54-57.88,34.06.23-2.09.7-6.21.93-8.3-3.38-2.78-6.77-5.47-10.1-8.16,5.89-1.67,11.86-3.2,17.7-5.1,14.92-8.48,29.15-18.44,45.6-23.91Z" fill="none" stroke-miterlimit="10"/>
  <path d="M973.44,719.96c3.01.93,9.04,2.83,12.05,3.75,8.11,14.13,24.56,18.58,38.33,25.21,7.79,2.83,15.71,7.23,24.24,6.49,12.51-5.05,22.89-13.9,34.25-21.04,8.16-4.63,16.78-8.48,25.4-12.19-5.89,22.25-25.81,37.03-42.08,51.81-20.16.19-39.39-8.39-59.37-10.52-6.77-9.96-14.55-19.19-21.87-28.69-3.75-4.96-7.37-9.87-10.94-14.83Z" fill="none" stroke-miterlimit="10"/>
  <path d="M618.26,753.61c16.73-1.3,33.51-3.61,50.28-1.62-15.06,16.17-30.63,32.02-46.67,47.27-4.59-14.74-6.26-30.4-3.61-45.65Z" fill="none" stroke-miterlimit="10"/>
  <path d="M694.13,766.03l2.64-1.58c4.87,51.81,14.64,103.12,20.62,154.88-19.14-12.56-34.57-29.71-51.91-44.49,4.4-8.02-2.64-14.41-6.77-20.53-12.05-15.85-22.99-32.49-32.67-49.82,22.8-12.65,45.14-26.09,68.08-38.47Z" fill="none" stroke-miterlimit="10"/>
  <path d="M1143.11,1180.3c16.45-10.75,32.26-22.75,50.1-31.19-30.22,60.29-65.95,117.81-98.94,176.66-11.22,20.16-24.75,39.16-32.77,60.94-4.73,5.38-9.59,10.71-13.95,16.45-43.52-26.83-90.28-48.15-133.05-76.1l2.09-2.6c2.87-1.48,8.62-4.5,11.54-5.98,25.49-12.42,48.01-29.94,72.06-44.86,47.5-31.33,95.33-62.15,142.92-93.34Z" fill="none" stroke-miterlimit="10"/>
  <path d="M584.39,797.54c3.52.6,10.52,1.81,14,2.36,9.22,1.58,18.4,3.11,27.67,4.59,9.69,17.33,20.62,33.97,32.67,49.82,4.12,6.12,11.17,12.51,6.77,20.53-22.66-21.6-45.28-43.19-67.8-64.97-4.31-4.26-8.67-8.48-13.3-12.33Z" fill="none" stroke-miterlimit="10"/>
  <path d="M374.22,885.18c19.23-14.23,39.16-29.15,62.33-36.24,8.53-1.16,17.1-1.95,25.67-2.73,1.02,15.11,1.07,30.36-1.11,45.42.79-11.91.28-23.82-.42-35.64-21.13,10.29-43.38,18.03-65.53,25.86-12.42,3.75-12.98,18.95-17.15,29.2-1.02-8.71-2.41-17.29-3.8-25.86Z" fill="none" stroke-miterlimit="10"/>
  <path d="M516.63,879.06l4.22-1.53-.7,3.99c-9.82,16.78-21.69,32.26-33.55,47.64l-2.46,1.53c-8.48-7.69-16.92-15.39-25.26-23.13,16.68-14.18,37.58-21.04,57.74-28.5Z" fill="none" stroke-miterlimit="10"/>
  <path d="M543.28,901.12c5.89,3.06,11.77,6.12,17.61,9.27l-.19,2.32c-1.25,11.45-3.06,22.85-4.59,34.34-12.28.93-24.61,1.34-36.89,2.22,7.14-15.48,16.92-29.61,22.94-45.56l1.11-2.6Z" fill="none" stroke-miterlimit="10"/>
  <path d="M1348.55,904.74c57.37,6.77,101.26,48.06,154.65,65.9,27.57,13.02,54.69,27.06,80.87,42.68-1.11,1.48-3.38,4.4-4.5,5.89-20.81.56-37.49,15.29-56.35,22.43-43.38,15.9-81.24,45.79-126.75,55.98-17.43-63.91-33.51-128.28-47.92-192.88Z" fill="none" stroke-miterlimit="10"/>
  <path d="M560.71,912.71c18.68,14.74,33.92,33.65,46.48,53.76-14.64-7.14-30.03-12.65-45.6-17.52-2.69,7.04-5.42,14.09-7.92,21.27l-.88,2.78c-12.19-5.89-24.42-11.68-37.03-16.68.83-1.76,2.6-5.28,3.48-7.04,12.28-.88,24.61-1.3,36.89-2.22,1.53-11.49,3.34-22.89,4.59-34.34Z" fill="none" stroke-miterlimit="10"/>
  <path d="M463.85,1098.78c21.23-13.44,43.01-26.05,65.58-37.03-3.43,13.07-5.56,26.46-8.57,39.67-19.05.05-38.05-.56-57-2.64Z" fill="none" stroke-miterlimit="10"/>
  <path d="M893.64,1092.85c7.14-1.48,15.39.79,20.76,5.75,9.55,14.83,16.68,31.28,27.85,45.14-2.78,29.15-.79,59.55-12.61,87.08-5.51-14.37-11.17-28.73-17.29-42.82-6.81,30.77-14.37,61.41-19.84,92.46-7.69-26.32-12.61-53.34-19.37-79.9-1.07,1.25-3.2,3.8-4.26,5.05-10.98,11.49-15.29,27.2-22.01,41.25-.23-17.8-17.05-24.24-27.95-34.99-17.1,5.89-22.99,23.91-33.55,36.8-14.23-20.39-8.06-47.13-18.77-69.15-6.3-25.26-10.75-51.02-14.46-76.75.09-2.5.32-7.55.46-10.06l1.3,2.83c1.3,2.55,3.94,7.65,5.28,10.2,23.08,7.14,15.85,39.11,36.7,49.4,10.75,5.1,16.59,15.76,25.35,23.22,7.92-4.17,14.18-10.71,19.37-17.89,16.45-23.4,32.39-47.64,53.02-67.62Z" fill="none" stroke-miterlimit="10"/>
  <path d="M1200.95,1140.12c62.7-14,126.94-19.23,189.78-32.39l5.89.19c-7.69,7.69-15.57,15.2-23.59,22.62-37.17,25.81-68.91,58.58-104.51,86.48-18.44-29.15-46.9-49.59-67.57-76.88Z" fill="none" stroke-miterlimit="10"/>
  <path d="M256.78,1161.81c8.53-16.92,23.5-29.94,42.31-33.74-1.62,10.2-3.24,20.48-4.77,30.77-12.47,4.77-25.44,8.2-38.93,7.83l1.39-4.87Z" fill="none" stroke-miterlimit="10"/>
  <path d="M1268.52,1217c35.59-27.9,67.34-60.66,104.51-86.48-21.55,37.86-59.13,62.8-85.23,97.23-27.39,29.61-57.28,56.82-84.02,87.03-3.61,4.5-5.56,10.01-8.02,15.2,1.9,1.95,5.75,5.79,7.65,7.74-1.76,2.36-3.52,4.82-5.24,7.32,4.31,1.3,8.57,2.69,12.88,4.17,7.55,15.25,23.82,22.75,33.37,36.47,9.27,12.47,15.71,27.25,27.95,37.35,30.63,26.42,53.81,60.06,83.14,87.82,12.98,13.21,26.46,26,39.11,39.62,14.6,15.53,20.02,36.7,29.57,55.29,13.72,61.64,23.36,124.2,39.3,185.42-16.82,16.73-31.47,35.68-49.45,51.26-10.89-31.28-17.61-63.82-27.2-95.47-2.22,2.22-6.72,6.63-8.94,8.85-14.51-13.58-20.81-33.32-35.78-46.39-19.93-18.68-33.88-42.87-55.52-59.78-16.36-12.14-27.99-29.34-44.54-41.25-18.86-88.42-36.47-177.17-52.74-266.11-1.58-4.31-3.48-8.39-5.7-12.28-21.83,8.99-43.01,19.56-63.58,31.05-14.46,7.88-28.18,19.79-45.56,19.23,62.75-56.63,129.11-109.14,194.04-163.32Z" fill="none" stroke-miterlimit="10"/>
  <path d="M314.06,1156.8c13.07-1.07,26.18-2.09,39.3-2.22l3.52-.05c4.91,33.78,20.3,64.74,29.94,97.28,11.63,40.55,27.95,79.48,40.41,119.75-11.86.42-23.64.97-35.45,2.09,2.55,30.82-.32,61.82.74,92.73-15.94-33.14-20.95-71-38.05-103.81-.88,31.19-.42,62.47-.37,93.66-10.47-37.68-15.34-76.88-25.54-114.75,3.34-19.14,2.6-38.56-1.58-57.47-5.28-42.31-7.69-84.9-12.93-127.21Z" fill="none" stroke-miterlimit="10"/>
  <path d="M665.91,1282.9c18.44-36.52,34.02-74.38,52.09-111.04,5.56,22.62-4.45,44.35-7.04,66.55-1.99,16.64-7.83,32.39-12.33,48.48-1.67,6.16-3.61,14.97,4.36,17.52-.37-4.77-.74-9.5-1.16-14.13,4.54,3.06,9.08,6.12,13.67,9.27-21.87,20.58-45.79,38.84-68.59,58.39.05-2.5.19-7.51.23-10.06,7.09-21.46,7.79-44.81,18.77-64.97Z" fill="none" stroke-miterlimit="10"/>
  <path d="M1351.19,1220.48c12.93-6.12,26.88-9.45,41.11-10.52-3.06,2.73-6.07,5.56-9.04,8.48,21.6,23.54,42.5,47.87,62.56,72.76,6.77,6.91,16.73,10.29,22.06,18.68,22.62,35.55,56.17,62.05,81.8,95.14,21.74,21.23,35.73,49.36,60.48,67.66-.46,15.8,7.42,29.71,15.39,42.82.93-2.69,2.87-8.06,3.8-10.75,2.46.83,7.28,2.5,9.69,3.34-30.68,62.52-58.02,126.8-90.51,188.39-3.38-16.17-6.67-32.35-10.2-48.48-3.43,0-6.91.05-10.29.14-10.75-33.37-42.64-52.65-62.66-79.94-12.61-19.7-35.78-30.77-43.98-53.39-2.64-8.16-10.1-12.61-16.68-17.1-9.04-51.58-23.08-102.23-30.36-154.14-10.06-40.6-15.71-82.03-23.17-123.09Z" fill="none" stroke-miterlimit="10"/>
  <path d="M496.06,1598c40.97-49.12,81.1-98.85,120.26-149.41-3.34,24.1-12.74,46.67-20.44,69.61-13.39,35.18-24.84,71-36.75,106.68-6.91,21.5-17.56,41.85-20.81,64.46-1.25,1.11-3.71,3.29-4.96,4.4-12.14-31.75-23.96-63.68-38.14-94.54l.83-1.2Z" fill="none" stroke-miterlimit="10"/>
  <path d="M1404.72,1497.71c6.58,4.5,14.04,8.94,16.68,17.1,8.2,22.62,31.37,33.69,43.98,53.39,20.02,27.3,51.91,46.58,62.66,79.94,3.38-.09,6.86-.14,10.29-.14,3.52,16.13,6.81,32.3,10.2,48.48-.05,7.23-6.63,12.19-10.94,17.33-25.03,25.49-48.99,52-74.1,77.39-15.94-61.22-25.58-123.78-39.3-185.42-1.71-36.7-16.13-71.46-19.46-108.07Z" fill="none" stroke-miterlimit="10"/>
  <rect x="100" y="100" width="1800" height="1800" fill="none" stroke-width="0"/>
</svg>