<?xml version="1.0" encoding="UTF-8"?>
<svg id="a" data-name="Capa 1" xmlns="http://www.w3.org/2000/svg" viewBox="0 0 2000 2000">
  <path d="M937.99,463.08c23.26-12.93,48.11-22.62,71.32-35.55,19.6,5.33,38.98,11.45,58.44,17.38,8.48,3.2,20.62,2.97,24.33,13.07,19.51,36.06,35.92,73.73,55.52,109.79-16.87-11.03-27.06-29.52-44.49-39.95-4.08-6.58-8.16-13.16-12.05-19.74-7.23-12.51-13.72-25.35-20.35-38.14-11.86-1.81-23.68-3.75-35.36-6.26-31.93-12.37-64.84,1.71-97.37-.6Z" fill="none" stroke-miterlimit="10"/>
  <path d="M618.08,519.57l2.22.46,4.22,1.25c26.93,16.31,56.35,28.04,84.3,42.5,46.67,24.42,95.47,44.44,142.37,68.54-.83,35.64-12.88,70.07-12.7,105.8.46,54.59,1.58,109.19.7,163.78.14,5.65.37,11.31.65,17.05,11.77-6.91,22.8-14.92,33.28-23.54,10.61,7.65,15.39,20.44,14.41,33.27-17.61,24.15-33.04,49.87-51.58,73.36-9.04-40.46-17.43-81.1-27.57-121.28-1.34-8.48-7.51-14.41-13.3-20.07.56-6.16,1.16-12.33,1.99-18.35,5.1-29.89,1.02-60.29,2.41-90.42-.88-13.58,3.24-29.61-6.77-40.74-16.73-20.58-32.53-41.9-50.19-61.68-.65-.7-1.85-2.04-2.5-2.73-41.57-40.69-81.57-83-122.16-124.67l.23-2.55Z" fill="none" stroke-miterlimit="10"/>
  <path d="M479.33,552.66c29.06-9.22,58.81-15.94,88.52-22.57,0,1.85.05,5.51.05,7.37-13.25,8.76-30.54,12.19-39.72,26.28-16.82-.97-33.92-2.55-48.85-11.08Z" fill="none" stroke-miterlimit="10"/>
  <path d="M296.27,565.92c6.44-5.14,12.84-10.29,19.14-15.53l3.94,1.2c35.96,10.57,72.16,20.34,108.17,30.68,14.32-8.34,28.27-17.29,42.4-25.91-3.94,22.99-17.47,42.36-27.57,62.89-4.5,2.6-9.22,4.91-14.27,6.3-7.55-2.69-14.92-5.89-22.25-9.04-28.22-18.63-55.71-38.7-85.41-54.78-14.46,9.18-14.13,32.63-28.59,43.7,1.44-13.21,3.06-26.37,4.45-39.53Z" fill="none" stroke-miterlimit="10"/>
  <path d="M589.9,560.68c6.07-.09,12.19,0,18.31.28,42.45,30.77,86.94,58.76,131.8,85.83-16.27,12.47-34.02,23.26-52.46,32.21-12.56.7-25.12.05-37.68.23.19-13.9,12.98-16.22,24.05-17.47-19.88-33.14-51.63-56.45-75.17-86.52-3.06-4.82-5.93-9.73-8.85-14.55Z" fill="none" stroke-miterlimit="10"/>
  <path d="M855.27,624.68c17.8-12.51,31.61-32.21,54.45-35.68,16.22,16.78,32.26,33.83,46.39,52.51-9.78-3.75-19.51-7.6-29.38-11.03,13.39,16.64,29.52,30.87,42.13,48.15-9.18-1.3-18.31-2.6-27.48-3.99,14,12.33,28.36,24.19,42.91,35.82,3.8,3.75,7.37,7.83,10.57,12.23.6,1.07,1.9,3.11,2.5,4.17-2.97-.79-8.9-2.36-11.86-3.15-3.01-.93-9.04-2.83-12.05-3.75,3.57,4.96,7.18,9.87,10.94,14.83-7.28.23-13.9,3.1-18.49,8.9-13.3,14.46-28.59,27.16-40.88,42.54-5.47,7.97,2.27,15.62,6.49,21.97-4.4,7.46-8.67,15.06-12.37,22.99,12.23-4.82,20.25-16.73,33.55-19.28-13.07,18.54-34.02,28.69-48.89,45.46-15.06,16.13-32.02,30.54-50.28,42.96-4.08,3.24-9.64,1.07-14.32,1.58.88-54.59-.23-109.19-.7-163.78-.19-35.73,11.86-70.16,12.7-105.8,1.02-1.95,3.06-5.75,4.08-7.65Z" fill="none" stroke-miterlimit="10"/>
  <path d="M1114.33,617.82c2.41-1.71,7.18-5.19,9.59-6.95,1.58,15.57,4.5,31.1,9.82,45.93-.79,1.48-2.36,4.4-3.15,5.89-24.89,19.97-42.68,46.99-63.49,70.91-11.03.09-22.06.56-33.04-.23,13.53-16.27,25.03-34.06,37.45-51.16,14.83-21.09,31.24-41.2,42.82-64.37Z" fill="none" stroke-miterlimit="10"/>
  <path d="M742.51,649.52c17.66,19.79,33.46,41.11,50.19,61.68,10.01,11.12,5.89,27.16,6.77,40.74-1.39,30.12,2.69,60.53-2.41,90.42-1.58,1.34-4.77,3.99-6.35,5.33-1.48,8.48-2.18,17.1-3.29,25.72-16.41-69.42-35.92-138.06-52.04-207.53,2.78-5.28,5.1-10.8,7.14-16.36Z" fill="none" stroke-miterlimit="10"/>
  <path d="M590.46,690.12c-4.68-15.25,11.96-15.66,22.34-16.41,1.53,4.17,3.06,8.34,4.63,12.61-8.9,1.95-17.94,3.06-26.97,3.8Z" fill="none" stroke-miterlimit="10"/>
  <path d="M472.7,681.91c9.59,7.83,18.77,16.13,27.57,24.98,9.41,9.64,22.15,17.89,24.28,32.35-.7,9.18-1.07,18.35-.65,27.62-5.1-9.41-10.43-18.63-15.62-27.9-11.86,13.95-20.44,30.54-34.2,42.78.37-8.76,10.2-20.3.42-26.65-11.12,6.53-19.42,16.5-28.27,25.58-26.14,17.75-57.47,25.12-85.27,39.76-5.89,1.9-11.73,3.85-17.47,6.16-.56-26.14-3.43-52.18-2.83-78.32,7.65-4.36,15.02-9.04,22.43-13.63,5.51-2.46,11.08-4.73,16.73-6.77,9.87,17.84,23.87,40.23,47.6,37.45,18.12,1.76,27.76-16.13,39.76-26.32,1.07,3.11,3.2,9.32,4.26,12.42,1.02-6.86,2.09-13.72,2.97-20.48,2.18-16.36,1.53-32.95-1.71-49.03Z" fill="none" stroke-miterlimit="10"/>
  <path d="M524.56,739.24c4.54-7.74,9.5-15.2,14.41-22.71,5.01,6.12,9.92,12.42,14.69,18.82,6.67-12.28,19.79-13.16,32.26-10.98-6.53,1.62-13.02,3.52-19.46,5.42,6.07,5.61,12.23,11.17,18.31,16.82-14,1.67-27.16-2.92-40.41-6.53-7.51,7.28-5.79,17.75-2.46,26.6l1.07,3.66c8.02,26.69,17.94,53.02,22.06,80.73-10.24-14.88-19.09-30.63-26.46-47.09-3.43-12.93-8.34-25.4-14.64-37.12-.42-9.27-.05-18.44.65-27.62Z" fill="none" stroke-miterlimit="10"/>
  <path d="M985.49,723.72c2.97.79,8.9,2.36,11.86,3.15,11.96,3.38,24.33,5.33,36.7,6.49,10.98.79,22.01.32,33.04.23,3.8.19,11.4.6,15.2.79-11.35,7.14-21.74,15.99-34.25,21.04-8.53.74-16.45-3.66-24.24-6.49-13.76-6.63-30.22-11.08-38.33-25.21Z" fill="none" stroke-miterlimit="10"/>
  <path d="M965.89,743.69c4.59-5.79,11.22-8.67,18.49-8.9,7.32,9.5,15.11,18.72,21.87,28.69,17.24,29.85,34.57,59.69,52.65,89.07,6.02,9.22,10.15,20.48,19.09,27.34,24.7,11.54,52.69,12.28,78.14,21.55-18.26,33.51-40.09,64.93-59.51,97.74-6.3,10.94-7.79,23.64-10.38,35.78-1.85-3.99-3.66-7.92-5.47-11.82-24.79,32.21-36.19,71.32-47.41,109.65-1.07-14-1.58-28.08-3.29-41.99-13.53,19.56-23.26,41.43-31.88,63.54-1.67,1.85-5.05,5.51-6.72,7.37-4.17-20.25-1.58-41.57-9.04-61.13-5.24-15.11-13.35-30.36-9.32-46.85-7-11.12-15.8-21.55-19.6-34.29-.42-12.14,5.75-23.91,3.34-36.1-3.43-16.31-2.73-35.55-16.59-47.22-.19-3.48-.28-6.86-.37-10.24-12.88-1.07-26.83-7.51-38.74.46.88-6.16,1.67-12.33,2.64-18.4,13.63-25.49,33.88-46.44,48.94-71,12.93-20.85,30.73-38.7,40.27-61.54-14.18,11.31-26.42,24.84-40.32,36.52-13.3,2.55-21.32,14.46-33.55,19.28,3.71-7.92,7.97-15.53,12.37-22.99-4.22-6.35-11.96-14-6.49-21.97,12.28-15.39,27.57-28.08,40.88-42.54Z" fill="none" stroke-miterlimit="10"/>
  <path d="M474.09,781.74c13.76-12.23,22.34-28.83,34.2-42.78,5.19,9.27,10.52,18.49,15.62,27.9,6.3,11.73,11.22,24.19,14.64,37.12-5.47-8.16-10.33-16.73-14.23-25.67-26.23.79-52.04,10.8-78.09,2.36,8.85-9.08,17.15-19.05,28.27-25.58,9.78,6.35-.05,17.89-.42,26.65Z" fill="none" stroke-miterlimit="10"/>
  <path d="M395.16,881.84c22.15-7.83,44.4-15.57,65.53-25.86.7,11.82,1.2,23.73.42,35.64-.65,6.16-3.89,12-9.82,14.55-23.5,13.86-49.68,23.17-71.42,39.95l-2.36,1.48c-.14-12.23-.23-24.42.51-36.57,4.17-10.24,4.73-25.44,17.15-29.2Z" fill="none" stroke-miterlimit="10"/>
  <path d="M562.93,858.62l4.91-1.95,4.36,3.61-1.85,1.85c-10.06,14-7.79,32.02-9.45,48.24-5.84-3.15-11.73-6.21-17.61-9.27l.97-2.32c5.93-13.58,12.51-26.79,18.68-40.18Z" fill="none" stroke-miterlimit="10"/>
  <path d="M560.89,910.39c1.67-16.22-.6-34.25,9.45-48.24,16.13,36.89,32.26,73.73,48.48,110.58-2.22-.42-6.67-1.25-8.9-1.67l-2.73-4.59c-12.56-20.11-27.81-39.02-46.48-53.76l.19-2.32Z" fill="none" stroke-miterlimit="10"/>
  <path d="M1162.16,901.82c59.51-7.14,119.75-3.66,179.21-11.17,2.5,4.59,4.96,9.22,7.18,14.09,14.41,64.6,30.49,128.98,47.92,192.88-1.21,2.18-3.66,6.49-4.87,8.67-13.3-10.61-23.73-24.1-36.01-35.68-20.76-19.7-44.26-36.29-65.16-55.8-39.67-41.15-87.78-72.81-128.28-112.99Z" fill="none" stroke-miterlimit="10"/>
  <path d="M379.87,946.12c28.46-7.83,53.16-24.84,79.02-38.56,8.34,7.74,16.78,15.43,25.26,23.13-22.89,15.62-45.46,31.88-67.48,48.75-.7.19-2.13.56-2.87.74-35.55,8.67-70.72,19.19-106.92,25.03,1.67-22.48.79-45,1.39-67.43,13.67,5.98,26.18,14.18,39.72,20.48.32-2.04.97-6.02,1.3-8.02l1.44-7.79c3.06-.6,9.18-1.76,12.23-2.32.83,3.61,2.5,10.89,3.34,14.55,2.83-1.76,8.43-5.33,11.22-7.09l2.36-1.48Z" fill="none" stroke-miterlimit="10"/>
  <path d="M553.66,970.22c2.5-7.18,5.24-14.23,7.92-21.27,15.57,4.87,30.96,10.38,45.6,17.52l2.73,4.59c-16.45,2.22-35.41-3.94-50.1,5.38-1.53-1.58-4.63-4.68-6.16-6.21Z" fill="none" stroke-miterlimit="10"/>
  <path d="M559.82,976.43c14.69-9.32,33.65-3.15,50.1-5.38,2.22.42,6.67,1.25,8.9,1.67,1.95,4.5,3.89,9.08,5.79,13.67,1.85,15.85,8.71,30.26,14.92,44.72-5.56-3.57-11.17-7.14-16.59-10.89-20.44-15.48-41.66-29.8-63.12-43.8Z" fill="none" stroke-miterlimit="10"/>
  <path d="M753.91,1095.54c23.26-29.43,48.24-57.74,74.61-84.39,7.18,10.38,12.84,23.54,25.91,27.71,12.61,4.73,22.34,15.99,24.28,29.47,1.62,3.85.56,10.47,6.21,11.08,26.42-16.45,36.7-48.11,59.92-67.71,2.64,32.26.79,64.7,1.62,97.09.46,11.77-1.53,23.45-4.22,34.94-11.17-13.86-18.31-30.31-27.85-45.14-5.38-4.96-13.63-7.23-20.76-5.75-20.62,19.97-36.57,44.21-53.02,67.62-5.19,7.18-11.45,13.72-19.37,17.89-8.76-7.46-14.6-18.12-25.35-23.22-20.85-10.29-13.63-42.27-36.7-49.4-1.34-2.55-3.99-7.65-5.28-10.2Z" fill="none" stroke-miterlimit="10"/>
  <path d="M242.74,1133.03c13.21-15.57,26.6-31.1,41.71-44.81,6.63,12.88,13.63,25.58,19.33,38.93l-4.68.93c-18.82,3.8-33.78,16.82-42.31,33.74-5.24-8.81-10.66-17.47-16.73-25.63l2.69-3.15Z" fill="none" stroke-miterlimit="10"/>
  <path d="M722.82,1126.08c7.65-7.88,14.64-17.05,25.21-21.23-10.52,22.11-20.02,44.68-30.03,67.01-18.07,36.66-33.65,74.52-52.09,111.04-10.98,20.16-11.68,43.52-18.77,64.97-8.11-18.17-11.31-38.19-20.48-55.94,8.62-33.55,23.08-65.3,33.27-98.39,5.05-6.53,10.57-12.65,15.94-18.86,15.15-16.64,31.56-32.16,46.95-48.61Z" fill="none" stroke-miterlimit="10"/>
  <path d="M1396.61,1107.91c2.87.7,8.57,2.09,11.45,2.78,30.54,22.43,50.19,59,85.83,74.61-33.23,10.47-67.94,15.43-101.59,24.66-14.23,1.07-28.18,4.4-41.11,10.52,7.46,41.06,13.12,82.49,23.17,123.09,7.28,51.91,21.32,102.56,30.36,154.14,3.34,36.61,17.75,71.37,19.46,108.07-9.55-18.58-14.97-39.76-29.57-55.29-12.65-13.63-26.14-26.42-39.11-39.62-29.34-27.76-52.51-61.41-83.14-87.82-12.23-10.1-18.68-24.89-27.95-37.35-9.55-13.72-25.81-21.23-33.37-36.47-4.31-1.48-8.57-2.87-12.88-4.17,1.71-2.5,3.48-4.96,5.24-7.32-1.9-1.95-5.75-5.79-7.65-7.74,2.46-5.19,4.4-10.71,8.02-15.2,26.74-30.22,56.63-57.42,84.02-87.03,26.09-34.43,63.68-59.37,85.23-97.23,8.02-7.42,15.9-14.92,23.59-22.62Z" fill="none" stroke-miterlimit="10"/>
  <path d="M303.77,1127.14c22.52-2.04,45.32-1.71,67.62-5.93-5.56,11.35-11.68,22.38-18.03,33.37-13.12.14-26.23,1.16-39.3,2.22-5.65.37-11.26.88-16.87,1.44l-2.87.6c1.53-10.29,3.15-20.58,4.77-30.77l4.68-.93Z" fill="none" stroke-miterlimit="10"/>
  <path d="M424.36,1121.21c35.27,2.41,70.54,7.69,105.99,5.33-11.26,8.06-22.57,16.41-31.37,27.25-33.46-.28-66.92-.46-100.33-.05l-4.87.09c9.69-11.35,20.11-22.06,30.59-32.63Z" fill="none" stroke-miterlimit="10"/>
  <path d="M1198.58,1136.78l2.36,3.34c20.67,27.3,49.12,47.73,67.57,76.88-64.93,54.18-131.29,106.68-194.04,163.32-4.36,2.04-8.71,4.08-12.98,6.4,8.02-21.78,21.55-40.78,32.77-60.94,33-58.86,68.73-116.37,98.94-176.66,1.76-4.17,3.57-8.3,5.38-12.33Z" fill="none" stroke-miterlimit="10"/>
  <path d="M636.89,1474.58c-2.97-6.95-5.01-14.51-1.76-21.74,9.55,5.38,22.94,6.95,28.55,17.43,18.03,32.26,34.99,65.16,53.43,97.18-.93,2.46-2.83,7.42-3.75,9.87-11.17,6.77-21.32,15.02-31.19,23.54-17.98-41.06-28.55-84.81-45.28-126.29Z" fill="none" stroke-miterlimit="10"/>
  <path d="M723.23,1576.45c8.06-10.57,16.13-21.13,24.15-31.7,7.92,15.76,5.19,33.65,5.47,50.61-.56,33.09.7,66.18-.14,99.22-1.16,29.8-2.13,59.74.32,89.54,1.07,14.51,9.82,26.79,13.67,40.6-3.43,5.61-1.3,11.82-.19,17.89-1.16,2.13-3.48,6.4-4.63,8.53-9.45-.19-18.86-.37-28.27-.51-5.01-24.1-7.92-48.52-11.77-72.81-9.18-41.71-20.48-82.91-27.67-124.99-3.43-13.53-9.87-26.05-13.58-39.44.32-2.32.97-6.86,1.3-9.13l.28-3.38c9.87-8.53,20.02-16.78,31.19-23.54.93-2.46,2.83-7.42,3.75-9.87,1.53,2.27,4.59,6.77,6.12,8.99Z" fill="none" stroke-miterlimit="10"/>
  <path d="M1242.05,1608.42c16.54,11.91,28.18,29.1,44.54,41.25,21.64,16.92,35.59,41.11,55.52,59.78,14.97,13.07,21.27,32.81,35.78,46.39l1.02,1.3c-18.26,31.79-38.6,62.33-56.31,94.5-12.14-1.07-24.33-1.62-36.47-1.95-3.06-39.67-15.8-77.77-22.01-116.97-6.53-41.62-18.86-82.26-22.06-124.29Z" fill="none" stroke-miterlimit="10"/>
  <path d="M459.58,1677.48c9.92,11.82,14.04,28.41,27.99,36.52-1.39,28.5-.74,57.1-2.78,85.55-6.49,17.38-18.68,32.02-27.48,48.29-.97,1.58-2.92,4.77-3.89,6.35-16.36.23-32.72.05-49.08,0,2.73-13.53,6.67-26.74,10.84-39.86-10.01.23-19.14,4.87-28.5,7.83,23.45-48.66,47.69-96.95,72.9-144.69Z" fill="none" stroke-miterlimit="10"/>
  <path d="M534.66,1696.8c28.41,49.08,48.8,102.19,75.63,152.1l3.61.56c39.86,2.04,79.8.79,119.71,1.16,9.41.14,18.82.32,28.27.51l-1.85,3.11c-102.19.19-204.42.32-306.61-.05.97-1.58,2.92-4.77,3.89-6.35,20.95,9.45,44.68,2.36,66.74,2.09,5.98-50.89,6.16-102.14,10.61-153.12Z" fill="none" stroke-miterlimit="10"/>
  <rect x="100" y="100" width="1800" height="1800" fill="none" stroke-width="0"/>
</svg>