<?xml version="1.0" encoding="UTF-8"?>
<svg id="a" data-name="Capa 1" xmlns="http://www.w3.org/2000/svg" viewBox="0 0 2000 2000">
  <path d="M952.5,1536.5c31.65-42.36,60.15-87.03,92.22-128.98l.37,5.42c-17.01,105.48-28.22,211.79-44.3,317.41-5.19,41.43-13.76,82.45-16.82,124.16-22.99.37-45.97.23-68.96.09-21.04-55.47-51.67-106.92-72.57-162.44,35.64-52.65,73.36-103.81,110.07-155.67Z" fill="none" stroke-miterlimit="10"/>
  <path d="M807.63,291.93c55.38-6.63,111.23-1.85,166.79-3.66,12.93.28,26.51-1.85,38.93,2.41,3.48,4.12,6.49,8.71,9.64,13.21,7.32,1.95,14.74,3.89,21.92,6.53-28.27,5.84-56.17-4.73-84.53-3.2-27.99,1.58-55.52-4.96-83.47-4.59-23.31-.32-46.34-5.51-69.7-3.99-29.29,1.39-58.63-1.71-87.87,0-46.16,10.43-78.55,47.18-116.65,72.44-35.64,32.3-72.57,63.07-107.52,96.07-19.93,15.29-38,32.86-54.13,52.09,2.55.7,7.6,2.13,10.15,2.83-5.65,3.24-11.59,6.53-18.31,6.58,8.9-36.61,10.29-74.52,15.76-111.69,2.18-13.44,2.6-27.11.88-40.6-10.75,11.17-14.41,27.95-28.5,36.01-2.83,7.46-5.47,15.06-8.57,22.48-2.55.74-7.69,2.32-10.24,3.11,3.48-16.36,5.56-34.39,14.6-48.61,27.53-26.37,53.9-54.18,82.58-79.2,30.31,2.22,58.72-11.35,88.7-13.58,31.42,2.92,63.26,1.71,94.59-2.27,41.57-3.34,83.33-1.25,124.94-2.36Z" fill="none" stroke-miterlimit="10"/>
  <path d="M659.19,418.54c12-4.96,23.68-11.77,36.75-13.49,19.09,4.54,33.41,18.82,50.14,27.99,9.32,4.96,18.44,10.33,26.51,17.24-16.68-.28-33.32,1.3-49.77,3.89-45.6,4.12-91.39,4.31-137.04,7.74-8.16-.88-16.22-2.09-24.28-3.34,30.82-17.29,65.72-25.3,97.69-40.04Z" fill="none" stroke-miterlimit="10"/>
  <path d="M722.82,454.18c16.45-2.6,33.09-4.17,49.77-3.89,9.27.09,18.58.05,27.9.28,3.61.32,10.8.93,14.41,1.21-13.02,14.23-3.01,33.09-2.27,49.68-4.26,8.85-15.39,8.48-23.68,9.5-18.58.88-37.21,2.64-55.24,7.6,27.76,4.82,55.94,5.38,83.98,5.01,3.52,15.8.97,31.88-2.18,47.55-18.31,1.39-35.13-6.95-52.46-11.35-18.86-4.96-37.4-11.17-55.75-17.75-18.86-6.77-39.44-8.02-57.42-17.24-7.74-4.54-16.87-3.15-25.35-3.48l-4.22-1.25c30.12-14.97,63.21-22.66,92.97-38.33,17.19-8.81,35.22-15.9,52.23-25.12-14.27,0-28.5-.88-42.68-2.41Z" fill="none" stroke-miterlimit="10"/>
  <path d="M585.78,461.92c45.65-3.43,91.44-3.61,137.04-7.74,14.18,1.53,28.41,2.41,42.68,2.41-17.01,9.22-35.04,16.31-52.23,25.12-29.75,15.66-62.84,23.36-92.97,38.33l-2.22-.46c-22.01-18.12-43.47-36.84-65.95-54.36,11.22-1.07,22.43-2.18,33.65-3.29Z" fill="none" stroke-miterlimit="10"/>
  <path d="M451.19,522.07c28.92-17.29,58.39-33.65,87.27-50.98-.88,6.53-2.46,13.44-7.88,17.89-19.93,20.48-42.87,38.7-57.7,63.58-.74.93-2.22,2.87-2.97,3.8-14.13,8.62-28.08,17.56-42.4,25.91-36.01-10.33-72.2-20.11-108.17-30.68,3.48-7.37,10.66-11.45,17.1-15.85,15.34-10.06,29.15-22.34,45.09-31.51,16.92,8.48,34.25,16.22,51.35,24.42,6.72-.05,12.65-3.34,18.31-6.58Z" fill="none" stroke-miterlimit="10"/>
  <path d="M567.84,530.09c16.59-4.26,33.32-7.83,50.24-10.52l-.23,2.55c-1.02,1.62-3.1,4.87-4.12,6.49-21.5,15.85-48.2,20.67-71.69,32.49-3.48.7-10.38,1.99-13.86,2.64,9.18-14.09,26.46-17.52,39.72-26.28,0-1.85-.05-5.51-.05-7.37Z" fill="none" stroke-miterlimit="10"/>
  <path d="M542.03,561.1c23.5-11.82,50.19-16.64,71.69-32.49,3.15,11.59,3.75,23.4-5.51,32.35-6.12-.28-12.23-.37-18.31-.28-15.94.56-31.93,1.02-47.87.42Z" fill="none" stroke-miterlimit="10"/>
  <path d="M1189.59,616.34c-18.86-21.46-15.39-51.53-12.19-77.49,11.96,4.59,22.48,11.86,33.37,18.49,31.88,18.72,64.74,36.1,94.36,58.44,29.29,20.99,63.91,33.46,92.04,56.17-8.06-1.3-16.17-2.09-24.28-2.87,6.16,7.55,13.35,14.46,18.03,23.17-1.76,4.36-3.89,8.67-5.93,13.02,5.01,7.65,8.53,16.08,9.82,25.21,3.15,21.36,19.23,37.58,24.42,58.25,6.35,22.2,16.82,42.96,22.2,65.44,2.6,13.16,12.37,23.22,16.13,36.01,3.85,10.94,5.98,24.24,17.7,29.71,4.26,19.33,12.23,37.86,27.95,50.75-53.39-17.84-97.28-59.13-154.65-65.9-2.22-4.87-4.68-9.5-7.18-14.09-45.74-75.87-91.39-151.82-137.73-227.36-8.2-12.84-15.06-26.46-22.89-39.53,2.22-1.85,6.63-5.56,8.85-7.42Z" fill="none" stroke-miterlimit="10"/>
  <path d="M590.46,690.12c9.04-.74,18.07-1.85,26.97-3.8-1.58-4.26-3.11-8.43-4.63-12.61-10.38.74-27.02,1.16-22.34,16.41" fill="none" stroke-miterlimit="10"/>
  <path d="M622.95,674.96c-2.5,7.42.19,9.59,8.06,6.58,2.46-7.42-.23-9.59-8.06-6.58Z" fill="none" stroke-miterlimit="10"/>
  <path d="M1067.11,733.59c20.81-23.91,38.6-50.93,63.49-70.91-6.53,20.25-16.41,39.25-22.89,59.51-8.62,3.71-17.24,7.55-25.4,12.19-3.8-.19-11.4-.6-15.2-.79Z" fill="none" stroke-miterlimit="10"/>
  <path d="M733.61,668.98l1.76-3.11c16.13,69.47,35.64,138.11,52.04,207.53-13.76,48.8-40.32,93.57-52.79,142.88,1.34,26.23,16.13,49.96,17.98,76.42-.14,2.5-.37,7.55-.46,10.06l-4.12,2.09c-10.57,4.17-17.56,13.35-25.21,21.23-15.39,16.45-31.79,31.98-46.95,48.61-.46-1.81-1.39-5.42-1.85-7.23,16.27-44.21,33.04-88.29,50.56-132.03,4.26-10.43,7.23-21.69,5.05-32.95-4.17-27.71-7.51-55.52-12.23-83.14-5.98-51.77-15.76-103.07-20.62-154.88,12.56-31.7,26.79-62.84,36.84-95.47Z" fill="none" stroke-miterlimit="10"/>
  <path d="M548.75,681.5c6.77,4.91,12.98,10.47,18.72,16.64,4.87.97,9.73,1.95,14.6,2.87-15.48,6.16-32.77,11.35-49.22,5.42,5.24-8.39,10.29-16.82,15.9-24.93Z" fill="none" stroke-miterlimit="10"/>
  <path d="M542.96,770.34c11.68,8.94,22.62,19.33,36.19,25.44-.14,21.64.42,43.33,1.02,65.02-1.99-.14-5.98-.42-7.97-.51l-4.36-3.61c-.7-1.44-2.13-4.22-2.83-5.61-4.12-27.71-14.04-54.04-22.06-80.73Z" fill="none" stroke-miterlimit="10"/>
  <path d="M433.31,794.67c6.81-6.58,16.54-7.18,25.49-7.46-1.02,5.33-2.09,10.71-3.15,16.13,8.71-4.5,17.7-16.73,28.36-10.75,12.84,8.2,24.61,18.58,33.74,30.87,3.43,17.43,2.55,35.5,5.61,53.11l-2.5.97-4.22,1.53c-23.31-16.68-46.99-40.23-78.55-33.32,1.62-7.92,2.6-15.94,3.57-23.87-19.7-2.69-37.49,5.98-54.59,14.46-11.4,6.16-27.85,4.77-34.34-7.65,6.72-2.32,13.44-4.59,20.16-6.63,18.82-3.57,38-3.75,56.91-6.35,1.07-7-.09-14.74,3.52-21.04Z" fill="none" stroke-miterlimit="10"/>
  <path d="M579.15,795.78l5.24,1.76c4.63,3.85,8.99,8.06,13.3,12.33-4.31,10.43,3.15,19.46,7.92,28.13,15.66,25.26,27.39,52.69,41.06,79.06,8.81,18.91,20.16,36.75,25.91,57-31-23.13-48.43-59.64-78.65-83.51,8.9,28.83,30.68,51.21,42.45,78.78,7.51,15.43,16.87,31.88,10.61,49.59-6.72-11.35-14.27-22.15-22.38-32.53-1.9-4.59-3.85-9.18-5.79-13.67-16.22-36.84-32.35-73.69-48.48-110.58l1.85-1.85c1.99.09,5.98.37,7.97.51-.6-21.69-1.16-43.38-1.02-65.02Z" fill="none" stroke-miterlimit="10"/>
  <path d="M343.49,826.6c5.75-2.32,11.59-4.26,17.47-6.16,3.01.42,8.94,1.2,11.91,1.62-6.72,2.04-13.44,4.31-20.16,6.63,6.49,12.42,22.94,13.81,34.34,7.65,17.1-8.48,34.9-17.15,54.59-14.46-.97,7.92-1.95,15.94-3.57,23.87l-1.53,3.2c-23.17,7.09-43.1,22.01-62.33,36.24-9.36,16.5-17.56,35.87-11.26,54.96-3.06.56-9.18,1.71-12.23,2.32.56-1.67,1.76-5.01,2.32-6.67,7.04-14.41,8.2-31.28,2.46-46.34-8.48-3.66-16.96-7.28-25.67-10.24,2.69-.28,8.06-.79,10.75-1.07-10.33-4.08-20.53-8.43-30.26-13.76,9.78-13.67,22.06-25.26,33.18-37.77Z" fill="none" stroke-miterlimit="10"/>
  <path d="M300.3,873.64c3.38-3.11,6.72-6.16,10.01-9.27,9.73,5.33,19.93,9.69,30.26,13.76-2.69.28-8.06.79-10.75,1.07-6.26-.19-17.1-1.44-17.43,7.6-1.81,24.38,22.2,38.7,40.64,48.99-.56,1.67-1.76,5.01-2.32,6.67l-1.44,7.79c-16.17-5.61-29.75-16.17-44.07-25.12-1.21-17.24-5.1-34.2-4.91-51.49Z" fill="none" stroke-miterlimit="10"/>
  <path d="M362.96,940.14c-6.3-19.09,1.9-38.47,11.26-54.96,1.39,8.57,2.78,17.15,3.8,25.86-.74,12.14-.65,24.33-.51,36.57-2.78,1.76-8.39,5.33-11.22,7.09-.83-3.66-2.5-10.94-3.34-14.55Z" fill="none" stroke-miterlimit="10"/>
  <path d="M1156.13,901.45l1.53.6c7.97,37.17,12.37,75.08,19.23,112.48-2.73,2.09-8.25,6.26-11.03,8.34-65.9,79.39-130.46,159.89-195.85,239.69-14.37,18.35-30.4,35.55-41.89,55.94-2.92,1.48-8.67,4.5-11.54,5.98,5.38-21.27,12.14-42.13,20.72-62.33,12.74-25.72,27.39-50.47,40.04-76.19,6.3-1.62,12.56-3.2,18.86-4.68.74-8.99,1.34-17.98,1.99-26.93,8.62-22.11,18.35-43.98,31.88-63.54,1.71,13.9,2.22,27.99,3.29,41.99,11.22-38.33,22.62-77.44,47.41-109.65,1.81,3.89,3.61,7.83,5.47,11.82,2.6-12.14,4.08-24.84,10.38-35.78,19.42-32.81,41.25-64.23,59.51-97.74Z" fill="none" stroke-miterlimit="10"/>
  <path d="M413.79,980.18c9.22,17.89,14.74,37.21,21.87,55.98,7.46,20.21,16.08,40.32,19.14,61.82-5.47-.42-10.94-.79-16.41-1.07-15.57-3.2-31.28-5.56-47.13-6.02,8.43-36.7,17.61-73.32,22.52-110.72Z" fill="none" stroke-miterlimit="10"/>
  <path d="M529.42,1061.75c.32-.97.93-2.97,1.25-3.94,18.54,15.8,39.21,29.29,55.89,47.18-21.92-.83-43.8-2.97-65.72-3.57,3.01-13.21,5.14-26.6,8.57-39.67Z" fill="none" stroke-miterlimit="10"/>
  <path d="M603.48,1106.24c22.57-13.95,45-28.22,69.01-39.58,2.55,37.77-7.69,75.08-8.39,112.85,3.34-3.99,6.67-8.02,9.92-12.05.46,1.81,1.39,5.42,1.85,7.23-5.38,6.21-10.89,12.33-15.94,18.86-32.21-11.59-63.21-26.18-94.96-38.93,8.16-14.46,18.58-27.44,26.79-41.89,3.99-2.09,7.88-4.26,11.73-6.49Z" fill="none" stroke-miterlimit="10"/>
  <path d="M371.39,1121.21c7.37-1.16,14.78-2.04,22.25-2.41,10.24.65,20.48,1.62,30.73,2.41-10.47,10.57-20.9,21.27-30.59,32.63-12.28.28-24.61.56-36.89.7l-3.52.05c6.35-10.98,12.47-22.01,18.03-33.37Z" fill="none" stroke-miterlimit="10"/>
  <path d="M356.88,1154.53c12.28-.14,24.61-.42,36.89-.7l4.87-.09c9.08,24.56,22.99,46.95,32.9,71.18,20.11,47.36,42.68,93.66,63.63,140.65-18.07,8.53-38.37,6.53-57.65,9.5-13.07,1.85-26.28,3.52-39.53,2.5l-6.21-3.94c11.82-1.11,23.59-1.67,35.45-2.09-12.47-40.27-28.78-79.2-40.41-119.75-9.64-32.53-25.03-63.49-29.94-97.28Z" fill="none" stroke-miterlimit="10"/>
  <path d="M255.39,1166.67c13.49.37,26.46-3.06,38.93-7.83l2.87-.6c4.68,46.07,16.45,91.11,26.37,136.25.88-2.6,2.6-7.88,3.43-10.47,4.17,18.91,4.91,38.33,1.58,57.47-25.58-44.07-48.8-89.54-73.96-133.84-8.62-12.19-2.78-27.39-1.62-40.83l2.41-.14Z" fill="none" stroke-miterlimit="10"/>
  <path d="M762.95,1254.22c1.95-2.22,3.85-4.4,5.79-6.53,1.62,37.08-1.99,74.34,1.76,111.32,1.3,9.87.19,19.84-1.48,29.66-1.25-7.32-2.55-14.55-3.94-21.74-18.82,15.15-33.41,34.57-50.1,51.81,14.51-50.24,34.29-98.85,49.26-149,1.44-5.33,1.02-10.52-1.3-15.53Z" fill="none" stroke-miterlimit="10"/>
  <path d="M904.72,1339.68c3.15-4.31,6.44-8.48,9.78-12.61,42.78,27.95,89.54,49.26,133.05,76.1-.7,1.11-2.13,3.24-2.83,4.36-32.07,41.94-60.57,86.62-92.22,128.98-36.7,51.86-74.43,103.02-110.07,155.67-28.22,48.57-48.85,101.17-75.91,150.43-1.11-6.07-3.24-12.28.19-17.89-3.85-13.81-12.61-26.09-13.67-40.6-2.46-29.8-1.48-59.74-.32-89.54,11.73-8.9,19.6-21.46,27.81-33.41,12.56-18.58,29.47-34.71,36.61-56.45,25.77-74.71,49.91-149.92,76.51-224.3,5.33-13.12,8.9-26.83,11.08-40.74Z" fill="none" stroke-miterlimit="10"/>
  <path d="M747.38,1544.75c52.51-68.31,104.23-137.22,157.34-205.07-2.18,13.9-5.75,27.62-11.08,40.74-26.6,74.38-50.75,149.6-76.51,224.3-7.14,21.74-24.05,37.86-36.61,56.45-8.2,11.96-16.08,24.52-27.81,33.41.83-33.04-.42-66.13.14-99.22-.28-16.96,2.46-34.85-5.47-50.61Z" fill="none" stroke-miterlimit="10"/>
  <path d="M495.17,1365.58c2.09-.28,6.26-.93,8.34-1.25-9.92,14.41-27.81,15.15-43.24,19.19,1.21,4.73,2.41,9.45,3.61,14.23-11.45,38.19-20.72,77.12-33.6,114.79-1.2-29.57-3.75-59.04-4.96-88.56,1.62-19.88-18.35-30.96-27.34-46.39,13.25,1.02,26.46-.65,39.53-2.5,19.28-2.97,39.58-.97,57.65-9.5Z" fill="none" stroke-miterlimit="10"/>
  <path d="M592.45,1658.29c30.08-17.61,59.32-36.52,89.44-54.04-.32,2.27-.97,6.81-1.3,9.13-22.48,78.6-43.01,157.8-66.69,236.08l-3.61-.56c-26.83-49.91-47.22-103.02-75.63-152.1l-1.3-3.06c1.25-1.11,3.71-3.29,4.96-4.4,19.51-7.74,36.01-20.85,54.13-31.05Z" fill="none" stroke-miterlimit="10"/>
  <rect x="100" y="100" width="1800" height="1800" fill="none" stroke-width="0"/>
</svg>