<svg xmlns="http://www.w3.org/2000/svg" viewBox="0 0 4000 500">
  <path filter="url(#noise3)" d="M0,74.41c95.64,35.04,219.94,19.69,318.47,17.61,82.46-1.73,163.67-9.44,245.33-21.24,91.08-13.17,174.81-19.1,264.77,3.22,165.83,41.14,336.08,70.86,507.97,60.59,57.82-3.45,110.52-27.31,168.31-30.73,59.71-3.52,115.28-14.64,175.48-12.03,47.89,2.07,89.55,3.53,136.57-9.76,11.62-3.29,30.75-16.44,42-16.7,11.26-.26,17.36,10.59,27.62,11.31,39.73,2.77,79.92-14.53,120.46-15.46,133.64-3.05,271.36,3.8,405.13,8.86,160.09,6.05,318.56,52.93,474.96-5.68,99.19-37.17,219.64,10.06,323.99,2.91,47.67-3.27,93.28-20.4,140.44-23.19,52.87-3.13,107.75,4.56,160.44,7.79,89.31,5.49,180.39,4.36,269.24,13.17,72.56,7.19,146.96,26.37,218.83,39.34"/>
  <path filter="url(#noise4)" d="M0,74.41c95.64,35.04,219.94,19.69,318.47,17.61,82.46-1.73,163.67-9.44,245.33-21.24,91.08-13.17,174.81-19.1,264.77,3.22,165.83,41.14,336.08,70.86,507.97,60.59,57.82-3.45,110.52-27.31,168.31-30.73,59.71-3.52,115.28-14.64,175.48-12.03,47.89,2.07,89.55,3.53,136.57-9.76,11.62-3.29,30.75-16.44,42-16.7,11.26-.26,17.36,10.59,27.62,11.31,39.73,2.77,79.92-14.53,120.46-15.46,133.64-3.05,271.36,3.8,405.13,8.86,160.09,6.05,318.56,52.93,474.96-5.68,99.19-37.17,219.64,10.06,323.99,2.91,47.67-3.27,93.28-20.4,140.44-23.19,52.87-3.13,107.75,4.56,160.44,7.79,89.31,5.49,180.39,4.36,269.24,13.17,72.56,7.19,146.96,26.37,218.83,39.34"/>
</svg>