<?xml version="1.0" encoding="UTF-8"?>
<svg id="c" data-name="Õº≤„_6" xmlns="http://www.w3.org/2000/svg" viewBox="0 0 600 600">
  <defs>
    <style>
      .e {
        fill: none;
        stroke: #000;
        stroke-linecap: round;
        stroke-linejoin: round;
      }
    </style>
  </defs>
  <path class="e" d="M196.97,100.75c-.72.58-1.54,1.04-2.42,1.45-4.86,2.14-12.68,3.48-13.44,8.45-.76,4.96,10.95,2.45,8.76-2.38,0,0-2.95.14-5.08.11"/>
  <path class="e" d="M142.24,198.97q1.25-1.14,2.19-2.17c-.85,2.99-2.77,4.07-3.27,7.21-.17.9-.25,1.82-.2,2.81-.54-.96-1.57-1.9-2.13-2.97-.01-.87-.11-2.83.91-3.9"/>
  <path class="e" d="M242.41,131.46c1.35-2.31,3.18-5.35,5.1-6.43,3.93-.18,4.21,5.72,8.04,6.89.49.47.97.95,1.45,1.43.48.48.95.97,1.43,1.45,6.7,2.43,10.19,6.6,12.11,11.79.32.87.6,1.76.84,2.68,2.35,10.01,3.75,18.81,12.82,23.32,4.51-9.08-6.54-13.49-6.7-21.89-.11-1.07-.15-2.11-.13-3.15.07-5.19,1.38-10.18,5.26-14.31.32-.62.66-1.27,1.03-1.91.74-1.29,1.62-2.57,2.65-3.82.7-.95,1.31-1.96,1.78-3.05.8-1.14,1.66-2.27,2.59-3.4.94-1.03-1.35-7.82.44-11.84,8.3-12.21,18.95,5.03,27.53,6.88.97.31,1.98.53,3.03.61,1.05.08,2.14.03,3.28-.19,1.92-1.07,1.83-3.04,1.78-4.02.23,4.92-1.62,9.24-3.66,13.52-.41.85-.82,1.71-1.23,2.56"/>
  <path class="e" d="M191.48,360.22c2.44,5.99,4.68,11.8,4.76,17.94.6.93,1.19,1.83,1.8,2.7,3.28,4.69,7.13,8.56,8.98,13.19.31.77.56,1.57.77,2.4.78,9.48,8.96,16,7.5,26.9-.8,3.98,1.35,7.82,4.05,10.48.42.97.82,1.95,1.19,2.94.74,1.97,1.37,3.97,1.85,5.99.39.94.87,1.79,1.34,2.63,1.57,2.81,3.05,5.63,4.21,8.61.29.74.56,1.5.82,2.26.7,1.6,1.52,3.3,2.24,5.04.68,1.52,1.04,2.98,1.12,4.39.04.7,0,1.39-.13,2.09-.86,1.08-1.25,2.61-1.78,4-.27.7-.57,1.36-1,1.91-.72.27-.68,1.26-1.66,1.3-.05-.98-.14-2.95.08-3.7"/>
  <path class="e" d="M300.76,530.65c-.06,1.17.05,2.24.29,3.25,1.2,5.02,5.57,8.38,6.44,13.24.45.98.93,1.9,1.47,2.77,6.03,5.77,12.25,12.38,21.2,10.76.77-.49,1.61-.77,2.49-.93,1.1-.2,2.27-.21,3.49-.24,7.63.76,11.2-7.29,11.91-13.23-1.97.09-2.9,1.12-4.98,2.31"/>
  <path class="e" d="M318.78,527.95c.74,3.61-1.04,7.63-2.44,11.08"/>
  <path class="e" d="M200,383.46c5.3,1.34,7.34,4.74,7.99,8.89.13.83.2,1.69.24,2.57.16,7.08,5.34,12.75,5.66,19.63,1.26,5.85,1.53,11.75,4.94,17.88.3.93.56,1.86.81,2.8,1.01,3.75,1.83,7.51,3.07,10.9.47.96.91,1.93,1.31,2.91,1.05,2.63,1.77,5.36,1.81,8.3,0,.73-.02,1.48-.11,2.24-.03,1.37-.05,2.77-.05,4.19,0,.71.01,1.41.03,2.12.38.9.69,1.87.95,2.89-.02,8.23,5.12,12.92,9.51,18.51.79.73,1.62,1.46,2.46,2.18"/>
  <path class="e" d="M306.55,513.35c1.57.29,3.63,2.17,5.37,2.59.82.57,1.61,1.2,2.37,1.86,5.3,4.61,9.1,10.68,14.62,15.17.91.73,1.85,1.44,2.83,2.12.98.67,2,1.32,3.08,1.91,5.91-.23,14.67-2.61,17.8,3.84"/>
  <path class="e" d="M243.21,415.09c-1.13-.39-1.99-.91-2.7-1.56-.78-.8-1.43-1.63-1.96-2.48-1.3-2.51-3.36-4.39-2.51-7.38,4.55-8.09,6.06-18.01,2.69-27.2-.53-.71-1.04-1.41-1.08-2.36-.46-.99-.99-1.97-1.58-2.95-.59-.97-1.25-1.94-1.97-2.89-.35-.71-.7-1.42-1.06-2.13-1.07-2.12-2.16-4.23-3.2-6.32-.33-1.27-.61-2.57-1.1-3.7"/>
  <path class="e" d="M181.98,115.76c-1.67-1.13-2.65-1.09-4.62-1,1.56-8.94,10.54-6.4,15.32-9.58,0,0-1.03-.94-1.25-1.14"/>
  <path class="e" d="M202.85,90.59c2.14,7.05,10.79,22.29,18.5,16.89,3.73-2.61,2.33-6.78,4.15-10.09,5.67-10.35,14.16-.07,22.31-.33,11.45-.37,10.64-9.82,20.64,1.67,4.93,5.67,10.39,8.7,18.41,6.92-1-5.48-2.69-15.75-7.23-19.22-1.5,6.03-2.79,16.55-6.37,21.35-7.36-9.34,2.24-23.61-6.9-32.5-14.21-13.81-14.9,23.8-16.13,27.91-3.58-6.6-5.74-25.01-17.59-21.73-9.43,2.61-4.67,18.53-12.75,22.64-9.89,5.03-15.69-15.36-21.29-20.43-13.62-12.31-36.6,19.56-12.75,23.47"/>
  <path class="e" d="M136.08,117.04c2.86-2.47,6.7-4.62,9.78-1.81-3.93.18-8.89-.57-10.68,3.45,1.78-4.02,6.65-5.23,10.68-3.45-3.93.18-8-2.59-10.88,2.08"/>
  <path class="e" d="M282.13,479c-.24-.75-.52-1.48-.85-2.19-.35-.69-.75-1.36-1.19-1.99-2.07-1.86-4.22-3.67-6.22-5.58-.67-.64-1.32-1.28-1.95-1.94-.57-.62-1.11-1.27-1.62-1.95-3.94-2.99-3.19-7.95-7.18-10.55-.54-.67-1.1-1.31-1.71-1.93s-1.26-1.21-1.96-1.76c-.75-.63-1.52-1.23-2.3-1.81-3.12-2.31-6.44-4.3-9.56-6.47-.6-.33-1.21-.65-1.82-.96-.81-.64-1.58-1.33-2.29-2.09s-1.38-1.58-1.98-2.48c-.45-.91-.8-1.91-1.01-3.02-.59-5.46.16-10.42,2.89-15.47-.89,2.01-.8,3.98-1.69,5.99-1.44-9.79,10.36-10.33,13.97-17.4-.89,2.01-2.86,2.1-4.78,3.18,2.86-2.1,5.81-2.24,8.55-4.56.57-.58,1.13-1.23,1.65-1.91,3.16-4.06,5.35-8.78,3.63-13.88,4.07,2.77,6.26,7.59,11.27,9.33,3.98.8,7.86-.36,9.65-4.39,1.78-4.02-.32-6.88-1.71-9.47-.56-.8-1.17-1.61-1.74-2.42-1.82-2.45-3.52-4.99-3.78-7.6"/>
  <path class="e" d="M268.59,351.28c1.87,4.4,3.09,9.08,3.53,13.76.22,2.34.24,4.68.09,7.08-.6,2.52-.6,4.99-.92,7.35-.11.79-.25,1.56-.46,2.32-.49,2.29-1.43,3.32-2.37,4.34q-.05-.98-.12-2.42c-.02-.85-.04-1.67-.04-2.48-.02-3.24.24-6.39,1.31-9.31"/>
  <path class="e" d="M356.45,552.35c2.83,2.27,4.75,1.19,6.63-.86-7.64,5.28-16.18-9.1-13.37-12.19,3.71-5.1,6.38-11.13,10.92-15,.69-.42,1.43-.79,2.22-1.09.79-.3,1.64-.52,2.56-.67-.8.53-1.51,1.1-2.15,1.71s-1.2,1.27-1.66,1.99c-3.36,5.76,1.96,14.38-2.77,18.54-6.61,6.22-18.45,5.78-25.8,1.38-.54-.38-1.07-.78-1.6-1.18-2.13-1.61-4.33-3.26-6.75-4.78-1.19-.47-2.45-.76-3.81-.82-1.47.07-3.07.56-4.4,1.39-.68.92-1.74,1.9-2.38,2.96s-.86,2.19.13,3.4"/>
  <path class="e" d="M228.96,472.14c.35-1.16.26-3.13.95-4.25.64-1.15,1.49-2.01,2.5-2.66.67-.43,1.42-.77,2.23-1.02,10-2.81,24.84-1.52,21.59,13.41-.94,1.03.18,3.93,3.25,4.54.63.29,1.21.61,1.65,1.06.71.82,1.41,1.65,2.15,2.45.74.81,1.52,1.59,2.35,2.34.54.92,1.12,1.79,1.78,2.63-1.16-.12-2.24-.37-3.26-.74-1.02-.36-1.97-.84-2.89-1.38-.87-.28-1.69-.61-2.47-.98-1.24.04-2.39,0-3.47-.14-1.07-.13-2.07-.35-2.98-.65-1.57-.43-2.74-.97-3.59-1.6s-1.36-1.35-1.63-2.15c-.27-.8-.3-1.66-.16-2.58.14-.92.45-1.89.85-2.9,1.59-4.02,4.58-8.6,3.9-12.51-.09-1.97-2.1-2.86-3.13-3.8,5.14,4.69,8.37,10.45,7.7,17.38.14,2.95,2.15,3.84,4.43,4.59.47.53.92,1.07,1.39,1.6,1.42,1.59,3.08,3.04,5.09,4.26.4.64.83,1.21,1.3,1.64.47.87.83,1.77,1.03,2.7.19.92.22,1.86.02,2.8.22.73.35,1.59.44,2.51.1.92.21,1.93.41,2.96-.77-.66-1.53-1.3-2.25-1.94-.72-.63-1.41-1.26-2.1-1.89-2.29-2.09-4.6-4.2-6.93-6.35-.47-.43-.93-.86-1.4-1.3-1.43-1.55-3.14-2.25-4.97-2.55-.61-.1-1.23-.16-1.87-.19-1.02.18-2.27.3-3.54.38-4.45,1.06-6.68-1.43-9.63-3.32-.59-.38-1.21-.73-1.88-1.03.69.63,1.35,1.31,2.01,2,3.29,3.47,6.47,7.3,12.17,6.21-4.93-.18-9.44-2.27-13.2-5.41-.76-.63-1.49-1.31-2.19-2.03-3.87-4.48-7.05-9.26-8.31-15.11,4.16,4.73,6.44,11.52,10.21,16.33.67.84,1.39,1.63,2.16,2.36,2.31,2.18,5.14,3.77,8.84,4.28,1.1.4,2.18.72,3.3.99,1.12.27,2.29.49,3.5.66.78.34,1.48.71,2.16,1.1,1.37.78,2.7,1.62,4,2.49.87.58,1.73,1.18,2.6,1.8,4.02,2.32,7.68,5.26,11.37,8.2.74.59,1.48,1.17,2.22,1.76,8.89,5.58,18.05,12.05,22.09,22.36.53,1.03,1.08,2.05,1.63,3.06,2.2,4.06,4.44,8.1,7.18,11.55.44.39,1.18,1.05,1.93,1.73.75.68,1.54,1.38,2.08,1.84-.57-.95-1.36-1.9-2.28-2.75-.42-.67-.99-1.29-1.65-1.87-1.98-1.73-4.82-3.07-7.1-4.45,2.06,1.88,4.11,3.75,6.55,5.98.55.7.98,1.41,1.4,2.09,1.36,1.35,2.39,2.29,3.41,3.22,1.97-.09,4.96.76,5.09-5.35-.06-.87-.21-1.79-.39-2.68.03-.86.16-1.65.45-2.32-.46.76-.9,1.58-1.3,2.43-.37.41-.7.9-.96,1.47-.26.56-.46,1.2-.56,1.89.47,1.49.51,2.47,1.51,4.79"/>
  <path class="e" d="M143.95,131.64c.29.9.5,1.76.71,2.61,1.1,5.85,1.4,11.16,2.11,17.44.13.91.22,1.81.28,2.69.1,1.33.15,2.63.17,3.89.02,1.26,0,2.47-.02,3.6.95,4.05,1.03,8.07,1.27,11.91.06.96.13,1.91.23,2.85,1.79,2.15,0,6.17,2.06,8.04-2.1-2.86-5.23-6.65-4.54-10.41-.14-.99-.22-1.99-.25-3.01-.1-3.06.23-6.22.85-9.3.24-.72.46-1.46.66-2.21.6-2.24,1.03-4.55,1.21-6.88.08-1.04.11-2.08.07-3.15.02-.89.04-1.77.04-2.64.06-3.7-2.14-8.53-1.34-12.51.23,4.92.41,8.85.65,14.04.09.98.18,1.98.25,3.02.04.94.06,1.88.03,2.83-.03.95-.09,1.92-.2,2.9-.1.98-.25,1.98-.44,2.99-.33,4.36.11,8.97.47,13.6.07.93.14,1.85.21,2.77,1.35,7.98-.21,16.92-7.89,21.22,2.9-1.12,1.69-5.99,5.67-5.19-1.83,3.04-1.6,7.96-5.58,7.15s2.81-3.09,1.74-5.01c-.85,2.99-2.68,6.04-2.51,9.27.24.84.58,1.65.99,2.45,2.45,4.76,7.34,8.92,10.42,13.53.54.87,1.04,1.7,1.5,2.54.52.44,1.1.84,1.73,1.21s1.32.68,2.07.96c.96.24,2.04.25,3.19.09,1.1-.26,2.17-.6,3.2-1.01,1.03-.41,2.03-.88,2.98-1.42,8.13-2.47,11.56-13.46,4.79-19.17"/>
  <path class="e" d="M403.09,343.01c.38,1.41.47,3.38.47,3.38-1.32.68-2.49,1.49-3.52,2.39-5.06,3.91-6.79,8.92-7.74,14.55-.4,1.38-.79,2.77-1.17,4.14-.38,1.37-.77,2.73-1.19,4.05-.42,1.32-.86,2.62-1.35,3.92-2.08,7.2-4.71,14.22-12.57,14.58-4.94-.39-10.36-2.68-15.6-3.07-1.05-.08-2.09-.08-3.13.02-3.03,1.1-6.92,2.26-9.83,3.38-.93,1.03-1.76,2.1-2.51,3.19-.53.77-1.02,1.55-1.49,2.33-.47.79-.91,1.58-1.31,2.4-.08,2.27-.2,4.63-.46,6.95-.13,1.16-.29,2.3-.49,3.4-.31,3.99-2.1,8.01-5.62,10.43-.79.52-1.68.94-2.68,1.22-2,.56-4.44.6-7.43-.05q.98-.05,2.28-.28"/>
  <path class="e" d="M285.05,175.76c-6.93-6.82-10.29-15.53-12.41-25.43-.24-1.05-.48-2.08-.74-3.11-1.55-6.17-3.86-12.15-7.7-17.74-.28-.96-.57-1.96-.85-2.97-.83-3.02-1.6-6.08-2.26-9.22-.21-.94-.4-1.88-.61-2.88-1.76-2.71.02-6.73-2.08-9.59-.92-.65-1.83-1.27-2.74-1.86-9.18-6.18-12.59-15.87-17.55-24.3-.52-.61-1.1-1.2-1.74-1.74-2.55-2.17-6.03-3.59-10.98-4.07-2.95.14-6.04-2.68-6.22-6.61,8.27,8.48,13.49-6.54,21.27-8.25,1.11-.55,2.26-1.07,3.44-1.55,1.18-.49,2.39-.94,3.64-1.37"/>
  <path class="e" d="M412.34,173.12c.88-1.56,1.81-2.59,3.78-2.68,3.98.8,3.22,5.76,5.19,7.39.42.64.82,1.3,1.23,1.97.81,1.34,1.62,2.72,2.47,3.98.57.89,1.08,1.79,1.57,2.67,1.48,2.64,2.82,5.04,5.32,5.91,9.93,3.56,16.03,10.99,19.18,19.8.45,1.26.84,2.54,1.17,3.85,2.73,6.81-5.04,9.14-6.83,13.17-4.01,11.02,8.55,22.11,3.13,32.79-.49.97-1.13,1.94-1.95,2.9-.8,1.44-2.09,2.25-3.57,2.79-.74.27-1.53.47-2.34.64-3.02.04-5.31.39-7.06.99-.88.3-1.62.67-2.25,1.09-.49.65-1.04,1.25-1.64,1.8-14.71,2.73-19.08,14.75-16.43,29.41,1.07,1.92-.8,3.98-1.51,6.94-.24.96-.46,1.98-.74,2.99-.29,1.02-.64,2.03-1.09,3.03.02.49-1.46.31-3.19.27-.86-.02-1.79-.03-2.64.03-7.75,4.27,1.46,11.73-2.29,15.84-.94,1.03-4.02-1.78-4.96-.76-4.55,8.09-9.19,14.22-17.7,18.95-.64.69-1.3,1.37-1.99,2.02-1.37,1.31-2.85,2.51-4.52,3.52"/>
  <path class="e" d="M388.49,335.65c-4.59,8.22-16.43,14.07-21.27,22.49-.69,1.2-1.24,2.46-1.6,3.78.38,2.95.47,4.92.84,7.81.28,1.35.63,2.72,1.05,4.08,3.72,12.3,12.6,24.64,23.77,26.34.98-.05,1.78-4.02,1.57-7.34"/>
  <path class="e" d="M314.87,497.18c1.55.48,2.35,1.21,2.9,2.06.54.85.83,1.82,1.37,2.78.14,2.95-2.77,4.07-4.73,4.16-2.95.14-7.91-.62-8-2.59.11-1.15.11-2.3.05-3.45-.06-1.15-.18-2.3-.3-3.49-.22-.97-.36-1.94-.42-2.91-.07-.98-.06-1.96,0-2.94-1.08-3.88,3.66-8.04,2.49-11.92,1.21,4.87-3.57,8.05-2.4,12.65.07,1.05.29,2.05.73,2.94.44.89,1.09,1.68,2.03,2.33,1.18.62,2.6.78,3.92.54.89-.16,1.73-.51,2.45-1.04-1.5-.42-2.99-.6-4.46-.68-1.47-.07-2.92-.05-4.37-.03.97-.01.98,1.03,2.18,1.5.67.6,1.29,1.31,1.89,2.05,2.4,2.95,4.53,6.36,9.05,4.84,1.94-.58,2.62-1.85,2.44-3.19-.19-1.35-1.23-2.77-2.75-3.69.04.98.07,1.72.11,2.46.03.74.07,1.47.11,2.46.13-.83.17-1.65.15-2.47-.28-3.19-.98-6.24-1.53-9.35-.18-1.04-.34-2.09-.44-3.18.06-1.66-.08-4.61-.17-6.58.18,3.93-2.63,7.02-2.05,11.31-.06,1.29-.16,2.58-.39,3.91-.22,1.21-.44,2.41-.63,3.65.21-.75.46-1.63.78-2.53,1.9-3.51,3.73-6.55,7.75-4.76,1.03.94,3.13,3.8,2.16,5.71"/>
  <path class="e" d="M145.81,189.27c-3.53,3.69-7.23,8.79-7.15,14.6.18.98.56,1.89,1.09,2.74,1.08,1.69,2.8,3.09,5.31,3.95-1.52-.91-3.05-2.08-4.23-3.62-.39-.52-.75-1.07-1.05-1.68-.94-1.31-1.03-3.27-1.07-4.26.05.98,1.07,1.92.69,2.94.33.89.84,1.66,1.46,2.36,3.71,4.18,11.19,5.71,14.49,10.87.64.58,1.27,1.14,1.88,1.7,1.16.44,2.25.65,3.3.66,6.56-1.12,13.22-6.35,14.86-13.33.85-2.99-2.19-4.82-2.28-6.79,4.11,3.75,3.36,8.71,4.57,13.58.84,2.18,2.68,2.09,4.6,1.56.64-.18,1.29-.41,1.91-.62,1.03-.64,1.94-1.34,2.77-2.09.82-.76,1.55-1.58,2.21-2.47,5.01-7.71,5.63-15.62,7.19-24.56-.66-.13-1.3-.32-1.91-.56-3.04-1.21-5.3-3.73-6.04-7.11-.08-.65-.15-1.3-.19-1.96-.12-1.97-.04-3.96.24-5.94.14-.99.32-1.98.58-2.94,1.06-4.86,5.34-5.86,9.69-7.59.87-.35,1.74-.72,2.6-1.16"/>
  <path class="e" d="M184.99,50.58c.32,1.75-.57,3.76.5,5.68.98-.05,2.95-.14,3.8-.6,1.03-.04,2-.04,2.96-.05.96-.01,1.93-.03,2.9-.07,9.62-2.41,17.8,4.11,27.68,4.63.99.2,1.97.09,2.94-.22.96-.32,1.9-.84,2.81-1.48s1.8-1.39,2.66-2.16c.86-.77,1.68-1.55,2.47-2.25,1-.83,2.02-1.67,3.05-2.52,3.07-2.57,6.14-5.36,9.32-7.89,1.18-.75,2.37-1.43,3.59-2,1.21-.57,2.45-1.04,3.7-1.37,1.1-.17,2.24-.11,3.4.12,1.93.38,3.93,1.24,5.87,2.31.97.53,1.94,1.13,2.88,1.75,4.99,2.67,8.22,8.43,14.02,6.19s5.44-10.1,5.52-14.73c.04-1.59.07-3.2.11-4.79.13-4.77.42-9.34,1.76-12.35-1.3,3.75-1.71,8.99-2.07,13.99-.12,1.66-.24,3.3-.38,4.8,1.01,13.79-15,8.62-23.64,9.68-1.51-.14-2.88-.07-4.14.17-1.1.21-2.12.54-3.07.98-.95.44-1.83.98-2.67,1.6-2.26,2.47-4.66,4.81-7.1,7.08-.61.57-1.23,1.13-1.83,1.7-5.24,4.69-8.86,11.75-15.78,15.37"/>
  <path class="e" d="M146.55,86.02c-1.15,3.74-2.4,7.27-3.75,10.74-.34.87-.65,1.73-.92,2.58-1.3,8.26-3.79,18.22,2.42,24.83.85-2.99-2.19-4.82-1.88-7.71"/>
  <path class="e" d="M223.6,107.59c-.28-.67-.61-1.34-.95-2-.34-.66-.69-1.33-1.03-1.99-1.35-2.67-2.5-5.41-1.76-8.55.07-.71.13-1.43.19-2.16.29-3.62.6-7.29,3.41-8.88.75-.92,1.64-1.69,2.67-2.28,1.03-.59,2.22-1,3.56-1.19,1.21-.16,2.31-.11,3.32.1s1.94.6,2.78,1.06c8.26,5.35,10.73,16.07,18.43,21.74.58.55,1.11,1.21,1.58,1.96,1.89,3,2.95,7.38,3.09,11.48.15.94.29,1.84.47,2.71.17.87.37,1.71.63,2.51.31,1.34.64,2.68.99,4.01.23.89.47,1.77.71,2.65.24.88.49,1.74.77,2.56,3.77,5.7,6.52,11.22,7.84,16.93.22.95.4,1.91.58,2.89.07,12.23-.37,24.08,9.78,30.5,3.09,2.81,11.89,1.42,13.76-.64,5.35-12.07-9.85-21.22-18.12-29.81-.42-.96-.74-1.93-.97-2.92-1.37-5.89-.13-12.4,3.46-18.05.14-.56.27-1.12.39-1.72-.99-.15-1.88-.44-2.68-.84-.8-.4-1.5-.9-2.11-1.51-4.93-4.84-4.35-15.7-2.43-22.68,0-1.39-.22-2.82-.73-4.3-.18-1.3-.32-2.6-.39-3.91,1.74-2.92-3.31-5.64,2.07-9.12.9-.52,1.96-.87,3.05-1.04,1.08-.17,2.19-.16,3.18.04,2.31.22,4.21,1.12,5.96,2.32.88.6,1.72,1.28,2.56,2,4.1,3.14,7.47,7.35,11.13,11.08.73.75,1.47,1.47,2.23,2.17,2.67,1.97,4.77,4.83,8.56,5.5.73-1.25,1.37-1.37,1.98-1.02s1.19,1.19,1.8,1.88c.6.69,1.23,1.23,1.93,1,.7-.23,1.47-1.23,2.37-3.63.08-.94-.03-2.02-.25-3.17-.65-3.45-2.33-7.62-2.45-10.21"/>
  <path class="e" d="M358.42,75.07c-.57-1.15-1.28-2.11-2.12-2.94-.61-.58-1.29-1.09-2.03-1.56-2.2-1.4-4.86-2.45-7.31-3.6-1.1-.1-2.28.06-3.5.51-1.21.45-2.46,1.19-3.68,2.27-1,1.01-1.69,2.14-2.14,3.37-.37,1.02-.58,2.11-.66,3.23,1.26,4.09,1.7,8.18,1.62,12.29-.03,1.37-.11,2.74-.24,4.11-.3,1.26-.42,2.62-.56,4.02-.14,1.4-.3,2.83-.7,4.21-.39,2.54-1.01,5.44-1.88,8.33-.44,1.44-.94,2.89-1.48,4.34-1.15,4.34-4.37,10.74-8.23,12.56-.97.46-1.97.63-2.99.41-7.12-3.71-5.52-11.67-8.7-17.64-.67-1.03-1.51-1.97-2.61-2.76-.9-.61-1.85-1.18-2.84-1.66-2.47-1.22-5.13-1.97-7.66-1.96-.84,0-1.67.1-2.47.29-8.28,2.48-3.76,15.08-6.53,19.15-.83,1.22-1.61,2.44-2.35,3.66-.58,1.25-1.32,2.43-2.18,3.56-.94,1.1-1.75,2.22-2.44,3.37-.35.57-.67,1.15-.97,1.71-1.21,2.91-4.11,4.02-4.96,7.02-.66,1.75-.94,3.61-1.08,5.51-.07.95-.11,1.91-.13,2.87-.16,4.48,3.07,10.25-1.67,14.41-.23-4.92-2.42-9.74-4.18-14.77-.36-.81-.76-1.62-1.2-2.41-2.59-4.74-6.3-9.12-10.1-14.11-.09-.76-.12-1.52-.13-2.29-.03-3.06.35-6.01.11-9.13-.07-.94-.2-1.89-.41-2.86-.81-4.27-4.32-8.42-6.39-11.91-.42-.7-.78-1.37-1.06-2.01.08-2.22-1-4.14-.06-5.16.94-1.03,2.95-.14,4.08.92.74.46,1.52,1,2.3,1.56,1.57,1.12,3.2,2.35,4.6,3.09.57.44,1.11.86,1.6,1.26.49.39.93.77,1.31,1.12.36-3.79-.39-6.35-1.87-8.01-.49-.56-1.06-1.01-1.7-1.38-.82-.31-1.71-.55-2.65-.73-8.8-.73-16.89-5.28-23.06-10.91-3.04-1.83-.32-6.88,3.28-8.32-1.02,0-1.99.07-2.9.19-6.38.87-10.02,4.94-11.87,10.27-.3.87-.56,1.77-.77,2.7-.39.79-.63,1.54-.75,2.24,1.89,8.22,15.61,6.6,9.18,16.75,3.84-2.15,6.61-6.22,5.4-11.09-1.07-1.92-2.1-2.86-4.03-2.27"/>
  <path class="e" d="M300.68,176.04c-1.47,1.78-5.44.98-5.49,0-2.38-8.76-7.56-14.43-9.89-22.2-.05-.98,1.83-3.04,4.01-3.24.69-.49,1.39-.97,2.05-1.44.66-.47,1.28-.94,1.79-1.43.92-.87,1.88-1.66,2.87-2.33,1.05-.54,2.14-.94,3.24-1.24,1.1-.3,2.22-.51,3.33-.65,1.28-.35,2.48-.73,3.56-1.23,1.31-.39,2.67-.68,4.05-.86,1.38-.18,2.78-.24,4.19-.17,1.35-.19,2.7-.31,4.03-.33,7.98-.16,15.16,2.87,16.08,11.62,5.67-5.19,15.5-5.64,19.12-12.71-2.54,8.98-12.05,16.32-20.95,15.75-1.97.09-1.35-7.82-4.34-8.67-3.92-2.01-8.6-.64-13.22-.15-2.31.25-4.6.27-6.78-.46-.88-.67-1.82-1.23-2.67-1.62-2.65.23-4.37,1.25-5.38,2.7-.5.72-.83,1.55-1,2.44-.26,2.38-.22,3.37.63,5.6.34.92.79,1.81,1.32,2.61,4.33,7.66.85,17.67,5.73,25.45.23.77.44,1.56.63,2.34.77,3.14,1.16,6.32.32,9.32s-6.52,8.18-6.65,5.23c.34-3.22.08-6.28-.6-9.23-.23-.98-.5-1.95-.82-2.9-3.33-5.39-5.61-12.18-9.77-16.91-6.31-8.58-10.68,3.45-11.9,10.78-.1,1.02-.23,2.04-.41,3.05-.54,3.02-1.49,5.94-3.1,8.63"/>
  <path class="e" d="M230.65,354.26c.48,1.03.74,2.03.97,3.06.23,1.03.44,2.08.83,3.22.84,3.11,2.17,6.24,3.95,8.95.59.91,1.22,1.75,1.88,2.5.33.49.82.9,1.39,1.28.57.38,1.22.71,1.85,1.04,2.18,3.39,6.11,3.21,10.22,3.36,1.08-.2,2.2-.51,3.34-.98,1.18-.27,2.36-.59,3.51-.96,3.45-1.12,6.66-2.75,9.17-4.34,8.62-5.32,1.15-17.79-1.23-26.54,1.35,7.82,5.69,16.49,2.12,24.53-1.39,4.01-4.85,7.63-9.09,9.95-1.06.58-2.17,1.07-3.32,1.46-2.67,1.74-5.52,1.94-8.27,1.07-.92-.29-1.82-.7-2.71-1.22-.89-.51-1.75-1.13-2.59-1.83-.84-.7-1.64-1.49-2.41-2.35-.74-.71-1.44-1.43-2.11-2.19-1.95-2.15-3.6-4.61-4.85-7.28-.4-.98-.76-1.95-1.08-2.9-.32-.95-.6-1.87-.85-2.76-.25-1.05-.43-2.06-.54-3.03.22.99.51,1.98.87,2.98.97,2.88,2.39,5.21,3.93,7.4.51.73,1.04,1.44,1.56,2.16-.36-.64-.71-1.28-1.07-1.92-1.77-3.2-3.43-6.4-4.42-9.59-.45-1.33-.98-2.54-1.58-3.7-2.38-4.61-5.83-8.17-8.01-12.67-5.15-7.74,5.31-13.62,10.23-21.95.55-.93,1.03-1.88,1.41-2.87,4.75-10.15-8.17-12.51-8.53-20.37-.18-3.93,11.66-3.5,9.38-10.29-1.26-5.85-5.32-8.62-8.36-13.15-.3-.84-.53-1.68-.71-2.54-1.05-5.15-.14-10.72-.17-16.58-.03-.93.07-1.84.28-2.73,1.28-5.37,6.59-10.23,6.35-15.4-.06-1.23-.48-2.38-.99-3.49-1.14-1.63-2.01-3.66-2.11-5.51-.03-.62.02-1.22.18-1.77.31-1.11,1.05-2.06,2.35-2.67"/>
  <path class="e" d="M333.46,543.01c7.31-5.26,15.17-5.63,24.02-6.04-1.17-3.89-3.31-7.73-3.85-11.91-.1-.82-.12-1.52-.08-2.08.87-11.88,15.17-16.05,17.78-2.14,2.17-11.58,5.8-22.1,17.63-9.83,14.25,14.78,11.72-6.77,16.49-16.09,1.56,2.79,2.52,7.03,3.68,10.32-2.45.25-4.35-1.1-5.36-3.34.28,4.44,1,9.38-.1,13.48-9.02-4.25-4.6,8.25-11.32,9.16-8.25,1.11-6.17-10.74-10.62-13.82-6.36-4.41-10.64,3.18-11.29,8.26-.79,6.14,2.09,10.74,3.51,15.87.2.73.38,1.48.51,2.24-7.15-.56-13.82-17-18.28-6.94-4.46,10.06-12.1,15.34-22.95,14.36-.72-.29-1.37-.61-1.9-.94-.53-.33-.96-.68-1.23-1.04-3.72-4.85,1.28-9.77,5.38-12.74"/>
  <path class="e" d="M330.91,558.89c.28.6.61,1.25.98,1.93,1.79,5.83,6.11,8.09,11.24,8.55,1.03.09,2.1.1,3.22.01,2.88-.27,5.18-1.43,7.19-3,.66-.52,1.29-1.09,1.89-1.68,6-6.23,6.84-9.23.43-14.54"/>
</svg>