<?xml version="1.0" encoding="UTF-8"?>
<svg id="c" data-name="Õº≤„_6" xmlns="http://www.w3.org/2000/svg" viewBox="0 0 600 600">
  <defs>
    <style>
      .e {
        fill: none;
        stroke: #000;
        stroke-linecap: round;
        stroke-linejoin: round;
      }
    </style>
  </defs>
  <path class="e" d="M134.57,117.24c3.47-.66,7.35-1.83,11.29-2.01-1.92,1.07-3.98-.8-6.33,1.39"/>
  <path class="e" d="M185.48,108.29c-1.51.26-3.48.35-4.37,2.36-.89,2.01,1.07,1.92,2.1,2.86.89-2.01,2.81-3.09,3.71-5.1-5.01-1.74-1.78,4.02-5.01,4.43"/>
  <path class="e" d="M172.88,209.97c-.42-3.63-1.85-13.42-7.52-8.23-.94,1.03,1.17,3.89,3.22,5.76-2.06-1.88-3.22-5.76-2.33-7.77,3.75-4.11,9.88.53,10.1,5.44-2.15-3.84-5.28-7.64-9.21-7.46-.98.05-1.88,2.06-2.81,3.09-.85,2.99,2.33,7.77,6.22,6.61-2.1-2.86-5.14-4.69-6.14-7.53"/>
  <path class="e" d="M132.5,34.93c5.77,4.8,12.32,8.54,17.28,14.77.83,1.04,1.61,2.15,2.34,3.34.41,1.1.98,2.29,1.54,3.52.57,1.24,1.12,2.53,1.43,3.89-.04,3.83.1,6.78-2.72,9.87.94-1.03.89-2.01,1.42-2.99"/>
  <path class="e" d="M221.24,73.16c8.05-1.47,10.59-10.45,13.51-16.26.73-1.09,1.48-2.06,2.26-2.92,3.87-4.31,8.35-5.96,15.22-.83,1.2.03,2.41-.14,3.62-.48,3.09-.08,4.92-3.12,6.89-3.21,9.83-.45,20.87,3.96,27.3-6.19,1.17,3.89,5.19,5.67,8.18,6.52,2.01.89,3.93-.18,5.67-1.99.72-.63,1.43-1.34,2.15-2.1.72-.75,1.45-1.54,2.22-2.32,2.52-2.55,5.69-3.91,8.72-5.56,1.01-.55,2-1.13,2.95-1.81.77-1.03,1.65-1.88,2.59-2.53.94-.64,1.94-1.09,2.94-1.31,9.44,1.13,11.86,10.87,15.43,18.24"/>
  <path class="e" d="M374.15,24.29c-1.32-1.6-3.38-3.47-4.5-5.24-.58-.61-1.25-1.13-2.09-1.43-1.78-.65-5.82-.23-8.58.48-.92.24-1.7.51-2.2.78-6.47,6.82.91,17.32,3.29,26.08,1.17,3.89.55,11.8-4.42,11.04-7.86.36-14.04-5.26-21.42-10.14"/>
  <path class="e" d="M276.82,98.84c-.69.92-1.32,1.91-1.91,2.94-.43,1.04-.85,2.08-1.27,3.11-4.06,7.3-.65,16.99-8.24,23.25.04-3.35-.49-6.32-1.44-9.02-.32-.9-.68-1.77-1.09-2.61-1.75-3.89-4.09-6.95-6.8-9.65-.68-.67-1.38-1.32-2.09-1.96-5.48-7.24-12.72-14.79-16.29-24.38-.56-.75-1.29-1.54-2.18-2.24-2.03-1.38-4.98-1.25-7.89-.13-.97.37-1.93.86-2.85,1.43-1.95,1.26-3.87,2.33-4.76,4.34-.14-2.95-.18-3.93,3.17-4.72"/>
  <path class="e" d="M231.67,483.87c1.23.73,2.26,1.67,4.48,2.98.67.52,1.33,1.06,1.99,1.6,3.26,2.69,6.4,5.48,10.37,6.95.79.27,1.57.53,2.35.8.77.27,1.54.54,2.28.82.63.34,1.24.69,1.85,1.06.81.48,1.61.99,2.41,1.5,5.57,3.64,11.67,6.46,17.1,10.02.78.51,1.54,1.03,2.28,1.58.78,1.9,2.79,2.79,4.43,3.7"/>
  <path class="e" d="M327.41,367.44c3.06-3.87,3.82-8.83,6.69-12.67.55-.67,1.14-1.28,1.76-1.87,2.45-2.35,4.95-4.59,7.61-6.69.95-.86,1.5-1.85,1.78-2.92.28-1.08.28-2.24.14-3.5-.5-5.47-1.71-10.34-1-16.28.85-2.99,4.92-.23,6.78-.09.84.3,1.54.73,2.16,1.29,3.71,3.38,4.45,11.48,10.41,12.67,1.01.29,1.97.28,2.92.08,3.88-2.35,8.88-.62,12.68-3.75,0,0-1.03-.94-.99-1.82"/>
  <path class="e" d="M177.42,47.68c-2.12,1.17-4.09,1.26-5.6,2.54-.72.61-1.38,1.31-1.97,2.06-2.99,3.77-4.65,9.06-7.5,12.83-.54.79-1.06,1.58-1.57,2.38-1.51,2.39-2.85,4.8-4.17,7.1.09-.78.29-1.55.7-2.59"/>
  <path class="e" d="M192.89,106.31c-4.05,1.02-9.9,2.28-10.66,7.24,2.9-1.12,5.67-5.19,2.63-7.02-1.97.09-10.68,3.45-6.61,6.22,3.04,1.83,4.82-2.19,6.7-4.25-.89,2.01-2.81,3.09-4.78,3.18,1.92-1.07,3.75-4.11,6.75-3.27-2.95.14-3.8,3.13-4.69,5.14,2.9-1.12,2.77-4.07,4.64-6.13-1.83,3.04-4.82,2.19-6.52,4.67"/>
  <path class="e" d="M293.71,26.86c-.6-2.45-.73-5.4-2.79-7.28-3.09-2.81-3.93.18-3.84,2.15.18,3.82.13,9.48-.96,13.63-.27,1.04-.61,1.97-1.03,2.74-2.11,1.55-2.96,4.55-7.09,1.15-1.06-.45-2.17-.93-3.3-1.39-6.79-2.76-14.57-4.85-20.55-2.88-1.14.38-2.21.9-3.2,1.59-2.27,1.8-4.39,4.15-6.48,6.71-.7.85-1.4,1.73-2.12,2.62-1.75,1.94-3.4,4.03-5.04,6.12-.82,1.05-1.64,2.09-2.47,3.15-.53,1.38-1.27,2.68-2.09,3.88-2.88,3.74-6.68,6.87-11.23,4.71-1.47-.31-2.85-.51-4.17-.62-1.32-.11-2.58-.12-3.8-.06-1.21.07-2.38.22-3.5.44-2.65.41-4.92,1.48-6.95,2.91-.51.36-1,.74-1.49,1.13-8.7,2.99-15.64,4.09-17.41,10.15-.25.87-.4,1.83-.43,2.92-.22,1.08-.12,2.18.1,3.26.54,1.46,1.37,3.64,1.46,5.61.05.7,0,1.36-.15,1.99-.94,1.26-1.83,3.27-2.81,3.32-3.98-.8-5.14-4.69-7.35-7.24-.42-.69-.8-1.38-1.17-2.08-1.82-3.49-3.45-7.5-7.45-10-.74-.38-1.47-.62-2.19-.7-5.02-.55-9.2,6.97-15.3,5.53.04.82-.14,1.68-.44,2.55-1.25,3.44-5.81,11.53-.89,11.3,3.98.8-.27-5.9,3.21-6.82.46-1.05.96-2.05,1.48-3.02,2.76-5.12,6.34-9.76,10.94-12.17.77-.4,1.56-.74,2.38-1.01,1.86-.29,3.79-1.36,4.86.56.84,3.9,2.61,9.07,5.43,11.72.71.66,1.48,1.16,2.31,1.45,1.69-.8,4.78,2.02,4.68-3.27-.02-.84-.15-1.76-.27-2.7-.38-2.82-.76-5.75,1.65-6.85,4.82-2.19,10.77-1.48,15.89-4.8.55-.51,1.11-1.01,1.69-1.49.58-.48,1.17-.93,1.78-1.34,1.22-.83,2.52-1.54,3.91-2.04,1.05-.03,2.07.11,3.07.37,1.99.53,3.9,1.57,5.83,2.87.96.65,1.93,1.36,2.94,2.12,9.08,6.92,16.53-2.29,20.44-10.8.68-.92,1.34-1.84,2-2.76,1.97-2.75,3.87-5.42,5.75-7.66,1-1.12,2.05-2.11,3.19-2.97,1.13-.82,2.36-1.5,3.71-1.99.94-.18,1.92-.09,2.92.21.83.24,1.68.62,2.53,1.1.85.48,1.7,1.05,2.54,1.67,5.21,4.67,11.52,13.24,18.22,8.99,4.82-2.19,6.43-10.15,6.41-16.05.2-1.15.41-2.32.64-3.48s.48-2.33.75-3.49c.89-2.01.8-3.98,3.8-3.13,0,0,1.03.94,1.07,1.92-2.01-.89,3.75-4.11-.72-4.85"/>
  <path class="e" d="M310.79,308.21c2.71,7.86,11.74,11.38,14.02,18.17,2.33,7.77-9.51,7.34-12.95,13.82-.43.95-.87,1.9-1.26,2.88-1.36,8.65-6.9,16.79-17.24,15.45-.87-.22-1.74-.57-2.58-1.02.05.98.14,2.95.67,4.23.07.75.23,1.48.46,2.19.23.71.54,1.39.91,2.05,1.66,5.04,6.11,6.37,10,8.07.78.34,1.53.69,2.23,1.11,2.91,3.62,2.59,7.01.63,10.1-.49.77-1.08,1.53-1.76,2.26-2.92,2.55-5.87,5.14-9.06,7.34-.64.44-1.28.87-1.94,1.27-6.1,3.93-17.67,9.39-21.12-1.29-.46,7.11-.29,14.2-4.22,20.07-.49.73-1.05,1.45-1.68,2.14-4.53,7.83-11.91-2.67-18.66.6,2.01.89,3.04,1.83,4.96.76,1.92-1.07.85-2.99.76-4.96-2.9,1.12-6.84,1.3-8.67,4.34,1.97-.09,3.89-1.16,3.8-3.13-7.59,6.26-5.08,17.97.17,23.64.58.62,1.2,1.21,1.88,1.73,5.1,2.97,9.75,6.88,14.1,10.73.73.64,1.44,1.28,2.16,1.93,1.77,1.3,3.19,2.67,4.66,3.93.49.42.99.83,1.51,1.22,1.5,1.2,2.53,2.14,3.51,2.09-.2-.81-.5-1.46-.88-1.98-1.42-1.95-3.92-2.16-6.13-3.02-.74-.29-1.45-.65-2.07-1.17-.94-.62-1.81-1.25-2.66-1.9-.71-.54-1.4-1.1-2.1-1.66-.58-.47-1.15-.93-1.73-1.38-2.71-.86-5.84-4.65-9.77-4.47,2.01.89,3.49,2.18,4.68,3.68.59.75,1.12,1.55,1.6,2.38.39.67.77,1.4,1.15,2.17,2.06,5.12,5.37,12.85,12.16,10.56-4.02-1.78-8.14-5.53-10.11-9.44-.47-.84-.89-1.73-1.26-2.67-.41-.7-.81-1.4-1.22-2.08-.82-1.37-1.66-2.71-2.6-3.92-.45-.59-.92-1.18-1.4-1.75-.95-1.15-1.94-2.26-2.99-3.31-.53-.86-1.01-1.77-1.45-2.73-2.44-6.78-2.76-13.67-6.96-19.38.27,5.9.5,10.81.98,16.8-.03.73.15,1.38.45,2.01.47.92,1.24,1.77,2.08,2.66.42.44.86.9,1.29,1.38.42.53.86,1.03,1.31,1.52.45.49.9.96,1.36,1.42,2.03,2.25,4.55,4.04,7.2,5.75.66.43,1.33.85,2,1.27,3.94,1.98,7.07,5.77,10.64,7.37.72.66,1.4,1.38,2,2.19.54.59,1.07,1.19,1.59,1.79,2.59,3.01,5,6.06,8.05,8.19.75.81,1.47,1.63,2.18,2.45,4.92,5.84,9.39,11.91,13.98,18.15.3.67.61,1.37.92,2.08.31.72.64,1.45.98,2.19.37,1.08.68,2.22.9,3.4.37,1.11.75,2.21,1.13,3.34-1.03-.94-1.07-1.92-2.11-2.88.72.81,1.52,1.56,2.37,2.24,4.25,3.42,9.86,5.3,14.42,3.12,1.09-.52,2.13-1.28,3.06-2.31-.05-.98-.14-2.95-1.12-2.9-4.92.23-9.74,2.42-14.66,2.55-.99-.07-1.98-.3-2.99-.75,7.11,4.6,15.02,5.22,22.12,7.67.99.5,1.95,1.09,2.87,1.83,3.09,1.03,3.18,2.99.27,4.11-.98.05-2.06-1.88-2.1-2.86.56,1.45,1.85,2.62,3.4,3.13,1.42.63,2.59.58,3.57.11.98-.47,1.78-1.37,2.46-2.45.67-1.06,1.21-2.31,1.7-3.51,1.36-3.55,1.24-7.06.12-10.3-.28-.81-.62-1.6-1.02-2.37-1.86-3.96-5.57-7.35-9.79-9.28-1.06-.48-2.15-.88-3.25-1.17-2.18-.71-4.75-1.24-7.12-.96-2.37.28-4.54,1.36-5.9,3.88.25-1.66,1.29-3.01,2.7-3.95,1.42-.94,3.22-1.46,5.01-1.44,1.79.03,3.57.6,4.94,1.85.68.63,1.21,1.34,1.61,2.12,2.03,3.9,1.05,9.42,2.06,13.47-1.61-2.88-4.35-6.26-5.29-9.45-.31-1.06-.42-2.1-.22-3.1.43-1.5,1.9-1.57,3.53-.9.82.33,1.67.85,2.45,1.46.78.61,1.49,1.32,2.02,2.03-1.03-.94-3.13-3.8-2.15-3.84,5.85-1.26,10.06,4.46,9.08,10.64.03,1.05-.02,2.11-.16,3.17-.27,2.11-.87,4.18-1.8,6.05-.58.54-1.36,1.08-2.45,1.65-1.37-.45-2.79-.65-4.03-1.3-.62-.33-1.2-.77-1.7-1.42-.51-.65-.95-1.52-1.3-2.72"/>
  <path class="e" d="M305.66,388.55c.78-.18,1.52-.43,2.21-.71.69-.29,1.35-.63,1.96-1.01,1.23-.76,2.29-1.69,3.18-2.73.6-.69,1.11-1.43,1.56-2.21.71-5.8,6.52-8.04,9.24-13.09,3.61-7.06-1.67-14.7-4.42-20.31-.44-.96-.93-1.89-1.5-2.82-.29-.93-.49-1.82-.66-2.68-.19-.96-.34-1.91-.39-2.82.64-1.61.55-3.58,1.45-5.59-.89,2.01-2.77,4.07-2.59,5.64.11,1.05.31,2.1.55,3.15.63,1.07,1.19,2.13,1.67,3.19,7.35,11.34,7.9,23.14-3.41,32.76-.47.77-.97,1.47-1.52,2.12-1.63,1.95-3.58,3.44-5.74,4.84-.72.47-1.47.92-2.24,1.39-7.62,3.57-9.77,10.87-14.59,16.5-.69.81-1.43,1.58-2.25,2.3-1.96,1.52-3.84,3.57-6.83,2.73,4.87-1.21,7.64-5.28,10.57-8.06.68-.69,1.36-1.38,2.04-2.07,4.77-4.83,9.72-9.55,15.55-11.94.85-.51,1.71-1.03,2.57-1.55.86-.52,1.72-1.04,2.58-1.57.47-.51.93-1.27,1.37-2.12,9.88-10.22,13.18-24.17,2.26-35.24-.48-.85-1-1.69-1.57-2.52-.34-1.02-.62-2.04-.83-3.07-.6-7.32,10.21-7.82,8.91-14.66-.23-4.92-8.32-9.47-5.72-15.04.07-.66.12-1.33.15-2,.03-.68.03-1.36.01-2.05-.04-1.39-.19-2.81-.45-4.27-.22-1.14-.41-2.25-.58-3.35-.87-5.48-1.38-10.52-3.28-16.18-1.17-3.89-7.11-4.6-10.95-2.45,8.71-3.36,11.31,10.31,12.57,16.17.31,1.46.52,2.91.65,4.34s.16,2.85.13,4.26c.11.7.2,1.39.26,2.07.06.68.1,1.36.11,2.03-.28,5.98,5.85,10.62,7.06,15.49,2.33,7.77-9.56,6.35-12.17,13.56-.2,1.01-.28,2.01-.28,3-.1,1.9.39,3.58,1.22,5.12.41.77.91,1.5,1.48,2.23,3.07,2.02,4.28,6.89,7.19,5.77,1.97-.09-2.15-3.84-.98-6.44-.06-.71-.08-1.39-.02-2.05.08-.85.12-1.7.11-2.56-1.89-6.56,6.77-10.9,6.5-16.8s-10.19-7.41-9.35-15.61c-.13-1.2-.31-2.4-.58-3.61s-.64-2.43-1.1-3.67c-.65-.71-1.41-1.17-1.9-1.14-1.11.05-2.11.36-3.03.84-.92.49-1.76,1.15-2.54,1.91-.67.6-1.29,1.35-1.9,2.16-.59.81-1.16,1.68-1.73,2.52-2.15,2.95-5.95,6.08-9.02,2.29-.64-.69-1.18-1.35-1.64-1.99-.46-.64-.83-1.26-1.14-1.86-5.49-10.76,11.84-15.23,21.79-21.42,1.23-.76,2.34-1.55,3.29-2.39.73-.62,1.4-1.27,1.99-1.93.6-.67,1.13-1.36,1.57-2.12,1.17-3.02,2.71-5.65,4.52-7.98.6-.81,1.22-1.59,1.86-2.38.58-.8,1.15-1.62,1.75-2.42.8-.48,1.58-.96,2.33-1.44.75-.49,1.5-.97,2.29-1.4,2.65-1.5,5.74-1.1,8.91-.6,1.05.11,2.11.24,3.18.27,1.48-1.06,2.7-2.23,3.73-3.48.51-.63.97-1.28,1.39-1.97,2.8-4.13,2.6-9.82,3.31-14.93.12-.85.26-1.69.45-2.51,1.86-5.21,4.63-9.28,5.39-14.24,1.03.94,2.06,1.88,2.1,2.86.85-2.99-1.17-3.89-3.22-5.76-2.86,2.1-3.66,6.08-6.98,8.25-.8.66-1.58,1.36-2.35,2.06-2.32,2.1-4.59,4.23-7.3,5.45-1.12.28-2.22.41-3.38.37-.88.02-1.75.02-2.6,0-1.71-.04-3.36-.15-4.87-.45-1.1.17-2.32.48-3.3.52.67.3,1.16.71,1.52,1.21.36.49.61,1.07.82,1.66.2.23.43.83.72,1.56.29.72.65,1.57,1.13,2.32,1.13,1.88,2.16,2.82,4.04.76-.98.05-2.01-.89-3.52-2.16-.63-.29-1.25-.54-1.82-.78-.58-.23-1.11-.46-1.58-.68-.74-.44-1.5-.84-2.28-1.18-1.56-.68-3.23-1.13-4.88-1.35-.85-.19-1.72-.39-2.58-.63-2.57-.73-5.02-1.82-6.5-3.97-1.03-.94-.14-2.95-.36-4.49.03-.72.11-1.44.27-2.18.15-.73.37-1.48.67-2.23.05.98-.89,2.01-.68,2.56"/>
  <path class="e" d="M247.65,306.75c1.44,1.47,1.49,2.45,1.65,4.69.18.67.35,1.35.53,2.04.67,2.56,1.38,5.19,2.06,7.86.34,1.33.67,2.67.99,4.02,2.36,9.18,2.81,19.01,1.94,27.75-.24,1.24-.56,2.46-.96,3.65-.67,1.98-1.54,3.9-2.66,5.73-.56.92-1.18,1.81-1.86,2.7-1.71,1.15-2.48,3.45-3.56,5.61-.36.72-.76,1.43-1.25,2.03-.99.5-1.71,1.01-2.44,1.41-.52-.37-1.46.66-2.44.71,3.13,3.8,8.05,3.57,12.01,3.41.87-.29,1.72-.59,2.51-.86,1.21-.39,2.45-.77,3.66-1.24,3.64-1.39,7.06-3.49,9.9-5.84,1.88-2.06,1.78-4.02,1.65-6.97,1.65,3.62-1.74,6.36-2.19,9.52-.15,1.05.02,2.15.83,3.4,4.05,2.72,2.84-2.15,3.74-3.39.44-2.66.61-5.13.55-7.57-.12-4.89-1.15-9.68-2.54-14.79-.76,4.96,3.31,7.73,2.14,13.08"/>
  <path class="e" d="M191.92,113.44c.95-4.32,1.75-8.3,2.07-11.94.15-1.02.31-2.04.49-3.05.92-5.05,2.49-9.89,6.37-13.68.65-.58,1.33-1.08,2.04-1.54.7-.46,1.43-.87,2.18-1.22.72-.39,1.46-.75,2.23-1.06,4.58-1.9,9.91-2.4,15.3-1.06,1.08-.05,2.13-.09,3.11-.14-.98.05-1.73-.17-2.49-.5-.76-.33-1.52-.79-2.56-1.23.72-1.02,1.56-1.62,2.48-1.98,2.77-1.1,6.32-.15,9.17-2.5-1.97.09-2.9,1.12-5.3,2.13"/>
  <path class="e" d="M139.95,109.67c3.58-2.21,2.41-6.1,2.48-9.73.12-.72.29-1.4.58-2.02.2-.93.37-1.86.51-2.81.71-4.73.5-9.66-.56-14.56-.17-.67-.38-1.33-.63-1.99-.26-.66-.56-1.33-.92-1.99-.44-.8-.9-1.57-1.38-2.3-.59-1.04-1.17-2.08-1.69-3.15-1.56-3.19-2.58-6.57-1.94-10.52.17-1.21.32-2.41.44-3.59.88-8.27.39-15.83-6.84-23.09-.05-.98.8-3.98,2.72-5.05-1.83,3.04.23,4.92,1.3,6.84,6.87,4.85,11.06,11.5,15.27,17.94.7,1.07,1.4,2.14,2.13,3.19.75.74,1.38,1.55,1.89,2.41,1.88,4.65.44,8.92-.73,13.06-.29,1.04-.57,2.08-.82,3.12-.25,1.05-.49,2.09-.65,3.15"/>
  <path class="e" d="M256.9,80.66c.07-2.66,1.32-4.29,2.96-5.51,1.64-1.22,3.67-2.02,5.29-3.03,1.16-.63,2.31-1.19,3.49-1.69,10.43-4.6,23.17-4.82,34.19-6.07,1.92-1.07,2.77-4.07,3.74-6.02.45-1.26.81-2.59,1.11-3.94s.52-2.74.68-4.13c.48-1.27.92-2.56,1.35-3.87,1.8-5.45,3.43-11.13,6.01-15.43.52-.86,1.07-1.67,1.67-2.42,2.01-1.9,4.32-3.42,6.78-4.49,1.23-.53,2.5-.95,3.79-1.24,9.33-1.43,16.49,4.15,22.71,10.76-2.19-4.82-5.73-17.47,3.44-18.23,1.17.01,2.47.26,3.88.75-.78-2.4-1.98-2.84-3.32-2.29-.67.28-1.38.81-2.09,1.49-4.14,12.48-13.04,11.9-23.74,8.98-1.07-.04-2.1,0-3.11.12-3,.41-5.72,1.67-7.82,4.68-.84.96-1.65,1.96-2.44,3.01-1.71,2.25-4.82,7.46-8.5,12.29-.92,1.21-1.87,2.39-2.85,3.49-.98.32-1.68.82-2.22,1.39-2.6,2.46-1.25,10.28-7.27,6.85"/>
  <path class="e" d="M217.99,134.06c.59-1.5,1.53-2.53,1.31-3.48.48-.99,1.06-1.86,1.73-2.64,4.05-4.69,11.55-6.15,17.45-6.42,6.88-.32,12.96,3.34,15.68,9.81.73.81,1.45,1.63,2.15,2.47,1.53,1.61,2.56,2.55,3.66,3.52.71.56,1.43,1.15,2.15,1.75,2.87,2.41,5.7,5.14,7.73,8.14.61.9,1.14,1.83,1.58,2.77,1.04,3.47,4.22,8.25.47,12.37,2.81-3.09,2.63-7.02.73-11.35-.26-.91-.54-1.77-.88-2.61-2.11-5.15-6.69-9.48-11.75-12.53-.72-.44-1.46-.85-2.19-1.23-.43-.46-.86-.92-1.28-1.38-.42-.45-.85-.9-1.26-1.35-.6-.35-1.16-.81-1.7-1.32-3.04-5.54-9.47-3.64-12.21.83-.55.89-.95,1.89-1.15,2.95-2.58,5.2,4.3,4.88,7.39,6.89.9.33,1.8.64,2.71.95,4.53,1.56,9.08,3.16,12.31,7.13.58.4,1.13.86,1.63,1.42.5.56.94,1.23,1.3,2.03q-1.03-.94-2.37-1.88"/>
  <path class="e" d="M315.71,376.45c10.17-5.78,13.55-17.76,7.94-28.05.02-1.05.07-2.05.11-3.06-.41-8.06,9.2-13.43,7.85-21.25-1.07-1.92-2.15-3.84-3.18-4.78-4.21-5.72.44-11.84-5.2-16.14-.29-.62-.6-1.24-.94-1.86-.34-.61-.7-1.22-1.09-1.81-.78-1.18-1.68-2.31-2.72-3.37.97-.37,1.96-.77,2.96-1.21,1.08-.41,2.11-.89,3.1-1.45,2.73-1.89,5.86-1.94,9.04-1.79.79.04,1.59.09,2.4.14,3.01.4,6.94.22,6.89-.77.11-2.44-.03-4.83-.37-7.16-.11-.78-.25-1.56-.41-2.33-.43-.55-.71-1.16-.87-1.79s-.23-1.31-.23-2.01c.17-2.38.08-4.35,1.02-5.38.96-.44,1.93-.72,2.89-.88s1.92-.19,2.87-.13c6.09,1.44,12.08,3.14,18.54,5.92.84.29,1.7.53,2.57.74-.19-.65-.39-1.32-.58-2.01-.69-2.9-.9-5.97-1.33-8.97-.15-1.01-.32-2.02-.55-3.02-1.15-2.75-2.59-5.21-3.87-7.62-.43-.8-.84-1.6-1.22-2.41-.69-5.16-3.87-9.94-1.14-14.99-2.63,7.02,2.56,12.69,5.39,18.13.44.81.85,1.65,1.2,2.54.35.88.63,1.81.83,2.78.08.98.05,1.94-.05,2.92-.33,2.87-1.21,5.86-1.81,8.85-5.01-1.74-10.91-1.47-16.89-3.16-.99.05-1.98.03-2.94.03-2.89,0-5.59.11-7.41,2.39-.8.62-1.64,1.23-2.52,1.83-.47.94-.97,1.83-1.49,2.64-.53.81-1.09,1.55-1.69,2.19-.48,1.09-.83,2.19-.99,3.28-.17,1.09-.15,2.18.11,3.26-.28.68-.54,1.37-.79,2.07-1,2.8-1.87,5.66-2.61,8.56-.19.73-.37,1.46-.53,2.19.93,8.93-5.59,17.11,1.7,25.64,4.16,4.73-5.4,11.09-4.76,19.2.04,1,.06,1.99.04,2.99.12,1.03.19,2.05.27,3.11,2.06,8.3,2.56,19.12-7,25.47-.98.05-1.83,3.04-3.18,4.63-.68.74-1.4,1.43-2.15,2.1s-1.53,1.3-2.33,1.92c-.8.62-1.62,1.22-2.44,1.81-5.93,5.05-14.55,10.37-15.12,19.27-.51-.47-.79-1.19-1.07-1.92-.28-.73-.56-1.45-1.09-1.92-.97.05-1.95.09-3.16,1.14"/>
  <path class="e" d="M227.63,350.86c1.43,1.27,1.71,3.16,1.94,5.14.11.99.21,2,.44,2.97,1.54,2.73,3.17,5.68,4.96,8.55.6.96,1.21,1.9,1.84,2.83.63.76,1.25,1.46,1.86,2.13.61.68,1.22,1.33,1.83,1.96,5.22,4.15,10.41,9.82,16.82,8.66.69.09,1.38.14,2.07.17.69.03,1.38.03,2.06,0,.91-.04,1.83-.12,2.74-.22,5.02-1.87,13.02.71,15.7-5.32-.09-1.97.71-5.94-1.82-8.18-.5-1.31-1.08-2.58-1.69-3.85-.61-1.27-1.24-2.54-1.82-3.78-.58-1.24-1.1-2.45-1.48-3.58.05.98.14,2.95-.05,3.85"/>
  <path class="e" d="M361.35,369.07c-1.02,1-1.96,2.03-2.9,3.05-1.3-6.84,6.65-5.23,9.62-2.25,1.27.82,2.5,1.75,3.71,2.67,6.02,4.57,11.18,8.79,14.69-2.06.49-1.09.88-2.23,1.18-3.4,2.74-7.27.37-16.02,4.96-23.13.32,6.88-.35,13.81-2.04,20.86-.3,1.26-.64,2.5-1.04,3.72s-.86,2.41-1.38,3.58c-2.56,11.58-15.43,10.21-24.11,12.16"/>
  <path class="e" d="M238.48,75.09c-.71,1.16-1.36,2.42-1.94,3.74-.29.66-.56,1.34-.81,2.03-.75,1.67-2.49,6.68-1.51,6.63,10.06,4.46,10.47,13.31,17.82,19.74.76.67,1.47,1.38,2.1,2.14.63.76,1.18,1.58,1.63,2.46,1.12,2.9,2.19,4.82,2.69,7.8.07.83.07,1.7-.01,2.62-.08.92-.25,1.88-.5,2.89.08.81.24,1.61.52,2.33.36.78.72,1.56,1.08,2.35.36.79.71,1.57,1.07,2.33,4.65,4.29,6.88,9.64,8.59,15.36.29.95.56,1.92.82,2.89,3.84,11.83,12.11,20.31,15.61,31.97.18,3.93,5.99,1.69,9.08,4.51,1.07,1.92-.8,3.98-1.33,4.7-.5.9-1.01,1.8-1.53,2.68-5.21,8.88-11.16,17.22-7.63,28.49.09.83.18,1.66.27,2.49.09.83.19,1.66.29,2.48.05.98,1.77.9,3.98.65,1.96.06,4.91-.08,6.86.02"/>
  <path class="e" d="M219.69,62.03c.25-.74-.78-1.68-1.81-2.62.43,1.21.92,2.3,1.48,3.27.56.97,1.19,1.83,1.91,2.61,7.39,3.53,15.4,5.46,22.2,9.33.85.48,1.68,1,2.49,1.54,7.57,2.56,8.03,12.39,14.31,17.48.51.56,1.01,1.09,1.5,1.64.5.54.93,1.11,1.29,1.69,1.08,1.74,1.54,3.65,1.48,5.61-.02.65-.1,1.31-.24,1.97.09,1.97.19,3.94.17,5.85.05.96.11,1.92.18,2.88.32,4.29.84,8.5,1.53,12.64.17,1.04.35,2.05.54,2.99,3.63,5.84,4.57,12.46,5.91,18.89.22,1.07.46,2.14.76,3.22,1.14,4.29,3.24,7.15,6.33,9.96-3.09-2.81-6.17-5.63-5.76-10.03-.01-1.03.1-2.03.29-3.03,1.12-6.01,4.51-12.03,4.5-18.69-.07-.59-.16-1.2-.28-1.81s-.24-1.22-.39-1.83c-2.28-6.79-6.49-12.51-4.98-20.19.19-1.1.46-2.19.8-3.31.07-1.37-.07-2.79-.49-4.26-.42-1.21-.85-2.42-1.26-3.63-.71-5.73-3.93-11.49-5.19-17.35-3.68,5.59-3.14,11.97-1.73,18.55.28,1.32.6,2.64.92,3.98-.95,8.18-.75,15.97.18,23.57.13,1.09.28,2.17.44,3.25,3.92,6.33,4.17,14.19,5.5,21.56.17.92.35,1.84.58,2.75-.33,3.91,2.71,5.74,4.77,7.62-2.1-2.86-4.21-5.72-5.42-8.52-.44-.85-.9-1.68-1.39-2.47-1.96-3.17-4.36-5.88-7.53-8.31-.79-.61-1.63-1.19-2.53-1.77-1.88-.74-3.89-1.63-4.56-3.78-.76-.93-1.51-1.86-2.25-2.77-1.33-1.78-2.36-2.72-3.43-4.64-.89,2.01,1.16,3.89,1.92,5.67.09.83.31,1.58.62,2.26,1.57,3.39,5.6,4.92,8.89,6.86.85.57,1.64,1.18,2.37,1.81,2.19,1.91,3.81,4.12,4.78,6.59.32.82.57,1.67.78,2.56.88,2.4.65,5.11-.02,7.72-.22.87-.5,1.73-.8,2.56-.5,1.28-1.66,3.44-1.94,5.55-.09.7-.09,1.4.07,2.06.21,1.88,1.24,2.82,3.29,3.19.79.48,1.68.95,2.62,1.38,5.65,2.58,13.47,2.92,15.08-.7,3.57-8.05-8.5-13.4-11.37-22.31-.26-1.01-.44-2.01-.55-3-.68-5.95.65-11.82,5.3-16.8.47-.7.99-1.41,1.57-2.09.58-.68,1.22-1.33,1.93-1.96-.81,1.02-1.57,2.1-2.26,3.21-.35.56-.68,1.12-1.01,1.67-4.95,4.27-6.53,9.81-6.21,15.45.05.94.16,1.88.34,2.84,7.88,13.34,16.29,24.77,14.96,41.08-.14,1.06-.37,2.12-.68,3.18-.95,3.18-2.71,6.34-5.52,9.42-2.77,4.07-.57,8.89,1.65,13.07.62,1.06,1.35,1.96,2.17,2.74,5.89,5.62,16.24,4.71,23.62,8.82.84.53,1.63,1.1,2.39,1.76-.09-1.18-.18-3.14-.48-4.24-.3-1.09-.82-1.81-1.81-1.76-4.62-.44-8.88-2.65-11.87-5.8-.75-.79-1.42-1.63-1.98-2.53-.61-1.27-.93-2.5-1.03-3.7-.1-1.2.03-2.37.31-3.53.69-7.44,10.29-12.82,7.92-21.57,2.42,9.74-7.23,14.13-11.83,21.24-.91,1.52-1.34,3.02-1.13,4.5.21,1.48,1.06,2.94,2.69,4.4.83.85,1.8,1.67,2.86,2.46,3.32,2.45,7.58,4.56,11.49,6.32.78.35,1.55.69,2.3,1.02,1.69.5,3.09,1.96,4.54,3.02.73.53,1.47.96,2.26,1.13,1.63-.43,3.65.47,2.65-2.51.09-.8.29-1.68.75-2.44.1-.58.18-1.18.24-1.8.07-.62.12-1.24.15-1.87.34-1.78.2-4.73.11-6.7.09,1.97-.76,4.96-1.78,4.02-6.92-.54-15.89,3.54-20.97-1.9-.72-.78-1.37-1.75-1.9-2.97.67.64,1.4,1.18,2.18,1.65.78.47,1.6.87,2.45,1.21,3.42,1.37,7.38,1.85,11.35,2.32,2.01.89,4.07,2.77,5.06,4.85.27.55.5,1.15.71,1.8.21.65.4,1.34.57,2.07.02-1.38-.09-2.65-.32-3.76-.39-2.06-1.41-3.5-2.79-4.54-2.76-2.08-6.94-2.54-10.25-3.05-1.01-.45-1.78-1.15-2.31-2.11s-.84-2.18-.87-3.69c1.13.3,2.31.48,3.5.58,1.19.1,2.4.15,3.6.18,4.81.14,9.6.12,13.59,3.18,1.02.79,2.07,1.52,3.21,2.11,1.13.59,2.35,1.04,3.69,1.32,4.43,1.65,9.76-2.39,9.59-7.22-.03-.97-.29-1.97-.81-2.97-.17-1.77-1.28-4.68-3.3-5.57-.98.05-1.88,2.06-1.75,2.85-.68.97-1.27,2.01-1.78,3.11-.51,1.1-.94,2.26-1.32,3.47-.21,1.16-.37,2.39-.52,3.67-.32,2.23-.54,4.65-.82,7.11-.09.82-.19,1.64-.29,2.47-1.65,6.08,2.95,8.92,7.47,11.84.91.58,1.81,1.17,2.67,1.78,1.07,1.93-.85,3-1.42,3.83-.64.5-1.39.82-2.44.46-.83-.17-1.69-.42-2.53-.49s-1.65.02-2.39.55c-.88.04-1.77.08-2.65.12-5.31.25-10.62.49-15.93.74-1.97.09-3.98-.8-4.92-3.31-.35-.53-.67-1.09-.95-1.67-.56-1.15-1.01-2.4-1.32-3.72-.1-.9-.43-2.08-.98-3.14-.56-1.06-1.34-2.01-2.34-2.45-.89,2.01-1.83,3.04-1.5,5.43-.14,1.12-.23,2.25-.25,3.38-.06,3.15.41,6.29,1.65,9.1.25.56.53,1.11.85,1.63,2.31,3.96,6.11.82,9.12,1.44"/>
  <path class="e" d="M313.12,553.95c4.03,5.57,8.32,13.25,15.72,10.45.82-.16,1.62-.35,2.41-.54,1.79-.41,3.58-.79,5.62-.69.68.03,1.39.11,2.14.26,9.02,3.53,10.49-7.38,17.25-10.11"/>
  <path class="e" d="M269.27,350.41c.09-8.65-8.94-12.18-11.27-19.95-2.98-8.48,2.43-15.09,9.13-19.19.96-.59,1.94-1.12,2.93-1.61,1.36-.29,2.76-.71,4.06-1.43,9.01-6.47,6.95-17.31,2.96-26.61-.44-1.03-.91-2.05-1.4-3.02-.19-1.88-1.26-3.8-3-4.7"/>
  <path class="e" d="M246.9,124.1c.52-1.03.48-2.01,1.41-3.04.06,1.31.13,2.73.3,4.18.34,2.89,1.11,5.87,3.1,8.28.71,1.07,1.44,2.14,2.2,3.2.38.53.76,1.06,1.15,1.59s.78,1.06,1.18,1.59c4.49,3,8.07,6.66,10.77,11.06.54.88,1.07,1.8,1.63,2.78,5.18,7.53,8.54,16.24,6.81,25.3.11.95.26,1.86.47,2.73.74,3.44,2.31,6.18,5.15,7.05.71.22,1.5.32,2.38.29,1.44-1.75,4.48.08,6.35-1.98.05.98.09,1.97.5,2.84.16.83.2,1.56-.27,2.07-11.39,9.39-16.74,21.46-21.22,34.95-.3,1.13-.51,2.31-.65,3.5-.66,6.93,5.55,13.54,12.48,14.2,6.59.52,11.63-3,17-6.65,1.07-.73,2.16-1.46,3.28-2.17,1.44-.72,2.58-.95,3.49-.84s1.59.6,2.13,1.34c.14.82.3,1.63.49,2.43.19.8.41,1.58.66,2.36.39,4.57,3.24,5.5,6.36,5.52,1.04,0,2.11-.09,3.15-.19,2.91-.7,5.46-.35,7.57.58.7.31,1.36.68,1.96,1.1.93.49,1.7,1.04,2.34,1.64.63.6,1.13,1.25,1.5,1.94.75,2.42.84,4.38.44,6.83-.24.78-.54,1.55-.9,2.32-.72,1.53-1.66,2.98-2.71,4.25-.39.63-.74,1.25-1.03,1.86-.48.87-.94,1.75-1.36,2.65-1.68,3.59-2.69,7.43-1.3,11.86.07.64.1,1.26.1,1.89-.03,1.83-.36,3.67-1.07,5.53-.57.97-1.24,1.92-2,2.83-5.37,6.36-15.76,10.67-22.4,16.15,7.48-4.48,13.79-11.04,21.08-15.09,1.21-.67,2.46-1.28,3.71-1.81,3.27.14,6.54.37,9.79.75,1.08.12,2.16.27,3.26.44,2.2.7,4.94.93,7.68,1.33.91.13,1.82.28,2.72.47,3.41,1.66,7.39,2.46,8.56,6.35.05.98-2.9,1.12-4.34,1.49-.78.17-1.52.37-2.23.6-6.96,3.46-9.64,9.5-12.4,13.57-5.53,8.14-6.02,19-10.26,27.85-.17,1.02-.34,2.02-.55,3.01-.16.65-.3,1.34-.43,2.06-.76,6.07,2.56,13.8-2.68,17.5"/>
  <path class="e" d="M191.78,103.65c-.26-2.35-.31-3.34-.51-5.34,0-.9.03-1.78.09-2.66.35-4.32,1.67-8.46,3.46-12.24.55-.77,1.2-1.49,1.94-2.15.76-.69,1.57-1.29,2.44-1.8,1.74-1.02,3.73-1.7,5.92-1.92.78-.39,1.55-.78,2.32-1.16,3.86-1.93,7.78-3.76,11.12-6.03.32-1.52-.19-3.38-1.09-4.63-.39-.78-.86-1.56-1.38-2.28.19,1.35.53,2.53,1.02,3.57,6.32,5.94,15.21,6.52,23.08,6.15-2.01-.89-4.96-.76-7.05-2.11"/>
  <path class="e" d="M199.8,326.18c-.93-2.12.45-3.83,1.69-5.9.42-.69.82-1.42,1.11-2.22,3.8-8.92,10.27-16.01,16.38-23.6.68-.84,1.36-1.69,2.04-2.56,11.15-8.52.77-19.86-3.61-29.51-1.07-1.92-.23-4.92-.32-6.88-1.97.09-3.89,1.16-4.45,3.4"/>
  <path class="e" d="M177.9,114.29c7.42,2.07,14.03-4.14,12.73-10.98,1.03.94,2.99.85,3.74,1.06.63.09,1.19.25,1.61.63.42.38.69.98.74,1.97-.05-.98-.14-2.95-.18-3.93,2.99.85,5.05,2.72,7.11,4.6-1.07-1.92-2.15-3.84-1.26-5.85.98-.05,1.97-.09,2.95-.13.19.64.39,1.29.57,1.94.88,3.24,1.31,6.49-.99,9.8"/>
  <path class="e" d="M262.83,483.77c2.55.32,8.36-1.92,9.74,2.56.39.58.7,1.33.91,2.31-.85-.62-1.59-1.29-2.28-2.02-1.35-1.1-2.66-2.15-3.9-3.2-.62-.52-1.23-1.05-1.82-1.57-.73-.53-1.46-1.06-2.16-1.6-6.2-4.64-4.69-14.56-10.81-19.2,6.08,3.66,8.37,10.45,12.93,14.85.74.62,1.47,1.26,2.19,1.94.78.71,1.61,1.41,2.51,2.1,2.06,1.88,1.21,4.87,1.34,7.1.22.66.56,1.26,1.01,1.81,1.79,2.19,5.17,3.61,7.33,5.6.51.54,1.03,1.06,1.55,1.56,2.61,2.53,5.37,4.74,8.1,7.17.64.57,1.29,1.19,1.95,1.85,4.7,4.25,8.01,11.97,14.26,16.05.7.46,1.44.85,2.23,1.13,1.59.56,3.4.7,5.54.24.81.14,1.57.28,2.3.43,2.9.6,5.24,1.27,8.29,4.34,3.14,3.16,6.48,7.15,9.04,10.71.4.56.74,1.14,1.07,1.71,1.86,1.29,1.99,4.24,3.96,4.15-2.06-1.88-3.13-3.8-2.87-6.8.05-.74.22-1.43.48-2.02.27-.6.64-1.11,1.12-1.52.48-.4,1.07-.7,1.77-.85,8.83-.08,22.91,6.17,17.46,16.27-2.72,5.05-12.51,6.49-16.71.77-2.15-3.84,1.6-7.96,3.43-11-1.97.09-2.95.14-4.92.23,4.02,1.78,8.89.57,12.07,5.35-1.92,1.07-5.01-1.74-6.92.22"/>
</svg>