<?xml version="1.0" encoding="UTF-8"?>
<svg id="c" data-name="Õº≤„_6" xmlns="http://www.w3.org/2000/svg" viewBox="0 0 600 600">
  <defs>
    <style>
      .e {
        fill: none;
        stroke: #000;
        stroke-linecap: round;
        stroke-linejoin: round;
      }
    </style>
  </defs>
  <path class="e" d="M191.23,83c-.62-1.22-.98-2.26-1.11-3.15-.13-.87-.05-1.64.18-2.33,1.44-4.13,8.89-5.4,12.15-9.28.62-.52,1.26-1.02,1.93-1.49,1.34-.94,2.77-1.78,4.3-2.51,1.17-.19,2.35-.08,3.52.36,1.12.32,2.19.73,3.21,1.21,1.02.48,2.01,1.03,2.97,1.62,4.93,4.48,13.62,5.01,19.6,9.26.85.61,1.65,1.29,2.33,1.97,1.77,8.47,9.5,5.16,14.11.9.69-.82,1.32-1.7,1.89-2.49.57-.79,1.1-1.48,1.55-2.03.73-1.01,1.5-1.98,2.33-2.88.83-.9,1.73-1.72,2.71-2.43,1.24-.86,2.51-1.65,3.81-2.39,10.37-5.92,23.67-7.95,34.15-2.92.75.21,1.2.74,1.43,1.49.23.75.23,1.7.06,2.77-1.22,1.64-1.08,4.59-2.29,7"/>
  <path class="e" d="M273.65,278.42c5.99,8.68,1.57,19.72,4.47,28.79.21,1.44.44,2.89.69,4.31.26,1.42.54,2.82.87,4.19-1.17,10.86-5.63,20.92-6.66,31.58-.11,1.33-.18,2.68-.23,4.03-.22,5.41-.18,10.99-.23,16.9.05,1.08.04,2.15,0,3.27-.13,2.57-.45,5.18-.98,7.76-.18.86-.37,1.72-.6,2.57-2.1,7.43-6,14.73-11.88,19.96-.65.58-1.33,1.14-2.03,1.66-11.16,6.42-15.48,19.42-14.51,32.13.26,1.15.62,2.21,1.06,3.21.41.91.88,1.76,1.41,2.57s1.13,1.56,1.79,2.24c2.14,1.97,4.37,3.76,6.57,5.52.73.59,1.46,1.17,2.19,1.76.93.47,1.75,1.03,2.49,1.64,5.01,3.14,6.27,8.99,10.55,12.56.76.52,1.61.97,2.58,1.33.77.73,1.52,1.45,2.29,2.16,2.31,2.12,4.82,4.07,7.64,5.68.77.67,1.51,1.35,2.24,2.03,5.01,4.85,9.59,9.75,13.85,15.37-.03.64-.19,1.44-.41,2.3-.44,1.71-1.13,3.64-1.66,5.01-.47,1.17-1.02,2.29-1.63,3.31,1.12.32,2.25.62,3.36.92,7.83,2.08,15.48,3.95,21.96,9.36.9.42,1.79.75,2.68,1,1.77.5,3.52.68,5.31.68.89,0,1.8-.04,2.72-.08,1.47,0,2.81-.32,4.05-.84,1.88-.77,3.44-1.85,4.71-3.15.63-.65,1.2-1.35,1.67-2.11,1.37-3.86,2-7.96,1.79-11.92-.07-1.32-.23-2.62-.49-3.9-1.24-6.9-4.46-12.66-8.62-17.4-.79-1.07-2.07-.87-3.57-.16-.75.36-1.55.85-2.37,1.37-1.88.13-3.75,2.18-5.52,3.01"/>
  <path class="e" d="M227.76,479.75c4.01,1.95,5.22,6.82,10.01,8.4.79.63,1.6,1.26,2.43,1.86,2.5,1.82,5.22,3.49,8.42,4.89,1.01.36,2.03.7,3.07,1.03,1.04.33,2.09.63,3.16.93.59.25,1.18.49,1.78.73.8.32,1.59.65,2.39,1,4.93,4.21,10.57,7.14,16.37,10,.83.41,1.66.82,2.5,1.23,10.54,3.74,15.95,14.32,21.84,22.49.6.93,1.2,1.87,1.8,2.8,2.44,3.73,5.04,7.42,8.18,10.84.67.42,1.12.99,1.47,1.63.6,2.33,1.67,4.25,3.96,5.62"/>
  <path class="e" d="M325.32,521.31c.87,1.21,1.77,2.24,2.7,3.11,2.65,3.47,6.73,5.02,10.7,6.58.79.31,1.6.62,2.42.94,7.36,2.48,19.43,7.83,21.13-3.4.37-.95.8-1.96,1.31-2.97-.34.57-.68,1.18-1.01,1.8-2.18,8.47-5.7,17.5-6.28,26.39.14,2.95-7.64,5.28-12.82,8.86"/>
  <path class="e" d="M223.98,211.42c4.32,3.44,4.54,8.36,6.38,12.71.06.83.08,1.66.06,2.5-.04,1.67-.25,3.33-.6,4.91-.18,1.41-.44,2.8-.77,4.2-.89,3.72-2.28,7.45-4.11,11.12-.46.92-.94,1.83-1.45,2.74-.33.85-1.22,1.79-1.63,2.88-.21.54-.3,1.12-.15,1.74,2.46,4.88,6.16-.21,6.21.77.5,10.81,6.76,18.41,9.6,29.3.01,1.21-.2,2.23-.57,3.11-2.61,6.15-13.32,5.35-13.82,13.13-3.09-2.81-1.49-5.6.84-8.41.58-.7,1.21-1.41,1.83-2.12,1.7-1.49,2.55-4.48,3.44-6.5-1.78,4.02-4.64,6.13-7.34,8.97-.48.58-.92,1.18-1.31,1.82-.77,1.28-1.32,2.72-1.49,4.46.23,4.92,7.29,8.53,3.59,13.63-5.63,6.17-12.83-.39-19.75-1.06,3.09,2.81,3.27,6.75,5.85,8.86.43.59.83,1.22,1.19,1.88,1.81,3.28,2.81,7.25,3.74,10.75"/>
  <path class="e" d="M359.6,226.33c1.82-3.12,1.68-6.06,4.54-8.17,2.71,5.29,6.15,10.55,10.15,15.17.67.77,1.35,1.52,2.04,2.24,7.95,7.54,18.15,14.95,30.38,11.34.7-.35,1.37-.81,2.01-1.41.64-.59,1.25-1.32,1.81-2.2.63-.81,1.18-1.6,1.71-2.41,4.76-7.25,8.03-15.48,13.43-22.21.2-.93.22-1.92.17-2.9-.09-1.97-.43-3.92,0-5.42,1.83-3.04,5.72-4.21,10.09-4.31.98-.11,1.85-.18,2.51-.21,2.46-.11,4.49,1.27,5.82,3.3.66,1.02,1.14,2.19,1.36,3.4.06.85.15,2.81-.78,3.84-4.36,3.02-9.06,5.73-13.64,8.5-1.14.69-2.28,1.39-3.38,2.06-5.49,3.62-10.26,7.8-14.12,12.72-.55.7-1.08,1.42-1.6,2.16-.66.61-1.3,1.35-1.93,2.17-.67.76-1.32,1.61-2.01,2.44-3.11,6.8-7.94,8.69-13.03,7.88-1.02-.16-2.05-.43-3.08-.79-2.9-.82-5.41-2.26-7.67-4.07-.77-.66-1.51-1.36-2.24-2.16-2.72-2.98-3.89-6.87-6.08-10.8-.47-.95-.96-1.88-1.48-2.79-1.56-2.72-3.43-5.17-6.1-6.89,2.1,2.86,4.45,5.71,6.45,8.64.5.73.98,1.47,1.42,2.21.87,1.83,1.99,4.73,2.91,6.92"/>
  <path class="e" d="M379.32,341.14c9.09-2.92,10.6-12.84,13.23-19.86,1.78-4.02,2.15,3.84,5.11,3.93"/>
  <path class="e" d="M148.39,86.63c1.58-4.37,1.35-9.29,1.06-13-.08-1.16-.08-2.31.02-3.43.32-3.36,1.61-6.47,4.46-8.82-1.13,3.99-2.72,7.57-2.98,11.23-.07.92-.05,1.84.03,2.79.08.95.22,1.92.45,2.94.11-1.19.3-2.34.5-3.47.2-1.14.45-2.24.72-3.33,1.1-4.37,2.63-8.65,1.01-13.32-.52-.92-1.21-1.78-2.09-2.54-.53-.77-1.02-1.63-1.52-2.47-1.01-1.7-2.07-3.37-3.59-4.29,1.52.91,2.82,2.33,4.22,3.77.7.72,1.43,1.44,2.24,2.09,1.18.38,2.08,1.03,2.82,1.84,3.02,2.57,1.24,6.6,3.34,9.46,1.83-3.04-2.19-4.82-1.3-6.84.94-1.03,2.9-1.12,2.9-1.12.39,1.3.53,2.55.48,3.77-.04,1.22-.27,2.42-.62,3.6-1.29,4.51-4.01,9.56-6.97,15.03"/>
  <path class="e" d="M143.49,158.62c-.06,1-.07,1.96-.03,2.91.27,3.38,1.34,6.62,2.41,9.86.27.81.54,1.62.79,2.42,1.91,6.05,4.24,13.82-1.48,18.03,1.88-2.06,1.74-5.01,1.6-7.96.09,1.97.18,3.93-.71,5.94-.05-.98-.09-1.97.85-2.99,1.21,4.87-.53,9.88-5.79,11.81"/>
  <path class="e" d="M153.03,206.84c-.64-.27-1.44-.38-2.22-.54-.78-.16-1.53-.37-2.04-.84.83.13,1.6.31,2.33.54.73.23,1.42.51,2.08.84,6.59,2.05,9.85,8.79,9.19,15.72-.18-3.93-4.16-4.73-6.24-7.16-1-.17-2-.48-2.88-.99-.89-.51-1.66-1.21-2.19-2.17,2.99.85,4.11,3.75,5.32,5.48.64.46,1.48.69,2.66.51,9.19,3.07,15.61-7.08,16.23-14.99,2.19,4.82,6.26,7.59,6.58,13.23"/>
  <path class="e" d="M172.05,218.72c4.81-2.4,7.61-6.82,9.94-11.5.47-.94.93-1.9,1.41-2.9.64-.55,1.17-1.15,1.62-1.78,3.18-2.57,3-6.5,3.84-9.5-.89,2.01-1.78,4.02-2.77,5.94-.33.64-.68,1.27-1.03,1.89-.71,1.24-1.48,2.42-2.34,3.52-.71.76-1.42,1.53-2.35,2.56.47-.51,1.07-.79,1.71-.97.8-.71,1.54-1.48,2.22-2.29,2.88-4.67,5.65-8.73,5.52-14.7.08-1.07.11-2.13.08-3.19-.08-3.18-.63-6.29-1.58-9.08"/>
  <path class="e" d="M182.86,198.6c6.99-5.6,4.62-14.36,5.99-20.94.15-.66.34-1.3.56-1.92.48-1.38,1.09-2.67,1.83-3.91.37-.62.76-1.22,1.18-1.81,5.97-2.15,11.37-4.32,14.99-7.76.6-.57,1.16-1.18,1.68-1.84,13.36-8.34,5.84-21.78-.3-32.2-.36-.63-.76-1.26-1.19-1.88-1.29-1.85-2.87-3.64-4.76-5.37-.76-.92-1.54-1.82-2.32-2.72-.71-1.27-1.6-2.61-2.44-4.01-.42-.7-.83-1.41-1.21-2.12-.38-.7-.73-1.39-1.02-2.05-.19.92-.14,1.75.05,2.52.18.78.51,1.48.89,2.15.76,1.34,1.71,2.57,2.1,4.11.6.96,1.25,1.92,1.93,2.86.57.79,1.15,1.56,1.76,2.33.45.65.92,1.3,1.4,1.95s.97,1.28,1.48,1.9c2.23,3.19,4.29,5.07,7.33,6.9-1.03-.94-2.06-1.88-3.56-4.03-.62-.68-1.22-1.37-1.81-2.07-1.71-2.06-3.32-4.28-4.47-6.86-.42-.96-.81-1.93-1.18-2.91-.25-.89-.5-1.75-.76-2.64-1-1.27-1.06-2.9-1.13-4.58-.03-.84-.07-1.69-.25-2.61.16.7.2,1.44.23,2.19.06,1.51.12,3.04,1.15,4.59.47,1.18.99,2.21,1.58,3.07.49,1,1,2,1.56,2.98,1.53,2.21,3.22,4.26,4.79,6.31.53.69,1.05,1.38,1.56,2.09,1.25,3.53,3.3,5.4,6.39,8.22-2.1-2.86-5.14-4.69-6.09-8.52-.52-.88-1.03-1.75-1.48-2.59-2.23-4.18-3.16-7.82,2.4-9.61.85-.29,1.72-.48,2.6-.6,1.79-.45,3.64-.39,5.49-.13.93.13,1.86.31,2.81.48,3.07.93,8.47,1.47,11.73-.3.65-.35,1.22-.8,1.67-1.35,8.82-12.16.68-17.7-9.47-24.12,3.27,6.75,9.79-1.44,14.88,2.27-2.99-.85-6.84,1.3-9.45,1.81"/>
  <path class="e" d="M377.47,82.13c1.09.39,2.03-.63,3.01-.68,3.09,2.81,1.3,6.84.45,9.83,2.63-7.02,5.26-14.04,2.98-20.83-2.19-4.82-8.89-.57-13.81-.35-.98.05-2.06-1.88-2.89-3.93-.04-.8.11-1.63.38-2.46s.66-1.65,1.12-2.41c-.94,1.03-.85,2.99-1.7,4.22-3.7,6.86-9.51,9.1-16.32,11.04-.95.3-1.9.57-2.86.81-.96.25-1.92.46-2.88.65-1.47.39-2.93.77-4.36,1.18-2.86.81-5.61,1.71-8.05,2.89-1.74.42-3.32.81-4.65,1.19-11.27,2.1-10.64,15.87-15.28,21.99-.7.89-1.48,1.52-2.35,1.92-7.35,1.49-13.43-2.17-19.84-5.52-1.15-.39-2.27-.7-3.35-.86-1.13-.26-2.26-.51-3.4-.68-1.87.86-3.79,1.88-5.66,3.07-.93.59-1.86,1.23-2.75,1.9-5.33,6.14-6.89,13.09-6.56,20.43.04.92.11,1.82.19,2.69,3.42,6.02,3.39,13.3,4.6,19.79.17.93.37,1.84.65,2.75,1.39,4.5,4.48,7.32,8.54,10.09-4.07-2.77-8.18-6.52-7.45-12.25-.04-1.01-.01-2.02.09-3.04.5-5.06,2.72-10.07,5.96-14.11.28-.64.56-1.3.85-1.96.29-.66.59-1.31.9-1.96,1.22-1.73,1.3-2.84.8-3.74-.38-.67-1.08-1.22-1.88-1.72-1.14-1.53-5.12-2.33-4.17-5.79"/>
  <path class="e" d="M147.92,97.54c3.62-2.54,1.43-7.37,4.21-9.65.51-1.04,1.05-2.06,1.61-3.05,2.58-4.57,5.74-8.8,9.5-12.17.75-.67,1.53-1.31,2.27-1.86,8.63-4.17,21.51-2.8,26.08-12.78.79-.85,1.68-1.6,2.63-2.23.95-.63,1.97-1.13,3.05-1.49,3.53-1.98,7.55-.19,11.58,1.27"/>
  <path class="e" d="M324.95,297.65c-.3-1.1-.44-2.17-.47-3.2-.03-1.04.05-2.04.22-2.99,1.84-2.52,2.58-4.96,2.63-7.37-.04-.9-.14-1.77-.31-2.67-1.5-3.99-1.53-7.27-.59-10.09.31-.95.73-1.85,1.24-2.72.65-.81,1.3-1.62,2.01-2.38.99-.46,1.9-.95,2.75-1.47,1.01-.52,2-1,2.98-1.45,1.21,0,2.28-.12,3.24-.32.96-.21,1.8-.5,2.55-.88.79-.68,1.49-1.43,2.11-2.26.56-.85,1.1-1.72,1.63-2.61.53-.89,1.04-1.8,1.55-2.73,4.33-5.07,5.39-11.89,8.57-17.69.45-.83.95-1.66,1.49-2.56.32-2.95,2.19-5,3.04-8-2.86,2.1-2.68,6.04-5.59,7.91-.7.61-1.4,1.23-2.12,1.82-2.88,2.37-6.07,4.28-10.7,3.1-.93-.28-1.76-.69-2.51-1.25-.75-.56-1.43-1.27-2.01-2.18-.73-.48-1.55-.93-2.43-1.33-4.4-2.01-10.36-2.97-14.76-2.27-2.9,1.12-8.76,2.38-7.55,7.25,2.17,4.33,5.86,4.16,9.53,3.62.92-.13,1.83-.29,2.73-.41,1.53-.35,3.02-.05,4.43.64.71.34,1.4.79,2.06,1.3.7,1.19,1.42,2.05,2.17,2.66,2.15.98,3.18,1.92,5.15,1.83.81-.24,1.65-.66,2.53-1.17.63-.64,1.28-1.24,1.93-1.82s1.32-1.13,2.02-1.68c2.97-1.89,5.55-5.6,8.28-8.38.68-.7,1.37-1.33,2.08-1.89,2-3.67,5.79-6.8,10.75-6.04,4.02,1.78,3.27,6.75,5.37,9.6-8.8,1.39-10.4,9.35-6.84,17.18.36.96.73,1.92,1.1,2.89,1.08,2.88,2.07,5.84,2.25,8.86.06.88.1,1.77.13,2.65.11,2.66.14,5.31.26,7.97-6.22-6.61-15.06-6.2-22.3-11.11-.95-.48-1.91-.94-2.89-1.38-2.93-1.32-5.98-2.35-9.25-2.7-1.23.04-2.35.17-3.41.31-1.06.14-2.08.28-3.04.37-.96.31-1.88.71-2.8,1.15-4.6,2.24-9.3,5.6-13.72,7.67-.98.19-1.96.28-2.95.25-.99-.03-1.98-.18-2.98-.51-2.99-.85-4.16-4.73-5.19-8.99.02-.88.07-1.76.14-2.64.49-6.19,2.07-12.5,4.29-18.71.36-1.01.74-2.02,1.14-3.03.93-2.15,2.8-4.21,2.66-6.2.26-.97.46-1.97.91-2.97-.38-1.13-.94-1.98-1.63-2.63-3.46-3.24-10.21-1.42-14.46-4.51,8.14.36,16.14-2.59,24.23-4.18,1.35-.26,2.7-.49,4.06-.66,1.98-.19,4.22.06,6.51.38,1.15.16,2.3.34,3.45.49,6.21,1.09,10.35-.89,12.41-4.74.41-.77.74-1.61.95-2.53-.1-2.66-.2-5.4-.27-8.19-.02-.93-.03-1.86.04-2.85,1.56-4.8.35-9.67.08-15.57,1.97-.09,4.02,1.78,5.05,2.72-1.07-1.92-2.95.14-4.47-.42"/>
  <path class="e" d="M185.42,109.99c-2.25,2.53-6.27.75-7.12,3.74-.85,2.99,2.01.89,3.04,1.83-.09-1.97-5.9.27-4.07-2.77,3.75-4.11,7.55-7.25,13.45-7.52-1.03-.94-2.99-.85-4.42-.69"/>
  <path class="e" d="M273.3,442.74c.89-2.41-2.19-5.22-.73-7.46.03-.81.05-1.64,0-2.48.25-1.35.62-2.66,1-3.99.38-1.33.78-2.67,1.08-4.03.29-1.01.54-2.03.72-3.05,1.46-3.46.16-10.3-3.77-10.11-3.93.18-3.61,7.06-1.79,9.74.22.66.42,1.32.6,1.99.19.66.35,1.32.5,1.98-.06,1.01,0,2.01.14,3,.14.99.35,1.98.59,2.96.27,1.23.61,2.45.93,3.66.16.63.31,1.26.43,1.9.05.89.04,1.8-.04,2.72-.08.92-.22,1.84-.42,2.75-.15,2.05-1.09,3.08-1.98,5.09,1.88-2.06.76-4.96.77-7.22-.08-.59-.17-1.19-.26-1.81-.09-.62-.18-1.26-.24-1.93-.1-.69-.19-1.35-.23-1.98.12-1.64.35-3.19.55-4.71.2-1.52.36-3.05.36-4.59.03-1.04,0-2.07-.13-3.11-.35-1.56-.49-4.51-.69-6.82"/>
  <path class="e" d="M303.47,496.41c.55-.94.9-1.91,1.07-2.9.02-2.27-.3-5.26-1.07-8.11-.25-.95-.56-1.88-.95-2.77-1.94-4.11-8.07-8.75-11.77-3.66,2.81-3.09,9.6-5.37,12.57-.8.58.7.98,1.45,1.27,2.25,1.7,4.77-.97,10.99-1.5,15.45-2.12-3.19-1.18-6.51-.38-9.83.2-.83.39-1.66.52-2.49s.2-1.65.16-2.47c-.61,1.34-.97,2.78-1.18,4.3-.21,1.52-.28,3.11-.26,4.75.01,1.64.11,3.34.21,5.06.1,1.03.21,2.07.3,3.12.05,1.2.05,2.35-.06,3.5-1.03-.94-1.11-2.92-2.11-3.86"/>
  <path class="e" d="M238.59,380.87c-1.71-1.87-2.79-3.79-1.82-5.77-.03-.91-.04-1.81-.15-2.68-.11-.86-.32-1.7-.75-2.47-.06-.97-.11-1.93-.13-2.89-.09-2.88,0-5.73.42-8.54.19-1.26.29-2.48.27-3.61-.05-2.26-.63-4.21-2.18-5.61-7.63-8.68-12.81-18.3-15.88-28.85-.28-.96-.54-1.93-.78-2.91-.27-.89-.49-1.79-.61-2.68.12.88.25,1.78.37,2.71.3,1.08.45,2.14.47,3.21.2,9.56-9.75,18.71-1.46,25.42,3.43,3.13,10.24,5.41,12.03,10.38.36,1,.52,2.1.42,3.34.26,1.56.72,3.09,1.28,4.6.28.76.58,1.51.9,2.27.49,2.11,1.56,4.22,2.74,6.33.39.71.79,1.41,1.19,2.12,3.97,4.67,6.21,10.48,3.53,16.51-1.88,2.06-4.78,3.18-7.46,1.26"/>
  <path class="e" d="M170.16,174.99c10.36-7.45,8.88-18.22,11.34-29.36.67-1.07,1.37-1.84,1.86-1.86,2.58-.48,5.6-.55,8.17-1.21.88-.21,1.7-.48,2.46-.85,4.22-2.29,4.04-6.23,4.79-10.29,0-.78-.04-1.57-.13-2.35-.08-.78-.2-1.57-.35-2.35-.35-1.89-.86-3.78-1.32-5.67-.34-.73-.61-1.51-.8-2.32-.37-1.59-.43-3.21-.23-4.81.1-.8.26-1.6.47-2.36-.6-2.56,2.31-3.68,3.16-6.68.09,1.97,1.17,3.89-.48,6.41-.06.74-.1,1.47-.08,2.19.02,1.44.24,2.83.86,4.07.22.77.49,1.5.8,2.22.37.98.78,1.94,1.25,2.88.24,1.54,2.3,3.42,3.37,5.34-1.03-.94-1.07-1.92-2.29-2.69-.71-.96-1.25-1.98-1.67-3.04-.42-1.06-.72-2.15-.88-3.24-.47-5.29,2.16-12.31,8.01-13.56-.89,2.01-.76,4.96-.62,7.27.18.86.53,1.66,1.14,2.4,2.38,1.84,4.19,3.9,5.5,6.13.44.74.82,1.5,1.16,2.27.85,1.57,1.41,3.15,1.74,4.73.16.79.27,1.58.28,2.39,1.33,10.78,1.92,23.56-9.98,30.26-.48.76-1.02,1.46-1.63,2.07-2.43,2.45-6.01,3.56-11.59,2.24,5.51-.25,8.74-1.98,10.85-4.6.53-.66,1.05-1.36,1.74-2.08,3.71-2.94,7.5-6.07,9.29-10.1-3.57,8.05-13.63,3.59-20.63,3.8-.95-.05-1.92-.09-2.88-.09-1.93,0-3.9.13-5.84.61-1.92,1.07-2.81,3.09-3.77,4.72-.55.85-1.02,1.73-1.44,2.64-2.77,6.42-2.98,13.81-.24,20.87.36.92.76,1.83,1.22,2.74.4.84.78,1.71,1.17,2.57,3.63-.07-.03,6.01,3.9,5.82-2.86,2.1-5.85,1.26-8.26-1.76-.73-.51-1.48-.95-2.31-1.22-.62-.56-1.2-1.22-1.72-2.04-.32-.5-.6-1.04-.81-1.61-.22-.58-.38-1.19-.48-1.84-.2-1.3-.17-2.7.24-4.22-.37-.74.53-2.75.48-3.73-.89,2.01-.8,3.98-1.14,6.13-.23.9-.56,1.8-.94,2.7-.38.9-.8,1.8-1.21,2.69-3.9,3.59-1.75,7.43-1.62,10.38,1.21,4.87,6.4,10.54,2.65,14.66-5.67,5.19-12.73,1.57-19.08-.85-.76-.22-1.55-.45-2.34-.69-2.37-.71-4.79-1.54-6.81-2.8-.81-.5-1.55-1.08-2.21-1.74-1.47-2.3-2.5-3.24-2.59-5.2.05.98,1.07,1.92.69,2.93.34.89.85,1.66,1.46,2.36,3.7,4.17,11.16,5.68,14.35,10.71.52.75,1.01,1.52,1.48,2.33.68.63,1.4,1.23,2.18,1.78.77.55,1.6,1.05,2.51,1.5,1.01.57,2.09.89,3.19.99,6.73.52,12.5-2.7,13.16-9.63-.09-1.97.71-5.94-2.28-6.79-3.93.18-7.86.36-10.91-1.47-3.09-2.81-3.27-6.75-.45-9.83,3.16-2.77,6.85-3.38,10.64-3.51.95-.03,1.9-.04,2.86-.03,5.33,0,9.13-3.14,10.91-7.16-.05-.98-1.12-2.9-3.1-3.25-.79-.54-1.79-.73-3.22.32-.05-.99.89-2.01.85-3-2.95.14-4.82,2.19-5.77,5.53-.08.8-.1,1.55-.17,2.16"/>
  <path class="e" d="M171.25,58.31c1.05-1.22,1.88-2.43,2.51-3.66.63-1.22,1.07-2.45,1.35-3.69.14-.62.24-1.24.31-1.87,9.22-11.51,4.97-18.21-6.21-25.58,2.01.89,3.04,1.83,4.25,3.07"/>
  <path class="e" d="M142.95,200.36c3.45-3.65,9.26-5.89,12.72-9.7.45-.62.85-1.28,1.18-1.99.45-.83.83-1.64,1.18-2.44,1.42-3.2,2.64-6.46,4-9.51.37-1.23.67-2.45.96-3.67.24-1.02.46-2.05.68-3.08.22-1.03.43-2.06.66-3.09.19-4.51.81-12.42,5.73-12.64,2.86-.58,5.74-.45,8.62-.07.98.14,1.95.31,2.94.5,7.54,1.91,15.68,7.44,23.5,6.1.85-.16,1.52-.46,2.08-.85,9.4-6.58,8.9-17.39,4.51-27.04,1.21,4.87,4.48,11.62.59,12.78-5.81,2.24-13.85-1.33-20.21-4.37-.74-.27-1.47-.52-2.2-.71-.72-.19-1.42-.32-2.12-.37-1.28-.19-2.49-.34-3.6-.41-1.97.09-3.84,2.15-5.69,3.67-.93.78-1.9,1.51-2.94,2.12-1.04.62-2.16,1.12-3.39,1.45-.73-1.18-1.45-2.32-2.13-3.45-.68-1.13-1.33-2.24-1.91-3.35-.58-1.11-1.09-2.22-1.51-3.35-.49-4.15-.63-7.1,2.15-10.2.95-.87,1.94-1.57,2.95-2.15,1.01-.58,2.05-1.04,3.09-1.42,3.93-.54,9.82-.81,10.72-2.83,1.47-10.91-15.06-6.2-20.49-1.29-.67.65-1.31,1.33-1.92,2.03-3.08,3.51-5.65,7.56-9.8,10.04-.83.3-1.65.51-2.48.65-1.87-.09-3.45-.07-5.36.01-.64.02-1.31.06-2.05.08.19-1.7,1.13-2.73,3.34-2.5.62.05,1.24.24,1.84.48.6.24,1.17.52,1.68.75.87.09,1.7.06,2.51-.08,3.24-.54,6.21-2.64,10.11-3.48-1.12-2.9-1.26-5.85-4.21-5.72-.98.05-1.94.58-2.91,1-.97.41-1.94.71-2.96.25-3.81-3.49-7.17-12.2-13.87-7.95,1.69-5.99,5.49-9.12,9.55-13.08.95-.44,1.99-.79,3.11-1.05,1.12-.25,2.32-.4,3.6-.43,1.07,0,2.15.07,3.27.18.87.1,1.77.24,2.69.42.93.2,1.89.42,2.88.69,9.09,6.76,23.92,8.05,27.61-6.29.33-.98.6-2,.84-3.03.71-3.11,1.06-6.39,1.26-9.29.08-.85.14-1.71.2-2.56.45-.76.99-1.46,1.63-2.08,1.94-1.87,4.84-3.09,9.12-3.46.7-.3,1.41-.58,2.13-.82,4.31-1.43,9.18-1.43,14.86.85,1.26.09,2.51.17,3.77.26,3.75.27,7.46.59,10.95,1.41-3.62,1.65-6.78,4.1-9.84,6.73-1.02.88-2.03,1.77-3.03,2.66-2.51,1.61-5.51,4.04-8.66,6.51-1.58,1.23-3.2,2.47-4.81,3.63-.61.36-1.24.77-1.9,1.21s-1.34.9-2.04,1.37c-2.36,1.72-5.45,3.89-8.23,4.92-.93.34-1.82.55-2.64.58-6.63-1.47-3.96-7.51-4.68-12.18.2-.82.47-1.62.79-2.41.96-2.36,2.39-4.51,4.11-6.16.74-.7,1.56-1.33,2.45-1.87.74-.36,1.51-.64,2.3-.85,1.59-.42,3.29-.55,5-.36.65-.02,1.29,0,1.94.09,1.3.17,2.59.57,3.86,1.25,6.07,3.41,2.84,9.47,1.83,15.57-.17,1.02-.28,2.03-.27,3.04.33,1.01.38,1.99.42,2.97,1.83-3.04,4.73-4.16,4.98-8.13.26-.76.51-1.51.78-2.26.82-2.23,1.85-4.35,3.79-5.98.83-.89,1.75-1.63,2.79-2.17,1.04-.53,2.2-.86,3.51-.92,1.27-.16,2.5-.32,3.67-.5,1.18-.18,2.3-.4,3.35-.7,4.92-2.04,9.79-3.25,13.27-6.37.7-.71,1.37-1.5,2-2.36,1.27-1.73,2.43-3.79,3.48-6.24.89-.88,1.85-1.6,2.98-2.08,8.72-2.2,11.27,10.49,17.22,11.2,6.93.66,7.36-11.18,15.14-13.51-6.93-.66-8.48,8.27-14.29,9.87"/>
  <path class="e" d="M218.89,147.44c-8.38,2.24-17.77-9.15-21.36-16.56-.35-.79-.7-1.58-1.04-2.39-1.02-2.4-2.01-4.83-3.23-7.11-.29-.55-.6-1.08-.92-1.61-.32-.53-.66-1.04-1.02-1.54-.78-.77-1.42-1.52-2.09-2.24-1.02-.76-3.08-2.63-4.11-3.57,2.86-2.1,6.84-1.3,9.44-1.79.71.07,1.41.18,2.09.35.68.17,1.34.39,1.96.67.8.3,1.58.65,2.35,1.02,1.54.75,3,1.61,4.37,2.45.49.34.97.7,1.46,1.08.49.38.99.78,1.49,1.2,1.88.89,3.64,1.76,5.28,2.67.82.45,1.61.91,2.37,1.38,5.95,3.78,14.71,1.41,17.98,8.15.36.64.58,1.37.74,2.15.76,2.98-2.01,7.05,0,7.94,3.18,4.78,7.25,7.55,8.29,13.88.17.87.3,1.74.48,2.6.32,2.6.8,5.15,2.04,7.38.15,1.04.28,2.08.4,3.13,1.79,15.76-.02,32.81-15.24,40.91-.98.05.66-6.93-.5-10.81-.89,2.01,1.17,3.89,2.24,5.81,9.65-8.96,8.76-22.3,9.51-34.85.07-1.14.15-2.27.25-3.4.23-1.17.32-2.25.35-3.31s0-2.09-.04-3.18c.67.27,1.3.56,2.23.82,13.51,8.52,12.48,25.55,13.49,39.35.2.84.44,1.63.72,2.36.29.85.54,1.75.77,2.68.23.93.42,1.9.59,2.89.08,4.22.26,8.15.35,12.3-.11.99-.27,1.97-.46,2.9-.19.94-.42,1.84-.7,2.7-.3.67-.63,1.34-.98,2.01-.35,1.39-.74,2.78-1.17,4.15-1.96,5.02-6.55,5.59-10.13,4.1-.89-.37-1.72-.88-2.43-1.47-1.2-1.99-2.32-4.89-2.42-7.9,0-1.02.02-2.03.06-3.05.05-1.02.12-2.05.23-3.08-.03-8.6,2.51-17.58,11.13-22.91-6.56,7.2-20.15,11.77-11.19,22.49.16,1,.32,2.03.49,3.09s.34,2.17.52,3.3c.17,1.14.34,2.31.51,3.53.09,1.02.2,2.01.31,3.01.1.83.21,1.66.32,2.49.58,4.17,1.33,8.41,1.53,12.68-1.11-1.74-1.7-3.98-2.15-6.38-.15-.8-.28-1.62-.42-2.44-1.02-4.81-2.36-12.63-4.28-11.56-6.7,4.25-9.19,14.22-16.01,19.37-.74.63-1.43,1.29-2.05,1.98-1.41,1.54-2.52,3.19-3.33,4.93-.41.87-.74,1.76-.99,2.67-.64,5.61-1.35,11.56-.1,17.41,2.66-2.09,5.91-1.69,9.13,0,.81.42,1.61.92,2.41,1.5,8.63,2.78,6.18,13.73,13.2,16.36,6.04,2.68,14.45,14.11,12.2,23.96-.53,1.06-1.23,2.04-2.06,2.92-1.25,1.32-2.8,2.41-4.56,3.21-.88.4-1.81.73-2.8,1-2.59.16-4.56.26-7.46,1.37.45-1.01.9-1.77,1.24-2.49.34-.72.56-1.41.53-2.27,1.1-2.98,1.95-5.98,3.87-7.05,3.84-2.15,4.02,1.78,4.38,4.94.24.9.44,1.83.61,2.78.17.95.31,1.93.43,2.92.17,1.32.3,2.64.37,3.93-1.15,6.62,2.12,13.36,8.86,15.19"/>
  <path class="e" d="M318.98,418.83c-11.33-.73-9.76,12-12.07,17.73-.2,1-.37,2.01-.52,3,.14,2.95-3.8,3.13-5.83,6.45-.71.75-1.37,1.53-1.95,2.35-.7,1.01-1.29,2.08-1.77,3.23-.56,1.22-.93,2.44-1.13,3.64-.2,1.22-.22,2.4-.08,3.54,1.04,4.89,5.06,6.68,9.4,7.24.89.09,1.77.13,2.59.1,4.87-1.21,5.63-6.17,8.76-9.54.61-.77,1.2-1.51,1.78-2.22.57-.71,1.12-1.38,1.65-2,3.21-4.98,7.06-12.55,13.42-10.66.91.27,1.86.73,2.87,1.41-.9-.54-1.83-.98-2.75-1.31-8.37-3.03-17.02,2.26-17.8,11.32-.36.97-.65,1.95-.88,2.93-.68,2.96-.75,6.02-.05,9.12.12,1.26.23,2.53.28,3.8.11,2.54-.01,5.07-.82,7.5-.35,1.04-.82,2.07-1.46,3.06-.58,1.09-1.31,2.16-2.25,3.18.99.12,1.94.11,2.87-.02,4.65-.61,8.65-3.86,12.91-6.04.77-.51,1.55-1.02,2.33-1.53,3.12-2.04,6.31-4.05,9.85-5.53-3.66,6.08-8.21,14.17-3.96,20.87,3.66-6.08,7.32-12.16,9.1-18.29.39-1.02.76-2.05,1.12-3.08.7-2.07,1.32-4.16,1.85-6.28.25-1.22.45-2.44.58-3.66.18-1.63.24-3.26.16-4.91,0-.84-.09-1.7-.22-2.56-.14-.86-.33-1.74-.54-2.62-.12-1.08-.3-2.13-.53-3.15-1.66-3.9-.86-7.88-4.94-10.76-.58-.77-1.19-1.51-1.84-2.23-3.88-4.29-8.95-7.5-14.47-9.71,2.89-1.32,5.83-1.66,8.8-1.51.99.05,1.98.16,2.97.3,7.04,3.29,12.58-4.84,19.55-3.2,3.98.8,7.11,4.6,11.13,6.38-1.92,1.07-2.99-.85-4.89-.36"/>
  <path class="e" d="M344.85,238.68c-.71-.42-1.6-.6-2.36-.84s-1.43-.51-1.78-1.12c-.32-.66-.56-1.39-.78-2.11-.22-.72-.43-1.42-.7-2.03-.08-1.19-.08-2.41-.02-3.65.33-5.92,2.34-12.08,5.59-15.99.54-.65,1.12-1.24,1.73-1.76,6.19-5.3,12.5,3.28,19.13,3.19,1.19.27,2.33.49,3.49.46,1.17-.03,2.35-.3,3.63-1.02.49-.27.96-.72,1.47-1.23.75-.77,1.56-1.69,2.56-2.34.5-.33,1.04-.59,1.66-.69,8.16-1.02,10.67,10.69,16.52,9.43,2.9-1.12,8.53-7.29,11.75-1.53,1.17,3.89,2.33,7.77,3.21,11.4.45-1.01.9-1.77,1.36-2.53s.91-1.52,1.36-2.53c1,2.58.05,5.25-1.83,7.36-.47.53-1,1.02-1.57,1.47-10.29,8.83-23.34,3.52-31.83-4.28-.88-.67-1.73-1.26-2.6-1.82-1.73-1.11-3.52-2.13-5.52-2.69,1.61,2.88,3.35,5.48,5.26,7.8.64.77,1.29,1.52,1.99,2.23,7.71,9.25,20.76,14.56,32.51,7.88.76-.74,1.5-1.45,2.23-2.17,8.83-8.62,17.38-17.29,8.5-29.95-.36-1.12-.68-2.25-.94-3.38-.77-3.39-.93-6.83.39-10.34.42,1.09.81,2.18,1.18,3.27,2.61,7.61,4.47,15.07,10.77,20.81,1.8,1.64,2.07,3.41,1.45,5.34-.31.96-.84,1.96-1.52,3-3.22,5.61-9.88,10.84-10.61,18.83.02,1.11.11,2.22.21,3.32.12,1.26.24,2.51.39,3.77,1.05,4.59,2.26,9.46,7.48,11.01"/>
  <path class="e" d="M215.24,410.51c-.78-4.85-3.95-9.63-4.33-14.5-.11-1.04-.22-2.06-.35-3.06-.53-4.03-1.5-8-2.54-11.97-.23-.88-.47-1.76-.7-2.65.45-10.79-4.92-20.39-6.14-31.03-.13-.69-.28-1.35-.41-2-.27-1.31-.48-2.62-.61-3.94-.22-.97-.41-1.95-.58-2.93-1.21-6.88-1.54-14.08-3.07-21.26-.25-1.17-.53-2.34-.86-3.52-.63-2.93-2.69-4.81-1.84-7.8.34-.57.67-1.14.99-1.72s.62-1.16.91-1.74c3.49-7.63,9.92-17.78,2.67-25.33-2.81,3.09-8.71,3.36-7.59,6.26,1.35,7.82-6.34,12.12-4.99,19.94,1.03.94,2.06,1.88,3.42,3.69.6.53,1.21,1.05,1.82,1.58,1.81,1.58,3.56,3.2,5.01,5.07,1.07.95.9,2.2.6,3.45-.3,1.25-.74,2.5-.2,3.46-.05-.98-.1-2.21-.22-3.42-.12-1.21-.31-2.4-.63-3.31-2.55-2.96-2.74-6.89-.91-9.93,3.04,1.83,5.14,4.69,6.69,7.94.5.84.95,1.71,1.37,2.58.56,1.17,1.05,2.36,1.46,3.57.14,1.03.29,2.06.44,3.09.16,1.03.32,2.05.49,3.09-1.46,3.94-.25,8.81-.41,13.06.18,1.44.41,2.87.73,4.37.8,2.44,1.61,4.87,2.37,7.29.25.81.5,1.61.74,2.42.79,8.34,7.19,18.88.4,21.16-9.7,4.96-14.62-11.82-18.38-21.92-.34-.92-.67-1.78-1-2.57-1.88-9.01-2.33-18.84-.78-27.78-1.56,8.94,1.76,16.67,3.53,25.19.4.74.8,1.5,1.15,2.32,4.91,9.48,6.4,20.25,9.49,30.43.48.93.93,1.83,1.36,2.73,1.89,4.01,3.32,7.83,4.3,11.86.2.81.38,1.62.54,2.44,2.23,8.71,9.52,17.24,6.04,27.26-.89,2.01,3.27,6.75,4.92,9.46.07.83-.05,1.73-.33,2.7"/>
  <path class="e" d="M201.21,160.62c1.36.22,2.43.23,3.28.05.85-.18,1.47-.54,1.98-1.04,10.08-7.27,9.58-18.09,9.15-28.57.16-.71.27-1.4.34-2.1.22-2.08.19-4.2-.11-6.34-.19-.94-.44-1.86-.79-2.76-.7-1.8-1.76-3.52-3.28-5.11-.53-1.01-1.06-1.99-1.63-2.89-.48-.94-1.1-1.74-1.8-2.46-.97-.45-1.9-.98-2.78-1.58s-1.71-1.27-2.48-1.98c-7.63-4.73-6.07-13.67-3.78-20.47.21-.88.42-1.75.62-2.58.22-.76.46-1.51.75-2.24.85-2.21,2.07-4.31,4.1-6.11.41-.49.83-.98,1.26-1.45,1.74-1.88,3.73-3.55,5.95-4.93,1.05-.96,2.07-1.82,3.15-2.61,1.07-.79,2.2-1.51,3.4-2.16"/>
  <path class="e" d="M183.16,34.23c4.56,6.16-3.08,11.44-.2,17.53-.06.97-.12,1.87-.22,2.74-.59,5.24-2.77,10.14-5.55,13.96,1.78-4.02,2.69-8.01,3.63-11.85.23-.96.47-1.91.72-2.86,1.66-4.29,1.39-10.19,5.19-13.32-4.87,1.21-7.64,5.28-9.65,10.49-.25.82-.49,1.65-.74,2.48-1.47,5-3.08,10.06-8.14,12.51-.98.05-2.06-1.88-2.1-2.86,3.93-.18,5.23,6.65,10.1,5.44-3.09-2.81-4.3-7.68-9.21-7.46.14,2.95-3.84,2.15-4.05,5.58-.62.78-1.27,1.58-1.93,2.36-5.3,6.28-11.33,11.51-19.77,8.38-1.13-.39-2.28-.86-3.38-1.46,1.27.8,2.45,1.71,3.45,2.68.59.57,1.11,1.17,1.55,1.79,3.15,4.88,3.56,10.01,2.39,14.98-.23.99-.53,1.98-.88,2.96-.24.9-.48,1.81-.72,2.73.91,7.34-5.84,10.61-10.71,11.82,1.88-2.06,4.92-.23,6.75-3.27,1.12,2.9-1.88,2.06-2.83,3.52"/>
  <path class="e" d="M180.05,111.62c.79-6.87,9.78-4.33,11.26-9.01"/>
  <path class="e" d="M154.85,89.35c2.24-5.59,5.76-14.88,9.51-18.03.63-.52,1.23-.85,1.8-.93,8.22,1.16,19.88-2.33,27.5-8.45.66-.73,1.28-1.45,1.87-2.13.97-.82,1.97-1.55,3-2.16,4.12-2.45,8.77-3.16,14.33.03,2.37,1.53,3.88,3.43,4.96,5.5.54,1.03.97,2.11,1.37,3.21,3.47,11.53,17.23,10.89,27.53,14.29"/>
  <path class="e" d="M341.06,296.72c-.92.21-2.36.37-3.45.58-2.01,6.91,7.02,10.43,6.27,15.39-.53,9.88-1.99,20.78-4.52,30.87-.24.93-.5,1.83-.8,2.71-.6,1.73-1.34,3.42-2.23,5.06-.3.55-.61,1.09-.94,1.62-2.19,5.55-3.84,12.53-8.62,15.7-4.73,4.16-.27-5.9-4.59-9.81"/>
</svg>