<?xml version="1.0" encoding="UTF-8"?>
<svg id="c" data-name="Õº≤„_6" xmlns="http://www.w3.org/2000/svg" viewBox="0 0 600 600">
  <defs>
    <style>
      .e {
        fill: none;
        stroke: #000;
        stroke-linecap: round;
        stroke-linejoin: round;
      }
    </style>
  </defs>
  <path class="e" d="M133.24,43.42c2.98,5.26.18,10.25-1.39,15.22-.39,1.24-.7,2.49-.8,3.77.11.99.15,1.98.17,2.97.02,1,.03,2,.09,3,.45,2.93,1.93,5.68,3.69,8.36.59.89,1.21,1.78,1.83,2.66.85.9,1.56,1.81,2.19,2.75,2.58,3.68,3.74,7.79,3.72,11.9,0,1.03-.09,2.05-.24,3.07.09.94.09,1.87,0,2.78-.76,11.59-12.99,23.98-4.01,34.7.46.97.87,1.92,1.26,2.87,1.88,4.74,3.3,9.55,2.5,14.9.13.98.24,1.94.34,2.91.1.96.17,1.92.23,2.87.02.91.02,1.81,0,2.72.5,3.61.88,7.29,1.06,10.95.05.91.08,1.83.1,2.74,1.73,7.41-.85,15.41-4.46,22.48-.89,2.01.23,4.92-.03,7.08.25,1.03.61,2.04,1.03,3.03,2.11,4.95,5.8,9.48,10.18,12.93.69.81,1.37,1.59,2.06,2.36.58.37,1.2.69,1.85.96.66.27,1.35.47,2.1.62,2.96.68,5.78.79,8.44.42.66-.09,1.32-.21,1.97-.35,6.22-.94,11.44-2.77,15.31-7.53.55-.68,1.08-1.42,1.57-2.23.75-.76,1.46-1.55,2.12-2.38.67-.82,1.29-1.68,1.87-2.56,4.33-5.66,5.98-12.63,5.76-20.48-.05-1-.14-1.99-.29-2.97-.05-.98.02-1.94.17-2.88.32-1.96,1.01-3.83,1.88-5.63.29-.6.59-1.19.91-1.77.58-.74,1.15-1.5,1.78-2.25,4.5-1.58,7.58-4.45,9.55-8.01.49-.89.91-1.83,1.27-2.8,10.37-12.33,4.91-23.9-4.39-33.94-.46-.45-.94-.87-1.46-1.26-.52-.39-1.07-.76-1.66-1.09-.98-.9-1.93-1.8-2.8-2.73-.87-.93-1.66-1.88-2.31-2.88-.37-.76-.72-1.64-.99-2.54-.14-1.11-.26-2.65-.21-3.92s.24-2.26.73-2.28c.98-.21,1.93-.37,2.86-.49s1.83-.22,2.72-.32c3.54-.39,6.74-.79,9.75-3,.92-1.4,2.06-2.68,3.21-3.96,2.29-2.55,4.58-5.07,5.08-8.37.05.98.33,1.71.84,2.18s1.26.68,2.28.6c-.07-.96-.36-1.68-.63-2.46s-.53-1.63-.55-2.85c0-.63.01-1.24.04-1.81"/>
  <path class="e" d="M396.3,29.49c2.42-6.34-4.36-8.58-9.44-8.58-1.02,0-1.96.09-2.77.25-5.45-.71-11.03,6.44-8.8,12.25-1.01-.57-2.1-1.04-3.22-1.42-1.13-.37-2.29-.64-3.47-.78-4.31-1.24-7.16.86-8.01,3.86-1.65,6.97-3.25,14.93.95,20.65-8.85.41-17.03-6.11-25.4-3.42-.91.63-1.63,1.46-2.23,2.44-1.19,1.96-1.94,4.52-2.08,7.78-.63.93-1.35,1.67-2.15,2.26-2.4,1.76-5.46,2.1-8.55,1.97-1.03-.04-2.06-.14-3.1-.23-3.1-.82-5.67-.24-7.96.9-1.15.57-2.23,1.28-3.27,1.99-1.8,1.67-3.71,2.01-5.64,1.63-1.94-.38-3.87-1.45-5.74-2.65-1.87-1.2-3.69-2.54-5.37-3.45-3.09-2.81-6.65,5.23-4.7,9.27"/>
  <path class="e" d="M211.7,156c9.57-7.81,3.17-18.35.69-27-.22-1.03-.51-2.06-.86-3.08-1.04-3.06-2.65-6.04-4.88-8.91-.52-.95-1.07-1.88-1.64-2.84-.76-1.51-1.4-3.06-2.15-4.52-.38-.73-.79-1.44-1.26-2.1-1.99-1.7-4.01-2.6-6.76-3.38"/>
  <path class="e" d="M316.79,480.26c2.28-.9,5.19-2.02,8.56-2,.94.03,1.81.24,2.57.7,4.02,1.78-.71,5.94-.53,9.88q-1.03-.94-2.22-1.96"/>
  <path class="e" d="M312.49,480.54c-.74-.77-1.54-1.43-2.38-2.02s-1.72-1.13-2.6-1.65c-.61-.45-1.25-.9-1.92-1.32s-1.37-.81-2.09-1.14c-2.15-.85-3.13-.81-5.1-.72,1.97-.09,2.95-.14,4.91.36.63.28,1.2.65,1.69,1.14s.88,1.08,1.16,1.81c-.52-.59-1.13-1.07-1.8-1.47-5.03-2.87-11.91-2.55-14.39-8.62"/>
  <path class="e" d="M233.43,401.46c-1.23,4.36,1.81,6.19,3.27,8.99.61.61,1.29,1.22,2.02,1.81.69.82,1.24,1.67,1.7,2.55,3.26,6.15,2.32,13.73,2.34,20.45.06,1.01.17,1.99.35,2.99-.05,1.15.07,2.21.31,3.2.24.99.6,1.92,1.03,2.8,1.19,1.73,2.45,3.51,3.44,5.35.33.61.63,1.23.89,1.85.11.71.33,1.49.58,2.3.94,2.48,2.01,4.4,2.99,6.9"/>
  <path class="e" d="M226.89,347.19c4.28,2.09,4.95,5.45,5.28,8.9.08.86.14,1.73.23,2.58.18,2.68.76,5.16,1.66,7.42.3.76.64,1.49,1.01,2.2.33.84.72,1.62,1.17,2.34.45.72.96,1.39,1.52,2.02,5.91,4.06,10.11,9.78,17.56,11.09,1.06.28,2.13.59,3.21.87,1.49-.05,2.69-.6,3.35-1.53.65-.94.75-2.26.02-3.89"/>
  <path class="e" d="M229.01,307.19c.46,2.92.64,6.85,1.33,9.46.1,1.02.18,2.02.24,3,.48,6.88.54,12.92,5.12,18.74,4.36,5.55,5.34,11.93,6.82,18.36.3,1.29.61,2.57.98,3.86.31,1.02.71,2.04,1.26,3.03.17-1.29.35-2.53.49-3.78-.25-12.05-1.82-24.78.73-36.98-.07-1.22-.19-2.44-.33-3.67-.03-.74,0-1.48.1-2.19.11-.71.29-1.4.57-2.03.04-1.73.98-2.75,2.95-2.85,1.15-.05,2.19.06,3.16.31,4.82,1.24,7.63,5.76,11.06,8.88-.09-1.97-.14-2.95-.43-4.55"/>
  <path class="e" d="M370.7,362.66c2.54-1.95,4.91-4.18,7.02-6.62.7-.81,1.38-1.67,2.01-2.66.4-.75.79-1.57,1.18-2.42.39-.85.79-1.74,1.23-2.65,3.5-6.02,11.28-8.35,12.88-16.3.85-2.99,3.8-3.13,7.82-1.35,1.56-8.94-8.73-18.32-1.56-25.33,1.15-.65,2.21-1.24,2.97-1.67.77-.43,1.25-.7,1.25-.7-.45-9.83-7.79-19.34-4.66-29.2.13-1,.28-1.98.46-2.96.24-.76.62-1.51,1.14-2.23,1.05-1.45,2.72-2.83,5.22-4.13,7.68-4.3,14.7-1.67,22.22-3.09.94-.22,1.87-.45,2.8-.68,1.86-.48,3.7-1,5.53-1.58.9-.37,1.8-.74,2.72-1.12,13.56-3.57.09-17.73,2.63-26.71-5.58,7.15,4.66,15.55-2.88,23.16-.93.78-1.91,1.48-2.86,2.19-.64.47-1.26.96-1.88,1.46-1.59,1.11-3.19,2.09-4.8,3-.8.45-1.63.88-2.56,1.21-4.26.42-8.19.6-12.12,1.06"/>
  <path class="e" d="M330.34,419.89c1.19.05,2.3,0,3.32-.14s1.98-.39,2.86-.71c5.53-2.54,9.19-8.62,10.01-15.04.18-.92.33-1.85.45-2.77.11-.93.25-1.81.42-2.65.51-2.53,1.33-4.72,2.64-6.82.58-.93,1.26-1.84,2.05-2.75,2.08-2.88,5.97-4.05,9.07-5.73,1.1-.67,2.19-1.38,3.26-2.1,5.37-3.59,10.53-7.61,16.44-10.79.8-1.16,1.54-2.27,2.19-3.39,4.83-7.56,6.05-16.24,6.51-24.88.23,4.92,1.53,11.75-2.89,16.3"/>
  <path class="e" d="M230.04,459.03c-2.26.2-3.15,2.21-3.34,4.58-.4.97-.71,1.94-.96,2.88.08.95.18,1.95.28,2.97-2.34,7.69,5.8,13.23,10.47,17.82.65.64,1.29,1.28,1.89,1.93.6.65,1.18,1.3,1.7,1.97-.56-1.45-1.34-2.4-2.27-3.22-.47-.41-.97-.79-1.5-1.18s-1.1-.8-1.69-1.28"/>
  <path class="e" d="M223.47,67.67c-.35-1.6-1.38-2.54-2.12-4.47-.43-.73-.9-1.42-1.42-2.08-1.56-1.97-3.61-3.6-6.11-4.47-4.12-1.29-7.89-.93-11.28.5-1.13.48-2.22,1.07-3.26,1.77-.85.58-1.69,1.37-2.52,2.28-.43.45-.87.93-1.3,1.43-.44.5-.88,1.02-1.36,1.53-6.03,4.79-15.73,8.19-22.74,5.56-1.03-.94-2.24-5.81-1.44-9.79,1.07,1.92,1.21,4.87,2.4,6.74"/>
  <path class="e" d="M199.49,182.2c1.65-.56,4.6-.69,6.57-.78-2.86,2.1-3.61,7.06-1.6,7.96,5.76,5.25,5.83,12.7,6.35,19.75.07,1.01.16,2.01.27,2.99,3.78,10.27-5.69,18.59-4.71,29.66.04.88.05,1.76.05,2.65-.04,4.41-.64,8.86-1.48,13.22-.23,1.21-.49,2.42-.75,3.61-.21,2.33-.56,4.52-1.07,6.59-.26,1.03-.55,2.04-.89,3-3.51,13.1-14.9,22.5-18.45,35.61.05.7.12,1.39.2,2.08.23,2.08.53,4.21.85,6.39-.03.84-.08,1.66-.15,2.48,1.54,9.75-.02,18.69-1.53,28.61.09,1.97,2.1,2.86,3.16,3.82.74.68,1.51,1.38,2.03,1.85-.51-.47-1.03-.94-1.57-1.43-.54-.49-1.12-1.01-1.74-1.59-5.94-5.42,2.64-11.72-.59-17.49,3.22,5.76-2.36,12.92,3.36,17.56.19,1.08.39,2.14.61,3.2,1.93,9.52,4.73,18.35,5.16,28.16.93.74,1.82,1.48,2.68,2.22,3.87,3.36,7.07,6.84,9.28,10.81.44.79.84,1.61,1.21,2.45,1.76,8.38,10.92,14.86,8.38,23.84,3.52-9.03-5.64-15.5-7.23-24.58-.36-.91-.79-1.8-1.28-2.67-1.96-3.49-4.85-6.71-7.43-10.06-.57-.75-1.13-1.5-1.66-2.26,1.47-10.91-6.85-20.37-6.91-31.4-.24-.69-.53-1.33-.83-1.97-.17-9.61-4.51-18.28-3.29-28.64.24-1.52.4-3.07.52-4.64.12-1.57.19-3.15.23-4.75.02-.8.04-1.6.08-2.43.19-8.74,8.81-14.06,9.23-22.67"/>
  <path class="e" d="M202.5,111.95c-1.54,1.72-3.46,2.8-3.14,6.12.04,1.07.34,2.21.78,3.36.37.96.84,1.93,1.36,2.91.41.46.81.95,1.22,1.45.41.5.81,1.03,1.2,1.57,8.95,9.41,15.57,24.86,1.36,32.43-.47.79-1.01,1.53-1.64,2.2-2.5,2.71-6.37,4.46-12.4,5-.72.77-1.42,1.56-2.14,2.33-3.61,3.84-7.76,7.12-13,9.27,1.5.42,2.06,1.88,2.65,3.34.3.73.6,1.47,1.04,2.08.75.13,1.39.67,1.86,1.43.47.76.77,1.73.84,2.69.43-1,.62-1.98.75-2.93.13-.95.2-1.86.39-2.69"/>
  <path class="e" d="M167.78,52.1c1.4-7.9,11.14-10.32,12.83-16.31,1.69-5.99-7.29-8.53-11.41-12.28,7.34,9.51,31.96,9.36,21.87,25.59.05.98,1.12,2.9,2.05,3.67.65.74,1.38,1.43,2.19,2.03,1.69.65,3.75,2.52,5.71,2.43-.29.83-.69,1.59-1.17,2.32-.42.63-.89,1.27-1.4,1.92-.51.65-1.05,1.32-1.6,2-.38.65-.81,1.25-1.31,1.78-2.63,2.49-6.56,2.67-9.1,4.07"/>
  <path class="e" d="M222.76,314.03c-.54.71-1.13,1.47-1.74,2.28-6.76,8.89-16.79,23.12-5.68,28.93,5.92,3.83,13.12,5.55,15.74,11.84.52,1.26.89,2.71,1.11,4.46.99,1.84,1.94,3.71,2.92,5.55.49.92.99,1.84,1.5,2.75.49.52.96,1.09,1.43,1.68s.92,1.22,1.37,1.86c.99,2.59,2.95,4.27,4.75,6.15.6.63,1.19,1.28,1.71,1.99-.51-.47-.95-.97-1.33-1.48-.38-.51-.72-1.04-1.04-1.57-1.28-2.1-2.29-4.14-5.08-5.02-.59-.63-1.15-1.28-1.65-1.98s-.95-1.44-1.31-2.23c-.32-.58-.63-1.16-.92-1.76-1.46-2.97-2.55-6.16-3.13-9.52"/>
  <path class="e" d="M369.36,223.26c.7,5.18,3.36,9.64,6.13,14.16.56.9,1.12,1.81,1.67,2.72.2,2.32,2.26,4.19,3.07,5.66.45.98.87,1.98,1.23,3.01.36,1.03.67,2.08.91,3.18.24.93.4,1.89.43,2.9.04,1-.04,2.05-.25,3.15-.81.66-1.73,1.22-2.7,1.76.96-.54,1.92-1.07,2.82-1.69.89-.62,1.6-1.43,2.08-2.41.04,1.42.04,2.65-.2,3.64-.25.97-.7,1.74-1.66,2.28.73-.28,1.45-.62,2.13-1.04,2.69-1.15,3.58-3.17,3.45-6.12-1.83,3.04-.71,5.94-1.06,8.62-.09,1.24-.13,2.41-.16,3.58-.39,12.28-1.28,25.38-7.65,34.73-.53.78-1.1,1.53-1.72,2.27-2.68,4.97-8.83,7.57-12.46,11.09-.6.59-1.14,1.2-1.59,1.84-2.84,4.16,2.25,7.87,5.13,9.34.8.31,1.58.45,2.28.34.7-.11,1.31-.47,1.77-1.14,4.64-6.13-.77-16.71,8.12-22.16.56-.77,1.09-1.55,1.6-2.34,2.03-3.19,3.62-6.66,4.42-10.64-.11,2.38-.4,4.76-.89,7.11-.16.78-.35,1.57-.56,2.34-5.51,10.57-6.04,20.45-7.5,31.35.11,2.46-2.59,2.58-5.9,2.84-1.1.09-2.27.19-3.43.39-5.14,3.35-11,4.6-16.23,8.41-.76.49-1.52.98-2.26,1.49-4.42,3.05-8.21,6.61-9.84,12.49-.31,1.1-.48,2.23-.59,3.4.61,9.17-4.97,16.32-14.71,18.74-1.92,1.07-.8,3.98.23,4.92,2.99.85,6.88-.32,9.79-1.44-6.56,7.2-15.78-.26-18.11-8.03-.85,2.99-3.71,5.1-2.67,7.55.05.9.23,1.74.52,2.51,1.74,4.64,7.42,7.02,12.05,8.52.84.18,1.69.27,2.57.26.88-.01,1.77-.12,2.69-.36.59-.13,1.11-.49,1.43-1.34.32-.86.46-2.21.29-4.32"/>
  <path class="e" d="M289.76,396.6c-2.03,1.45-4,1.54-5.92,2.62,1.92-1.07,3.84-2.15,6.5-3.65,1.11-.35,1.86-1.02,2.5-1.83.63-.81,1.15-1.74,1.74-2.61.6-.86,1.15-1.76,1.67-2.69,2.59-4.66,4.25-10.11,5.9-14.54.57-1.03,1.06-2.06,1.5-3.1.39-.93.73-1.87,1.04-2.81.31-.95.57-1.89.81-2.83.22-4.4,1.07-7.39,1.68-11.47.1-.97.2-1.93.31-2.9.32-2.9.72-5.81,1.41-8.72.35-1.04.71-2.08,1.05-3.1,1.42-5.06,11.21-6.5,6.96-13.2-1.74,5.01-6.61,6.22-9.4,10.59-.63.95-1.11,1.96-1.59,2.96-.38.84-.77,1.68-1.16,2.52-.39.84-.76,1.68-1.1,2.54-3.75,8.81-2.96,17.61-3.12,27.2-.01,1.07-.03,2.15-.07,3.24-1.01-.45-1.89-.98-2.65-1.59-5.27-4.19-4.71-11.75-3.75-17.75.15-.86.34-1.7.61-2.53.53-1.65,1.33-3.22,2.58-4.6.53-.58,1.07-1.16,1.61-1.75s1.1-1.18,1.65-1.78c1.11-1.2,2.23-2.42,3.33-3.68.73-.84,1.46-1.69,2.16-2.55,4.32-5.62,13.21-5.05,15.89-11.08,2.68-6.04-7.43-11.48-11.11-18.57-.5-.52-1.04-1.03-1.64-1.53-1.03-.94-4.87,1.21-8.04,2.25-1.21.2-2.44.19-3.65-.19-1.21-.38-2.39-1.12-3.5-2.39-.78-.64-1.5-1.34-2.16-2.1-.89-1.01-1.68-2.11-2.41-3.28-3.76-12.9-19.46-32.87-4.45-41.03,1.27-.4,2.57-.67,3.86-.95,4.06-.85,8.11-1.65,11.27-3.51.63-.37,1.23-.79,1.78-1.25,3.82-1.57,2.61-6.44,4.37-9.86.17-.79.3-1.56.4-2.31.4-3.02.29-5.83.2-9.01-.72-.98-1.45-1.68-2.19-2.17-3.7-2.43-7.71.44-12.04.3-1.38.12-2.7.14-3.97.06-3.17-.21-6.01-1.12-8.61-2.82-.87-.57-1.71-1.22-2.52-1.97-2.44-3.38-4.43-5.77-6.91-7.14-.83-.46-1.71-.8-2.68-1.03-6.05,1.51-12.14-1.23-13.72-6.06-.26-.81-.41-1.67-.42-2.57,1.27-7.85,10.21-6.29,15.72-6.13.81.1,1.59.2,2.33.26,1.35.05,2.7.07,4.01.01,2.95-.14,6.7-4.25,8.48-8.27-2.9,1.12-5.79,2.73-8.8,4.1-1.01.46-2.03.89-3.07,1.26-.65-.17-1.29-.31-1.92-.42-7.66,0-18.39,2.46-19.61,11.27-.15,1.05-.23,2.16-.23,3.33,0,2.34.35,4.91,1.09,7.69-.03,1.4-.05,2.8-.04,4.2,0,6.91.49,13.78.44,19.32-.26,3.3-1.54,6.64-3.14,9.93-.4.82-.82,1.64-1.25,2.45-3.31,6.97-11.89,13.28-7.59,20.96,2.15,3.84,9.97,2.49,14.97,4.23-14.93-3.25-16.32-12.05-9.23-23.09.28-1.21.42-2.26.53-3.31.98-9.44-.04-19.13-1.47-28.5-.22-1.45-.45-2.89-.69-4.32-1.14-2.56-.34-6.53-1.37-7.47-1.01-.45-1.8-.55-2.43-.38s-1.09.59-1.43,1.19c-1.34,2.42-.63,7.69-.44,10.47.08,1.24.17,2.46.28,3.69.71,7.85,1.99,15.67.69,23.61-.16.99-.37,1.99-.62,2.98-.62,1.01-1.01,2.02-1.29,3.09-1.01,6.16-2.61,14.11,2.44,16.83,11.09,5.4,21.42,15.76,22.12,28.57.24.98.55,1.93.94,2.83.1,1.37.2,2.77.25,4.16.2,5.57-.44,11.11-5.58,14.74"/>
  <path class="e" d="M213.98,55.89c1.9,2.78,4.49,4.87,7.28,5.89.93.34,1.89.57,2.88.68,3.75.42,8.62-.79,10.6-6.08,1.03-1.01,2.07-2.02,3.08-3.04,2.02-2.05,3.96-4.16,5.78-6.04.88-.83,1.73-1.6,2.6-2.26,1.72-1.32,3.53-2.24,5.43-2.43.95-.09,1.92,0,2.92.32-.54,1.11-1.12,2.23-1.72,3.36-.6,1.13-1.22,2.27-1.83,3.43-1.63,2.36-2.95,4.81-4.01,7.34-.53,1.26-.99,2.55-1.37,3.88-1.73,7.12-.48,12.97-1.28,19.85"/>
  <path class="e" d="M258.6,328.02c2.58,1.6,4.71,3.5,6.46,5.64.88,1.07,1.66,2.2,2.36,3.38,1.82,1.77,2.94,4.67,3.28,7.59.41,1.34.75,2.71,1.05,4.1,1.04,4.87,1.44,10,1.68,14.99.12,2.5.19,4.96.31,7.44.12,3.24-2.38,6.19-3.7,9.24-.33.76-.59,1.53-.72,2.32.27,6.31.64,14.17,6.58,14.88,5.01,1.74,11.89,1.42,16.82-3.19.51-.43,1.02-.9,1.51-1.39,1.46-1.49,2.74-3.25,3.38-5.21.4-.92.74-1.88,1.03-2.86,1.13-3.91,1.34-8.18.78-12.1.05-1.09.17-2.14.36-3.18,1.71-9.35,8.63-17.02,9.11-26.68.34-.94.73-1.86,1.12-2.78,2.36-6.38,9.28-5.71,12.05-9.78,5.58-7.15-8.41-11.43-7.21-20.29-.03-.65-.05-1.29-.08-1.92-.03-.64-.06-1.27-.11-1.9.1-1.35.17-2.73.18-4.13.39,1.38.73,2.76,1.03,4.15.39.71.72,1.41,1.01,2.11.29.7.53,1.38.73,2.07,9.05,12.81,12.36,20.54-3.07,29-.43,1.02-.81,2.04-1.18,3.05,0,1.09-.08,2.12-.22,3.09s-.33,1.88-.59,2.74c-2.27,4.26-4.99,9.31-9.67,12.05-.76.58-1.56,1.17-2.37,1.77-.82.6-1.65,1.21-2.51,1.84-1.88,2.06-1.98,4.47-1.15,6.97.21.63.47,1.26.79,1.89,1.94,3.88,7.04,7.58,11.82,4.4q-1.03-.94-2.08-1.62c-.59-.68-1.08-1.38-1.42-2.04-.68-1.32-.73-2.55.23-3.09,7.68-4.29,12.19-13.37,8.3-22.41-.06-1.02-.15-2.04-.26-3.07-.11-1.03-.23-2.07-.36-3.11,1.26-1.9,2.78-3.56,4.33-5.1,6.2-6.16,12.94-10.42,6.18-20.35,5.76-3.22,11.3-11.36,18.41-6.76-9.47,8.32-10.75,23.16-14.14,35.14,7.55-7.25,5.03-18.95,8.65-26.02,1.74-5.01,9.6-5.37,11.54-12.73.35-.92.72-1.85,1.13-2.77.69-.65,1.4-1.28,2.16-1.87,3.96-2.21,8.83-3.42,13.7-4.63.36,7.86-7.68,4.3-10.69,7.73-.77.7-1.58,1.38-2.42,2.05-.48.97-.95,1.93-1.43,2.87-1.35,5.82-10.2,6.23-12.03,9.27-2.59,8-.12,18.72-5.77,27.22-.45.94-.92,1.87-1.4,2.8-.4.78-.81,1.55-1.23,2.32-1.49,9.49-2.91,21.38-15.73,20.99.05.98.09,1.97.14,2.95.94-1.03.85-2.99.95-4.43"/>
  <path class="e" d="M254.58,103.13c2.7-1.2,4.58-3.26,7.74-4.1.67-.31,1.37-.61,2.09-.88.72-.28,1.46-.52,2.22-.75.75-.27,1.51-.57,2.27-.89.76-.32,1.53-.67,2.31-1.07,1.16-.38,2.32-.71,3.51-.96,3.93.54,7.77-1.6,10.53,1.25,1.35.86,2.54,1.84,3.51,2.95.75.66,1.26,1.4,1.61,2.21-1.16,9.41,14,17.58,5.42,23.89-.95.7-2.04,1.38-3.19,2.07-1.14.69-2.36,1.4-3.58,2.16-.93.87-2.06,1.69-3.26,2.56-.44.49-.86.99-1.25,1.51-5.23,3.85-7.82,10.03-6.91,15.47.15.91.41,1.8.81,2.67,6.15,7.57,17.33,14.94,26.93,9.57-.39-.47-.82-.95-1.27-1.43-.45-.48-.93-.95-1.43-1.43-1.06-.69-2.11-1.47-3.11-2.32-3.4-2.28-7.42-4.06-7.69-8.86-.4-1.19-.65-2.43-.74-3.71-.09-1.27,0-2.57.28-3.85.28-1.28.75-2.56,1.42-3.8.81-1.14,1.91-2.2,3.34-3.15.79-.91,1.67-1.78,2.63-2.58.96-.8,1.98-1.54,3.06-2.21.32,6.88,6.4,10.54,12.04,12.5,1.14.4,2.3.71,3.46.91,5.81,1.04,11.7-.47,16.37-6.02-5.01-1.74-10.01-3.48-10.93-9.49"/>
  <path class="e" d="M295.2,216.53c10.34-8.46,17.71-19.64,16.3-34.13.15-1.25.33-2.5.55-3.75.44-2.49,1.05-4.95,2-7.34.6-1.29,1.23-2.56,1.92-3.78,1.38-2.43,3-4.66,5.13-6.49,2.96-2.6,5.08,1.77,7.91,5.98.56.84,1.16,1.68,1.79,2.46,5.16,14.52,19.59,6.95,24.93-4.42.44-.8.86-1.61,1.28-2.43,3.79-7.33,7.23-14.82,16.64-15.85-7.88,4.16-12.67,10.93-15.42,18.7-.31.86-.59,1.74-.85,2.62-3.72,15.07-10.42,19.32-25.27,19.29-1.07.47-2.1,1-3.11,1.54-1.01.54-2.02,1.1-3.02,1.67-1.18-.1-2.19-.36-3.06-.74-6.06-2.68-4.99-11.51-5.41-15.38-.22-1.13-.49-2.27-.87-3.4-.32,1-.71,1.97-1.14,2.93-.61,1.08-1.15,2.24-1.63,3.46-.48,1.22-.9,2.5-1.28,3.83-1.93,9.77-2.46,19.64-6.02,29.86-.43,1.29-.9,2.51-1.44,3.66-3.21,6.9-8.73,11.26-19.51,9.91-1.23.06-2.17-.39-2.9-1.17-.28-3.61-4.35-6.38-1.58-10.45-.94,1.03-.85,2.99-1.78,4.02-.18-3.93-5.14-4.69-5.23-6.65-.35-7.57,3.72-13.41,8.77-18.56.72-.74,1.46-1.46,2.21-2.16,1.78-1.54,2.72-2.57,4.42-3.59"/>
  <path class="e" d="M420.39,279c-6.02,2.85-7.58,11.79-3.55,13.58,5.05,2.72,11,3.43,12.81,9.64-.08.96-.23,1.9-.44,2.83-.21.93-.48,1.85-.84,2.76-.45,1.01-1.42,1.3-2.54,1.33-1.12.03-2.38-.19-3.42-.21"/>
  <path class="e" d="M386,372.04c1.03-1.43,2.93-1.45,3.96-.51.3,1.22.48,2.44.59,3.66.08.92.11,1.83.12,2.74.01.91,0,1.82,0,2.74-.91,7.61,4.55,19.18-2.15,23.43-6.7,4.25-13.85-1.33-19.94-4.99-5.01-1.74-10.01-3.48-15.64-1.38-.9.49-1.61,1.2-2.05,2.2-.55.81-1.12,1.61-1.69,2.39-.11,1.08-.27,2.1-.45,3.05.03,6.87-6.67,11.12-12.39,13.72-.89.31-1.8.56-2.74.77-2.82.61-5.89.75-9.11.41,2.69-.37,5.78-.21,8.96.03,1.06.08,2.13.16,3.21.23,7.54-.18,16.26-3.54,20.85-10.65.94-1.03,2.9-1.12,5.31-1.49,1.08-.02,2.2.07,3.34.23,9.08,1.28,19.14,7.28,23.45-1.59,3.57-8.05.16-17.74,5.03-25.75.39-1.19.72-2.42,1.06-3.65,1.01-3.69,2.07-7.44,4.88-10.52,2.86-2.1,2.95-.14,4.02,1.78.17-2.67.07-5.59.09-8.49,0-.97.03-1.93.09-2.88,1.06-4.34.83-9.26,5.66-11.45.05.98.14,2.95-.8,3.98-1.94.58-3.46-.33-4.96-1.2-.75-.44-1.48-.87-2.23-1.13-2.73.82-4.79-1.05-6.8-1.94,12.69-2.56,12.14-14.35,13.5-24.27.32-.43.7-.84,1.19-1.21.49-.37,1.09-.69,1.82-.96.7-.45,1.46-.9,2.3-1.34.33-1.15.7-2.3,1.16-3.43.46-1.13,1.01-2.23,1.65-3.31.32-.54.67-1.07,1.05-1.59,2.19-1.5-.94-5.3,2.99-5.48,1.97-.09,3.04,1.83,4.11,3.64-.67.22-1.29.48-1.86.79-2.86,1.53-4.58,4.14-5.44,7.24-.34,1.24-.55,2.56-.77,3.89-.17.71-.44,1.58-.73,2.54-1.67,2.1-1.43,4.82-1.15,7.28.09.82.18,1.62.14,2.4,2.15,1.94,4.07.87,6.08,1.76-1.03-.94-2.06-1.88-3.17-1.57"/>
  <path class="e" d="M318.06,482.17c2.05-1.87,3.97-2.95,5.72-1.5.87.27,1.69.76,2.46,1.42,3.85,3.32,6.48,10.85,8.64,14.74.21.86.36,1.75.45,2.65.29,2.71.06,5.57-.81,8.6-.52.81-1.22,1.52-2.17,1.92-1.48.19-2.97.09-4.47-.25-1.49-.33-2.99-.91-4.49-1.62"/>
  <path class="e" d="M189.4,175.47c-.04-2.15.28-4.08.88-5.86.3-.89.67-1.73,1.17-2.47,5.53-.97,9.76-2.39,12.78-4.65.76-.57,1.44-1.18,2.04-1.86,13.3-6.43,9.72-20.06,3.32-30.6,10.24,8.39,10.03,25.15-4.47,29.09-.79.46-1.57.82-2.42,1.07-3.38,1.01-7.67.26-12.53-2.67,4.21,2.27,9.17,5.87,14.04,5.14.97-.15,1.94-.46,2.9-1,10.5-7.38,10.93-19.22,6.72-30.16.1-1.02.16-1.97.21-2.89.06-.92.11-1.82.16-2.7,0-1.04-.01-2.07-.07-3.1-.12-2.06-.41-4.11-.92-6.14-.25-1.01-.56-2.02-.92-3.03-.36-1-.79-2-1.27-2.99-.44-.89-1.08-1.54-1.83-2.1-1.3-.53-2.48-1.51-3.71-2.43-.62-.46-1.24-.91-1.92-1.24s-1.38-.55-2.16-.61"/>
  <path class="e" d="M189.8,104.34c-9.8,3.41-16.15-6.15-24.93-8.93-.77-.26-1.55-.52-2.33-.78-.78-.26-1.56-.52-2.34-.79-.57-.38-1.11-.82-1.6-1.32-.49-.51-.93-1.08-1.33-1.73-1.65-3.62,2.11-10.26,6.62-12.64.75-.4,1.52-.67,2.27-.89.59-.43,2.51-1.51,3.58.42.47,2.19,1.66,4.91,3.26,7.28.54.79,1.12,1.54,1.75,2.26.4.32.88.7,1.41,1.09,1.98.81,4.08,3.66,7.05,2.69.69-.59,1.14-1.2,1.42-1.86.88-1.82.22-3.92.07-5.8-.18-.64-.37-1.28-.53-1.89-.28-1.14-.57-2.28-.73-3.35-.32-2.14-.08-4.01,1.84-5.08,4.82-2.19,11.75-1.53,16.04-5.08.79-.78,1.62-1.54,2.5-2.29.88-.75,1.81-1.49,2.81-2.21,1.09-.66,2.21-1.21,3.37-1.66,3.48-1.36,7.33-1.87,11.77-1.03"/>
  <path class="e" d="M183.55,106.89c-5.52.94-10.26,5.1-11.95,11.09-.98.05-2.95.14-3.93.18.05.98.09,1.97-.04,3.22-.02,1.19.03,2.42.08,3.4-.03-.74-.07-1.47-.07-2.19,0-.72.02-1.41.09-2.08,2.49-11.34,14.24-12.87,22.95-16.23-8.8,1.39-18.72-.12-27.86-.13-.82.04-1.62.07-2.42.06-.66.11-1.29.22-1.93.35-1.82.37-3.62.85-5.36,1.45-.87.3-1.72.63-2.51.96-6.91,3.42-13.71,5.7-18.39,10.85,5.67-5.19,10.31-11.31,18.03-14.82.75-.17,1.49-.25,2.23-.21.74.04,1.48.18,2.2.46.84.3,1.61.76,2.31,1.33.47.38.91.81,1.31,1.28.41.47.79.97,1.14,1.5.93,1.27,1.96,2.21,1.76,3.4.48,1.17.85,2.34,1.12,3.43.24-.73.15-2.69-.17-3.94-1.05-1.43-1.55-1.4-1.9-.89-.35.51-.55,1.5-1.02,2.02-.67,3.31.06,7.25,3.14,7.77.62.1,1.33.07,2.14-.13,3.1-2.83,4.88-6.85,7.74-8.95,8.76-2.38,17.47-5.73,20.71-14.46.52-.86,1.02-1.73,1.53-2.59,1.53-2.58,3.09-5.06,5-6.94.55-.77,1.12-1.5,1.71-2.2.63-.51,1.3-.96,2.02-1.36.72-.4,1.49-.74,2.32-1.02.78-.36,1.56-.71,2.36-1.02,3.98-1.58,8.22-2.52,12.84-2.48-5.35,3.7-11.29,5-16.27,8.25-.71.46-1.41.97-2.11,1.63-2.92,2.18-3.3,6.38-4.9,9.69-.8,1.66-1.91,3.09-3.81,3.94"/>
  <path class="e" d="M270.85,163.32c4.85-4.12,3.64-8.99,2.16-13.93-.22-1.08-.5-2.18-.82-3.29-1.92-6.67-5.28-13.73-6.18-19.26-.16-.86-.32-1.73-.47-2.6-.61-3.47-1.12-6.98-1.51-10.55-.11-.99-.21-1.99-.3-3-.31-4.13.44-9.09-2.64-11.9-.91-.45-1.82-.87-2.76-1.36-8.09-4.76-16.23-10.3-18.65-20.17-.42-.69-.87-1.38-1.36-2.05-2.01-.89-4.96-.76-7.02-2.63-1.03-.94-2.1-2.86-2.15-3.84-.09-1.97,1.88-2.06,3.71-2.35"/>
  <path class="e" d="M322.79,365.15c2.54-6.28-2.65-11.95-1.27-18.16.05-.91.08-1.81.07-2.71-2.22-7.8,7.47-11.2,6.22-17.05-1.3-6.84-11.22-8.35-9.16-16.99.2-.6.48-1.16.8-1.69.32-.54.68-1.05,1.06-1.56s.78-1.02,1.17-1.54c9.16,1.94,16.8-3.34,24.71-2.72-5.05-2.72-10.95-2.45-15.77-5.14-.67-.37-1.32-.78-1.95-1.25s-1.25-.99-1.84-1.58c-.94-.63-2-1.2-3.29-1.6"/>
  <path class="e" d="M134.53,122.5c-1.22-1.76-1.36-4.71-1.45-6.68,2.63-7.02,9.6-5.37,15.41-7.61,1.92-1.07,2.86-2.1,1.38-4.35-.1-.54-.26-1.14-.47-1.81-.21-.67-.48-1.41-.8-2.22"/>
</svg>