<?xml version="1.0" encoding="UTF-8"?>
<svg id="c" data-name="Õº≤„_6" xmlns="http://www.w3.org/2000/svg" viewBox="0 0 600 600">
  <defs>
    <style>
      .e {
        fill: none;
        stroke: #000;
        stroke-linecap: round;
        stroke-linejoin: round;
      }
    </style>
  </defs>
  <path class="e" d="M162.2,56.41c.55.01,1.53-.03,2.45-.02.57-1.01,1-2.05,1.32-3.1.58-5.63,2.31-10.63,5.03-15.67,1.83-3.04-1.25-5.84-1.39-8.79,7.9.62,20.8,2.97,19.2,10.92.18,3.93-1.6,7.94-3.13,13.31-.07.91-.03,1.74.2,2.4.45,1.32,1.65,1.94,4.41.72,1.02-.06,2.01-.09,2.99-.1.98-.01,1.96-.02,2.95-.02.91-.06,1.83-.09,2.75-.07,3.36-.14,5.42,1.73,8.18,1.08.89.23,1.77.49,2.64.79,2.62.9,5.15,2.12,7.52,3.67,1.05.69,2.08,1.44,3.06,2.25.83,1.74,2.88,3.62,4.85,3.53,1.92-1.07,4.73-4.15,4.59-7.1-.94,1.03-.85,2.99-2.2,3.55"/>
  <path class="e" d="M281.43,97.14c-3.97-6.67,2.63-12.88,7.36-17.04.79-.69,1.56-1.08,2.32-1.24.78-.12,1.54-.01,2.3.29,8.64,11.16,16.14,24.59,29.21,9.22,1.92-1.07,4.91-.23,6.86.56,1.08.14,2.15.26,3.23.31.94.11,1.82.13,2.66.06.84-.07,1.65-.24,2.42-.48,3.04-1.96,6.12-3.64,9.27-5.16,1.05-.49,2.11-.96,3.18-1.39,12.36-1.65,21.68-12.91,32.47-13.41,1.96-.09,1.34,7.81,3.18,12.13"/>
  <path class="e" d="M303.85,191.65c-.54-.85-1.11-1.66-1.7-2.44-2.7-6.29-10.6-6.91-15.64-9.63-3.04-1.83-2.72,5.04-5.3,7.75-.39.97-.79,1.92-1.23,2.83-1.31,2.73-2.96,5.11-5.47,6.7-.8.37-1.46.37-2.01.11-2.06-2.88-2.33-8.77-7.15-6.58-2.39,1.59-3.67,5.83-5.36,8.98-.42.79-.88,1.51-1.38,2.1-.39.28-.92.62-1.5.96-.58.34-1.2.68-1.79.97q-1.16.3-2.14.35c.75-4.95,6.33-12.1.35-13.79-5.98-1.69-8.29,12.19-16.28,9.61,4.9-11.05,7.4-21.38,6.74-32.96-.06-1.05-.15-2.12-.26-3.19-.54-1.1-1.08-2.13-1.5-3.13-.42-1-.72-1.97-.8-2.95.81-4.96,9.46-9.29,4.33-13.97-2.1-2.85-7.94-1.6-11.87-1.42,1.83-3.04,4.68-5.14,8.57-5.61.8-.08,1.65-.08,2.52,0,6.11.5,13.77,4.48,17.96,7.84.59.62,1.1,1.29,1.54,2.01.87,1.43,1.44,3.05,1.77,4.77.16.86.27,1.75.34,2.67.3,1.01.43,2.02.44,3.03.01,1.01-.1,2.02-.27,3.03-.85,2.05-1.4,4.19-1.63,6.34-.11,1.07-.15,2.15-.11,3.21-1.35,5.51,2.81,10.23,7.25,13.61.68.43,1.4.76,2.15.97.75.22,1.52.32,2.31.31.78-.01,1.58-.14,2.36-.38,4.62-1.08,8.41-4.21,9.17-9.16,2.58-7.99-5.5-12.53-9.7-18.24-1.07-1.92-1.21-4.86-1.83-6.36-.01-.97.05-1.93.19-2.87.67-4.72,3.1-8.99,7.25-11.6.38-.55.78-1.11,1.21-1.66.43-.55.9-1.08,1.39-1.6,1.04-.55,2.07-1.08,3.07-1.61,1-.53,1.97-1.06,2.89-1.61,1.06-.45,2.17-.83,3.32-1.11,8-2.01,17.74.08,22.96,7.35.7.72,1.38,1.44,2.06,2.16s1.33,1.42,1.98,2.11c3.08,2.81-3.7,5.09-5.48,9.11-1.67,6.47-2.33,13.39-4.12,19.87-.36,1.3-.76,2.57-1.23,3.83-.49,1.15-.87,2.34-1.17,3.55-.3,1.22-.51,2.46-.69,3.71-.15,1.13-.2,2.32-.23,3.53-.02,1.21-.01,2.45-.03,3.68-1.43,3.56.85,10.34-4.95,12.58-.98.05-1.12-2.9-1.5-4.34.15-.93.24-2.03.22-3.38Z"/>
  <path class="e" d="M356.36,69.75c1.62-3.67-4.27-3.39-5.82-4.11-1.56-.48-3.15-.76-4.81-.4-1.13.14-2.23.41-3.28.78-2.1.75-3.99,1.93-5.35,3.46-.68,1.11-1.26,2.28-1.75,3.5-.82,2.02-1.42,4.17-1.87,6.36-.23,1.1-.42,2.21-.58,3.32-.93,4.19-.67,8.62-.85,13.07-.05,1.11-.12,2.23-.24,3.36.13,1.88.07,4.04-.25,6.18-.16,1.07-.39,2.13-.7,3.16-1.02,5.3-3.5,7.73-6.58,8.4-1.03.22-2.12.25-3.25.13-10.97-2.42-18.29-11.91-29.18-13.38-3.68-.49-7.73.49-11.32,2.45-1.2.65-2.34,1.42-3.4,2.27-2.63,2.97-5.44,6.05-4.28,9.93.26,1.74.5,3.48.72,5.21.11.87.22,1.73.33,2.59.52,7.44.6,14.9.89,22.35.04,1.06.11,2.14.23,3.23.58,4.85,2.77,9.66,4.92,13.5-2.1-2.85-5.04-2.72-7.99-2.58.98-.05,2.94-.14,3.52-.55"/>
  <path class="e" d="M200.65,189.22c10.54,1.15,11.83,9.95,10.91,18.81-.11,1.11-.26,2.21-.43,3.31.81,9.34-3.78,16.44-9.26,25.54-.89,2.01.14,2.94,1.17,4.7.14,1,.24,1.99.3,2.99.24,3.98-.12,8.01-.67,12.06-.18,1.35-.39,2.71-.6,4.06.21,2.21.29,4.4.23,6.57-.03,1.08-.09,2.16-.19,3.22,2.73,15.17-10.7,22.68-15.71,35.9-.06.92-.07,1.85-.02,2.81.1,1.91.42,3.93.98,6.09-.04,1.07-.13,2.11-.24,3.14,2.24,9.54-2.26,18.6.69,28.67.27.77.61,1.46.99,2.13,1.89,3.33,4.61,5.93,3.98,10.06-1.03-.94-1.12-2.9-.99-3.83"/>
  <path class="e" d="M237.18,392.95c3.05-7.33-1.19-14.02-5.39-18.42-.46-.57-.92-1.15-1.37-1.73-2.26-2.89-4.3-5.84-4.69-9.09-.12-.77-.19-1.54-.19-2.32,0-.77.06-1.54.19-2.31.32-.94.39-1.79.28-2.58-.56-3.95-5.73-6.31-7.52-9.51-4.29-7.67-2.33-16.26-2.06-24.89.03-1.08.04-2.16,0-3.23-1.4-4.18,1.45-6.28,4.35-7.4-2.7-5.29-2.93-10.19-2.13-15.13.16-.99.36-1.97.59-2.97,4.28-7.61,3.87-16.45-4.97-20.26"/>
  <path class="e" d="M336,281.99c.31.95.72,1.73,1.21,2.42,2.33,3.27,6.47,4.18,6.58,6.63,1.21,4.86-4.91.23-6.32,3.05-.89.21-1.76.44-2.61.69-4.25,1.28-7.97,3.22-10.3,6.47-.37.52-.71,1.07-1.01,1.67-3.44,7.91-2.1,15.72,4.16,23.3,3.13,3.79-6.37,11.12-2.83,19.26.22.96.39,1.92.53,2.89,5.85,12.12.46,23.19-10.29,31.03-.56.88-1.18,1.71-1.82,2.51-.65.8-1.33,1.58-2.04,2.33-.71.75-1.45,1.48-2.21,2.19-4.77,4.13-9.91,8.44-14.91,12.62-.71.6-1.42,1.19-2.13,1.78-5.83,6.02-13.5,10.31-14.72,18.9-.17.64-.34,1.28-.5,1.91-.22.84-.42,1.64-.64,2.39-.22,1.12-.52,2.32-.79,3.55-.27,1.23-.5,2.49-.59,3.74-.07.89-.09,1.78-.04,2.66.05.89.15,1.78.31,2.67.14,2.95,1.6,6.05,3.22,9.24.81,1.59,1.67,3.21,2.42,4.83,1.57,2.85,3.42,5.95,5.32,9.04.47.77.95,1.54,1.43,2.32,3.76,4.82,6.98,10.58,10.15,15.35-3.26-6.74-8.4-11.42-13.33-16.28-.72-.55-1.44-1.09-2.15-1.65-.71-.56-1.41-1.12-2.08-1.72"/>
  <path class="e" d="M239.54,385.34c.07,8.18-6.44,16.35-.01,24.27.52.78,1.08,1.55,1.68,2.29.12.65.16,1.29.15,1.95,0,1.95-.41,3.94-.81,5.93q.94-1.03,1.61-2.04"/>
  <path class="e" d="M189.46,288.38c2.57-3.11,5.43-5.21,7.21-9.23,2.67-6.03,1.33-13.83,7.69-17.84.68-.78,1.36-1.56,2.02-2.35,2.65-3.17,5.08-6.45,6.92-10.09.69-.41,1.43-.8,2.18-1.2,2.25-1.22,4.59-2.56,5.83-5.1.66-1.16,1.23-2.38,1.73-3.64s.95-2.54,1.32-3.87c.19-.66.36-1.33.51-2.02.15-.69.28-1.38.39-2.1-1.21-3.93,1.69-5.05,4.96-6.75"/>
  <path class="e" d="M143.32,102.32c-4.47,5.65-2.99,16.4,3.13,21.04-.14-2.94,2.67-6.03-.36-7.85-2.99-.85-4.82,2.19-7.82,3.63"/>
  <path class="e" d="M156.19,74.27c.34,4.25-.58,8.22-2.11,12.05-.38.96-.81,1.91-1.26,2.87-.54,3.32-2.24,5.97-4.3,8.34-.69.79-1.42,1.55-2.14,2.29-.64.51-1.27,1.1-1.87,1.76-2.9,2.32-5.49,10.31,1.39,9.99-2.99-.85-3.79,3.13-5.75,2.88"/>
  <path class="e" d="M254.21,431.89c-5.39-3.66-6.69-10.48-4.02-16.51,2.72-5.04,9.68-3.4,12.44-8.02.69-.75,1.37-1.53,2.03-2.32,6-7.13,11.14-15.63,17.49-22.39.53-.73,1.04-1.48,1.53-2.25.49-.77.95-1.56,1.38-2.37.43-.81.83-1.65,1.19-2.52.73-1.73,1.31-3.59,1.7-5.59.24-1.32.37-2.68.32-4.16-.03-1.42-.24-2.96-.65-4.65.1-.91.18-1.81.28-2.73-.41-8.66,6.24-13.89,8.86-20.9,2.67-6.03-4.43-10.62-9.29-9.41-.97.41-1.9.9-2.79,1.46-6.24,3.9-10.56,11.19-11.27,19.69-.18,1.09-.36,2.15-.56,3.14-.05-.98-.03-1.95.04-2.91.07-.96.2-1.9.39-2.83,1.31-4.12,3.33-9.06,5.71-11.66,1.19-1.3,2.47-2.02,3.81-1.76,7.97,2.59-.5,10.85-2.23,15.83-.57,1.29-.99,2.51-1.16,3.6-.29,1.01-.56,2.02-.79,3.04-.7,3.06-1.07,6.16-.5,9.34.19,1.06.49,2.13.93,3.27-2.4,2.59,4.65,6.2.86,9.33-1.92,1.07-2.99-.85-4.5-2.16"/>
  <path class="e" d="M239.97,439c.28.71.44,1.56.54,2.35.1.79.13,1.53.16,2.02-.42-1.09-.74-2.21-.96-3.36s-.34-2.32-.37-3.49c-.02-.78,0-1.56.06-2.34.88-6.89,4.8-13.66,6.46-20.74.24-1.01.43-2.03.55-3.06-.3-1.01-.6-2.02-.9-3.03-2.76-10.05-4.25-20.8-6.38-30.5-.15-1.01-.29-1.99-.42-2.97.05.98,1.07,1.92,2.1,2.85-1.07-1.92-2.1-2.85-2.97-3.37-.45-.63-.87-1.27-1.24-1.91-.37-.64-.69-1.27-.94-1.88-.44-.72-.85-1.46-1.23-2.21-1.15-2.25-2.04-4.66-2.53-7.22,1.03.94,1.12,2.9,1.71,3.91"/>
  <path class="e" d="M143.28,199.53c2.45-.66,3.25-4.63,6.15-5.75-2.85,2.1-5.57,7.14-1.51,9.91.87.21,1.75.3,2.63.3.77,0,1.53-.08,2.29-.22,7.89.31,9.49-7.64,10.69-14.04.12-.85.19-1.68.24-2.53.24-4.2-.04-8.6-.05-12.63.08-1.18.19-2.35.31-3.52-.17-5.48,2.51-11.51,1.53-17.7-.01-1.2-.03-2.42-.04-3.64-.03-3.66.02-7.37.49-10.93.12-.95.28-1.89.49-2.81-.16-2,.73-4.01,3.09-5.38.67-.84,1.36-1.66,2.02-2.53.67-.89,1.2-1.77,1.61-2.63.41-.87.68-1.73.84-2.59,2.68-3.83-.4-6.64-1.52-9.54-2.85,2.1-2.72,5.04-4.34,7.89-.31.6-.68,1.18-1.08,1.76-1.6,2.31-3.64,4.59-4.71,7.25-.5.77-.93,1.59-1.3,2.44-1.11,2.56-1.72,5.41-2.34,7.85-.2.95-.37,1.91-.52,2.88-.75,4.84-.99,9.88-.96,15.08-.04.93-.06,1.89-.09,2.88-.08,2.47-.19,5.09-.62,7.64-.14.85-.32,1.69-.54,2.52-.35,1.82-1.1,3.33-2,4.7-.45.68-.94,1.33-1.44,1.96-3.76,2.86-3.49,8.75-4.25,13.71-.85,2.99-2.76,4.06-3.53,5.6-.7,1.1-1.31,1.98-1.55,2.06Z"/>
  <path class="e" d="M233.27,75.79c1.03-3.99,4.07-2.16,6.08-1.27,5.98,1.69,11.87,1.42,16.25-2.73.89-.58,1.77-1.17,2.64-1.77.87-.6,1.73-1.2,2.58-1.78,1.09-.48,2.22-.8,3.38-1.07,2.32-.55,4.76-.9,7.17-2,12.63-3.54,13.95-17.37,22.08-25.26,1.17-.81,2.63-1.41,4.46-1.68,1.02-.79,1.82-1.58,2.52-2.34,2.1-2.28,3.31-4.32,7.1-5.51,3.91-1.23,6.22-.65,8.15.86.64.5,1.25,1.11,1.86,1.78.62,1.46,1.74,4.36,3.7,4.27.98-.05,1.7-.39,2.26-.92.56-.53.96-1.26,1.29-2.07,1.13-2.15,2.06-3.17,1.97-5.14.09,1.96.18,3.93-.78,6.04-.52.78-1.17,1.46-1.93,2.06-.76.6-1.61,1.11-2.52,1.53-1.46-.79-2.79-1.53-4.02-2.19-6.15-3.3-9.89-4.45-16.37-.73-1.11.64-2.3,1.42-3.6,2.35-1.1.57-2.03,1.29-2.82,2.11-6.13,14.21-16.16,31.4-34.33,21.42-1.96.09-3.88,1.16-5.8,2.5-.83.71-1.58,1.55-2.32,2.54-5.26,3.44-3.92,11.25-8.69,14.42-2.19-4.82-7.23-7.54-12.1-6.33,2.01.89,3.97.8,5.98,1.69,0,0-.05-.98.07-1.19"/>
  <path class="e" d="M276.99,288.39c-.28-1.12-.62-2.18-1.01-3.17-.39-.99-.84-1.91-1.36-2.74-.86-1.7-1.94-3.62-3.9-3.53-5.89.27-13.61,3.58-17.72-.16-5.14-4.68-.64-13.74-7.4-19.42-.33-.56-.64-1.14-.93-1.72-2.06-4.06-3.35-8.48-3.89-13.08-.11-.92-.19-1.85-.24-2.78-.62-5.95,1.11-10.95,1.64-16.49.21-.91.52-1.73.9-2.5,3.11-6.11,11.19-8.73,17.49-10.79,1.05-.22,2.09-.42,3.13-.61,3.11-.59,6.21-1.19,9.01-2.19,1.16-.38,2.32-.76,3.48-1.13,5.82-1.88,11.78-3.73,18.27-5.26,5.97-1.14,12.42-8.32,9.78-14.52-.38-.89-.94-1.75-1.75-2.54-4.03-2.8-13.8-1.36-14.12-8.23-1.83,3.04-1.65,6.96-3.52,10.38-.35.87-.74,1.75-1.17,2.63-2.58,5.28-6.54,10.14-10.78,14.27-.47.51-1.45.56-2.45.46-6.25,2.89-2.99,9.63-5.9,14.67-.09,1.31-.08,2.61.06,3.91.14,1.29.41,2.58.86,3.86.35,1.04.77,2.08,1.25,3.1,3.31,7.12,8.95,13.29,14.21,19.87.52.71.56,1.45.29,2.22-.27.77-.85,1.58-1.55,2.48-2.96,4.62-5.67,9.66-2.95,15.45.34.61.77,1.16,1.28,1.62,8.26,8.47,15.54,16.99,14.01,28.51"/>
  <path class="e" d="M318.36,298.74c-.79-.59-1.82-1.52.16-2.97"/>
  <path class="e" d="M295.13,393.37c-.64.59-1.17,1.27-1.65,2-.48.73-.91,1.49-1.34,2.24-6.63,6.94-17.99,7.89-22.97,15.96-1,1.61-1.74,3.51-2.14,5.8-.81,2.15-1.66,5.15-1.51,8.56-.04.91-.02,1.81.07,2.72-.45.45-.42,1.02-.18,1.62.24.6.67,1.23,1.01,1.82.87,1.19.82,1.8.42,2.13-1.58,1.36-2.65-.55-3.94-1.01-.75-.71-1.54-1.65-2.07-2.62,1.11.07,2.12.26,3.04.54.8.25,1.54.56,2.21.95.67.38,1.27.83,1.82,1.33.56.64,1.06,1.29,1.5,1.94.45.65.84,1.3,1.2,1.97,1.76,2.86.92,5.85,3.02,8.7-.05-.98.94-1.03.87-1.93.27-.62.52-1.23.71-1.82.76-2.37.66-4.55-2.07-7.05.84,3.9,2.54,7.75,4.74,11,.55.81,1.13,1.59,1.73,2.31,2.63,3.05,4.12,6.86,6.31,10.28.44.68.9,1.35,1.42,2.01,5.86,3.97,10.06,9.68,11.36,16.5-.36-7.85-6.53-13.47-12.27-17.55-.58-.56-1.13-1.14-1.65-1.76-1.57-1.86-2.9-4.01-3.99-6.42,1.12,2.9,2.46,5.3,4.19,7.27.58.66,1.2,1.27,1.88,1.85,5.33,3.14,9.39,5.9,14.32,7.98.77.42,1.52.85,2.26,1.3,1.47.9,2.87,1.9,4.15,3.04.56,1.08,1.07,2.21,1.52,3.39.45,1.18.83,2.4,1.15,3.69.56,1.17.99,2.42,1.25,3.77.26,1.35.35,2.8.22,4.38,0,0-2.95.14-3.48.42"/>
  <path class="e" d="M302.54,483.13c-.7.97-.61,2.93-1.49,4.31-.18.77-.28,1.57-.24,2.41.05.83.24,1.7.65,2.6.55,1.4,1.41,2.76,2.35,4,.54.75,1.1,1.45,1.68,2.1.64.88,1.26,1.78,1.79,2.74-1.86-.28-3.04-1.01-3.86-2.02-1.1-.82-1.22-2.24-1.33-3.71-.1-1.47-.16-2.95-1.1-3.84-.01,1.43.03,2.9.17,4.36.14,1.45.32,2.83.58,4.09.18.82.4,1.61.68,2.34,1.38-2.03.59-3.22-.54-4.33-.67-.54-1.69-1.47-2.69-2.39-1.43-.37-2.16.38-2.47,1.51s-.19,2.66-.01,3.75c.3,1.09.9,2.11,1.73,2.9,1.42.91,3.43,1.8,5.74,1.71.86.03,1.72.03,2.59.01,5.18-.1,10.39-.88,15.86-1.09,1.12.12,2.17.35,3.01.79.84.44,1.48,1.07,1.77,2,.24.74.25,1.67-.02,2.83-1.02-.69-2.09-1.26-3.18-1.74-.82-.36-1.66-.68-2.51-.96-6.12-2.16-13.96-2.21-19.42-6.01-1.09-.76-2.09-1.67-2.97-2.8.92-1.51,1.6-2.76,1.81-3.98.21-1.22-.01-2.37-.87-3.65.41.86.85,1.97,1.42,3.16.63,1.22,1.36,2.48,2.27,3.56.99.88,2.06,1.68,3.11,2.46,1.06.79,2.1,1.57,3.08,2.38,1.06.8,2.12,1.62,3.18,2.47,1.06.85,2.11,1.73,3.14,2.66,1.07,1.92,4.91-.23,5.75-3.22.07-1.23-.02-2.5-.25-3.79-.17-1.12-.45-2.16-.82-3.14-.88-1.91-1.98-3.5-3.25-4.84-.63-.67-1.3-1.28-2.01-1.84-1.64-1.34-3.23-2.71-4.91-3.97-.84-.63-1.71-1.23-2.6-1.82-.89-.58-1.76-1.2-2.62-1.77.86.39,1.78.52,2.74.45.97-.09,1.94-.36,2.93-.69,3.95-1.35,7.99-3.72,12.69-1.32,1.16.27,1.95.76,2.45,1.4,2.49,3.21-2.23,10.4-3.64,15.38-.05-.98-.09-1.96.01-3.31"/>
  <path class="e" d="M263.26,335.99c6.11,9.26,9.56,22.27,7.74,33.93-.2,1.32-.46,2.61-.78,3.91-.09,3.53-2.06,6.25-3.89,8.89-.37.53-.73,1.05-1.07,1.58-4.82,3.82-4.67,10.25-6.21,15.91-.26.94-.56,1.87-.94,2.75-2.35,5.27-7.07,9.43-10.82,13.53,2.76-4.06,7.49-8.22,9.66-13.6.28-.7.57-1.41.86-2.13,2.05-5.01,4.37-10.25,6.59-15.3.24-.67.54-1.31.86-1.94,1.29-2.52,2.99-4.89,3.03-7.82.43-1.33.83-2.66,1.19-3.98,4.07-14.38,3.88-28.36-11.38-40.34-4.49-4.1-3.31-9.99-.26-15.54.61-1.11,1.29-2.2,2.02-3.27,8.79-8.25,10.3-18.16,12.75-29.09-11.73,1.53-9.04,17.14-6.51,25.17.02,1.1-.07,2.22-.21,3.34-.74,5.61-3.07,11.46-1.98,17.15,2.72,10.94,8.85,23.94,8.44,35.51-.05,1.29-.17,2.55-.39,3.8-.2,2.63-1.05,5.62-2.54,7.28"/>
  <path class="e" d="M261.01,326.59c4.55,10.91,11.13,25.74,10.62,38.84-.06,1.46-.2,2.89-.45,4.29-1.16,6.38-2.9,11.38-8.55,14.96-.58.49-1.2.96-1.85,1.42s-1.34.9-2.07,1.31c-5.45,3.51-.22,10.16-2.54,14-.15.73-.31,1.4-.49,2.04-.54,1.93-1.2,3.62-1.83,5.87.89-2.01,2.76-4.06,3.47-7.4"/>
  <path class="e" d="M224.83,218.71c-.35-3.53-.53-7.46-1.03-11.72-.07-.99-.13-1.98-.2-2.98-.09-1.5-.2-3.01-.31-4.54-.06-.76-.12-1.53-.18-2.3.3-1.96-.78-3.5-1.4-5.48-.21-.66-.36-1.36-.39-2.15-.09-1.77.85-2.79,2.67-2.26,1.07-.26,2.22,0,3.4.54.79.35,1.58.82,2.37,1.33,3.15,1.76,3.29,4.71,3.43,7.65,8.52-7.28,6.01-18.97.36-26.12-.81-.87-1.32-1.71-1.62-2.51-.02-.86-.09-1.74-.2-2.61.1-.94-.12-1.88-.5-2.71-.37-.83-.9-1.54-1.41-2.01-10.93-2.45-7.6-15.39-1.75-21.09.63-.94,1.2-1.84,1.73-2.71,1.06-1.75,1.99-3.42,2.56-4.94.24-.74.5-1.48.79-2.21,1.43-3.7,3.37-7.42,5.01-11.18.43-.98.84-1.97,1.21-2.96,2.95-3.68,2.72-8.59,6.51-11.72.09,1.96,3.13,3.79,1.97,7,.09.87.13,1.73.16,2.47-.98.13-1.99.32-3.03.57-1.04.25-2.1.55-3.17.91-1.07.36-2.14.77-3.21,1.22-7.67,3.27-14.88,8.91-15.77,14.73-.11.73-.13,1.46-.05,2.2,3.22,9.21-2.31,17.33-5.87,25.37-3.61,7.05,6.16,5.62,10.61,5.04.85-.02,1.67.05,2.42.26,1.03.94,1.07,1.92,1.95,3.19.91.78,1.73,1.62,2.45,2.49,6.52,7.87,5.62,19.06-.2,27.3-2.1-2.85-.32-6.87-4.01-8.25-.86-.41-1.74-.76-2.58-.99-1.27-.34-2.48-.39-3.52.08-1.84.14-2.77,1.17-2.69,3.13.04.98.32,1.7.81,2.15.48.44,1.16.6,2.01.43.97-.17,1.9-.14,2.71.11,5.36,4.41-.17,12.54,3.85,14.32,11.96,3.38,12.84-20.27,21.81-17.73,8.97,2.54-6.33,12.1-9.98,18.17-.85,2.99,4.11,3.75,3.04,6.75.23.97.39,1.95.5,2.92.46,3.91.18,7.83.28,11.7-.17,1.01-.35,2-.54,3-1.13,5.98-2.45,11.97-4.27,17.98-.14-2.94-.27-5.89-.15-8.39"/>
  <path class="e" d="M227.12,478.18c1.45-4.47-3.59-7.18-1.62-10.96.15-.84.3-1.63.51-2.41.21-.78.46-1.54.78-2.29,1.14-2.55,3.95-5.63,2.95-9.04-.03-.73-.13-1.44-.29-2.14-.47-2.11-1.45-4.17-2.67-6.25-.54-.93-1.14-1.86-1.76-2.8-1.33-2.34-2.31-4.87-3.19-7.43-.29-.85-.58-1.71-.86-2.57-3.42-5.27-5.7-12.05-3.03-18.08,1.03.94,1.12,2.9,1.24,3.91"/>
  <path class="e" d="M253.29,406.67c-9.17,5.06-14.61,15.15-13.3,26.21.14.72.33,1.39.57,2.02.25.62.54,1.2.87,1.74.44.72.97,1.38,1.59,1.99.67.83,1.38,1.54,2.14,2.17s1.56,1.17,2.44,1.59c4.19,1.72,7.18,2.56,10.94,4.38.73.3,1.45.6,2.16.92,1.42.64,2.78,1.34,4.07,2.14.85.53,1.67,1.11,2.44,1.75,1.4,1.75,2.89,3.57,4.26,5.42.44.63.88,1.25,1.28,1.89,1.42.91,1.51,2.87,2.07,3.87"/>
  <path class="e" d="M441.72,89.75c.31,4.91-1.02,8.63-3.38,11.61-.59.74-1.24,1.44-1.91,2.16-1.85,17.33-15.91,11.09-28.64,15.26-.89.6-1.74,1.24-2.54,1.91-1.61,1.35-3.03,2.86-4.19,4.59-.47.71-.96,1.53-1.45,2.44s-.98,1.91-1.46,2.97c-3.94,7.14-6.82,15.66-7.39,24-.06.93-.1,1.85-.1,2.77.21,2.52-.54,7.47,1.42,7.38,9.86.53,14.18-12.46,24.98-12.96.98-.05-2.1-2.85-1.16-3.88,7.76-2.33,16.87,3.15,19.15,11.29.26.82.49,1.67.67,2.55.94,4.38.92,9.3,2.11,13.68.51.47,1.26.68,1.95.89.69.21,1.31.41,1.58.87,1.11.5,2.35.84,3.65,1.1,3.91.76,8.43.75,12.13,1.94,1.28.25,2.48.57,3.54,1.04,8.85,3.91,10.4,10.65,8.2,18.49-.37,1.31-.84,2.65-1.39,4-2.02,4.62-4.51,8.85-7.22,12.92-.68,1.02-1.37,2.03-2.07,3.03-.51,2.02-2.43,3.1-4.35,4.17-6.78,2.28-17.76-1.15-20.39,5.86-1.69,5.98,2.51,11.69,6.62,15.43,2.05,1.87,5.71-4.2,4.91-8.1"/>
  <path class="e" d="M420.08,159.63c-2.58,2.08-2.81-2.83-5.76-2.69,2.19,4.82,8.13,5.53,11.96,3.38.09,1.96.14,2.94-.33,4.95-.19.84-.46,1.68-.73,2.54-.8,2.56-1.52,5.17.35,7.79.33.85.65,1.75.86,2.75.22.99.34,2.07.33,3.26-.31,1.03-.87,2.01-1.61,2.8-.73.79-1.63,1.38-2.6,1.67-.61.15-1.24.2-1.87.16-.63-.03-1.27-.14-1.91-.3-2.2-1.55-4.26-3.42-6.31-5.3-.8,3.97-2.63,7.01-2.57,10.77-.05,1.11-.05,2.22,0,3.33,1.86,6.87.26,14.81,3.04,21.16.1.98.17,1.95.21,2.91.18,4.83-.57,9.51-3.38,13.96-.56.89-1.21,1.78-1.95,2.73-1.34.78-1.3,1.76-2.23,2.79.98-.05,2.94-.14,3.99-.83.62-.11,1.24-.23,1.87-.33,2.48-.4,5-.54,7.99.62,1.27.34,2.55.58,3.85.71,5.2.53,10.57-.63,15.38-3.67"/>
  <path class="e" d="M413.63,308.21c-.25-1.7-.39-4.64.11-7.1"/>
  <path class="e" d="M224.04,119.51c-1.3.05-2.24,1.08-3.22,1.12-.41-8.83-2.83-18.56.69-27.58.67-.15,1.36-.31,2.07-.47.71-.16,1.44-.32,2.21-.5,8.72-.35,16.3-6.6,19.89-14.6.02-.94-.14-2.05-.45-3.24-.21.75-.48,1.56-.84,2.3-1.64,2.02-3.51,4.07-6.29,1.76"/>
  <path class="e" d="M300.19,214.23c-.32-.85-1.3-.81-1.34-1.79,2.01.89,4.06,2.76,5.73,2.53,1.01.31,2.04.58,3.07.83,5.18,1.28,10.54,2.28,14.68,6.42.86.71,1.72,1.35,2.63,1.8,4.95.75,8.7-3.35,13.61-3.58-1.35,2.64-2.71,5.15-4.19,7.51-.49.79-1,1.55-1.53,2.31-2.52,3.36-6.31,6.48-5.87,10.91"/>
  <path class="e" d="M189.96,297.75c-2.11,3.45-.95,7.33-.74,9.82.08.91.12,1.83.1,2.77-.04,1.88-.3,3.82-.9,5.93-.26,1.16-.54,2.31-.77,3.46.81,10.24-4.67,19.35-1.01,28.85.31.99.63,1.97.95,2.95,2.89,8.83,6.17,17.49,11.44,25.61.35,1.15.72,2.21,1.15,3.21,2.2,5.28,5.91,8.81,7.96,13.19.34.73.64,1.48.89,2.28,1.57,8.88,8.76,15.44,5.29,25.43-.85,2.99,4.29,7.67,6.18,11.88.32.89.59,1.8.83,2.73.71,2.78,1.06,5.72,1.01,8.81.2,1.01.37,2.01.5,3.01.45,3.34.55,6.71.59,10.28,0,.89.02,1.8.03,2.75.14,1.53.27,3.06.42,4.59.07.76.15,1.53.23,2.31,3.45,6.15,3.81,14.01,10.16,18.02.84.53,1.75,1.02,2.76,1.47-.51-.3-1.04-.61-1.6-.92-3.45-1.79-6.48-3.62-8.58-6.48,4.06,2.76,7.19,6.55,10.85,8.69.8.66,1.6,1.31,2.43,1.94,2.46,1.89,5.07,3.6,8.07,4.83.94.31,1.88.58,2.84.84.95.25,1.91.48,2.88.69.6.22,1.19.43,1.79.64s1.19.41,1.79.61c.9.3,1.8.59,2.71.88,6.28,1.78,13.54,3.99,18.34,8.78.69.69,1.33,1.43,1.91,2.27,1,1.75,3.05,3.62,2.98,5.81"/>
  <path class="e" d="M143.24,120.23c-.99-2.58-4.03-4.41-4.97-3.38-1.83,3.04,1.66,14.68,6.3,8.56,5.62-6.16-2.46-10.71-7.37-10.48-4.91.23-3.61,7.05-2.4,11.92,2.63-7.01,10.66-3.44,12.85,1.37-1.07-1.92-1.16-3.88-2.24-5.8,1.12,2.9.27,5.89-.55,9.37"/>
</svg>