<svg xmlns="http://www.w3.org/2000/svg" viewBox="0 0 2000 1000">
  <path d="M1351.59,75.38l-64.88,83.05-12.84-10.03,55.53-71.08-13.34-10.42,9.35-11.97,26.19,20.46Z"/>
  <path d="M1550.62,556.32c-29.85-10.28-39.83-31.49-32.56-52.58l22.25-64.61,26.44,9.1-21.94,63.71c-3.78,10.99.85,19.73,13.77,24.18s21.51.26,25.29-10.73l21.94-63.71,24.65,8.49-22.25,64.61c-7.16,20.79-27.59,31.87-57.59,21.54Z"/>
  <path d="M394.96,214.13l35.4-22.12,16.23,25.98-84.83,53.01-5.1-8.16,9.52-67.64-35.52,22.19-15.01-24.02,83.22-52,5.1,8.16-9.01,64.61Z"/>
  <path d="M1713.79,237.19l-11.2,21.07-88.24-46.92,11.2-21.07c7.4-13.91,19.18-15.3,32.16-8.39l45.05,23.95c12.98,6.9,18.43,17.45,11.03,31.36ZM1651.86,192.87c-7.42-3.95-12.74-3.21-16.26,3.42l-5,9.41,67.57,35.93,5-9.41c3.52-6.62,1.16-11.45-6.13-15.33l-45.18-24.02Z"/>
  <path d="M594.8,809.9c25.13-22.63,50.18-20.96,66.17-3.2l48.97,54.39-22.26,20.04-48.3-53.64c-8.33-9.25-18.92-9.45-29.8.34-11.13,10.02-11.41,20.01-3.08,29.26l48.3,53.64-20.76,18.69-48.97-54.39c-15.76-17.51-15.53-42.39,9.73-65.13Z"/>
  <path d="M1191.75,808l16.29-15.74-20.72-21.45,32.18-31.07,66.33,68.69-47.85,46.21c-18.25,17.63-37,17.2-48.76,5.03l-2.89-2.99c-11.85-12.27-12.74-31.15,5.41-48.68ZM1218.62,825.7c3.29,3.4,6.43,3.56,10.86-.72l5.26-5.08-12.55-12.99-5.26,5.08c-4.43,4.28-4.19,7.63-1,10.93l2.69,2.78Z"/>
  <path d="M1279.4,562.43l-45.14,32.79,12.3-3.44,45.75-11.58,8.27,11.38-25.42,39.98-7.05,10.46,45.24-32.87,11.68,16.08-66.51,48.32-17.27-23.77,25.91-39.73,5.3-7.82-8.98,2.55-45.74,12.64-17.41-23.97,66.51-48.32,12.55,17.28Z"/>
  <path d="M141.33,581.19l-50.61,19.2-17.11,6.04,66.75,2.33-.42,11.9-100.35-3.5.37-10.7,51.32-17.97,17.24-5.58-67.66-2.36.42-11.9,100.35,3.5-.32,9.04Z"/>
  <path d="M549.73,342.2l47.81,27.6-60.27,104.4-47.81-27.6c-32.6-18.82-38-46.4-24.79-69.28l13.12-22.73c13.12-22.73,39.34-31.21,71.94-12.39ZM492.21,394.05c-7.33,12.7-3.59,24.68,10.67,32.91l18.5,10.68,36.56-63.33-18.5-10.68c-14.26-8.24-26.51-5.48-33.84,7.21l-13.39,23.2Z"/>
  <path d="M836.98,390.92l-38.31,17.87-13.11-28.11,91.81-42.81,4.12,8.83-17.91,66.81,38.44-17.92,12.12,26-90.06,42-4.12-8.83,17.03-63.83Z"/>
  <path d="M1398.75,767.62l22.06,11.73-47.06,88.5-21.66-11.52c-11.3-6.01-14.57-14.91-8.07-27.13l5.86-11.03c4.17-7.84,9.64-11.07,17.07-9.33-6.26-5.54-6.29-12.21-2.26-19.78l6.92-13.02c6.5-12.23,15.85-14.41,27.14-8.41ZM1354.71,835.39c-2.47,4.65-2.1,8.43,2.69,10.97l10.5,5.58,15.54-29.23-9.3-4.95c-5.05-2.68-9.47-1.11-12.43,4.47l-6.99,13.16ZM1375.22,795.85c-2.97,5.58-1.8,10.12,3.25,12.81l9.7,5.16,16.18-30.43-10.9-5.79c-4.65-2.47-8.13-.74-10.53,3.78l-7.7,14.48Z"/>
  <path d="M584.71,575.94l-54.07-6.85-18.07-2.72,58.24,33.63-6,10.39-87.56-50.56,5.39-9.34,54.12,8.28,17.97,3.19-59.03-34.08,6-10.39,87.56,50.56-4.55,7.89Z"/>
  <path d="M995.87,434.05l-4.4-22.61-29.77,5.79-8.68-44.66,95.32-18.53,12.91,66.41c4.92,25.33-5.83,41.09-22.72,44.37l-4.15.81c-17.03,3.31-33.62-6.39-38.52-31.58ZM1025.85,420.95c4.72-.92,6.6-3.51,5.4-9.66l-1.42-7.3-18.03,3.51,1.42,7.3c1.2,6.15,4.19,7.8,8.77,6.91l3.86-.75Z"/>
  <path d="M1871.86,413.4c19.14-22.81,41.18-24.42,57.3-10.9l49.36,41.42-16.95,20.2-48.68-40.85c-8.4-7.05-17.66-5.92-25.94,3.95s-7.5,18.85.9,25.89l48.68,40.85-15.81,18.84-49.36-41.42c-15.89-13.33-18.73-35.06.5-57.98Z"/>
  <path d="M1617.91,628.44l-12.32,8.5,8.62,25.04,15.12-.37,9.52,27.66-97.83-.48-11.15-32.38,76.75-60.74,11.28,32.77ZM1566.17,663.41l27.96-.98-4.92-14.29-23.04,15.27Z"/>
  <path d="M489.62,682.21l-59.39-1.04,12.66,4.95,46.32,19.47-.26,14.98-47.23,17.71-12.69,4.38,59.52,1.04-.37,21.15-87.51-1.53.55-31.27,47.48-17.18,9.52-3.25-9.27-3.58-46.99-18.56.55-31.53,87.51,1.53-.4,22.73Z"/>
  <path d="M1348.72,373.66c17.14,1.8,25.17,14.37,23.49,30.34l-6.4,60.85c-1.66,15.8-12.14,26.59-29.29,24.79s-25.15-14.54-23.49-30.34l6.4-60.85c1.68-15.97,12.14-26.59,29.29-24.79ZM1326.83,462.28c-.79,7.56,2.81,13.72,11.04,14.59s13.04-4.41,13.83-11.97l6.71-63.87c.81-7.73-2.64-13.7-11.04-14.59s-13.02,4.24-13.83,11.97l-6.71,63.87Z"/>
  <path d="M950.04,123.39c32.79,13.25,40.49,33.48,32.7,52.75l-19.58,48.47-37.34-15.09,18.71-46.32c3.29-8.14,2.11-12.79-5.91-16.03s-11.98-.66-15.27,7.47l-18.71,46.32-33.63-13.59,19.58-48.47c7.79-19.27,26.54-28.82,59.45-15.52Z"/>
  <path d="M1492.44,129.01l1.46,6.87,41.94-8.92,2.63,12.39-99.41,21.13-5.14-24.18c-2.7-12.69,2.2-21.22,15.93-24.14l17.02-3.62c8.66-1.84,16.62.37,21.08,8.16-.15.03,40.88-22.73,40.88-22.73l2.82,13.28-39.22,21.75ZM1480.93,127.71c-1.21-5.67-5.16-8.11-11.43-6.78l-17.61,3.74c-5.08,1.08-7.91,3.87-6.77,9.24l2.51,11.79,35.53-7.55-2.22-10.45Z"/>
  <path d="M954.94,785.71l-5.14-5.14-31.41,31.41-9.28-9.28,74.45-74.45,18.11,18.11c9.5,9.5,10.06,19.67-.22,29.96l-12.74,12.74c-6.48,6.48-14.64,9.05-22.92,4.81.11-.11-22.69,42.81-22.69,42.81l-9.95-9.95,21.8-41.02ZM965.67,780.35c4.25,4.25,9.05,4.14,13.75-.56l13.19-13.19c3.8-3.8,4.69-7.82.67-11.85l-8.83-8.83-26.6,26.6,7.82,7.82Z"/>
  <path d="M1927.82,581.39l-50.97-22.69,9.13,8.93,32.9,33.84-5.72,12.86-47.34-2.02-12.58-.87,51.08,22.74-8.08,18.15-75.1-33.44,11.95-26.84,47.36,2.57,9.42.68-6.7-6.5-33.82-33.3,12.05-27.06,75.1,33.44-8.69,19.51Z"/>
  <path d="M799.66,120.45l46.83-4.1,3.01,34.36-112.21,9.82-.94-10.8,44.13-63-46.98,4.11-2.78-31.78,110.09-9.63.94,10.8-42.08,60.22Z"/>
  <path d="M687.43,443.06l3.45,98.93-51.7,1.81-3.45-98.93,51.7-1.81Z"/>
  <path d="M245.93,246.46l-84.23-61.19,52.19-71.83,21.75,15.8-30.32,41.73,12.77,9.28,19.94-27.44,13.41,9.74-19.94,27.44,12.9,9.37,30.32-41.73,23.4,17-52.19,71.83Z"/>
  <path d="M1518.99,252.26c5.57,2.96,10.19,8.01,12.14,11.97,7.55.45,15.45,2.7,23.3,6.87,24.93,13.26,34.19,37.98,22.68,59.62l-7.6,14.3c-11.51,21.64-37.11,27.67-62.04,14.41s-34.13-37.79-22.62-59.43l7.6-14.3c3.36-6.33,7.98-11.34,13.45-14.92-1.28-2.47-2.79-3.92-8.36-6.88l8.41-15.82c3.27-.05,7.09,1.01,13.04,4.17ZM1513.97,319.71c-3.84,7.21-1.96,14.38,5,18.08s13.54,2.33,17.91-5.9l11.1-20.88c4.37-8.23,1.96-14.38-5.12-18.15-2.28-1.21-3.55-1.56-5.35-1.54l1.88,6.84-16,3.83-9.42,17.72Z"/>
  <path d="M1680.35,548.16l47.08-32.69,16.03-10.59-69.18,14.7-2.62-12.34,104-22.11,2.36,11.09-48.12,31.61-16.29,10.15,70.12-14.9,2.62,12.34-104,22.11-1.99-9.37Z"/>
  <path d="M1156.94,914.33l-51.56,14.57-17.39,4.48,65.63,8.06-1.44,11.7-98.66-12.11,1.29-10.52,52.16-13.29,17.49-4.02-66.51-8.17,1.44-11.7,98.66,12.11-1.09,8.89Z"/>
  <path d="M301.47,919.95l5.6-22.48-29.59-7.38,11.07-44.39,94.76,23.63-16.46,66.02c-6.28,25.18-22.77,34.97-39.56,30.79l-4.13-1.03c-16.93-4.22-27.93-20.11-21.69-45.15ZM334.37,920.75c4.69,1.17,7.5-.4,9.03-6.51l1.81-7.26-17.93-4.47-1.81,7.26c-1.53,6.12.5,8.89,5.06,10.03l3.84.96Z"/>
  <path d="M32.51,168.17l98.45,10.35-1.6,15.23-84.26-8.86-1.66,15.82-14.19-1.49,3.26-31.04Z"/>
  <path d="M1603.46,983.26l-99.48-10.46,4.88-46.45,67.52,7.1,5.7-54.22,31.97,3.36-10.58,100.68Z"/>
  <path d="M1074.4,135.89l6.74-42.56-42.89-6.79-6.74,42.56-28.75-4.55,17.14-108.19,28.75,4.55-6.97,44.02,42.89,6.79,6.97-44.02,28.75,4.55-17.14,108.19-28.75-4.55Z"/>
  <path d="M628.38,684l9.37,5.86,20.13-32.22,22.72,14.2-53.42,85.49-44.54-27.83c-19.25-12.03-22.88-28.22-14.06-42.34l3.45-5.52c6.9-11.04,17.89-14.35,32.06-9.6l-.5-48.33,25.29,15.8-.49,44.49ZM611.76,692.89c-7.57-4.73-13.17-3.77-16.62,1.75l-3.45,5.52c-3.13,5.01-2.21,10.4,5.49,15.21l17.71,11.07,14.2-22.72-17.33-10.83Z"/>
  <path d="M453.91,100.59l-1.39-79.59,28.44-.5,1.01,57.6,39.43-.69.38,21.99-67.88,1.18Z"/>
  <path d="M1394.18,981.75c-7.06-3.6-9.14-10.22-5.14-18.08l3.15-6.18,7.95,4.05-3.51,6.89c-1.08,2.12-.83,4.03,1.2,5.06s3.59.16,4.71-2.05c2.7-5.3,2.69-10.53,2.27-18.2-.65-7.23-1.19-17.74,2.27-24.53,3.73-7.33,10.54-11.31,18.49-7.26,6.18,3.15,8.04,9.77,4.08,17.54l-3.28,6.45-7.86-4,3.73-7.33c.99-1.94.47-3.54-.94-4.26-1.5-.76-3.23-.42-4.27,1.61-3.46,6.8-2.65,10.22-2.27,18.64.51,8.6.84,17.56-2.67,24.44-4.68,9.18-12.17,10.14-17.91,7.22Z"/>
  <path d="M947.44,258.66l12.99,22.5,22.67-13.09-12.99-22.5,15.2-8.77,33.01,57.18-15.2,8.77-13.43-23.27-22.67,13.09,13.43,23.27-15.2,8.77-33.01-57.18,15.2-8.77Z"/>
  <path d="M1220.26,292.12l3.41,1.52,10.64-23.9,9.5,4.23-27.36,61.46-12.92-5.75c-4.89-2.18-8.64-7.16-4.98-15.38l6.94-15.6c3.62-8.12,9.87-8.76,14.76-6.59ZM1207.81,318.09c-.82,1.85-.6,2.83.51,3.32l2.49,1.11,9.29-20.85-2.49-1.11c-1.11-.49-1.99,0-2.81,1.84l-6.98,15.69Z"/>
  <path d="M1921.27,924.27l33.75,11.77,11.22,4.21-32.78-29.51,5.26-5.85,49.28,44.37-4.73,5.25-33.59-12.69-11.09-4.49,33.22,29.91-5.26,5.85-49.28-44.37,4-4.44Z"/>
  <path d="M1093.84,740.84l7.65-1.08-3.7-26.3,18.55-2.61,9.81,69.79-36.36,5.11c-15.72,2.21-24.94-4.83-26.56-16.36l-.63-4.51c-1.27-9.01,3.13-15.72,12.85-19.54l-21.98-25.65,20.64-2.9,19.73,24.05ZM1088.93,753.07c-6.18.87-8.75,3.9-8.12,8.41l.63,4.51c.57,4.09,3.49,6.56,9.77,5.68l14.46-2.03-2.61-18.55-14.15,1.99Z"/>
  <path d="M245.84,338.63l-9.26,1.23-2.96,15.2,8.03,5.06-4.43,22.77-45.6-31.72,5.21-26.81,54.25-12.77-5.26,27.04ZM214.48,342.8l8.65,5.49,1.34-6.89-9.99,1.4Z"/>
  <path d="M936.55,910.92l-1.41-4.34-26.5,8.61-2.54-7.83,62.8-20.4,4.96,15.28c2.6,8.01.02,13.86-8.65,16.68l-10.75,3.49c-5.47,1.78-10.76.89-14.17-3.84.09-.03-24.87,17.46-24.87,17.46l-2.73-8.39,23.86-16.72ZM944.08,910.98c1.16,3.58,3.88,4.89,7.84,3.6l11.13-3.62c3.21-1.04,4.85-3.04,3.75-6.43l-2.42-7.45-22.44,7.29,2.14,6.6Z"/>
  <path d="M306.85,582.4l-5.36,76.72-11.86-.83,4.59-65.66-12.33-.86.77-11.06,24.19,1.69Z"/>
  <path d="M1473.75,701.2l-2.23,4.06c6.3-.12,12.79,2.63,18.03,7.18,13.25,11.52,17.35,28.76,6.86,40.82l-.59.68c-10.34,11.89-28.93,10.3-44.12-2.9-9.44-8.21-15.02-16.15-18.35-24.04l15.57-5.84c2.59,5.64,5.46,10.04,9.89,13.89,6.26,5.44,13.31,5.37,17.56.48l.3-.34c3.81-4.38,3.24-10.27-1.94-14.77-2.96-2.57-6.44-3.4-9.32-2.61l-.2.23,8.99,7.81-5.84,6.71-23.61-20.52,17.85-20.54,11.15,9.69Z"/>
  <path d="M314.63,347.81c-19.16-3.04-27.46-14.81-25.32-28.35l6.57-41.48,16.97,2.69-6.48,40.9c-1.12,7.06,2.62,11.85,10.91,13.16s13.04-2.14,14.16-9.19l6.48-40.9,15.83,2.51-6.57,41.48c-2.11,13.35-13.29,22.23-32.55,19.18Z"/>
  <path d="M852.34,217.74l-25.66,4.06,4.09,25.85,25.66-4.06,2.75,17.33-65.22,10.33-2.75-17.33,26.54-4.2-4.09-25.85-26.54,4.2-2.75-17.33,65.22-10.33,2.75,17.33Z"/>
  <path d="M96.44,716.28c8.72-1.85,15.22,2.46,17.29,12.17l1.62,7.63-9.81,2.09-1.81-8.5c-.56-2.62-2.13-4.11-4.63-3.57s-3.25,2.4-2.67,5.13c1.39,6.54,5.1,11.11,10.9,17.51,5.69,5.86,13.6,14.66,15.38,23.05,1.92,9.05-1.21,17.35-11.02,19.44-7.63,1.62-13.94-2.85-15.98-12.44l-1.69-7.96,9.7-2.06,1.92,9.05c.51,2.4,2.1,3.43,3.84,3.06,1.85-.39,3.12-1.92,2.59-4.43-1.78-8.4-4.92-10.81-11.21-17.9-6.54-7.16-13.16-14.75-14.97-23.26-2.41-11.34,3.46-17.49,10.55-18.99Z"/>
  <path d="M1925,96.89l19.29-19.29-19.43-19.43-19.29,19.29-13.03-13.03,49.02-49.02,13.03,13.03-19.95,19.95,19.43,19.43,19.95-19.95,13.03,13.03-49.02,49.02-13.03-13.03Z"/>
  <path d="M104.15,70.71l-64.47,14.88-5.32-23.04,46.66-10.77-7.38-31.95,17.81-4.11,12.69,54.98Z"/>
  <path d="M412.07,551.76l-29.8,9.11-19.89-65.07,29.8-9.11c20.32-6.21,33.78,2.17,38.14,16.44l4.33,14.17c4.33,14.17-2.26,28.25-22.58,34.47ZM412.81,508.05c-2.42-7.91-8.81-10.98-17.7-8.26l-11.53,3.52,12.07,39.47,11.53-3.52c8.89-2.72,12.47-8.83,10.05-16.75l-4.42-14.46Z"/>
  <path d="M1625.92,96.24l11.58,26.02-19.09,8.5-27.76-62.35,6-2.67,44.8,12.85-11.62-26.1,17.66-7.86,27.23,61.16-6,2.67-42.8-12.23Z"/>
  <path d="M1102.51,262.51l-15.63-14.07,2.47,4.43,8.26,15.08-11.72,13.02-15.82-6.68-4.67-2,15.63,14.07-11.6,12.89-29-26.11,19.21-21.33,14.89,6.31,2.93,1.38-1.68-2.77-7.84-14.15,18.58-20.64,29,26.11-13.02,14.46Z"/>
  <path d="M898.35,546.53l19.51,20.2-14.82,14.31-46.74-48.4,4.66-4.5,45.84-3.2-19.57-20.27,13.71-13.24,45.86,47.49-4.66,4.5-43.77,3.1Z"/>
  <path d="M1162.07,688.21c1.06-10.05,5.42-17.36,11.11-23.11l8.12,8.69c-4.65,4.66-7.93,11.02-8.45,15.91-.43,4.12.96,5.61,2.92,5.81,6.14.65,6.3-26.37,22.15-24.71,8.03.84,14.22,9.75,12.86,22.67-1.01,9.56-5.52,16.29-11.02,20.86l-6.62-9.59c3.78-3.77,6.38-8.29,6.83-12.62.36-3.42-.71-5.37-2.52-5.56-6.21-.65-7.04,26.65-22.11,25.06-8.73-.92-14.59-10.92-13.28-23.42Z"/>
  <path d="M1856.01,682.83l-9.7,1.2-3.32,15.61,8.35,5.11-2.33,10.96-40.7-26,2.51-11.82,47.8-7.4-2.63,12.35ZM1821.71,686.78l14.26,8.65,2.24-10.56-16.51,1.91Z"/>
  <path d="M1225.09,81.48l-65.5,5.73-2.68-30.59,44.45-3.89-3.12-35.7,21.05-1.84,5.8,66.29Z"/>
  <path d="M755.61,772.99l16.76-9.67-4.58.9-15.54,2.94-8.06-13.96,10.34-11.95,3.07-3.52-16.76,9.67-7.98-13.82,31.09-17.95,13.2,22.87-9.76,11.23-2.04,2.17,2.9-.68,14.61-2.83,12.77,22.12-31.09,17.95-8.95-15.5Z"/>
  <path d="M927.54,38.58c14.69-5.93,23.46-1.81,26.95,6.82l8.77,21.71-16.72,6.76-8.38-20.74c-1.47-3.64-3.3-4.78-6.89-3.33s-4.07,3.51-2.59,7.16l8.38,20.74-15.06,6.09-8.77-21.71c-3.49-8.63-.41-17.54,14.33-23.5Z"/>
  <path d="M461.3,289.35l6.23,19.18-41.89,13.61-6.23-19.18c-4.25-13.08,1.02-21.89,10.21-24.87l9.12-2.96c9.12-2.96,18.31,1.14,22.56,14.22ZM433,289.36c-5.09,1.66-7.01,5.82-5.15,11.55l2.41,7.42,25.41-8.26-2.41-7.42c-1.86-5.72-5.86-7.97-10.95-6.31l-9.31,3.02Z"/>
  <path d="M1211.03,952.1l4.83.08.29-16.6,11.7.2-.77,44.04-22.94-.4c-9.92-.17-14.92-5.42-14.79-12.69l.05-2.84c.1-5.69,3.47-9.4,9.84-10.81l-11.06-17.98,13.03.23,9.83,16.77ZM1206.81,959.17c-3.9-.07-5.78,1.55-5.83,4.4l-.05,2.84c-.05,2.58,1.51,4.39,5.48,4.46l9.12.16.2-11.7-8.93-.16Z"/>
  <path d="M191.82,83.2c-5.4-3.64-6.43-9.25-2.38-15.26l3.19-4.73,6.08,4.1-3.55,5.27c-1.09,1.62-1.08,3.2.47,4.25s2.91.49,4.05-1.2c2.73-4.05,3.25-8.32,3.67-14.62.19-5.96.8-14.59,4.31-19.79,3.78-5.6,9.74-8.17,15.81-4.07,4.73,3.19,5.58,8.77,1.57,14.71l-3.32,4.93-6.01-4.05,3.78-5.6c1-1.49.74-2.84-.34-3.57-1.15-.77-2.59-.67-3.64.88-3.51,5.2-3.18,8.07-3.72,14.98-.44,7.07-1.07,14.41-4.62,19.67-4.74,7.02-10.95,7.06-15.34,4.1Z"/>
  <path d="M803.65,522.48c7.44-5.21,14.97-6.56,22.23-6.09l-1.1,10.63c-5.91-.41-12.16,1.12-15.78,3.65-3.05,2.14-3.24,3.96-2.22,5.41,3.18,4.55,21.61-11.28,29.82.46,4.16,5.94,1.77,15.4-7.79,22.09-7.08,4.96-14.31,5.86-20.65,4.83l2.6-10.14c4.79.35,9.39-.56,12.59-2.81,2.53-1.77,3.22-3.64,2.28-4.99-3.22-4.6-22.23,10.94-30.04-.22-4.52-6.46-1.2-16.34,8.06-22.82Z"/>
  <path d="M30.78,293.27l10.69,1.31,2.39-7.82-9.57-4.95,1.6-5.23,41.6,21.78-1.78,5.83-46.64-5.28,1.72-5.63ZM66.42,298.01l-17.93-8.89-1.86,6.1,19.8,2.79Z"/>
  <path d="M1939.94,156.02l11.42,1.2,1.58-15.03,22.55,2.37-5.06,48.13-33.53-3.52c-12.79-1.34-18.73-8.76-17.84-17.29l.22-2.1c.9-8.6,7.94-15.09,20.66-13.76ZM1941.82,172.22c-.25,2.38.71,3.65,3.82,3.98l3.69.39.96-9.11-3.69-.39c-3.11-.33-4.33.86-4.57,3.17l-.21,1.95Z"/>
  <path d="M371.64,808.27c7.6-13.71,16.91-16,24.97-11.53l20.26,11.23-8.65,15.61-19.36-10.73c-3.4-1.89-5.51-1.62-7.37,1.73s-.94,5.23,2.46,7.12l19.36,10.73-7.79,14.06-20.26-11.23c-8.05-4.46-11.24-13.23-3.61-26.99Z"/>
  <path d="M1114.41,550.42l-2.36,19.22-14.1-1.73,5.65-46.05,4.43.54,21.6,23.17,2.37-19.28,13.04,1.6-5.55,45.18-4.43-.54-20.66-22.11Z"/>
  <path d="M641.48,971.07l24.84-36.82,17.19,11.6-16.86,24.99,20.07,13.54-7.98,11.83-37.26-25.13Z"/>
  <path d="M1928.78,706.86l-9.22-12.24,51.26-38.63,9.22,12.24c6.09,8.08,3.7,15.32-3.85,21l-26.17,19.72c-7.54,5.68-15.16,5.99-21.25-2.09ZM1971.38,682.84c4.31-3.25,5.32-6.55,2.42-10.4l-4.12-5.47-39.26,29.58,4.12,5.47c2.9,3.85,6.35,3.78,10.58.59l26.25-19.78Z"/>
  <path d="M125.37,49.5l5.32-3.2-2.11-9.92-6.17-.81-1.48-6.96,30.34,4.58,1.6,7.51-25.83,16.65-1.67-7.85ZM144.25,38.34l-10.52-1.34,1.43,6.71,9.09-5.37Z"/>
  <path d="M1606.42,405.78l-1.55-1.72-12.02,10.82-4.3-4.78,30.91-27.83,5.85,6.5c2.21,2.46,3.08,6.22-1.05,9.94l-7.84,7.06c-4.08,3.68-7.78,2.47-10,0ZM1619.98,394.24c.93-.84,1.05-1.45.55-2.01l-1.13-1.25-10.49,9.45,1.13,1.25c.5.56,1.12.5,2.05-.33l7.89-7.1Z"/>
  <path d="M1432.13,387.02l15.59-11.75-4.28,1.28-15.94,4.33-2.96-3.93,8.65-14.14,2.4-3.7-15.62,11.77-4.18-5.55,22.97-17.31,6.19,8.21-8.82,14.06-1.81,2.77,3.12-.95,15.93-4.7,6.24,8.28-22.97,17.31-4.5-5.97Z"/>
  <path d="M1591.85,172.9c3.23,9.94.11,15.53-5.73,17.43l-14.69,4.77-3.68-11.32,14.04-4.56c2.47-.8,3.3-1.95,2.51-4.38s-2.13-2.84-4.59-2.04l-14.04,4.56-3.31-10.2,14.69-4.77c5.84-1.9,11.57.53,14.81,10.51Z"/>
  <path d="M37.15,858.35l-.89,1.37,9.58,6.22-2.47,3.81-24.64-16,3.36-5.18c1.27-1.96,3.68-3.24,6.97-1.1l6.25,4.06c3.26,2.11,3.1,4.86,1.83,6.82ZM26.8,851.21c-.74-.48-1.18-.45-1.47,0l-.65,1,8.36,5.43.65-1c.29-.44.14-.86-.6-1.34l-6.29-4.08Z"/>
  <path d="M867.95,958.89l-.5,1.75,12.25,3.51-1.4,4.87-31.51-9.03,1.9-6.62c.72-2.51,2.87-4.65,7.08-3.45l7.99,2.29c4.16,1.19,4.9,4.17,4.18,6.68ZM854.58,954.65c-.95-.27-1.41-.1-1.57.47l-.37,1.28,10.69,3.07.37-1.28c.16-.57-.13-.96-1.08-1.23l-8.04-2.31Z"/>
  <path d="M47.52,684.81l-8.28,10.6-23.15-18.09,8.28-10.6c5.65-7.23,12.48-7.6,17.56-3.63l5.04,3.94c5.04,3.94,6.2,10.55.55,17.78ZM36.96,669.17c-2.82-2.2-5.83-1.7-8.3,1.46l-3.2,4.1,14.04,10.97,3.2-4.1c2.47-3.16,2.22-6.21-.59-8.41l-5.14-4.02Z"/>
  <path d="M1525.21,212.25c2.23-8.34,7.83-11.46,13.72-9.88l18.05,4.84-1.98,7.38-17.8-4.77c-3.07-.82-5.36.61-6.33,4.22s.34,5.87,3.41,6.69l17.8,4.77-1.85,6.89-18.05-4.84c-5.81-1.56-9.22-6.92-6.97-15.3Z"/>
  <path d="M1951.08,843.97c-4.78-7.64-3.18-14.14,2.22-17.51l16.54-10.34,4.23,6.77-16.31,10.19c-2.81,1.76-3.36,4.53-1.29,7.84s4.72,3.92,7.54,2.16l16.31-10.19,3.94,6.31-16.54,10.34c-5.32,3.33-11.84,2.11-16.64-5.57Z"/>
  <path d="M1014.56,855.51c4.34.23,6.52,3.28,6.31,7.32l-.81,15.39c-.21,4-2.7,6.85-7.04,6.62s-6.52-3.33-6.31-7.32l.81-15.39c.21-4.04,2.7-6.85,7.04-6.62ZM1010.22,878.09c-.1,1.91.89,3.41,2.97,3.52s3.22-1.28,3.32-3.19l.85-16.16c.1-1.96-.84-3.41-2.97-3.52s-3.22,1.24-3.32,3.19l-.85,16.16Z"/>
  <path d="M343.45,726.28c-9.25-.48-13.72-5.59-13.42-11.49l.97-18.58,10.28.54-.95,18.11c-.12,2.24,1.27,3.69,3.9,3.83s4.16-1.16,4.28-3.4l.95-18.11,9.25.48-.97,18.58c-.31,5.89-4.99,10.52-14.29,10.03Z"/>
  <path d="M1584.67,786.2c17.53-3.09,26.21,3.49,28.03,13.79l4.57,25.91-19.96,3.52-4.37-24.76c-.77-4.35-2.51-6.02-6.8-5.27s-5.29,2.91-4.53,7.26l4.37,24.76-17.98,3.17-4.57-25.91c-1.82-10.3,3.64-19.38,21.24-22.48Z"/>
  <path d="M161.11,306.46l-6.28-4.47-10.6,8.58,2.84,7.25-11.71,9.48-17-47.43,13.71-11.1,42.91,26.44-13.87,11.23ZM135.07,287.58l5.4,13.36,6.05-4.9-11.45-8.46Z"/>
  <path d="M608.22,343.34l7.52,4.88-1.34-1.7-4.48-5.8,4.07-6.26,7.11,1.76,2.1.53-7.52-4.88,4.03-6.2,13.95,9.06-6.67,10.27-6.69-1.67-1.33-.39.89,1.06,4.24,5.44-6.45,9.93-13.95-9.06,4.52-6.96Z"/>
  <path d="M593.26,955.41l31.26,10.16-10.26,31.59-9.34-3.03,5.51-16.94-3.38-1.1-3.46,10.65-5.21-1.69,3.46-10.65-3.29-1.07-5.51,16.94-10.04-3.26,10.26-31.59Z"/>
  <path d="M422.43,593.68l30.44,12.92-6.75,15.91-30.44-12.92,6.75-15.91Z"/>
  <path d="M17.61,503.86l-12.72-26.09,12.18-5.94,8.64,17.71,14.22-6.94,4.09,8.38-26.4,12.88Z"/>
  <path d="M1870.02,365.14c-9.39-4.79-11.69-12.17-8.64-18.16l9.62-18.88,10.44,5.32-9.37,18.4c-1.16,2.27-.38,4.43,2.28,5.79s4.86.72,6.02-1.56l9.37-18.4,9.39,4.79-9.62,18.88c-3.05,5.99-10.07,8.63-19.5,3.82Z"/>
  <path d="M380.09,463.84l-24.06-16.85,2.61-3.72,20.59,14.42,2.71-3.87,3.47,2.43-5.31,7.59Z"/>
  <path d="M1450.06,464.48l1.74,1.86c1.01-3.32,3.55-6.25,6.83-8.22,8.29-4.98,18.01-4.19,22.54,3.35l.26.43c4.47,7.43.47,16.9-9.02,22.61-5.9,3.55-11.01,5.12-15.71,5.52l-.41-9.14c3.39-.39,6.18-1.15,8.96-2.82,3.91-2.35,5.08-6.05,3.24-9.11l-.13-.21c-1.65-2.74-4.83-3.44-8.06-1.5-1.85,1.11-2.87,2.79-2.95,4.44l.09.14,5.62-3.38,2.52,4.2-14.76,8.87-7.71-12.84,6.97-4.19Z"/>
  <path d="M1963.95,774.46c7.96-6.22,15.29-5.21,19.25-.15l12.49,15.98-8.84,6.91-12.17-15.58c-1.5-1.92-3.69-2.13-5.94-.36s-2.59,3.93-1.09,5.85l12.17,15.58-7.96,6.22-12.49-15.98c-3.96-5.07-3.42-12.23,4.58-18.47Z"/>
  <path d="M1939.07,343.27l-34.93-11.35,11.47-35.3,10.44,3.39-6.15,18.93,3.78,1.23,3.87-11.91,5.82,1.89-3.87,11.91,3.67,1.19,6.15-18.93,11.22,3.65-11.47,35.3Z"/>
  <path d="M609.01,307.76l-3.63-4.89-10.05,3.86.36,6.14-11.1,4.26-1.19-39.75,13-4.99,25.76,30.32-13.15,5.05ZM594.07,287.24l.79,11.35,5.74-2.2-6.53-9.14Z"/>
  <path d="M552.9,60.44l3.03-28.87,13.48,1.42-2.06,19.59,15.73,1.65-.97,9.28-29.21-3.07Z"/>
  <path d="M770.04,433.39c-1.49,4.08-5.05,5.28-8.85,3.89l-14.48-5.27c-3.76-1.37-5.76-4.59-4.27-8.67s5.09-5.26,8.85-3.89l14.48,5.27c3.8,1.38,5.76,4.59,4.27,8.67ZM749.71,422.63c-1.8-.66-3.52-.15-4.24,1.81s.28,3.46,2.08,4.11l15.2,5.53c1.84.67,3.51.19,4.24-1.81s-.24-3.44-2.08-4.11l-15.2-5.53Z"/>
  <path d="M1672.2,974.12l-4.21-9.92-13.06,5.54-8.32-19.59,41.82-17.75,12.37,29.13c4.72,11.11,1.33,19.37-6.08,22.51l-1.82.77c-7.47,3.17-16.01.35-20.7-10.7ZM1684.65,965.2c2.07-.88,2.68-2.25,1.53-4.95l-1.36-3.2-7.91,3.36,1.36,3.2c1.15,2.7,2.68,3.16,4.69,2.31l1.7-.72Z"/>
  <path d="M1768.65,712.04l-6.56,11.84,11.93,6.61,6.56-11.84,8,4.43-16.68,30.09-8-4.43,6.79-12.24-11.93-6.61-6.79,12.24-8-4.43,16.68-30.09,8,4.43Z"/>
  <path d="M1453.26,217.8c4.87,0,7.5,3.29,7.5,7.83v17.29c0,4.49-2.63,7.83-7.5,7.83s-7.5-3.34-7.5-7.83v-17.29c0-4.54,2.63-7.83,7.5-7.83ZM1449.73,243.35c0,2.15,1.19,3.77,3.53,3.77s3.53-1.62,3.53-3.77v-18.15c0-2.2-1.15-3.77-3.53-3.77s-3.53,1.58-3.53,3.77v18.15Z"/>
  <path d="M553.88,936.15l1.08-3.32-11.42-3.71,2.62-8.05,30.3,9.85-5.13,15.79c-2.22,6.82-6.9,9.17-11.91,7.55l-1.96-.64c-3.91-1.27-5.77-4.39-5.39-9.1l-14.78,3.85,2.91-8.96,13.68-3.25ZM557.88,940.56c-.87,2.68-.15,4.33,1.81,4.96l1.96.64c1.77.58,3.36-.12,4.24-2.85l2.04-6.28-8.05-2.62-2,6.14Z"/>
  <path d="M41.17,349.14l8.11,3.44-14.42,33.97-8.11-3.44c-5.36-2.27-6.24-6.56-4.12-11.56l7.36-17.34c2.12-5,5.82-7.34,11.18-5.07ZM26.87,373.34c-1.21,2.86-.77,4.79,1.78,5.87l3.62,1.54,11.04-26.01-3.62-1.54c-2.55-1.08-4.25-.06-5.44,2.75l-7.38,17.39Z"/>
  <path d="M1354.55,673.25l-12.07,9.43,9.5,12.16,12.07-9.43,6.37,8.15-30.67,23.97-6.37-8.15,12.48-9.75-9.5-12.16-12.48,9.75-6.37-8.15,30.67-23.97,6.37,8.15Z"/>
  <path d="M167.03,523.41l-2.16.34,2.09,13.21-3.9.62-4.96-31.3,7.61-1.21c4-.63,6.57,1.03,7.26,5.36l.85,5.36c.43,2.73-.39,5.17-2.88,6.43,0-.05,6.41,13.1,6.41,13.1l-4.18.66-6.13-12.57ZM167.62,519.85c1.79-.28,2.61-1.47,2.3-3.45l-.88-5.55c-.25-1.6-1.07-2.53-2.77-2.26l-3.71.59,1.77,11.19,3.29-.52Z"/>
  <path d="M1697.81,615.97l-4.28-1.18-4.05,6.74,2.97,3.37-4.47,7.44-18.55-22.33,5.23-8.71,28.45,5.86-5.3,8.82ZM1679.99,610.88l5.56,6.17,2.31-3.84-7.87-2.33Z"/>
  <path d="M509.02,234.24l11.02,1.94-7.8,44.22-10.82-1.91c-5.64-1-8.27-4.33-7.2-10.44l.97-5.51c.69-3.92,2.57-6.05,5.98-6.34-3.43-1.5-4.37-4.33-3.7-8.12l1.15-6.51c1.08-6.11,4.76-8.34,10.4-7.34ZM499.64,269.21c-.41,2.32.27,3.88,2.66,4.3l5.25.92,2.58-14.61-4.65-.82c-2.52-.44-4.19.84-4.68,3.62l-1.16,6.57ZM502.9,249.53c-.49,2.79.63,4.56,3.16,5.01l4.85.85,2.68-15.2-5.44-.96c-2.32-.41-3.57.81-3.96,3.07l-1.28,7.24Z"/>
  <path d="M456.64,156.13l4.39-2.59-1.76-8.26-5.11-.83-2.63-12.38,29.66,6.21,3.1,14.58-24.52,17.98-3.12-14.7ZM471.49,147.35l-5.51-.91.8,3.75,4.72-2.83Z"/>
  <path d="M268.98,39.96l-1.61-5.99-10.11-.71-2.47,5.71-7.1-.5,12.76-27.91,7.66.54,8.88,29.42-8-.56ZM263.46,18.73l-4.18,9.74,6.84.48-2.66-10.22Z"/>
  <path d="M686.29,197.19l1.99-2.55-8.77-6.85,4.83-6.18,23.26,18.17-9.47,12.12c-4.09,5.24-8.92,5.8-12.76,2.8l-1.5-1.17c-3-2.35-3.63-5.65-1.81-9.63l-14.09-1.33,5.38-6.88,12.94,1.51ZM688.37,202.3c-1.61,2.06-1.5,3.72,0,4.89l1.5,1.17c1.36,1.06,2.96.96,4.6-1.13l3.77-4.82-6.18-4.83-3.68,4.72Z"/>
  <path d="M1439.17,55.52l-3.06-3.22-6.94,3.69.81,4.42-7.66,4.08-4.4-28.69,8.97-4.77,21.36,19.67-9.08,4.83ZM1426.52,41.98l1.58,8.15,3.96-2.11-5.54-6.05Z"/>
  <path d="M824.65,988.34l-28.98,8.86-8.95-29.29,8.66-2.65,4.8,15.71,3.13-.96-3.02-9.88,4.83-1.48,3.02,9.88,3.05-.93-4.8-15.71,9.31-2.85,8.95,29.29Z"/>
  <path d="M878.17,11.71l18.69,27.71-28,18.89-5.58-8.28,15.02-10.13-2.02-3-9.44,6.37-3.12-4.62,9.44-6.37-1.96-2.91-15.02,10.13-6.01-8.9,28-18.89Z"/>
  <path d="M1468.47,840.74c3.83-2.68,7.85-1.93,10.83,2.33l2.35,3.35-4.31,3.02-2.61-3.73c-.8-1.15-1.87-1.55-2.97-.78s-1.08,1.82-.24,3.02c2.01,2.87,4.73,4.32,8.85,6.22,3.94,1.66,9.56,4.29,12.14,7.97,2.78,3.97,2.97,8.62-1.34,11.64-3.35,2.35-7.31,1.48-10.26-2.73l-2.45-3.49,4.26-2.98,2.78,3.97c.74,1.05,1.71,1.22,2.48.69.81-.57,1.11-1.57.34-2.67-2.58-3.69-4.59-4.21-9.08-6.34-4.62-2.11-9.37-4.42-11.99-8.15-3.48-4.98-1.91-9.15,1.2-11.32Z"/>
</svg>